<svg width="21" height="22" viewBox="0 0 21 22" fill="none" xmlns="http://www.w3.org/2000/svg">
<path d="M11.5608 11L20.4055 2.15527C20.6985 1.8623 20.6985 1.38757 20.4055 1.0946C20.1125 0.801636 19.6378 0.801636 19.3448 1.0946L10.5001 9.93933L1.65539 1.09472C1.36242 0.801753 0.887695 0.801753 0.594727 1.09472C0.301758 1.38769 0.301758 1.86242 0.594727 2.15539L9.43945 11L0.594727 19.8447C0.301758 20.1377 0.301758 20.6124 0.594727 20.9054C0.741211 21.0519 0.933164 21.1251 1.125 21.1251C1.31684 21.1251 1.50879 21.0519 1.65527 20.9054L10.5001 12.0607L19.3448 20.9054C19.4913 21.0519 19.6833 21.1251 19.8751 21.1251C20.067 21.1251 20.2589 21.0519 20.4054 20.9054C20.6984 20.6124 20.6984 20.1377 20.4054 19.8447L11.5608 11Z" fill="#CED3D6"/>
</svg>
