<svg width="52" height="52" viewBox="0 0 52 52" fill="none" xmlns="http://www.w3.org/2000/svg">
<path d="M13.5001 1.56836C13.5001 1.88147 13.2456 2.13591 12.9325 2.13591H2.421C2.26405 2.13591 2.13644 2.26353 2.13644 2.42047V12.932C2.13644 13.2451 1.882 13.4995 1.56889 13.4995C1.25499 13.4995 1.00055 13.2451 1.00055 12.932V1.5684C1.00055 1.2545 1.25499 1.00006 1.56889 1.00006H12.9325C13.2456 1.00006 13.5001 1.25446 13.5001 1.56836ZM50.4317 13.4995C50.1186 13.4995 49.8641 13.2451 49.8641 12.932V2.42045C49.8641 2.2635 49.7365 2.13589 49.5796 2.13589H39.0681C38.755 2.13589 38.5005 1.88145 38.5005 1.56834C38.5005 1.25444 38.755 1 39.0681 1H50.4317C50.7456 1 51 1.25444 51 1.56834V12.9319C51 13.245 50.7456 13.4995 50.4317 13.4995ZM1.5683 38.4994C1.88141 38.4994 2.13585 38.7538 2.13585 39.0669V49.5785C2.13585 49.7354 2.26347 49.863 2.42041 49.863H12.9319C13.245 49.863 13.4995 50.1175 13.4995 50.4306C13.4995 50.7445 13.245 50.9989 12.9319 50.9989H1.56834C1.25445 50.9989 1 50.7445 1 50.4306V39.067C1 38.7539 1.2544 38.4994 1.5683 38.4994ZM49.5794 49.863C49.7364 49.863 49.864 49.7354 49.864 49.5784V39.0669C49.864 38.7538 50.1184 38.4993 50.4315 38.4993C50.7454 38.4993 50.9999 38.7538 50.9999 39.0669V50.4305C50.9999 50.7444 50.7454 50.9988 50.4315 50.9988H39.068C38.7549 50.9988 38.5004 50.7444 38.5004 50.4305C38.5004 50.1174 38.7549 49.8629 39.068 49.8629L49.5794 49.863Z" fill="white" stroke="white" stroke-width="0.5"/>
</svg>
