<svg width="52" height="49" viewBox="0 0 52 49" fill="none" xmlns="http://www.w3.org/2000/svg">
<path d="M50.9931 12.5594V24.1553L50.6582 24.4259V28.1653C42.1329 34.946 33.6142 41.7191 25.088 48.4926C17.0609 41.8685 9.02679 35.2449 1 28.6138V16.8899C7.65946 11.5909 14.3189 6.2989 20.9788 1L22.4816 2.23946V13.9634L21.3349 14.8749V14.6613L20.9646 14.3549L10.1455 22.9591L25.0246 35.2028L41.4064 22.1756L35.9291 17.6529L30.4306 22.0262L30.3451 21.9192L30.2596 22.0189L25.6442 18.2084L25.7297 18.1087H25.5942V6.57725L26.6767 5.69418L30.3663 8.73556L35.9503 4.29106L38.258 6.19999L40.9076 4.099C44.2908 6.89099 47.6098 9.76142 51 12.5534L50.9931 12.5594ZM5.17444 31.7115V22.0753L5.16715 22.068L5.17444 22.0537V22.0395L5.18173 22.0468L5.33841 21.8616L9.99659 25.8503V35.6935L24.9538 48.0372V36.7907L1.27108 17.2469V28.4934L5.17433 31.72L5.17444 31.7115ZM6.05751 22.8299V25.9068L7.90216 24.4039L6.05751 22.8299ZM6.05751 26.2559V31.1846L5.2811 31.8044L9.73255 35.4725V25.9711L8.10854 24.5822L6.05724 26.2559L6.05751 26.2559ZM48.2444 25.3798L39.2128 32.4523V26.8326L48.1587 19.7173L48.2444 25.3798ZM39.4833 30.9425L41.3991 29.4182L45.8721 25.864L43.4147 23.8342L39.483 26.961V30.9425L39.4833 30.9425ZM46.5985 18.051L48.5571 16.4912L46.5985 14.8745V18.051ZM42.4888 21.3203L46.3351 18.2647V14.6536L42.4888 11.484V21.3271V21.3203ZM46.5985 25.1166L47.2394 24.6039V20.7933L46.5985 21.3061V25.1166ZM45.9787 25.6082L46.3279 25.3303V21.5197L43.6283 23.6707L45.9787 25.6082ZM41.6197 22.0113L42.2179 21.534V11.2559L38.3717 8.08628V19.3328L41.6194 22.0108L41.6197 22.0113ZM38.4501 7.80204L40.7506 9.69672V5.97163L38.4501 7.80204ZM41.0215 9.92457L46.4703 14.4188L48.9062 12.4813L41.0289 5.9785V9.91719L41.0215 9.92457ZM50.3872 24.3619V16.7836L25.2231 36.7913V48.0445L50.3872 28.0369V24.3619ZM30.2091 10.402L25.8574 6.81239V18.0589L30.2091 21.6485V10.402ZM50.7222 12.7736L48.4217 14.604L50.6509 16.4417V24.077L50.7221 24.0201V12.7668L50.7222 12.7736ZM3.09392 16.976L10.0383 22.7097L20.8286 14.1275V2.8742L3.09392 16.976ZM22.218 2.5887L21.6055 3.08025V14.3335L22.218 13.842V2.5887ZM21.3349 3.07296L21.0997 2.88051V14.127L21.3349 14.3195V3.07296ZM38.1016 7.85927L36.0646 6.17827V17.4248L38.1016 19.1058V7.85927ZM35.7939 6.17132L30.4733 10.4022V21.6555L35.7939 17.4246V6.17132Z" fill="white" stroke="white" stroke-width="0.5"/>
</svg>
