<svg width="24" height="40" viewBox="0 0 24 40" fill="none" xmlns="http://www.w3.org/2000/svg">
<path d="M13.785 7.01736C15.7222 7.01736 17.2937 5.44147 17.2937 3.50868C17.2937 1.57589 15.7178 0 13.785 0C11.8523 0 10.2764 1.57589 10.2764 3.50868C10.2764 5.44147 11.8523 7.01736 13.785 7.01736Z" fill="white"/>
<path d="M23.53 19.4984C23.3447 19.0423 22.997 18.6902 22.5456 18.4957L18.4905 16.7708L14.8372 9.95225C14.801 9.88894 14.7651 9.82594 14.7197 9.75822V9.74909C14.2816 9.07627 13.5864 8.57042 12.7419 8.40785C11.9245 8.24973 11.1027 8.43053 10.4255 8.91372L3.73323 12.8785C3.37194 13.0952 3.09192 13.4294 2.94765 13.8269L0.757547 19.8192C0.590604 20.2798 0.608554 20.7765 0.816135 21.219C1.02371 21.6616 1.38973 22.0002 1.85022 22.1675C2.05339 22.2396 2.26569 22.2802 2.478 22.2802C3.24562 22.2802 3.93672 21.797 4.19847 21.0745L6.16271 15.7007L8.54683 14.2874L7.42702 20.1443C7.41348 20.212 7.40434 20.2798 7.39552 20.3519L5.49458 29.5187L0.382919 36.7169C-0.280765 37.6518 -0.059642 38.952 0.875248 39.616C1.22741 39.8689 1.64287 40 2.07634 40C2.74916 40 3.38572 39.6749 3.77415 39.124L9.13869 31.5693C9.30564 31.3346 9.41872 31.0726 9.47731 30.7881L10.6198 25.279L14.9458 29.7134L16.0521 38.1892C16.1875 39.2189 17.0726 40 18.1111 40C18.2015 40 18.2916 39.9956 18.382 39.9821C19.52 39.8331 20.3236 38.7899 20.1746 37.6521L18.9779 28.4901C18.9193 28.0475 18.7162 27.6277 18.4043 27.307L13.2294 22.001L14.0782 17.5033L14.2499 16.6002L15.5685 19.0656C15.7625 19.4313 16.0832 19.7249 16.4672 19.8874L21.1183 21.8652C21.3486 21.9644 21.588 22.0142 21.8362 22.0142C22.5723 22.0142 23.236 21.576 23.5251 20.8988C23.7147 20.4471 23.7239 19.9503 23.5387 19.4946L23.53 19.4984Z" fill="white"/>
</svg>
