<svg width="50" height="40" viewBox="0 0 50 40" fill="none" xmlns="http://www.w3.org/2000/svg">
<path d="M44.7917 10.4167H5.20833C2.29137 10.4167 0 8.1253 0 5.20833C0 2.29137 2.29137 0 5.20833 0H44.7917C47.7086 0 50 2.29137 50 5.20833C50 8.1253 47.7086 10.4167 44.7917 10.4167ZM5.20833 2.08333C3.4378 2.08333 2.08333 3.43774 2.08333 5.20833C2.08333 6.97893 3.43774 8.33333 5.20833 8.33333H44.7917C46.5622 8.33333 47.9167 6.97893 47.9167 5.20833C47.9167 3.43774 46.5623 2.08333 44.7917 2.08333H5.20833Z" fill="#FFF5F5" fill-opacity="0.8"/>
<path d="M44.7917 24.8334H5.20833C2.29137 24.8334 0 22.542 0 19.625C0 16.7081 2.29137 14.4167 5.20833 14.4167H44.7917C47.7086 14.4167 50 16.7081 50 19.625C50 22.542 47.7086 24.8334 44.7917 24.8334ZM5.20833 16.5C3.4378 16.5 2.08333 17.8544 2.08333 19.625C2.08333 21.3956 3.43774 22.75 5.20833 22.75H44.7917C46.5622 22.75 47.9167 21.3956 47.9167 19.625C47.9167 17.8544 46.5623 16.5 44.7917 16.5H5.20833Z" fill="#FFF5F5" fill-opacity="0.8"/>
<path d="M44.7917 39.25H5.20833C2.29137 39.25 0 36.9586 0 34.0416C0 31.1247 2.29137 28.8333 5.20833 28.8333H44.7917C47.7086 28.8333 50 31.1247 50 34.0416C50 36.9586 47.7086 39.25 44.7917 39.25ZM5.20833 30.9166C3.4378 30.9166 2.08333 32.2711 2.08333 34.0416C2.08333 35.8122 3.43774 37.1666 5.20833 37.1666H44.7917C46.5622 37.1666 47.9167 35.8122 47.9167 34.0416C47.9167 32.2711 46.5623 30.9166 44.7917 30.9166H5.20833Z" fill="#FFF5F5" fill-opacity="0.8"/>
</svg>
