<svg width="26" height="20" viewBox="0 0 26 20" fill="none" xmlns="http://www.w3.org/2000/svg">
<path d="M20.579 3.93079C21.6632 3.93079 22.5426 3.04956 22.5426 1.96506C22.5426 0.880136 21.6633 0 20.579 0C19.4919 0 18.6113 0.880574 18.6113 1.96506C18.6113 3.04977 19.4919 3.93079 20.579 3.93079Z" fill="white"/>
<path d="M24.6523 7.73606L21.3562 8.25042C20.8863 8.32331 20.392 8.01034 20.2586 7.55373L19.3511 4.45092C19.2175 3.9945 18.7608 3.44573 18.336 3.23153L13.8355 0.959056C13.4108 0.744845 12.6854 0.662113 12.2232 0.775203L8.27616 1.74148C7.81396 1.85457 7.43619 2.29752 7.43619 2.72549C7.43619 3.15369 7.81437 3.4132 8.27676 3.30227L11.7308 2.47407C12.1936 2.36312 12.9055 2.47257 13.3134 2.71671L14.4317 3.38626C14.8401 3.6306 14.8409 4.0321 14.4339 4.27881L10.9712 6.37517C10.5646 6.62187 10.0413 7.10054 9.80871 7.44023C9.57633 7.77886 10.4627 9.64413 10.6668 10.074L11.7456 12.36C11.9493 12.7897 11.727 13.1538 11.2513 13.1538L6.87117 13.154C6.39551 13.154 6.03783 13.5294 6.07718 14.0034L6.13319 14.5599C6.17167 15.0344 6.59282 15.2991 7.06871 15.2991H14.6967C15.1722 15.2991 15.4231 15.0518 15.2544 14.6071L13.9185 11.1479C13.7494 10.7032 13.5049 9.99389 13.3751 9.5368L13.3304 9.39378C13.2004 8.93629 13.4302 8.37256 13.8409 8.13334L16.2436 6.73542C16.6543 6.49578 17.2056 6.19627 17.469 6.06758C17.7317 5.93909 18.0535 6.2091 18.1837 6.66702L19.007 9.55583C19.1369 10.0133 19.6241 10.3058 20.0889 10.2053L24.662 9.21526C25.1265 9.11435 25.5072 8.71073 25.5072 8.31761C25.5072 7.92425 25.122 7.66301 24.6521 7.73613L24.6523 7.73606Z" fill="white"/>
<path d="M12.2136 15.9119H10.3689C9.89303 15.9119 9.18651 16.0827 8.79827 16.3578L6.63394 17.8654C6.24593 18.1403 6.154 18.669 6.42914 19.0572L6.85755 19.6543C7.13312 20.0423 7.66309 20.1137 8.03508 19.8176L12.4018 16.3976C12.774 16.1017 12.6893 15.9119 12.2136 15.9119Z" fill="white"/>
<path d="M9.96241 5.49161C10.4381 5.49161 10.8274 5.33533 10.8274 5.18504C10.8274 5.03497 10.4379 4.87848 9.96241 4.87848L0.864977 4.87869C0.389314 4.87869 0 5.03497 0 5.18526C0 5.33533 0.389511 5.49182 0.864977 5.49182L9.96241 5.49161Z" fill="white"/>
<path d="M9.5027 6.41106C9.5027 6.26098 9.11319 6.10449 8.63772 6.10449H1.92259C1.44672 6.10449 1.05762 6.26077 1.05762 6.41106C1.05762 6.56113 1.44691 6.71762 1.92259 6.71762H8.63718C9.11284 6.71741 9.50237 6.56113 9.50237 6.41106H9.5027Z" fill="white"/>
<path d="M9.06484 7.63695C9.06484 7.48709 8.67554 7.33038 8.2003 7.33038L2.62789 7.3306C2.15201 7.3306 1.7627 7.4873 1.7627 7.63716C1.7627 7.78724 2.15221 7.94373 2.62789 7.94373H8.2003C8.67553 7.94351 9.06484 7.78724 9.06484 7.63695Z" fill="white"/>
</svg>
