<svg width="12" height="20" viewBox="0 0 12 20" fill="none" xmlns="http://www.w3.org/2000/svg">
<path d="M6.56977 3.50868C7.53834 3.50868 8.32411 2.72074 8.32411 1.75434C8.32411 0.787945 7.53616 0 6.56977 0C5.60337 0 4.81543 0.787945 4.81543 1.75434C4.81543 2.72074 5.60337 3.50868 6.56977 3.50868Z" fill="white"/>
<path d="M11.4425 9.74912C11.3499 9.52107 11.176 9.34501 10.9503 9.2478L9.31993 7.68953L7.09614 4.97605C7.07803 4.9444 7.06007 4.9129 7.03739 4.87904V4.87447C6.81832 4.53806 6.47072 4.28513 6.0485 4.20385C5.63979 4.12479 4.51637 4.25847 4.17773 4.50006C2.06427 5.78756 1.40139 7.9107 0.0563097 9.90955C-0.0271617 10.1398 -0.0181867 10.3882 0.0856037 10.6094C0.189392 10.8307 0.372401 11 0.602648 11.0837C0.704231 11.1197 0.945701 11.0837 1.17773 11.0001C2.17773 9.50006 3.60009 7.53225 3.95095 7.14363C4.30181 6.75501 3.39105 10.0721 3.39105 10.0721C3.38427 10.1059 3.37971 10.1398 3.3753 10.1759L2.17754 14.7593L0.827257 18.3584C0.495415 18.8258 0.605976 19.476 1.07342 19.808C1.2495 19.9344 1.45723 19.9999 1.67397 19.9999C2.01038 19.9999 2.32866 19.8374 2.52287 19.562L3.99959 15.7846C4.08306 15.6672 4.13961 15.5362 4.1689 15.394L4.98742 12.6394L6.29222 14.7593L7.70356 19.0945C7.77129 19.6094 8.21383 19.9999 8.7331 19.9999C8.7783 19.9999 8.82334 19.9977 8.86854 19.991C9.43756 19.9165 9.83933 19.3949 9.76482 18.826L8 14.5001C7.97071 14.2788 7.86912 14.0689 7.7132 13.9085L6.29221 11.0004L6.71665 8.75156L6.88181 7.68953L7.67754 8.50005C7.77455 8.6829 8.48553 9.4188 8.67754 9.50005L10.2367 10.9325C10.3518 10.9821 10.4715 11.007 10.5956 11.007C10.9637 11.007 11.2955 10.7879 11.4401 10.4493C11.5349 10.2235 11.5395 9.9751 11.4469 9.74722L11.4425 9.74912Z" fill="white"/>
</svg>
