<svg width="50" height="30" viewBox="0 0 50 30" fill="none" xmlns="http://www.w3.org/2000/svg">
<path d="M11.1693 16.6315C11.8957 16.6315 12.485 16.0406 12.485 15.3158C12.485 14.591 11.8941 14 11.1693 14C10.4445 14 9.85352 14.591 9.85352 15.3158C9.85352 16.0406 10.4445 16.6315 11.1693 16.6315Z" fill="white"/>
<path d="M14.8237 21.3119C14.7543 21.1409 14.6239 21.0088 14.4546 20.9359L12.9339 20.2891L11.564 17.7321C11.5504 17.7084 11.5369 17.6847 11.5199 17.6593V17.6559C11.3556 17.4036 11.0949 17.2139 10.7782 17.1529C10.4717 17.0936 10.1635 17.1614 9.90955 17.3426L7.39996 18.8294C7.26448 18.9107 7.15947 19.036 7.10537 19.1851L6.28408 21.4322C6.22148 21.6049 6.22821 21.7912 6.30605 21.9571C6.38389 22.1231 6.52115 22.2501 6.69383 22.3128C6.77002 22.3399 6.84963 22.3551 6.92925 22.3551C7.21711 22.3551 7.47627 22.1739 7.57443 21.9029L8.31102 19.8878L9.20506 19.3578L8.78513 21.5541C8.78005 21.5795 8.77663 21.6049 8.77332 21.632L8.06047 25.0695L6.14359 27.7688C5.89471 28.1194 5.97763 28.607 6.32822 28.856C6.46028 28.9509 6.61608 29 6.77863 29C7.03093 29 7.26965 28.8781 7.41531 28.6715L9.42701 25.8385C9.48961 25.7505 9.53202 25.6522 9.55399 25.5455L9.98241 23.4796L11.6047 25.1425L12.0195 28.3209C12.0703 28.7071 12.4022 29 12.7917 29C12.8256 29 12.8594 28.9984 12.8933 28.9933C13.32 28.9374 13.6213 28.5462 13.5655 28.1195L13.1167 24.6838C13.0947 24.5178 13.0186 24.3604 12.9016 24.2401L10.961 22.2504L11.2793 20.5637L11.3437 20.2251L11.8382 21.1496C11.9109 21.2867 12.0312 21.3968 12.1752 21.4578L13.9194 22.1994C14.0057 22.2366 14.0955 22.2553 14.1886 22.2553C14.4646 22.2553 14.7135 22.091 14.8219 21.837C14.893 21.6677 14.8965 21.4814 14.827 21.3105L14.8237 21.3119Z" fill="white"/>
<path d="M21.772 29.1353C20.8117 29.6155 19.6377 29.2954 19.1572 28.3351C18.677 27.428 19.0504 26.254 20.0111 25.7738C20.9714 25.2936 42.1029 16.4355 42.1029 16.4355C42.1029 16.4355 22.7325 28.6553 21.772 29.1356L21.772 29.1353Z" fill="white"/>
<path d="M35.4322 9.12468L38.7406 4.10857C34.6852 1.5473 30.096 0 24.7598 0V5.12292C28.495 5.60309 32.2839 6.99039 35.4321 9.12468H35.4322Z" fill="white"/>
<path d="M44.6104 20.0639L49.9999 19.1568C48.2921 13.3937 44.7705 8.37768 40.0212 4.96252L36.7129 9.97863C40.128 12.5935 42.8493 16.0619 44.6103 20.064L44.6104 20.0639Z" fill="white"/>
<path d="M11.4195 7.20367L9.81857 4.74884C5.33628 7.89709 1.86785 12.3794 0 17.6624C2.61482 13.0733 6.61696 9.39122 11.4194 7.20348L11.4195 7.20367Z" fill="white"/>
<path d="M21.6649 4.9091C22.1987 4.9091 22.6252 4.9091 23.159 4.96232V0.0530396C18.89 0.319925 14.6209 1.65399 11.0459 3.89509L12.7537 6.56318C15.5286 5.49604 18.5167 4.90906 21.6651 4.90906L21.6649 4.9091Z" fill="white"/>
</svg>
