<svg width="12" height="20" viewBox="0 0 12 20" fill="none" xmlns="http://www.w3.org/2000/svg">
<path d="M6.89204 3.50868C7.86061 3.50868 8.64637 2.72074 8.64637 1.75434C8.64637 0.787945 7.85843 0 6.89204 0C5.92564 0 5.1377 0.787945 5.1377 1.75434C5.1377 2.72074 5.92564 3.50868 6.89204 3.50868Z" fill="white"/>
<path d="M11.765 9.74914C11.6724 9.52109 11.4985 9.34502 11.2728 9.24781L9.24523 8.38536L7.4186 4.97606C7.40049 4.94441 7.38253 4.91291 7.35986 4.87905V4.87448C7.14078 4.53807 6.79318 4.28515 6.37096 4.20386C5.96225 4.1248 5.55137 4.2152 5.21273 4.4568L1.86662 6.43918C1.68597 6.54754 1.54596 6.71464 1.47383 6.91341L0.378773 9.90956C0.295302 10.1398 0.304277 10.3882 0.408067 10.6094C0.511855 10.8307 0.694865 11 0.925112 11.0837C1.02669 11.1197 1.13285 11.1401 1.239 11.1401C1.62281 11.1401 1.96836 10.8985 2.09924 10.5372L3.08136 7.85031L4.27341 7.14364L3.71351 10.0721C3.70674 10.106 3.70217 10.1398 3.69776 10.1759L2.74729 14.7593L0.191459 18.3584C-0.140382 18.8258 -0.029821 19.476 0.437624 19.8079C0.613703 19.9344 0.821437 19.9999 1.03817 19.9999C1.37458 19.9999 1.69286 19.8374 1.88708 19.562L4.56935 15.7846C4.65282 15.6673 4.70936 15.5362 4.73865 15.394L5.30989 12.6394L7.47289 14.8566L8.02602 19.0945C8.09375 19.6094 8.5363 20 9.05556 20C9.10076 20 9.1458 19.9977 9.191 19.991C9.76002 19.9165 10.1618 19.3949 10.0873 18.826L9.48896 14.245C9.45967 14.0237 9.35808 13.8138 9.20216 13.6534L6.61468 11.0004L7.03911 8.75158L7.12495 8.30005L7.78423 9.53275C7.88125 9.7156 8.04158 9.86238 8.23358 9.94363L10.5592 10.9325C10.6743 10.9821 10.794 11.007 10.9181 11.007C11.2861 11.007 11.618 10.7879 11.7626 10.4493C11.8574 10.2235 11.8619 9.97511 11.7693 9.74723L11.765 9.74914Z" fill="white"/>
</svg>
