<svg width="22" height="22" viewBox="0 0 22 22" fill="none" xmlns="http://www.w3.org/2000/svg">
<path d="M21.2953 3.03205C20.9627 2.79901 20.4972 2.88672 20.2651 3.21736C20.1977 3.31374 20.1304 3.40996 20.0629 3.50634C19.736 3.97334 18.0146 6.43191 17.958 6.51247C17.958 6.51262 15.451 4.75727 15.0051 4.4452C14.8826 4.35961 14.7639 4.26916 14.6275 4.20699C14.4303 4.11669 14.2125 4.07184 13.9959 4.07184H9.67424C9.41748 4.07184 9.18261 4.18175 9.0338 4.39442C8.97238 4.48183 6.41637 8.1319 6.19322 8.45067C6.1727 8.47986 6.15187 8.50935 6.13332 8.54021C6.01977 8.73114 5.99925 8.96797 6.07738 9.1761C6.16388 9.40595 6.3653 9.58168 6.60505 9.63566C6.85131 9.6913 7.11613 9.61392 7.29324 9.43363C7.37108 9.35428 7.43112 9.25379 7.49482 9.16319C7.6143 8.99278 9.9625 5.63929 10.0239 5.55141C10.033 5.53819 12.3923 5.5464 12.5247 5.5464C12.3849 5.74584 7.02237 13.432 7.01109 13.432H1.98271C1.56117 13.432 1.17656 13.7105 1.04674 14.112C0.908403 14.5392 1.0855 15.0178 1.4675 15.2529C1.64931 15.3649 1.84998 15.3985 2.05915 15.3985H7.35993C7.48215 15.3985 7.60514 15.403 7.72584 15.3775C7.96997 15.3261 8.18917 15.1834 8.33239 14.9788C8.35063 14.9528 8.36872 14.9266 8.38681 14.9012C8.50051 14.7387 10.177 12.3445 10.3656 12.0751C10.6663 12.2857 13.2486 14.086 13.2486 14.0971V19.982C13.2486 20.2523 13.336 20.5092 13.5271 20.7048C13.8407 21.0266 14.3489 21.094 14.735 20.8635C15.0347 20.6842 15.2142 20.357 15.2142 20.0095V19.7462V13.6531C15.2142 13.4158 15.1625 13.1913 15.0193 12.9952C14.9068 12.8415 14.7449 12.7413 14.5911 12.6338C14.1105 12.2974 12.4595 11.141 12.4163 11.1108C12.2932 11.0244 12.2469 10.839 12.3368 10.7111C12.4909 10.491 15.29 6.47351 15.3033 6.45444C15.6382 6.68931 17.1919 7.77681 17.6329 8.08604C17.6606 8.1052 17.6881 8.12465 17.7158 8.14396C17.9328 8.29613 18.222 8.31893 18.4606 8.20325C18.6251 8.12374 18.7236 7.98997 18.8237 7.84692C19.0885 7.46886 21.1945 4.46074 21.4342 4.11839C21.4929 4.03494 21.5469 3.95102 21.577 3.85206C21.6703 3.54909 21.5539 3.21266 21.2953 3.03178C20.9619 2.79798 21.6288 3.26513 21.2953 3.03178L21.2953 3.03205Z" fill="white"/>
<path d="M21.2953 3.03178C21.5539 3.21266 21.6703 3.54909 21.577 3.85206C21.5469 3.95102 21.4929 4.03494 21.4342 4.11839C21.1945 4.46074 19.0885 7.46886 18.8237 7.84692C18.7236 7.98997 18.6251 8.12374 18.4606 8.20325C18.222 8.31893 17.9328 8.29613 17.7158 8.14396C17.6881 8.12465 17.6606 8.1052 17.6329 8.08604C17.1919 7.77681 15.6382 6.68931 15.3033 6.45444C15.29 6.47351 12.4909 10.491 12.3368 10.7111C12.2469 10.839 12.2932 11.0244 12.4163 11.1108C12.4595 11.141 14.1105 12.2974 14.5911 12.6338C14.7449 12.7413 14.9068 12.8415 15.0193 12.9952C15.1625 13.1913 15.2142 13.4158 15.2142 13.6531V19.7462V20.0095C15.2142 20.357 15.0347 20.6842 14.735 20.8635C14.3489 21.094 13.8407 21.0266 13.5271 20.7048C13.336 20.5092 13.2486 20.2523 13.2486 19.982V14.0971C13.2486 14.086 10.6663 12.2857 10.3656 12.0751C10.177 12.3445 8.50051 14.7387 8.38681 14.9012C8.36872 14.9266 8.35063 14.9528 8.33239 14.9788C8.18917 15.1834 7.96997 15.3261 7.72584 15.3775C7.60514 15.403 7.48215 15.3985 7.35993 15.3985H2.05915C1.84998 15.3985 1.64931 15.3649 1.4675 15.2529C1.0855 15.0178 0.908403 14.5392 1.04674 14.112C1.17656 13.7105 1.56117 13.432 1.98271 13.432H7.01109C7.02237 13.432 12.3849 5.74584 12.5247 5.5464C12.3923 5.5464 10.033 5.53819 10.0239 5.55141C9.9625 5.63929 7.6143 8.99278 7.49482 9.16319C7.43112 9.25379 7.37108 9.35428 7.29324 9.43363C7.11613 9.61392 6.85131 9.6913 6.60505 9.63566C6.3653 9.58168 6.16388 9.40595 6.07738 9.1761C5.99925 8.96797 6.01977 8.73114 6.13332 8.54021C6.15187 8.50935 6.1727 8.47986 6.19322 8.45067C6.41637 8.1319 8.97238 4.48183 9.0338 4.39442C9.18261 4.18175 9.41748 4.07184 9.67424 4.07184H13.9959C14.2125 4.07184 14.4303 4.11669 14.6275 4.20699C14.7639 4.26916 14.8826 4.35961 15.0051 4.4452C15.451 4.75727 17.958 6.51262 17.958 6.51247C18.0146 6.43191 19.736 3.97334 20.0629 3.50634C20.1304 3.40996 20.1977 3.31374 20.2651 3.21736C20.4972 2.88672 20.9627 2.79901 21.2953 3.03205L21.2953 3.03178ZM21.2953 3.03178C20.9619 2.79798 21.6288 3.26513 21.2953 3.03178Z" stroke="white" stroke-width="0.75"/>
<path d="M16.083 3.9485C16.5249 3.9485 16.9509 3.7451 17.2294 3.40199C17.5112 3.05433 17.6201 2.58717 17.5228 2.1506C17.4273 1.7254 17.1398 1.35663 16.7519 1.15902C16.3522 0.955312 15.8684 0.946953 15.4617 1.13606C15.0671 1.31985 14.7672 1.67785 14.6569 2.09893C14.5434 2.53203 14.6358 3.00373 14.9058 3.36114C15.182 3.72841 15.6234 3.94854 16.083 3.94854C15.2688 3.94854 16.8977 3.94854 16.083 3.94854L16.083 3.9485Z" fill="white"/>
<path d="M16.083 3.94854C15.6234 3.94854 15.182 3.72841 14.9058 3.36114C14.6358 3.00373 14.5434 2.53203 14.6569 2.09893C14.7672 1.67785 15.0671 1.31985 15.4617 1.13606C15.8684 0.946953 16.3522 0.955312 16.7519 1.15902C17.1398 1.35663 17.4273 1.7254 17.5228 2.1506C17.6201 2.58717 17.5112 3.05433 17.2294 3.40199C16.9509 3.7451 16.5249 3.9485 16.083 3.9485L16.083 3.94854ZM16.083 3.94854C16.8977 3.94854 15.2688 3.94854 16.083 3.94854Z" stroke="white" stroke-width="0.75"/>
</svg>
