<svg width="50" height="50" viewBox="0 0 50 50" fill="none" xmlns="http://www.w3.org/2000/svg">
<path d="M25 0.820312V1.64062C31.4551 1.64062 37.3633 4.27734 41.543 8.54492C45.8203 12.8223 48.4473 18.6328 48.4473 25.0879C48.4473 31.543 45.8105 37.4512 41.543 41.6309C37.2656 45.9082 31.4551 48.5352 25 48.5352C18.5449 48.5352 12.6367 45.8984 8.45703 41.6309C4.17969 37.3633 1.54297 31.543 1.54297 25.0879C1.54297 18.6328 4.17969 12.7246 8.44727 8.54492C12.7246 4.27734 18.5449 1.64062 25 1.64062V0.820312V0C11.1816 0 0 11.1816 0 25C0 38.8184 11.1816 50 25 50C38.8184 50 50 38.8184 50 25C50 11.1816 38.8184 0 25 0V0.820312Z" fill="white"/>
<path d="M12.0937 32.3652L24.8184 19.6406L37.543 32.3652L38.6367 31.2715L25.3652 18H24.2715L11 31.2715L12.0937 32.3652Z" fill="white"/>
<circle cx="25" cy="25" r="25" fill="white" fill-opacity="0.75"/>
</svg>
