<svg width="76" height="53" viewBox="0 0 76 53" fill="none" xmlns="http://www.w3.org/2000/svg">
<path d="M39.0287 0.697863L74.7691 48.3493C75.452 49.2598 75.452 50.7364 74.7691 51.6469C74.2535 52.3343 73.4951 52.5028 72.8609 52.1512L37.7813 36.151L2.59518 52.2002L2.59656 52.2048C1.68267 52.6212 0.688301 51.9717 0.376001 50.7531C0.147692 49.864 0.345469 48.9184 0.824272 48.3106L36.5451 0.682832C37.228 -0.227611 38.3354 -0.227611 39.0183 0.682832L39.0294 0.698561L39.0287 0.697863ZM66.9705 44.5454L37.7817 5.62929L8.59282 44.5454L37.1155 31.5356C37.4944 31.3274 37.9288 31.2951 38.3465 31.4856L38.3451 31.4903L66.9691 44.5462L66.9705 44.5454Z" fill="white"/>
</svg>
