<svg width="50" height="50" viewBox="0 0 50 50" fill="none" xmlns="http://www.w3.org/2000/svg">
<path d="M25 49.1797V48.3594C18.5449 48.3594 12.6367 45.7227 8.45703 41.4551C4.17969 37.1777 1.55273 31.3672 1.55273 24.9121C1.55273 18.457 4.18945 12.5488 8.45703 8.36914C12.7344 4.0918 18.5449 1.46484 25 1.46484C31.4551 1.46484 37.3633 4.10156 41.543 8.36914C45.8203 12.6367 48.457 18.457 48.457 24.9121C48.457 31.3672 45.8203 37.2754 41.5527 41.4551C37.2754 45.7227 31.4551 48.3594 25 48.3594V49.1797V50C38.8184 50 50 38.8184 50 25C50 11.1816 38.8184 0 25 0C11.1816 0 0 11.1816 0 25C0 38.8184 11.1816 50 25 50V49.1797Z" fill="white"/>
<path d="M37.9063 17.6348L25.1816 30.3594L12.457 17.6348L11.3633 18.7285L24.6348 32H25.7285L39 18.7285L37.9063 17.6348Z" fill="white"/>
<circle cx="25" cy="25" r="25" transform="rotate(-180 25 25)" fill="white" fill-opacity="0.75"/>
</svg>
