<svg width="53" height="51" viewBox="0 0 53 51" fill="none" xmlns="http://www.w3.org/2000/svg">
<path d="M52.9999 1.59375C52.9999 0.704437 52.2678 0 51.3436 0L36.4622 0C35.5215 0 34.8209 0.714 34.8192 1.61925C34.8192 2.52291 35.5215 3.1875 36.4622 3.1875H49.6874L49.6609 15.9742C49.6609 16.8794 50.3764 17.5679 51.3171 17.5679C52.2579 17.5663 52.9734 16.8794 52.9734 15.9742L52.9999 1.61766C52.9999 1.61287 52.9982 1.60969 52.9982 1.6065C52.9982 1.60172 52.9999 1.59853 52.9999 1.59375Z" fill="#ffffff"/>
<path d="M16.589 0H1.70759C1.70263 0 1.69931 0.00159375 1.69434 0.00159375C1.69103 0.00159375 1.68606 0 1.68275 0C0.758563 0 0.0265 0.704437 0.0265 1.59375L0 15.9503C0 16.8555 0.742 17.5312 1.68275 17.5312C2.62184 17.5312 3.3125 16.8555 3.3125 15.9503L3.339 3.1875H16.589C17.5298 3.1875 18.2453 2.499 18.2453 1.59375C18.2436 0.6885 17.5281 0 16.589 0Z" fill="#ffffff"/>
<path d="M16.5377 47.8125H3.3125V35.0625C3.3125 34.1572 2.597 33.4688 1.65625 33.4688C0.7155 33.4688 0 34.1572 0 35.0625L0 49.3823C0 49.3871 0.00165625 49.3903 0.00165625 49.3935C0.00165625 49.3983 0 49.4015 0 49.4062C0 50.2956 0.732062 51 1.65625 51H16.5377C17.4784 51 18.179 50.286 18.1807 49.3807C18.1807 48.4771 17.4784 47.8125 16.5377 47.8125Z" fill="#ffffff"/>
<path d="M51.3172 33.5054C50.3765 33.5054 49.6858 34.1812 49.6875 35.0864V47.8125H36.4375C35.4967 47.8125 34.7812 48.501 34.7812 49.4063C34.7812 50.3115 35.4967 51 36.4375 51H51.3189C51.3239 51 51.3272 50.9984 51.3305 50.9984C51.3355 50.9968 51.3388 51 51.3438 51C52.2679 51 53 50.2956 53 49.4063V35.0864C53 34.1812 52.258 33.5054 51.3172 33.5054Z" fill="#ffffff"/>
</svg>
