<svg width="450" height="376" viewBox="0 0 450 376" fill="none" xmlns="http://www.w3.org/2000/svg">
<g clip-path="url(#clip0_103_128)">
<g clip-path="url(#clip1_103_128)">
<path d="M24.2044 45.4147L24.2574 45.4678L24.3105 45.4147L38 31.7252L51.6895 45.4147L51.7426 45.4678L51.7956 45.4147L52.9769 44.2335L53.0299 44.1805L52.9769 44.1274L38.6437 29.7942L38.6217 29.7723H38.5906H37.4094H37.3783L37.3563 29.7942L23.0231 44.1274L22.9701 44.1805L23.0231 44.2335L24.2044 45.4147Z" fill="#002336" stroke="black" stroke-width="0.15"/>
<path d="M55.8128 20.281L55.8134 20.2815C60.4196 24.8878 63.248 31.1444 63.248 38.0949C63.248 45.0458 60.4088 51.4075 55.8139 55.9077L55.8134 55.9083C51.2071 60.5146 44.9505 63.343 38 63.343C31.0491 63.343 24.6874 60.5037 20.1872 55.9088L20.1866 55.9082C15.5803 51.3125 12.7414 45.0454 12.7414 38.0949C12.7414 31.144 15.5806 24.7824 20.1755 20.2821L20.176 20.2816C24.7823 15.6858 31.0495 12.8469 38 12.8469C44.9509 12.8469 51.3126 15.6861 55.8128 20.281ZM38.075 10.9251V10.925H38H37.925V10.9251C22.9943 10.9655 10.925 23.0598 10.925 38C10.925 52.9652 23.0348 65.075 38 65.075C52.9652 65.075 65.075 52.9652 65.075 38C65.075 23.0598 53.0057 10.9655 38.075 10.9251Z" fill="#002336" stroke="black" stroke-width="0.15"/>
</g>
</g>
<rect x="0.5" y="0.5" width="75" height="75" rx="7.5" stroke="#CED3D6"/>
<path d="M100.876 49.88V45.308C101.548 45.308 102.088 45.14 102.496 44.804C102.904 44.46 103.216 44.004 103.432 43.436C103.648 42.868 103.812 42.232 103.924 41.528C104.036 40.816 104.132 40.096 104.212 39.368C104.324 38.304 104.412 37.276 104.476 36.284C104.548 35.292 104.608 34.264 104.656 33.2C104.712 32.136 104.776 30.972 104.848 29.708L115.504 29.72V45.308H116.74V49.88H114.988V47H102.64V49.88H100.876ZM104.248 45.308H113.74V31.412L106.492 31.4C106.444 32.376 106.396 33.32 106.348 34.232C106.3 35.144 106.244 36.064 106.18 36.992C106.116 37.92 106.032 38.888 105.928 39.896C105.84 40.816 105.736 41.62 105.616 42.308C105.496 42.996 105.328 43.584 105.112 44.072C104.904 44.56 104.616 44.972 104.248 45.308ZM119.363 47V34.04H124.703C124.975 34.04 125.303 34.056 125.687 34.088C126.079 34.12 126.443 34.18 126.779 34.268C127.507 34.46 128.091 34.852 128.531 35.444C128.979 36.036 129.203 36.748 129.203 37.58C129.203 38.044 129.131 38.46 128.987 38.828C128.851 39.188 128.655 39.5 128.399 39.764C128.279 39.9 128.147 40.02 128.003 40.124C127.859 40.22 127.719 40.3 127.583 40.364C127.839 40.412 128.115 40.524 128.411 40.7C128.875 40.972 129.227 41.34 129.467 41.804C129.707 42.26 129.827 42.816 129.827 43.472C129.827 44.36 129.615 45.084 129.191 45.644C128.767 46.204 128.199 46.588 127.487 46.796C127.167 46.884 126.819 46.94 126.443 46.964C126.075 46.988 125.727 47 125.399 47H119.363ZM121.139 45.5H125.315C125.483 45.5 125.695 45.488 125.951 45.464C126.207 45.432 126.435 45.392 126.635 45.344C127.107 45.224 127.451 44.984 127.667 44.624C127.891 44.256 128.003 43.856 128.003 43.424C128.003 42.856 127.835 42.392 127.499 42.032C127.171 41.664 126.731 41.44 126.179 41.36C125.995 41.32 125.803 41.296 125.603 41.288C125.403 41.28 125.223 41.276 125.063 41.276H121.139V45.5ZM121.139 39.764H124.763C124.971 39.764 125.203 39.752 125.459 39.728C125.723 39.696 125.951 39.644 126.143 39.572C126.559 39.428 126.863 39.18 127.055 38.828C127.255 38.476 127.355 38.092 127.355 37.676C127.355 37.22 127.247 36.82 127.031 36.476C126.823 36.132 126.507 35.892 126.083 35.756C125.795 35.652 125.483 35.592 125.147 35.576C124.819 35.56 124.611 35.552 124.523 35.552H121.139V39.764ZM142.515 34.04V47H140.799V36.908L133.695 47H132.207V34.04H133.923V44.048L141.039 34.04H142.515ZM144.443 47L149.915 40.52L144.671 34.04H146.663L151.775 40.436V34.04H153.407V40.436L158.519 34.04H160.499L155.255 40.52L160.727 47H158.675L153.407 40.604V47H151.775V40.604L146.495 47H144.443ZM167.656 47.36C166.392 47.36 165.296 47.08 164.368 46.52C163.448 45.96 162.732 45.172 162.22 44.156C161.708 43.14 161.452 41.948 161.452 40.58C161.452 39.164 161.704 37.94 162.208 36.908C162.712 35.876 163.42 35.08 164.332 34.52C165.252 33.96 166.336 33.68 167.584 33.68C168.864 33.68 169.956 33.976 170.86 34.568C171.764 35.152 172.448 35.992 172.912 37.088C173.376 38.184 173.588 39.492 173.548 41.012H171.748V40.388C171.716 38.708 171.352 37.44 170.656 36.584C169.968 35.728 168.96 35.3 167.632 35.3C166.24 35.3 165.172 35.752 164.428 36.656C163.692 37.56 163.324 38.848 163.324 40.52C163.324 42.152 163.692 43.42 164.428 44.324C165.172 45.22 166.224 45.668 167.584 45.668C168.512 45.668 169.32 45.456 170.008 45.032C170.704 44.6 171.252 43.98 171.652 43.172L173.296 43.808C172.784 44.936 172.028 45.812 171.028 46.436C170.036 47.052 168.912 47.36 167.656 47.36ZM162.7 41.012V39.536H172.6V41.012H162.7ZM176.199 47V34.04H177.963V39.668H185.271V34.04H187.035V47H185.271V41.36H177.963V47H176.199ZM200.687 34.04V47H198.971V36.908L191.867 47H190.379V34.04H192.095V44.048L199.211 34.04H200.687ZM209.539 47.36C208.275 47.36 207.179 47.08 206.251 46.52C205.331 45.96 204.615 45.172 204.103 44.156C203.591 43.14 203.335 41.948 203.335 40.58C203.335 39.164 203.587 37.94 204.091 36.908C204.595 35.876 205.303 35.08 206.215 34.52C207.135 33.96 208.219 33.68 209.467 33.68C210.747 33.68 211.839 33.976 212.743 34.568C213.647 35.152 214.331 35.992 214.795 37.088C215.259 38.184 215.471 39.492 215.431 41.012H213.631V40.388C213.599 38.708 213.235 37.44 212.539 36.584C211.851 35.728 210.843 35.3 209.515 35.3C208.123 35.3 207.055 35.752 206.311 36.656C205.575 37.56 205.207 38.848 205.207 40.52C205.207 42.152 205.575 43.42 206.311 44.324C207.055 45.22 208.107 45.668 209.467 45.668C210.395 45.668 211.203 45.456 211.891 45.032C212.587 44.6 213.135 43.98 213.535 43.172L215.179 43.808C214.667 44.936 213.911 45.812 212.911 46.436C211.919 47.052 210.795 47.36 209.539 47.36ZM204.583 41.012V39.536H214.483V41.012H204.583ZM222.887 47V34.04H228.227C228.499 34.04 228.827 34.056 229.211 34.088C229.603 34.12 229.967 34.18 230.303 34.268C231.031 34.46 231.615 34.852 232.055 35.444C232.503 36.036 232.727 36.748 232.727 37.58C232.727 38.044 232.655 38.46 232.511 38.828C232.375 39.188 232.179 39.5 231.923 39.764C231.803 39.9 231.671 40.02 231.527 40.124C231.383 40.22 231.243 40.3 231.107 40.364C231.363 40.412 231.639 40.524 231.935 40.7C232.399 40.972 232.751 41.34 232.991 41.804C233.231 42.26 233.351 42.816 233.351 43.472C233.351 44.36 233.139 45.084 232.715 45.644C232.291 46.204 231.723 46.588 231.011 46.796C230.691 46.884 230.343 46.94 229.967 46.964C229.599 46.988 229.251 47 228.923 47H222.887ZM224.663 45.5H228.839C229.007 45.5 229.219 45.488 229.475 45.464C229.731 45.432 229.959 45.392 230.159 45.344C230.631 45.224 230.975 44.984 231.191 44.624C231.415 44.256 231.527 43.856 231.527 43.424C231.527 42.856 231.359 42.392 231.023 42.032C230.695 41.664 230.255 41.44 229.703 41.36C229.519 41.32 229.327 41.296 229.127 41.288C228.927 41.28 228.747 41.276 228.587 41.276H224.663V45.5ZM224.663 39.764H228.287C228.495 39.764 228.727 39.752 228.983 39.728C229.247 39.696 229.475 39.644 229.667 39.572C230.083 39.428 230.387 39.18 230.579 38.828C230.779 38.476 230.879 38.092 230.879 37.676C230.879 37.22 230.771 36.82 230.555 36.476C230.347 36.132 230.031 35.892 229.607 35.756C229.319 35.652 229.007 35.592 228.671 35.576C228.343 35.56 228.135 35.552 228.047 35.552H224.663V39.764ZM235.731 47V34.04H246.039V47H244.275V35.732H237.495V47H235.731ZM254.891 47.36C253.627 47.36 252.531 47.08 251.603 46.52C250.683 45.96 249.967 45.172 249.455 44.156C248.943 43.14 248.687 41.948 248.687 40.58C248.687 39.164 248.939 37.94 249.443 36.908C249.947 35.876 250.655 35.08 251.567 34.52C252.487 33.96 253.571 33.68 254.819 33.68C256.099 33.68 257.191 33.976 258.095 34.568C258.999 35.152 259.683 35.992 260.147 37.088C260.611 38.184 260.823 39.492 260.783 41.012H258.983V40.388C258.951 38.708 258.587 37.44 257.891 36.584C257.203 35.728 256.195 35.3 254.867 35.3C253.475 35.3 252.407 35.752 251.663 36.656C250.927 37.56 250.559 38.848 250.559 40.52C250.559 42.152 250.927 43.42 251.663 44.324C252.407 45.22 253.459 45.668 254.819 45.668C255.747 45.668 256.555 45.456 257.243 45.032C257.939 44.6 258.487 43.98 258.887 43.172L260.531 43.808C260.019 44.936 259.263 45.812 258.263 46.436C257.271 47.052 256.147 47.36 254.891 47.36ZM249.935 41.012V39.536H259.835V41.012H249.935ZM269.266 47.36C268.074 47.36 267.066 47.06 266.242 46.46C265.418 45.852 264.794 45.032 264.37 44C263.946 42.96 263.734 41.796 263.734 40.508C263.734 39.196 263.946 38.028 264.37 37.004C264.802 35.972 265.434 35.16 266.266 34.568C267.098 33.976 268.122 33.68 269.338 33.68C270.522 33.68 271.538 33.98 272.386 34.58C273.234 35.18 273.882 35.996 274.33 37.028C274.786 38.06 275.014 39.22 275.014 40.508C275.014 41.804 274.786 42.968 274.33 44C273.874 45.032 273.218 45.852 272.362 46.46C271.506 47.06 270.474 47.36 269.266 47.36ZM263.434 52.76V34.04H265.018V43.796H265.21V52.76H263.434ZM269.086 45.716C269.99 45.716 270.742 45.488 271.342 45.032C271.942 44.576 272.39 43.956 272.686 43.172C272.99 42.38 273.142 41.492 273.142 40.508C273.142 39.532 272.994 38.652 272.698 37.868C272.402 37.084 271.95 36.464 271.342 36.008C270.742 35.552 269.978 35.324 269.05 35.324C268.146 35.324 267.394 35.544 266.794 35.984C266.202 36.424 265.758 37.036 265.462 37.82C265.166 38.596 265.018 39.492 265.018 40.508C265.018 41.508 265.166 42.404 265.462 43.196C265.758 43.98 266.206 44.596 266.806 45.044C267.406 45.492 268.166 45.716 269.086 45.716ZM283.133 47.36C281.869 47.36 280.773 47.08 279.845 46.52C278.925 45.96 278.209 45.172 277.697 44.156C277.185 43.14 276.929 41.948 276.929 40.58C276.929 39.164 277.181 37.94 277.685 36.908C278.189 35.876 278.897 35.08 279.809 34.52C280.729 33.96 281.813 33.68 283.061 33.68C284.341 33.68 285.433 33.976 286.337 34.568C287.241 35.152 287.925 35.992 288.389 37.088C288.853 38.184 289.065 39.492 289.025 41.012H287.225V40.388C287.193 38.708 286.829 37.44 286.133 36.584C285.445 35.728 284.437 35.3 283.109 35.3C281.717 35.3 280.649 35.752 279.905 36.656C279.169 37.56 278.801 38.848 278.801 40.52C278.801 42.152 279.169 43.42 279.905 44.324C280.649 45.22 281.701 45.668 283.061 45.668C283.989 45.668 284.797 45.456 285.485 45.032C286.181 44.6 286.729 43.98 287.129 43.172L288.773 43.808C288.261 44.936 287.505 45.812 286.505 46.436C285.513 47.052 284.389 47.36 283.133 47.36ZM278.177 41.012V39.536H288.077V41.012H278.177ZM290.728 49.88V45.488C291.464 45.488 291.992 45.252 292.312 44.78C292.632 44.3 292.892 43.536 293.092 42.488C293.228 41.808 293.34 41.076 293.428 40.292C293.516 39.508 293.592 38.612 293.656 37.604C293.72 36.588 293.78 35.4 293.836 34.04H302.404V45.488H303.652V49.88H301.948V47H292.42V49.88H290.728ZM293.716 45.488H300.652V35.552H295.468C295.444 36.16 295.408 36.804 295.36 37.484C295.32 38.164 295.268 38.844 295.204 39.524C295.148 40.204 295.08 40.844 295 41.444C294.928 42.036 294.84 42.556 294.736 43.004C294.616 43.58 294.484 44.072 294.34 44.48C294.204 44.888 293.996 45.224 293.716 45.488Z" fill="#1F1F1F"/>
<g clip-path="url(#clip2_103_128)">
<path d="M51.5416 130.586L51.4881 130.531L51.4346 130.586L38 144.274L24.5654 130.586L24.5119 130.531L24.4584 130.586L23.299 131.767L23.2474 131.82L23.299 131.872L37.3668 146.205L37.3888 146.228H37.4203H38.5797H38.6112L38.6332 146.205L52.701 131.872L52.7525 131.82L52.701 131.767L51.5416 130.586Z" fill="#002336" stroke="black" stroke-width="0.15"/>
<path d="M20.5185 155.72L20.518 155.719C15.9971 151.113 13.2209 144.856 13.2209 137.905C13.2209 130.954 16.0078 124.592 20.5174 120.092L20.518 120.091C25.0388 115.485 31.1791 112.657 38 112.657C44.8213 112.657 51.0647 115.496 55.4815 120.091L55.4821 120.091C60.0029 124.687 62.7895 130.954 62.7895 137.905C62.7895 144.856 60.0026 151.218 55.4929 155.718L55.4924 155.719C50.9715 160.315 44.8209 163.153 38 163.153C31.1787 163.153 24.9353 160.314 20.5185 155.72ZM37.925 165.075V165.075H38H38.075V165.075C52.7306 165.034 64.575 152.938 64.575 138C64.575 123.036 52.6902 110.925 38 110.925C23.3098 110.925 11.425 123.036 11.425 138C11.425 152.938 23.2694 165.034 37.925 165.075Z" fill="#002336" stroke="black" stroke-width="0.15"/>
</g>
<rect x="0.5" y="100.5" width="75" height="75" rx="7.5" stroke="#CED3D6"/>
<path d="M100.876 149.88V145.308C101.548 145.308 102.088 145.14 102.496 144.804C102.904 144.46 103.216 144.004 103.432 143.436C103.648 142.868 103.812 142.232 103.924 141.528C104.036 140.816 104.132 140.096 104.212 139.368C104.324 138.304 104.412 137.276 104.476 136.284C104.548 135.292 104.608 134.264 104.656 133.2C104.712 132.136 104.776 130.972 104.848 129.708L115.504 129.72V145.308H116.74V149.88H114.988V147H102.64V149.88H100.876ZM104.248 145.308H113.74V131.412L106.492 131.4C106.444 132.376 106.396 133.32 106.348 134.232C106.3 135.144 106.244 136.064 106.18 136.992C106.116 137.92 106.032 138.888 105.928 139.896C105.84 140.816 105.736 141.62 105.616 142.308C105.496 142.996 105.328 143.584 105.112 144.072C104.904 144.56 104.616 144.972 104.248 145.308ZM119.363 147V134.04H124.703C124.975 134.04 125.303 134.056 125.687 134.088C126.079 134.12 126.443 134.18 126.779 134.268C127.507 134.46 128.091 134.852 128.531 135.444C128.979 136.036 129.203 136.748 129.203 137.58C129.203 138.044 129.131 138.46 128.987 138.828C128.851 139.188 128.655 139.5 128.399 139.764C128.279 139.9 128.147 140.02 128.003 140.124C127.859 140.22 127.719 140.3 127.583 140.364C127.839 140.412 128.115 140.524 128.411 140.7C128.875 140.972 129.227 141.34 129.467 141.804C129.707 142.26 129.827 142.816 129.827 143.472C129.827 144.36 129.615 145.084 129.191 145.644C128.767 146.204 128.199 146.588 127.487 146.796C127.167 146.884 126.819 146.94 126.443 146.964C126.075 146.988 125.727 147 125.399 147H119.363ZM121.139 145.5H125.315C125.483 145.5 125.695 145.488 125.951 145.464C126.207 145.432 126.435 145.392 126.635 145.344C127.107 145.224 127.451 144.984 127.667 144.624C127.891 144.256 128.003 143.856 128.003 143.424C128.003 142.856 127.835 142.392 127.499 142.032C127.171 141.664 126.731 141.44 126.179 141.36C125.995 141.32 125.803 141.296 125.603 141.288C125.403 141.28 125.223 141.276 125.063 141.276H121.139V145.5ZM121.139 139.764H124.763C124.971 139.764 125.203 139.752 125.459 139.728C125.723 139.696 125.951 139.644 126.143 139.572C126.559 139.428 126.863 139.18 127.055 138.828C127.255 138.476 127.355 138.092 127.355 137.676C127.355 137.22 127.247 136.82 127.031 136.476C126.823 136.132 126.507 135.892 126.083 135.756C125.795 135.652 125.483 135.592 125.147 135.576C124.819 135.56 124.611 135.552 124.523 135.552H121.139V139.764ZM142.515 134.04V147H140.799V136.908L133.695 147H132.207V134.04H133.923V144.048L141.039 134.04H142.515ZM144.443 147L149.915 140.52L144.671 134.04H146.663L151.775 140.436V134.04H153.407V140.436L158.519 134.04H160.499L155.255 140.52L160.727 147H158.675L153.407 140.604V147H151.775V140.604L146.495 147H144.443ZM167.656 147.36C166.392 147.36 165.296 147.08 164.368 146.52C163.448 145.96 162.732 145.172 162.22 144.156C161.708 143.14 161.452 141.948 161.452 140.58C161.452 139.164 161.704 137.94 162.208 136.908C162.712 135.876 163.42 135.08 164.332 134.52C165.252 133.96 166.336 133.68 167.584 133.68C168.864 133.68 169.956 133.976 170.86 134.568C171.764 135.152 172.448 135.992 172.912 137.088C173.376 138.184 173.588 139.492 173.548 141.012H171.748V140.388C171.716 138.708 171.352 137.44 170.656 136.584C169.968 135.728 168.96 135.3 167.632 135.3C166.24 135.3 165.172 135.752 164.428 136.656C163.692 137.56 163.324 138.848 163.324 140.52C163.324 142.152 163.692 143.42 164.428 144.324C165.172 145.22 166.224 145.668 167.584 145.668C168.512 145.668 169.32 145.456 170.008 145.032C170.704 144.6 171.252 143.98 171.652 143.172L173.296 143.808C172.784 144.936 172.028 145.812 171.028 146.436C170.036 147.052 168.912 147.36 167.656 147.36ZM162.7 141.012V139.536H172.6V141.012H162.7ZM176.199 147V134.04H177.963V139.668H185.271V134.04H187.035V147H185.271V141.36H177.963V147H176.199ZM200.687 134.04V147H198.971V136.908L191.867 147H190.379V134.04H192.095V144.048L199.211 134.04H200.687ZM209.539 147.36C208.275 147.36 207.179 147.08 206.251 146.52C205.331 145.96 204.615 145.172 204.103 144.156C203.591 143.14 203.335 141.948 203.335 140.58C203.335 139.164 203.587 137.94 204.091 136.908C204.595 135.876 205.303 135.08 206.215 134.52C207.135 133.96 208.219 133.68 209.467 133.68C210.747 133.68 211.839 133.976 212.743 134.568C213.647 135.152 214.331 135.992 214.795 137.088C215.259 138.184 215.471 139.492 215.431 141.012H213.631V140.388C213.599 138.708 213.235 137.44 212.539 136.584C211.851 135.728 210.843 135.3 209.515 135.3C208.123 135.3 207.055 135.752 206.311 136.656C205.575 137.56 205.207 138.848 205.207 140.52C205.207 142.152 205.575 143.42 206.311 144.324C207.055 145.22 208.107 145.668 209.467 145.668C210.395 145.668 211.203 145.456 211.891 145.032C212.587 144.6 213.135 143.98 213.535 143.172L215.179 143.808C214.667 144.936 213.911 145.812 212.911 146.436C211.919 147.052 210.795 147.36 209.539 147.36ZM204.583 141.012V139.536H214.483V141.012H204.583ZM222.887 147V134.04H224.651V139.668H231.959V134.04H233.723V147H231.959V141.36H224.651V147H222.887ZM240.786 147.36C239.81 147.36 238.99 147.184 238.326 146.832C237.67 146.48 237.178 146.012 236.85 145.428C236.522 144.844 236.358 144.208 236.358 143.52C236.358 142.816 236.498 142.216 236.778 141.72C237.066 141.216 237.454 140.804 237.942 140.484C238.438 140.164 239.01 139.92 239.658 139.752C240.314 139.592 241.038 139.452 241.83 139.332C242.63 139.204 243.41 139.096 244.17 139.008C244.938 138.912 245.61 138.82 246.186 138.732L245.562 139.116C245.586 137.836 245.338 136.888 244.818 136.272C244.298 135.656 243.394 135.348 242.106 135.348C241.218 135.348 240.466 135.548 239.85 135.948C239.242 136.348 238.814 136.98 238.566 137.844L236.85 137.34C237.146 136.18 237.742 135.28 238.638 134.64C239.534 134 240.698 133.68 242.13 133.68C243.314 133.68 244.318 133.904 245.142 134.352C245.974 134.792 246.562 135.432 246.906 136.272C247.066 136.648 247.17 137.068 247.218 137.532C247.266 137.996 247.29 138.468 247.29 138.948V147H245.718V143.748L246.174 143.94C245.734 145.052 245.05 145.9 244.122 146.484C243.194 147.068 242.082 147.36 240.786 147.36ZM240.99 145.836C241.814 145.836 242.534 145.688 243.15 145.392C243.766 145.096 244.262 144.692 244.638 144.18C245.014 143.66 245.258 143.076 245.37 142.428C245.466 142.012 245.518 141.556 245.526 141.06C245.534 140.556 245.538 140.18 245.538 139.932L246.21 140.28C245.61 140.36 244.958 140.44 244.254 140.52C243.558 140.6 242.87 140.692 242.19 140.796C241.518 140.9 240.91 141.024 240.366 141.168C239.998 141.272 239.642 141.42 239.298 141.612C238.954 141.796 238.67 142.044 238.446 142.356C238.23 142.668 238.122 143.056 238.122 143.52C238.122 143.896 238.214 144.26 238.398 144.612C238.59 144.964 238.894 145.256 239.31 145.488C239.734 145.72 240.294 145.836 240.99 145.836ZM255.082 147.36C253.778 147.36 252.638 147.076 251.662 146.508C250.694 145.932 249.93 145.136 249.37 144.12L250.786 143.22C251.258 144.02 251.846 144.628 252.55 145.044C253.254 145.46 254.062 145.668 254.974 145.668C255.926 145.668 256.69 145.448 257.266 145.008C257.842 144.568 258.13 143.964 258.13 143.196C258.13 142.668 258.006 142.248 257.758 141.936C257.518 141.624 257.15 141.4 256.654 141.264C256.166 141.128 255.554 141.06 254.818 141.06H253.282V139.548H254.794C255.69 139.548 256.41 139.388 256.954 139.068C257.506 138.74 257.782 138.228 257.782 137.532C257.782 136.796 257.506 136.252 256.954 135.9C256.41 135.54 255.758 135.36 254.998 135.36C254.23 135.36 253.502 135.52 252.814 135.84C252.134 136.152 251.562 136.556 251.098 137.052L249.97 135.864C250.618 135.152 251.374 134.612 252.238 134.244C253.11 133.868 254.074 133.68 255.13 133.68C255.962 133.68 256.714 133.828 257.386 134.124C258.066 134.412 258.602 134.836 258.994 135.396C259.394 135.956 259.594 136.628 259.594 137.412C259.594 138.148 259.414 138.784 259.054 139.32C258.702 139.856 258.202 140.3 257.554 140.652L257.458 139.992C258.018 140.096 258.482 140.32 258.85 140.664C259.218 141.008 259.49 141.42 259.666 141.9C259.842 142.38 259.93 142.868 259.93 143.364C259.93 144.188 259.714 144.9 259.282 145.5C258.858 146.092 258.278 146.552 257.542 146.88C256.814 147.2 255.994 147.36 255.082 147.36ZM266.286 147.36C265.31 147.36 264.49 147.184 263.826 146.832C263.17 146.48 262.678 146.012 262.35 145.428C262.022 144.844 261.858 144.208 261.858 143.52C261.858 142.816 261.998 142.216 262.278 141.72C262.566 141.216 262.954 140.804 263.442 140.484C263.938 140.164 264.51 139.92 265.158 139.752C265.814 139.592 266.538 139.452 267.33 139.332C268.13 139.204 268.91 139.096 269.67 139.008C270.438 138.912 271.11 138.82 271.686 138.732L271.062 139.116C271.086 137.836 270.838 136.888 270.318 136.272C269.798 135.656 268.894 135.348 267.606 135.348C266.718 135.348 265.966 135.548 265.35 135.948C264.742 136.348 264.314 136.98 264.066 137.844L262.35 137.34C262.646 136.18 263.242 135.28 264.138 134.64C265.034 134 266.198 133.68 267.63 133.68C268.814 133.68 269.818 133.904 270.642 134.352C271.474 134.792 272.062 135.432 272.406 136.272C272.566 136.648 272.67 137.068 272.718 137.532C272.766 137.996 272.79 138.468 272.79 138.948V147H271.218V143.748L271.674 143.94C271.234 145.052 270.55 145.9 269.622 146.484C268.694 147.068 267.582 147.36 266.286 147.36ZM266.49 145.836C267.314 145.836 268.034 145.688 268.65 145.392C269.266 145.096 269.762 144.692 270.138 144.18C270.514 143.66 270.758 143.076 270.87 142.428C270.966 142.012 271.018 141.556 271.026 141.06C271.034 140.556 271.038 140.18 271.038 139.932L271.71 140.28C271.11 140.36 270.458 140.44 269.754 140.52C269.058 140.6 268.37 140.692 267.69 140.796C267.018 140.9 266.41 141.024 265.866 141.168C265.498 141.272 265.142 141.42 264.798 141.612C264.454 141.796 264.17 142.044 263.946 142.356C263.73 142.668 263.622 143.056 263.622 143.52C263.622 143.896 263.714 144.26 263.898 144.612C264.09 144.964 264.394 145.256 264.81 145.488C265.234 145.72 265.794 145.836 266.49 145.836ZM274.954 149.88V145.488C275.69 145.488 276.218 145.252 276.538 144.78C276.858 144.3 277.118 143.536 277.318 142.488C277.454 141.808 277.566 141.076 277.654 140.292C277.742 139.508 277.818 138.612 277.882 137.604C277.946 136.588 278.006 135.4 278.062 134.04H286.63V145.488H287.878V149.88H286.174V147H276.646V149.88H274.954ZM277.942 145.488H284.878V135.552H279.694C279.67 136.16 279.634 136.804 279.586 137.484C279.546 138.164 279.494 138.844 279.43 139.524C279.374 140.204 279.306 140.844 279.226 141.444C279.154 142.036 279.066 142.556 278.962 143.004C278.842 143.58 278.71 144.072 278.566 144.48C278.43 144.888 278.222 145.224 277.942 145.488Z" fill="#1F1F1F"/>
<g clip-path="url(#clip3_103_128)">
<mask id="path-10-outside-1_103_128" maskUnits="userSpaceOnUse" x="12.625" y="211.071" width="52" height="50" fill="black">
<rect fill="white" x="12.625" y="211.071" width="52" height="50"/>
<path fill-rule="evenodd" clip-rule="evenodd" d="M32.1067 217.917C33.085 217.505 34.2164 217.983 34.6234 218.983L41.2487 235.324C41.423 235.763 41.9739 236.001 42.4093 235.816C42.8636 235.625 43.0783 235.094 42.891 234.632L40.5568 228.873C40.3625 228.391 40.3653 227.861 40.5607 227.373C40.7592 226.885 41.1267 226.507 41.5994 226.308C42.0677 226.108 42.5896 226.108 43.0713 226.31C43.5499 226.513 43.9185 226.889 44.1142 227.372L46.8143 234.035C47.0026 234.497 47.5174 234.718 47.9739 234.527C48.4292 234.335 48.6429 233.804 48.4556 233.342L46.7447 229.116C46.5634 228.671 46.5634 228.173 46.7485 227.719C46.9309 227.267 47.2725 226.914 47.7106 226.728C48.6182 226.345 49.673 226.787 50.049 227.718L51.9602 232.432C52.1507 232.899 52.6746 233.109 53.1208 232.924C53.5794 232.729 53.7877 232.199 53.6025 231.736L52.6787 229.459C52.3091 228.531 52.7413 227.463 53.651 227.079C54.0913 226.893 54.5758 226.891 55.0172 227.083C55.4614 227.269 55.805 227.62 55.9874 228.066L61.1577 240.934L61.2322 241.153C61.6935 243.067 61.728 245.37 61.76 247.597C61.7881 249.511 61.8165 251.335 62.0934 252.941L48.0732 258.869C45.0295 256.992 43.2494 256.226 41.8168 255.617C40.1895 254.924 39.0149 254.425 36.7077 252.649C35.6437 251.832 34.4961 250.723 33.3871 249.652C32.0322 248.346 30.7578 247.112 29.5848 246.33C28.3798 245.526 27.1335 244.059 27.2667 243.24C27.3826 242.566 28.6237 242.43 29.1525 242.403C29.759 242.368 30.4158 242.451 31.0244 242.632C31.5371 242.787 32.0209 243.011 32.4612 243.301C33.5403 244.01 37.2165 246.314 40.095 246.824C40.4538 246.884 40.751 246.893 41.0339 246.614C41.2838 246.376 41.4018 245.942 41.2585 245.617L31.0676 220.487C30.6614 219.486 31.1285 218.332 32.1067 217.917ZM36.2642 218.289C35.4813 216.365 33.3094 215.442 31.4292 216.244C29.544 217.04 28.6456 219.257 29.4242 221.182L38.9269 244.624C36.5787 243.795 34.0093 242.162 33.4191 241.775C32.8368 241.393 32.197 241.096 31.5209 240.893C30.725 240.651 29.8778 240.55 29.0576 240.589C26.2912 240.731 25.6503 242.116 25.5122 242.932C25.1766 244.963 27.3921 247.035 28.6103 247.849C29.6479 248.541 30.868 249.72 32.1638 250.968C33.3083 252.076 34.4953 253.218 35.6348 254.094C38.1222 256.009 39.4512 256.573 41.1276 257.289C42.641 257.933 44.3558 258.664 47.5322 260.654C47.6784 260.744 47.8376 260.786 47.9978 260.786C48.1085 260.786 48.2266 260.763 48.3372 260.718L63.4504 254.327C63.8555 254.155 64.079 253.709 63.9743 253.275C63.5945 251.691 63.5642 249.687 63.5319 247.565C63.4996 245.237 63.4634 242.83 62.9535 240.717C62.9114 240.538 62.8689 240.418 62.8003 240.245L57.6269 227.373C57.2653 226.478 56.5801 225.777 55.6947 225.406C54.8152 225.03 53.8451 225.03 52.9704 225.402C52.3478 225.666 51.8471 226.095 51.4753 226.614C50.5947 225.049 48.7026 224.339 47.0314 225.051C46.4249 225.31 45.9193 225.732 45.5374 226.263C45.1333 225.537 44.5208 224.963 43.7481 224.637C42.8281 224.247 41.8257 224.249 40.918 224.633C40.2792 224.901 39.7483 225.348 39.3523 225.908L36.2642 218.289ZM29.9846 212.683C28.0622 213.493 26.5653 215.026 25.7695 216.989C24.9704 218.952 24.9704 221.114 25.7695 223.08C25.9469 223.522 26.1613 223.94 26.403 224.329C26.6648 224.75 27.22 224.875 27.6283 224.605C28.0422 224.336 28.1641 223.774 27.8992 223.352C27.7108 223.05 27.5457 222.728 27.4087 222.386C26.7751 220.823 26.8222 219.143 27.4087 217.691C27.9969 216.234 29.1294 215.005 30.6649 214.356C32.151 213.731 33.7852 213.728 35.2712 214.358C36.7543 214.988 37.9108 216.169 38.5243 217.683C38.6652 218.032 38.7752 218.389 38.8497 218.744C38.9544 219.234 39.4077 219.543 39.9084 219.438C40.3849 219.332 40.6892 218.849 40.5873 218.36C40.4875 217.899 40.3466 217.442 40.1663 216.99C39.3683 215.026 37.8721 213.496 35.9512 212.683C34.0245 211.869 31.9087 211.867 29.9846 212.683ZM32.9999 237.258C31.2679 236.222 29.2489 235.934 27.3156 236.453C25.3774 236.968 23.7523 238.223 22.7396 239.988C21.7251 241.753 21.4479 243.813 21.9539 245.792C22.4577 247.772 23.6858 249.431 25.4147 250.466C25.8047 250.699 26.2067 250.891 26.6136 251.046C27.064 251.231 27.5859 250.976 27.7552 250.514C27.9273 250.048 27.6947 249.526 27.2344 249.349C26.9231 249.23 26.6139 249.083 26.3145 248.902C24.9968 248.112 24.0568 246.845 23.6706 245.337C23.2859 243.826 23.4995 242.253 24.2732 240.907C25.047 239.559 26.2863 238.601 27.7653 238.207C29.2474 237.815 30.7846 238.034 32.1013 238.822C32.4067 239.004 32.6857 239.21 32.9446 239.435C33.3203 239.763 33.8807 239.719 34.198 239.338C34.5175 238.958 34.4732 238.384 34.1014 238.057C33.7616 237.765 33.3969 237.494 32.9999 237.258ZM17.0411 217.624C16.649 217.924 16.5685 218.491 16.8598 218.891C17.1561 219.293 17.7102 219.376 18.1052 219.077L18.8627 218.499L15.7916 240.115L15.2234 239.338C14.9304 238.936 14.3752 238.853 13.9823 239.154C13.5884 239.453 13.508 240.023 13.8021 240.423L15.6517 242.952C15.9448 243.353 16.5021 243.433 16.8928 243.136L19.3683 241.25C19.7601 240.949 19.842 240.382 19.5476 239.98C19.2524 239.578 18.6962 239.497 18.3054 239.796L17.5467 240.374L20.6175 218.76L21.1857 219.537C21.4801 219.936 22.0371 220.017 22.4271 219.72C22.8221 219.419 22.9026 218.851 22.6074 218.451L20.7578 215.922C20.4665 215.521 19.9085 215.439 19.5167 215.738L17.0411 217.624Z"/>
</mask>
<path fill-rule="evenodd" clip-rule="evenodd" d="M32.1067 217.917C33.085 217.505 34.2164 217.983 34.6234 218.983L41.2487 235.324C41.423 235.763 41.9739 236.001 42.4093 235.816C42.8636 235.625 43.0783 235.094 42.891 234.632L40.5568 228.873C40.3625 228.391 40.3653 227.861 40.5607 227.373C40.7592 226.885 41.1267 226.507 41.5994 226.308C42.0677 226.108 42.5896 226.108 43.0713 226.31C43.5499 226.513 43.9185 226.889 44.1142 227.372L46.8143 234.035C47.0026 234.497 47.5174 234.718 47.9739 234.527C48.4292 234.335 48.6429 233.804 48.4556 233.342L46.7447 229.116C46.5634 228.671 46.5634 228.173 46.7485 227.719C46.9309 227.267 47.2725 226.914 47.7106 226.728C48.6182 226.345 49.673 226.787 50.049 227.718L51.9602 232.432C52.1507 232.899 52.6746 233.109 53.1208 232.924C53.5794 232.729 53.7877 232.199 53.6025 231.736L52.6787 229.459C52.3091 228.531 52.7413 227.463 53.651 227.079C54.0913 226.893 54.5758 226.891 55.0172 227.083C55.4614 227.269 55.805 227.62 55.9874 228.066L61.1577 240.934L61.2322 241.153C61.6935 243.067 61.728 245.37 61.76 247.597C61.7881 249.511 61.8165 251.335 62.0934 252.941L48.0732 258.869C45.0295 256.992 43.2494 256.226 41.8168 255.617C40.1895 254.924 39.0149 254.425 36.7077 252.649C35.6437 251.832 34.4961 250.723 33.3871 249.652C32.0322 248.346 30.7578 247.112 29.5848 246.33C28.3798 245.526 27.1335 244.059 27.2667 243.24C27.3826 242.566 28.6237 242.43 29.1525 242.403C29.759 242.368 30.4158 242.451 31.0244 242.632C31.5371 242.787 32.0209 243.011 32.4612 243.301C33.5403 244.01 37.2165 246.314 40.095 246.824C40.4538 246.884 40.751 246.893 41.0339 246.614C41.2838 246.376 41.4018 245.942 41.2585 245.617L31.0676 220.487C30.6614 219.486 31.1285 218.332 32.1067 217.917ZM36.2642 218.289C35.4813 216.365 33.3094 215.442 31.4292 216.244C29.544 217.04 28.6456 219.257 29.4242 221.182L38.9269 244.624C36.5787 243.795 34.0093 242.162 33.4191 241.775C32.8368 241.393 32.197 241.096 31.5209 240.893C30.725 240.651 29.8778 240.55 29.0576 240.589C26.2912 240.731 25.6503 242.116 25.5122 242.932C25.1766 244.963 27.3921 247.035 28.6103 247.849C29.6479 248.541 30.868 249.72 32.1638 250.968C33.3083 252.076 34.4953 253.218 35.6348 254.094C38.1222 256.009 39.4512 256.573 41.1276 257.289C42.641 257.933 44.3558 258.664 47.5322 260.654C47.6784 260.744 47.8376 260.786 47.9978 260.786C48.1085 260.786 48.2266 260.763 48.3372 260.718L63.4504 254.327C63.8555 254.155 64.079 253.709 63.9743 253.275C63.5945 251.691 63.5642 249.687 63.5319 247.565C63.4996 245.237 63.4634 242.83 62.9535 240.717C62.9114 240.538 62.8689 240.418 62.8003 240.245L57.6269 227.373C57.2653 226.478 56.5801 225.777 55.6947 225.406C54.8152 225.03 53.8451 225.03 52.9704 225.402C52.3478 225.666 51.8471 226.095 51.4753 226.614C50.5947 225.049 48.7026 224.339 47.0314 225.051C46.4249 225.31 45.9193 225.732 45.5374 226.263C45.1333 225.537 44.5208 224.963 43.7481 224.637C42.8281 224.247 41.8257 224.249 40.918 224.633C40.2792 224.901 39.7483 225.348 39.3523 225.908L36.2642 218.289ZM29.9846 212.683C28.0622 213.493 26.5653 215.026 25.7695 216.989C24.9704 218.952 24.9704 221.114 25.7695 223.08C25.9469 223.522 26.1613 223.94 26.403 224.329C26.6648 224.75 27.22 224.875 27.6283 224.605C28.0422 224.336 28.1641 223.774 27.8992 223.352C27.7108 223.05 27.5457 222.728 27.4087 222.386C26.7751 220.823 26.8222 219.143 27.4087 217.691C27.9969 216.234 29.1294 215.005 30.6649 214.356C32.151 213.731 33.7852 213.728 35.2712 214.358C36.7543 214.988 37.9108 216.169 38.5243 217.683C38.6652 218.032 38.7752 218.389 38.8497 218.744C38.9544 219.234 39.4077 219.543 39.9084 219.438C40.3849 219.332 40.6892 218.849 40.5873 218.36C40.4875 217.899 40.3466 217.442 40.1663 216.99C39.3683 215.026 37.8721 213.496 35.9512 212.683C34.0245 211.869 31.9087 211.867 29.9846 212.683ZM32.9999 237.258C31.2679 236.222 29.2489 235.934 27.3156 236.453C25.3774 236.968 23.7523 238.223 22.7396 239.988C21.7251 241.753 21.4479 243.813 21.9539 245.792C22.4577 247.772 23.6858 249.431 25.4147 250.466C25.8047 250.699 26.2067 250.891 26.6136 251.046C27.064 251.231 27.5859 250.976 27.7552 250.514C27.9273 250.048 27.6947 249.526 27.2344 249.349C26.9231 249.23 26.6139 249.083 26.3145 248.902C24.9968 248.112 24.0568 246.845 23.6706 245.337C23.2859 243.826 23.4995 242.253 24.2732 240.907C25.047 239.559 26.2863 238.601 27.7653 238.207C29.2474 237.815 30.7846 238.034 32.1013 238.822C32.4067 239.004 32.6857 239.21 32.9446 239.435C33.3203 239.763 33.8807 239.719 34.198 239.338C34.5175 238.958 34.4732 238.384 34.1014 238.057C33.7616 237.765 33.3969 237.494 32.9999 237.258ZM17.0411 217.624C16.649 217.924 16.5685 218.491 16.8598 218.891C17.1561 219.293 17.7102 219.376 18.1052 219.077L18.8627 218.499L15.7916 240.115L15.2234 239.338C14.9304 238.936 14.3752 238.853 13.9823 239.154C13.5884 239.453 13.508 240.023 13.8021 240.423L15.6517 242.952C15.9448 243.353 16.5021 243.433 16.8928 243.136L19.3683 241.25C19.7601 240.949 19.842 240.382 19.5476 239.98C19.2524 239.578 18.6962 239.497 18.3054 239.796L17.5467 240.374L20.6175 218.76L21.1857 219.537C21.4801 219.936 22.0371 220.017 22.4271 219.72C22.8221 219.419 22.9026 218.851 22.6074 218.451L20.7578 215.922C20.4665 215.521 19.9085 215.439 19.5167 215.738L17.0411 217.624Z" fill="black"/>
<path fill-rule="evenodd" clip-rule="evenodd" d="M32.1067 217.917C33.085 217.505 34.2164 217.983 34.6234 218.983L41.2487 235.324C41.423 235.763 41.9739 236.001 42.4093 235.816C42.8636 235.625 43.0783 235.094 42.891 234.632L40.5568 228.873C40.3625 228.391 40.3653 227.861 40.5607 227.373C40.7592 226.885 41.1267 226.507 41.5994 226.308C42.0677 226.108 42.5896 226.108 43.0713 226.31C43.5499 226.513 43.9185 226.889 44.1142 227.372L46.8143 234.035C47.0026 234.497 47.5174 234.718 47.9739 234.527C48.4292 234.335 48.6429 233.804 48.4556 233.342L46.7447 229.116C46.5634 228.671 46.5634 228.173 46.7485 227.719C46.9309 227.267 47.2725 226.914 47.7106 226.728C48.6182 226.345 49.673 226.787 50.049 227.718L51.9602 232.432C52.1507 232.899 52.6746 233.109 53.1208 232.924C53.5794 232.729 53.7877 232.199 53.6025 231.736L52.6787 229.459C52.3091 228.531 52.7413 227.463 53.651 227.079C54.0913 226.893 54.5758 226.891 55.0172 227.083C55.4614 227.269 55.805 227.62 55.9874 228.066L61.1577 240.934L61.2322 241.153C61.6935 243.067 61.728 245.37 61.76 247.597C61.7881 249.511 61.8165 251.335 62.0934 252.941L48.0732 258.869C45.0295 256.992 43.2494 256.226 41.8168 255.617C40.1895 254.924 39.0149 254.425 36.7077 252.649C35.6437 251.832 34.4961 250.723 33.3871 249.652C32.0322 248.346 30.7578 247.112 29.5848 246.33C28.3798 245.526 27.1335 244.059 27.2667 243.24C27.3826 242.566 28.6237 242.43 29.1525 242.403C29.759 242.368 30.4158 242.451 31.0244 242.632C31.5371 242.787 32.0209 243.011 32.4612 243.301C33.5403 244.01 37.2165 246.314 40.095 246.824C40.4538 246.884 40.751 246.893 41.0339 246.614C41.2838 246.376 41.4018 245.942 41.2585 245.617L31.0676 220.487C30.6614 219.486 31.1285 218.332 32.1067 217.917ZM36.2642 218.289C35.4813 216.365 33.3094 215.442 31.4292 216.244C29.544 217.04 28.6456 219.257 29.4242 221.182L38.9269 244.624C36.5787 243.795 34.0093 242.162 33.4191 241.775C32.8368 241.393 32.197 241.096 31.5209 240.893C30.725 240.651 29.8778 240.55 29.0576 240.589C26.2912 240.731 25.6503 242.116 25.5122 242.932C25.1766 244.963 27.3921 247.035 28.6103 247.849C29.6479 248.541 30.868 249.72 32.1638 250.968C33.3083 252.076 34.4953 253.218 35.6348 254.094C38.1222 256.009 39.4512 256.573 41.1276 257.289C42.641 257.933 44.3558 258.664 47.5322 260.654C47.6784 260.744 47.8376 260.786 47.9978 260.786C48.1085 260.786 48.2266 260.763 48.3372 260.718L63.4504 254.327C63.8555 254.155 64.079 253.709 63.9743 253.275C63.5945 251.691 63.5642 249.687 63.5319 247.565C63.4996 245.237 63.4634 242.83 62.9535 240.717C62.9114 240.538 62.8689 240.418 62.8003 240.245L57.6269 227.373C57.2653 226.478 56.5801 225.777 55.6947 225.406C54.8152 225.03 53.8451 225.03 52.9704 225.402C52.3478 225.666 51.8471 226.095 51.4753 226.614C50.5947 225.049 48.7026 224.339 47.0314 225.051C46.4249 225.31 45.9193 225.732 45.5374 226.263C45.1333 225.537 44.5208 224.963 43.7481 224.637C42.8281 224.247 41.8257 224.249 40.918 224.633C40.2792 224.901 39.7483 225.348 39.3523 225.908L36.2642 218.289ZM29.9846 212.683C28.0622 213.493 26.5653 215.026 25.7695 216.989C24.9704 218.952 24.9704 221.114 25.7695 223.08C25.9469 223.522 26.1613 223.94 26.403 224.329C26.6648 224.75 27.22 224.875 27.6283 224.605C28.0422 224.336 28.1641 223.774 27.8992 223.352C27.7108 223.05 27.5457 222.728 27.4087 222.386C26.7751 220.823 26.8222 219.143 27.4087 217.691C27.9969 216.234 29.1294 215.005 30.6649 214.356C32.151 213.731 33.7852 213.728 35.2712 214.358C36.7543 214.988 37.9108 216.169 38.5243 217.683C38.6652 218.032 38.7752 218.389 38.8497 218.744C38.9544 219.234 39.4077 219.543 39.9084 219.438C40.3849 219.332 40.6892 218.849 40.5873 218.36C40.4875 217.899 40.3466 217.442 40.1663 216.99C39.3683 215.026 37.8721 213.496 35.9512 212.683C34.0245 211.869 31.9087 211.867 29.9846 212.683ZM32.9999 237.258C31.2679 236.222 29.2489 235.934 27.3156 236.453C25.3774 236.968 23.7523 238.223 22.7396 239.988C21.7251 241.753 21.4479 243.813 21.9539 245.792C22.4577 247.772 23.6858 249.431 25.4147 250.466C25.8047 250.699 26.2067 250.891 26.6136 251.046C27.064 251.231 27.5859 250.976 27.7552 250.514C27.9273 250.048 27.6947 249.526 27.2344 249.349C26.9231 249.23 26.6139 249.083 26.3145 248.902C24.9968 248.112 24.0568 246.845 23.6706 245.337C23.2859 243.826 23.4995 242.253 24.2732 240.907C25.047 239.559 26.2863 238.601 27.7653 238.207C29.2474 237.815 30.7846 238.034 32.1013 238.822C32.4067 239.004 32.6857 239.21 32.9446 239.435C33.3203 239.763 33.8807 239.719 34.198 239.338C34.5175 238.958 34.4732 238.384 34.1014 238.057C33.7616 237.765 33.3969 237.494 32.9999 237.258ZM17.0411 217.624C16.649 217.924 16.5685 218.491 16.8598 218.891C17.1561 219.293 17.7102 219.376 18.1052 219.077L18.8627 218.499L15.7916 240.115L15.2234 239.338C14.9304 238.936 14.3752 238.853 13.9823 239.154C13.5884 239.453 13.508 240.023 13.8021 240.423L15.6517 242.952C15.9448 243.353 16.5021 243.433 16.8928 243.136L19.3683 241.25C19.7601 240.949 19.842 240.382 19.5476 239.98C19.2524 239.578 18.6962 239.497 18.3054 239.796L17.5467 240.374L20.6175 218.76L21.1857 219.537C21.4801 219.936 22.0371 220.017 22.4271 219.72C22.8221 219.419 22.9026 218.851 22.6074 218.451L20.7578 215.922C20.4665 215.521 19.9085 215.439 19.5167 215.738L17.0411 217.624Z" stroke="black" stroke-width="0.4" mask="url(#path-10-outside-1_103_128)"/>
</g>
<rect x="0.5" y="200.5" width="75" height="75" rx="7.5" stroke="#CED3D6"/>
<path d="M100.614 251.227V245.125H101.739C102.125 244.773 102.489 244.276 102.83 243.634C103.176 242.986 103.469 242.122 103.707 241.043C103.952 239.957 104.114 238.58 104.193 236.909L104.568 229.545H114.932V245.125H116.943V251.193H114.932V247H102.625V251.227H100.614ZM104.261 245.125H112.92V231.42H106.477L106.205 236.909C106.136 238.182 106.017 239.335 105.847 240.369C105.676 241.398 105.457 242.31 105.19 243.105C104.923 243.895 104.614 244.568 104.261 245.125ZM119.864 247V233.909H125.217C126.626 233.909 127.745 234.227 128.575 234.864C129.404 235.5 129.819 236.341 129.819 237.386C129.819 238.182 129.583 238.798 129.112 239.236C128.64 239.668 128.035 239.96 127.296 240.114C127.779 240.182 128.248 240.352 128.702 240.625C129.163 240.898 129.543 241.273 129.844 241.75C130.146 242.222 130.296 242.801 130.296 243.489C130.296 244.159 130.126 244.759 129.785 245.287C129.444 245.815 128.955 246.233 128.319 246.54C127.683 246.847 126.921 247 126.035 247H119.864ZM121.773 245.159H126.035C126.728 245.159 127.271 244.994 127.663 244.665C128.055 244.335 128.251 243.886 128.251 243.318C128.251 242.642 128.055 242.111 127.663 241.724C127.271 241.332 126.728 241.136 126.035 241.136H121.773V245.159ZM121.773 239.398H125.217C125.756 239.398 126.219 239.324 126.606 239.176C126.992 239.023 127.288 238.807 127.492 238.528C127.702 238.244 127.808 237.909 127.808 237.523C127.808 236.972 127.577 236.54 127.117 236.227C126.657 235.909 126.023 235.75 125.217 235.75H121.773V239.398ZM137.193 247.307C136.364 247.307 135.611 247.151 134.935 246.838C134.259 246.52 133.722 246.062 133.324 245.466C132.926 244.864 132.727 244.136 132.727 243.284C132.727 242.534 132.875 241.926 133.17 241.46C133.466 240.989 133.861 240.619 134.355 240.352C134.849 240.085 135.395 239.886 135.991 239.756C136.594 239.619 137.199 239.511 137.807 239.432C138.602 239.33 139.247 239.253 139.741 239.202C140.241 239.145 140.605 239.051 140.832 238.92C141.065 238.79 141.182 238.562 141.182 238.239V238.17C141.182 237.33 140.952 236.676 140.491 236.21C140.037 235.744 139.347 235.511 138.42 235.511C137.46 235.511 136.707 235.722 136.162 236.142C135.616 236.562 135.233 237.011 135.011 237.489L133.102 236.807C133.443 236.011 133.898 235.392 134.466 234.949C135.04 234.5 135.665 234.187 136.341 234.011C137.023 233.83 137.693 233.739 138.352 233.739C138.773 233.739 139.256 233.79 139.801 233.892C140.352 233.989 140.884 234.19 141.395 234.497C141.912 234.804 142.341 235.267 142.682 235.886C143.023 236.506 143.193 237.335 143.193 238.375V247H141.182V245.227H141.08C140.943 245.511 140.716 245.815 140.398 246.139C140.08 246.463 139.656 246.739 139.128 246.966C138.599 247.193 137.955 247.307 137.193 247.307ZM137.5 245.5C138.295 245.5 138.966 245.344 139.511 245.031C140.063 244.719 140.477 244.315 140.756 243.821C141.04 243.327 141.182 242.807 141.182 242.261V240.42C141.097 240.523 140.909 240.616 140.619 240.702C140.335 240.781 140.006 240.852 139.631 240.915C139.261 240.972 138.901 241.023 138.548 241.068C138.202 241.108 137.92 241.142 137.705 241.17C137.182 241.239 136.693 241.349 136.239 241.503C135.79 241.651 135.426 241.875 135.148 242.176C134.875 242.472 134.739 242.875 134.739 243.386C134.739 244.085 134.997 244.614 135.514 244.972C136.037 245.324 136.699 245.5 137.5 245.5ZM153.614 247V233.909H163.91V247H161.898V235.784H155.626V247H153.614ZM171.435 247.307C170.606 247.307 169.853 247.151 169.177 246.838C168.501 246.52 167.964 246.062 167.566 245.466C167.168 244.864 166.969 244.136 166.969 243.284C166.969 242.534 167.117 241.926 167.413 241.46C167.708 240.989 168.103 240.619 168.597 240.352C169.092 240.085 169.637 239.886 170.234 239.756C170.836 239.619 171.441 239.511 172.049 239.432C172.844 239.33 173.489 239.253 173.984 239.202C174.484 239.145 174.847 239.051 175.075 238.92C175.308 238.79 175.424 238.562 175.424 238.239V238.17C175.424 237.33 175.194 236.676 174.734 236.21C174.279 235.744 173.589 235.511 172.663 235.511C171.702 235.511 170.95 235.722 170.404 236.142C169.859 236.562 169.475 237.011 169.254 237.489L167.344 236.807C167.685 236.011 168.14 235.392 168.708 234.949C169.282 234.5 169.907 234.187 170.583 234.011C171.265 233.83 171.935 233.739 172.594 233.739C173.015 233.739 173.498 233.79 174.043 233.892C174.594 233.989 175.126 234.19 175.637 234.497C176.154 234.804 176.583 235.267 176.924 235.886C177.265 236.506 177.435 237.335 177.435 238.375V247H175.424V245.227H175.322C175.185 245.511 174.958 245.815 174.64 246.139C174.322 246.463 173.898 246.739 173.37 246.966C172.842 247.193 172.197 247.307 171.435 247.307ZM171.742 245.5C172.538 245.5 173.208 245.344 173.754 245.031C174.305 244.719 174.719 244.315 174.998 243.821C175.282 243.327 175.424 242.807 175.424 242.261V240.42C175.339 240.523 175.151 240.616 174.862 240.702C174.577 240.781 174.248 240.852 173.873 240.915C173.504 240.972 173.143 241.023 172.79 241.068C172.444 241.108 172.163 241.142 171.947 241.17C171.424 241.239 170.935 241.349 170.481 241.503C170.032 241.651 169.668 241.875 169.39 242.176C169.117 242.472 168.981 242.875 168.981 243.386C168.981 244.085 169.239 244.614 169.756 244.972C170.279 245.324 170.941 245.5 171.742 245.5ZM179.947 247V245.125H180.425C180.817 245.125 181.143 245.048 181.405 244.895C181.666 244.736 181.876 244.46 182.036 244.068C182.2 243.67 182.325 243.119 182.411 242.415C182.501 241.705 182.567 240.801 182.607 239.705L182.845 233.909H191.572V247H189.561V235.784H184.754L184.55 240.455C184.504 241.528 184.408 242.474 184.26 243.293C184.118 244.105 183.899 244.787 183.604 245.338C183.314 245.889 182.928 246.304 182.445 246.582C181.962 246.861 181.357 247 180.629 247H179.947ZM197.001 238.648H200.751C202.286 238.648 203.459 239.037 204.271 239.815C205.084 240.594 205.49 241.58 205.49 242.773C205.49 243.557 205.308 244.27 204.945 244.912C204.581 245.548 204.047 246.057 203.342 246.438C202.638 246.812 201.774 247 200.751 247H195.263V233.909H197.274V245.125H200.751C201.547 245.125 202.2 244.915 202.712 244.494C203.223 244.074 203.479 243.534 203.479 242.875C203.479 242.182 203.223 241.616 202.712 241.179C202.2 240.741 201.547 240.523 200.751 240.523H197.001V238.648ZM218.847 233.909V245.125H220.688V251.227H218.677V247H208.552V233.909H210.563V245.125H216.836V233.909H218.847ZM227.638 247.307C226.809 247.307 226.056 247.151 225.38 246.838C224.704 246.52 224.167 246.062 223.769 245.466C223.371 244.864 223.173 244.136 223.173 243.284C223.173 242.534 223.32 241.926 223.616 241.46C223.911 240.989 224.306 240.619 224.8 240.352C225.295 240.085 225.84 239.886 226.437 239.756C227.039 239.619 227.644 239.511 228.252 239.432C229.048 239.33 229.692 239.253 230.187 239.202C230.687 239.145 231.05 239.051 231.278 238.92C231.511 238.79 231.627 238.562 231.627 238.239V238.17C231.627 237.33 231.397 236.676 230.937 236.21C230.482 235.744 229.792 235.511 228.866 235.511C227.906 235.511 227.153 235.722 226.607 236.142C226.062 236.562 225.678 237.011 225.457 237.489L223.548 236.807C223.888 236.011 224.343 235.392 224.911 234.949C225.485 234.5 226.11 234.187 226.786 234.011C227.468 233.83 228.138 233.739 228.798 233.739C229.218 233.739 229.701 233.79 230.246 233.892C230.798 233.989 231.329 234.19 231.84 234.497C232.357 234.804 232.786 235.267 233.127 235.886C233.468 236.506 233.638 237.335 233.638 238.375V247H231.627V245.227H231.525C231.388 245.511 231.161 245.815 230.843 246.139C230.525 246.463 230.102 246.739 229.573 246.966C229.045 247.193 228.4 247.307 227.638 247.307ZM227.945 245.5C228.741 245.5 229.411 245.344 229.957 245.031C230.508 244.719 230.923 244.315 231.201 243.821C231.485 243.327 231.627 242.807 231.627 242.261V240.42C231.542 240.523 231.354 240.616 231.065 240.702C230.781 240.781 230.451 240.852 230.076 240.915C229.707 240.972 229.346 241.023 228.994 241.068C228.647 241.108 228.366 241.142 228.15 241.17C227.627 241.239 227.138 241.349 226.684 241.503C226.235 241.651 225.871 241.875 225.593 242.176C225.32 242.472 225.184 242.875 225.184 243.386C225.184 244.085 225.442 244.614 225.96 244.972C226.482 245.324 227.144 245.5 227.945 245.5ZM242.662 250.75V245.125H243.753C244.02 244.847 244.25 244.545 244.443 244.222C244.636 243.898 244.804 243.514 244.946 243.071C245.094 242.622 245.219 242.077 245.321 241.435C245.423 240.787 245.514 240.006 245.594 239.091L246.037 233.909H254.355V245.125H256.366V250.75H254.355V247H244.673V250.75H242.662ZM246.037 245.125H252.344V235.784H247.912L247.571 239.091C247.429 240.46 247.253 241.656 247.043 242.679C246.832 243.702 246.497 244.517 246.037 245.125ZM257.877 247V245.125H258.354C258.746 245.125 259.073 245.048 259.335 244.895C259.596 244.736 259.806 244.46 259.965 244.068C260.13 243.67 260.255 243.119 260.34 242.415C260.431 241.705 260.496 240.801 260.536 239.705L260.775 233.909H269.502V247H267.491V235.784H262.684L262.479 240.455C262.434 241.528 262.337 242.474 262.19 243.293C262.048 244.105 261.829 244.787 261.533 245.338C261.244 245.889 260.857 246.304 260.374 246.582C259.891 246.861 259.286 247 258.559 247H257.877ZM281.067 247V235.75H277.59C276.806 235.75 276.19 235.932 275.741 236.295C275.292 236.659 275.067 237.159 275.067 237.795C275.067 238.42 275.269 238.912 275.673 239.27C276.082 239.628 276.641 239.807 277.352 239.807H281.579V241.682H277.352C276.465 241.682 275.701 241.526 275.059 241.213C274.417 240.901 273.923 240.455 273.576 239.875C273.229 239.29 273.056 238.597 273.056 237.795C273.056 236.989 273.238 236.295 273.602 235.716C273.965 235.136 274.485 234.69 275.161 234.378C275.843 234.065 276.653 233.909 277.59 233.909H282.977V247H281.067ZM272.34 247L276.056 240.489H278.238L274.522 247H272.34ZM292.601 243.659H294.749C294.794 244.25 295.061 244.699 295.55 245.006C296.044 245.312 296.686 245.466 297.476 245.466C298.283 245.466 298.973 245.301 299.547 244.972C300.121 244.636 300.408 244.097 300.408 243.352C300.408 242.915 300.3 242.534 300.084 242.21C299.868 241.881 299.564 241.625 299.172 241.443C298.78 241.261 298.317 241.17 297.783 241.17H295.533V239.364H297.783C298.584 239.364 299.175 239.182 299.555 238.818C299.942 238.455 300.135 238 300.135 237.455C300.135 236.869 299.928 236.401 299.513 236.048C299.098 235.69 298.51 235.511 297.749 235.511C296.982 235.511 296.342 235.685 295.831 236.031C295.32 236.372 295.05 236.812 295.021 237.352H292.908C292.93 236.648 293.146 236.026 293.555 235.486C293.964 234.94 294.521 234.514 295.226 234.207C295.93 233.895 296.737 233.739 297.646 233.739C298.567 233.739 299.365 233.901 300.041 234.224C300.723 234.543 301.249 234.977 301.618 235.528C301.993 236.074 302.18 236.693 302.18 237.386C302.18 238.125 301.973 238.722 301.558 239.176C301.143 239.631 300.624 239.955 299.999 240.148V240.284C300.493 240.318 300.922 240.477 301.286 240.761C301.655 241.04 301.942 241.406 302.146 241.861C302.351 242.31 302.453 242.807 302.453 243.352C302.453 244.148 302.24 244.841 301.814 245.432C301.388 246.017 300.803 246.472 300.058 246.795C299.314 247.114 298.464 247.273 297.51 247.273C296.584 247.273 295.754 247.122 295.021 246.821C294.288 246.514 293.706 246.091 293.274 245.551C292.848 245.006 292.624 244.375 292.601 243.659ZM306.574 251.909C306.233 251.909 305.929 251.881 305.662 251.824C305.395 251.773 305.21 251.722 305.108 251.67L305.619 249.898C306.108 250.023 306.54 250.068 306.915 250.034C307.29 250 307.622 249.832 307.912 249.531C308.207 249.236 308.477 248.756 308.722 248.091L309.097 247.068L304.256 233.909H306.438L310.051 244.341H310.188L313.801 233.909H315.983L310.426 248.909C310.176 249.585 309.866 250.145 309.497 250.588C309.128 251.037 308.699 251.369 308.21 251.585C307.727 251.801 307.182 251.909 306.574 251.909ZM325.797 244.273L330.365 233.909H332.274L326.615 247H324.979L319.422 233.909H321.297L325.797 244.273ZM320.649 233.909V247H318.638V233.909H320.649ZM330.945 247V233.909H332.956V247H330.945ZM340.49 247.307C339.661 247.307 338.908 247.151 338.232 246.838C337.555 246.52 337.018 246.062 336.621 245.466C336.223 244.864 336.024 244.136 336.024 243.284C336.024 242.534 336.172 241.926 336.467 241.46C336.763 240.989 337.158 240.619 337.652 240.352C338.146 240.085 338.692 239.886 339.288 239.756C339.891 239.619 340.496 239.511 341.104 239.432C341.899 239.33 342.544 239.253 343.038 239.202C343.538 239.145 343.902 239.051 344.129 238.92C344.362 238.79 344.479 238.562 344.479 238.239V238.17C344.479 237.33 344.249 236.676 343.788 236.21C343.334 235.744 342.643 235.511 341.717 235.511C340.757 235.511 340.004 235.722 339.459 236.142C338.913 236.562 338.53 237.011 338.308 237.489L336.399 236.807C336.74 236.011 337.195 235.392 337.763 234.949C338.337 234.5 338.962 234.187 339.638 234.011C340.32 233.83 340.99 233.739 341.649 233.739C342.07 233.739 342.553 233.79 343.098 233.892C343.649 233.989 344.18 234.19 344.692 234.497C345.209 234.804 345.638 235.267 345.979 235.886C346.32 236.506 346.49 237.335 346.49 238.375V247H344.479V245.227H344.376C344.24 245.511 344.013 245.815 343.695 246.139C343.376 246.463 342.953 246.739 342.425 246.966C341.896 247.193 341.251 247.307 340.49 247.307ZM340.797 245.5C341.592 245.5 342.263 245.344 342.808 245.031C343.359 244.719 343.774 244.315 344.053 243.821C344.337 243.327 344.479 242.807 344.479 242.261V240.42C344.393 240.523 344.206 240.616 343.916 240.702C343.632 240.781 343.303 240.852 342.928 240.915C342.558 240.972 342.197 241.023 341.845 241.068C341.499 241.108 341.217 241.142 341.001 241.17C340.479 241.239 339.99 241.349 339.536 241.503C339.087 241.651 338.723 241.875 338.445 242.176C338.172 242.472 338.036 242.875 338.036 243.386C338.036 244.085 338.294 244.614 338.811 244.972C339.334 245.324 339.996 245.5 340.797 245.5Z" fill="#1F1F1F"/>
<g clip-path="url(#clip4_103_128)">
<path d="M25.9603 341.461L25.9602 341.461C24.9972 340.475 23.666 340.053 22.3733 340.088C21.0811 340.123 19.8218 340.614 19.001 341.461C18.1839 342.304 17.5088 343.574 17.3298 344.935C17.1507 346.298 17.4689 347.754 18.641 348.964L18.6411 348.964L32.2463 362.913L32.2465 362.913C32.5316 363.202 32.8424 363.442 33.168 363.651C34.4109 364.697 35.7468 365.53 37.525 366.102C39.3035 366.675 41.5222 366.984 44.5293 366.984C51.4026 366.984 55.1724 365.07 57.2189 361.96C59.2619 358.856 59.5785 354.572 59.5785 349.858V339.876V339.876C59.5733 337.081 57.585 334.819 54.8631 334.819H54.7345C53.7995 334.819 53.0331 335.091 52.2926 335.552C51.6199 333.597 49.9536 332.196 47.8111 332.196C46.8774 332.196 45.9885 332.467 45.2456 332.929C44.5728 330.979 42.9066 329.573 40.7641 329.573C39.9516 329.573 39.1925 329.778 38.5149 330.134V325.158C38.5149 322.378 36.4743 320.117 33.7532 320.117C31.0343 320.117 28.8321 322.376 28.8321 325.158V344.415L25.9603 341.461ZM20.9708 343.824L20.9709 343.824C21.426 343.354 22.0738 343.109 22.7197 343.095C23.3655 343.082 24.0045 343.3 24.4432 343.75L24.479 343.715L24.4432 343.75L24.4433 343.75L24.4436 343.75L24.4448 343.752L24.4497 343.757L24.469 343.777L24.544 343.854L24.8265 344.144L25.816 345.16C26.6242 345.989 27.676 347.069 28.6508 348.067C29.3863 348.823 30.0782 349.534 30.5861 350.055L31.1926 350.676L31.3596 350.847L31.4033 350.892L31.4144 350.904L31.4172 350.907L31.4179 350.907L31.4181 350.907L31.4182 350.907L31.454 350.873L31.4182 350.907L31.504 350.995V350.873V325.678C31.504 324.399 32.5165 323.365 33.7635 323.365C35.0058 323.365 35.8584 324.393 35.8584 325.678V341.703V341.753H35.8752C35.8649 341.822 35.8584 341.895 35.8584 341.968C35.8584 342.722 36.4559 343.33 37.1892 343.33C37.9279 343.33 38.52 342.717 38.52 341.968C38.52 341.895 38.5135 341.822 38.5032 341.753H38.52V341.703V335.135C38.52 333.852 39.4226 332.822 40.6664 332.822L40.6671 332.822L40.6673 332.822L40.6683 332.822L40.6727 332.822L40.6907 332.822C40.7066 332.822 40.7302 332.823 40.7603 332.825C40.8207 332.829 40.9072 332.837 41.0112 332.854C41.2194 332.888 41.4962 332.957 41.7725 333.1C42.0485 333.242 42.3234 333.457 42.5294 333.782C42.7354 334.107 42.8745 334.544 42.8745 335.135V343.805V343.855H42.8913C42.881 343.925 42.8745 343.998 42.8745 344.071C42.8745 344.825 43.472 345.432 44.2053 345.432C44.944 345.432 45.5361 344.819 45.5361 344.071C45.5361 343.997 45.5294 343.927 45.519 343.855H45.5361V343.805V337.763C45.5361 336.48 46.4229 335.451 47.6653 335.45L47.6696 335.451L47.6881 335.452C47.6966 335.453 47.7072 335.454 47.7198 335.456C47.7285 335.457 47.7381 335.458 47.7486 335.459C47.7521 335.459 47.7557 335.46 47.7594 335.46C47.8212 335.469 47.9097 335.483 48.0161 335.507C48.2291 335.555 48.5125 335.641 48.7953 335.795C49.3589 336.102 49.9214 336.678 49.9214 337.763V345.382V345.432H49.9382C49.9279 345.502 49.9214 345.574 49.9214 345.643C49.9214 346.397 50.5189 347.004 51.2522 347.004C51.9925 347.004 52.5521 346.389 52.5521 345.643C52.5521 345.57 52.5457 345.5 52.5354 345.432H52.5521V345.382V340.179C52.5521 338.897 53.4847 337.866 54.7294 337.866L54.7315 337.866L54.7315 337.866L54.7317 337.866L54.7327 337.866L54.737 337.866L54.7548 337.866C54.7705 337.866 54.7937 337.866 54.8235 337.867C54.8831 337.869 54.9685 337.875 55.0712 337.889C55.2768 337.918 55.5502 337.982 55.8229 338.12C56.0954 338.258 56.3669 338.471 56.5705 338.799C56.7741 339.127 56.9118 339.572 56.9118 340.179H56.9618L56.9118 340.179V340.179V340.18V340.18V340.181V340.182V340.183V340.184V340.186V340.187V340.189V340.191V340.193V340.196V340.198V340.201V340.203V340.206V340.209V340.213V340.216V340.22V340.223V340.227V340.231V340.236V340.24V340.244V340.249V340.254V340.259V340.264V340.269V340.275V340.281V340.286V340.292V340.298V340.304V340.311V340.317V340.324V340.331V340.338V340.345V340.352V340.36V340.367V340.375V340.383V340.391V340.399V340.407V340.415V340.424V340.433V340.442V340.45V340.46V340.469V340.478V340.488V340.497V340.507V340.517V340.527V340.537V340.548V340.558V340.569V340.58V340.59V340.601V340.613V340.624V340.635V340.647V340.658V340.67V340.682V340.694V340.706V340.718V340.731V340.743V340.756V340.769V340.782V340.795V340.808V340.821V340.834V340.848V340.862V340.875V340.889V340.903V340.917V340.931V340.946V340.96V340.975V340.989V341.004V341.019V341.034V341.049V341.064V341.08V341.095V341.111V341.126V341.142V341.158V341.174V341.19V341.206V341.222V341.239V341.255V341.272V341.289V341.305V341.322V341.339V341.356V341.374V341.391V341.408V341.426V341.443V341.461V341.479V341.497V341.515V341.533V341.551V341.569V341.588V341.606V341.625V341.643V341.662V341.681V341.7V341.719V341.738V341.757V341.776V341.796V341.815V341.835V341.854V341.874V341.894V341.913V341.933V341.953V341.973V341.994V342.014V342.034V342.055V342.075V342.096V342.116V342.137V342.158V342.179V342.2V342.221V342.242V342.263V342.284V342.305V342.327V342.348V342.37V342.391V342.413V342.435V342.457V342.478V342.5V342.522V342.544V342.567V342.589V342.611V342.633V342.656V342.678V342.701V342.723V342.746V342.769V342.791V342.814V342.837V342.86V342.883V342.906V342.929V342.952V342.975V342.999V343.022V343.045V343.069V343.092V343.116V343.139V343.163V343.186V343.21V343.234V343.258V343.282V343.305V343.329V343.353V343.377V343.401V343.426V343.45V343.474V343.498V343.522V343.547V343.571V343.596V343.62V343.645V343.669V343.694V343.718V343.743V343.767V343.792V343.817V343.842V343.867V343.891V343.916V343.941V343.966V343.991V344.016V344.041V344.066V344.091V344.116V344.141V344.166V344.192V344.217V344.242V344.267V344.293V344.318V344.343V344.369V344.394V344.419V344.445V344.47V344.496V344.521V344.547V344.572V344.598V344.623V344.649V344.674V344.7V344.725V344.751V344.776V344.802V344.828V344.853V344.879V344.905V344.93V344.956V344.982V345.007V345.033V345.059V345.084V345.11V345.136V345.162V345.187V345.213V345.239V345.264V345.29V345.316V345.342V345.367V345.393V345.419V345.445V345.47V345.496V345.522V345.547V345.573V345.599V345.624V345.65V345.676V345.701V345.727V345.753V345.778V345.804V345.83V345.855V345.881V345.906V345.932V345.957V345.983V346.008V346.034V346.059V346.085V346.11V346.136V346.161V346.186V346.212V346.237V346.262V346.288V346.313V346.338V346.363V346.389V346.414V346.439V346.464V346.489V346.514V346.539V346.564V346.589V346.614V346.639V346.664V346.689V346.714V346.739V346.763V346.788V346.813V346.837V346.862V346.887V346.911V346.936V346.96V346.985V347.009V347.033V347.058V347.082V347.106V347.13V347.155V347.179V347.203V347.227V347.251V347.275V347.299V347.323V347.346V347.37V347.394V347.417V347.441V347.465V347.488V347.512V347.535V347.558V347.582V347.605V347.628V347.651V347.674V347.697V347.72V347.743V347.766V347.789V347.811V347.834V347.857V347.879V347.902V347.924V347.947V347.969V347.991V348.013V348.035V348.058V348.08V348.101V348.123V348.145V348.167V348.188V348.21V348.232V348.253V348.274V348.296V348.317V348.338V348.359V348.38V348.401V348.422V348.443V348.463V348.484V348.505V348.525V348.546V348.566V348.586V348.606V348.626V348.646V348.666V348.686V348.706V348.725V348.745V348.765V348.784V348.803V348.823V348.842V348.861V348.88V348.899V348.917V348.936V348.955V348.973V348.992V349.01V349.028V349.046V349.065V349.083V349.1V349.118V349.136V349.153V349.171V349.188V349.206V349.223V349.24V349.257V349.274V349.291V349.307V349.324V349.34V349.357V349.373V349.389V349.405V349.421V349.437V349.453V349.468V349.484V349.499V349.515V349.53V349.545V349.56V349.575V349.59V349.604V349.619V349.633V349.647V349.662V349.676V349.69V349.704V349.717V349.731V349.744V349.758V349.771V349.784V349.797V349.81V349.823V349.835V349.848C56.9118 351.844 56.9095 353.741 56.7127 355.466C56.5159 357.191 56.1251 358.74 55.3506 360.039C53.8047 362.631 50.7175 364.245 44.5242 364.245C39.281 364.245 36.1427 363.037 33.7632 360.602L20.8886 347.397C20.3273 346.818 20.1192 346.161 20.1644 345.533C20.2098 344.903 20.5097 344.298 20.9708 343.824ZM26.9496 332.628L27.034 332.708V332.591V328.179V328.169L27.0299 328.159C26.6262 327.225 26.3962 326.191 26.3962 325.099C26.3962 320.941 29.6622 317.573 33.6863 317.573C37.7105 317.573 40.9765 320.941 40.9765 325.099C40.9765 325.669 40.9101 326.218 40.7925 326.751L40.7796 326.809L40.8393 326.811C41.7468 326.848 42.5679 327.235 43.1661 327.863L43.2272 327.927L43.2505 327.842C43.4881 326.967 43.6278 326.055 43.6278 325.099V325.099C43.6226 319.434 39.173 314.839 33.6812 314.839C28.1894 314.839 23.7398 319.434 23.7398 325.099C23.7398 328.076 24.9802 330.755 26.9496 332.628Z" fill="black" stroke="black" stroke-width="0.1"/>
</g>
<rect x="0.5" y="300.5" width="75" height="75" rx="7.5" stroke="#CED3D6"/>
<path d="M108.676 347.36C106.956 347.36 105.504 346.98 104.32 346.22C103.136 345.452 102.24 344.392 101.632 343.04C101.024 341.688 100.72 340.128 100.72 338.36C100.72 336.592 101.024 335.032 101.632 333.68C102.24 332.328 103.136 331.272 104.32 330.512C105.504 329.744 106.956 329.36 108.676 329.36C110.404 329.36 111.856 329.744 113.032 330.512C114.216 331.272 115.112 332.328 115.72 333.68C116.336 335.032 116.644 336.592 116.644 338.36C116.644 340.128 116.336 341.688 115.72 343.04C115.112 344.392 114.216 345.452 113.032 346.22C111.856 346.98 110.404 347.36 108.676 347.36ZM108.676 345.668C110.028 345.668 111.156 345.36 112.06 344.744C112.964 344.128 113.64 343.272 114.088 342.176C114.544 341.072 114.772 339.8 114.772 338.36C114.772 336.92 114.544 335.652 114.088 334.556C113.64 333.46 112.964 332.604 112.06 331.988C111.156 331.372 110.028 331.06 108.676 331.052C107.324 331.052 106.2 331.36 105.304 331.976C104.408 332.592 103.732 333.452 103.276 334.556C102.828 335.652 102.6 336.92 102.592 338.36C102.584 339.8 102.804 341.068 103.252 342.164C103.708 343.252 104.388 344.108 105.292 344.732C106.196 345.348 107.324 345.66 108.676 345.668ZM118.087 349.88V345.488C118.823 345.488 119.351 345.252 119.671 344.78C119.991 344.3 120.251 343.536 120.451 342.488C120.587 341.808 120.699 341.076 120.787 340.292C120.875 339.508 120.951 338.612 121.015 337.604C121.079 336.588 121.139 335.4 121.195 334.04H129.763V345.488H131.011V349.88H129.307V347H119.779V349.88H118.087ZM121.075 345.488H128.011V335.552H122.827C122.803 336.16 122.767 336.804 122.719 337.484C122.679 338.164 122.627 338.844 122.563 339.524C122.507 340.204 122.439 340.844 122.359 341.444C122.287 342.036 122.199 342.556 122.095 343.004C121.975 343.58 121.843 344.072 121.699 344.48C121.563 344.888 121.355 345.224 121.075 345.488ZM143.71 334.04V347H141.994V336.908L134.89 347H133.402V334.04H135.118V344.048L142.234 334.04H143.71ZM147.066 347V334.04H148.83V339.668H156.138V334.04H157.902V347H156.138V341.36H148.83V347H147.066ZM166.051 347V334.04H176.359V347H174.595V335.732H167.815V347H166.051ZM183.435 347.36C182.459 347.36 181.639 347.184 180.975 346.832C180.319 346.48 179.827 346.012 179.499 345.428C179.171 344.844 179.007 344.208 179.007 343.52C179.007 342.816 179.147 342.216 179.427 341.72C179.715 341.216 180.103 340.804 180.591 340.484C181.087 340.164 181.659 339.92 182.307 339.752C182.963 339.592 183.687 339.452 184.479 339.332C185.279 339.204 186.059 339.096 186.819 339.008C187.587 338.912 188.259 338.82 188.835 338.732L188.211 339.116C188.235 337.836 187.987 336.888 187.467 336.272C186.947 335.656 186.043 335.348 184.755 335.348C183.867 335.348 183.115 335.548 182.499 335.948C181.891 336.348 181.463 336.98 181.215 337.844L179.499 337.34C179.795 336.18 180.391 335.28 181.287 334.64C182.183 334 183.347 333.68 184.779 333.68C185.963 333.68 186.967 333.904 187.791 334.352C188.623 334.792 189.211 335.432 189.555 336.272C189.715 336.648 189.819 337.068 189.867 337.532C189.915 337.996 189.939 338.468 189.939 338.948V347H188.367V343.748L188.823 343.94C188.383 345.052 187.699 345.9 186.771 346.484C185.843 347.068 184.731 347.36 183.435 347.36ZM183.639 345.836C184.463 345.836 185.183 345.688 185.799 345.392C186.415 345.096 186.911 344.692 187.287 344.18C187.663 343.66 187.907 343.076 188.019 342.428C188.115 342.012 188.167 341.556 188.175 341.06C188.183 340.556 188.187 340.18 188.187 339.932L188.859 340.28C188.259 340.36 187.607 340.44 186.903 340.52C186.207 340.6 185.519 340.692 184.839 340.796C184.167 340.9 183.559 341.024 183.015 341.168C182.647 341.272 182.291 341.42 181.947 341.612C181.603 341.796 181.319 342.044 181.095 342.356C180.879 342.668 180.771 343.056 180.771 343.52C180.771 343.896 180.863 344.26 181.047 344.612C181.239 344.964 181.543 345.256 181.959 345.488C182.383 345.72 182.943 345.836 183.639 345.836ZM191.863 347V345.452C192.343 345.54 192.707 345.52 192.955 345.392C193.211 345.256 193.399 345.032 193.519 344.72C193.639 344.4 193.739 344.004 193.819 343.532C193.947 342.748 194.063 341.884 194.167 340.94C194.271 339.996 194.363 338.956 194.443 337.82C194.531 336.676 194.619 335.416 194.707 334.04H203.515V347H201.763V335.732H196.339C196.283 336.58 196.219 337.424 196.147 338.264C196.075 339.104 195.999 339.912 195.919 340.688C195.847 341.456 195.767 342.164 195.679 342.812C195.591 343.46 195.499 344.02 195.403 344.492C195.259 345.204 195.067 345.772 194.827 346.196C194.595 346.62 194.247 346.9 193.783 347.036C193.319 347.172 192.679 347.16 191.863 347ZM212.352 347.36C211.088 347.36 209.992 347.08 209.064 346.52C208.144 345.96 207.428 345.172 206.916 344.156C206.404 343.14 206.148 341.948 206.148 340.58C206.148 339.164 206.4 337.94 206.904 336.908C207.408 335.876 208.116 335.08 209.028 334.52C209.948 333.96 211.032 333.68 212.28 333.68C213.56 333.68 214.652 333.976 215.556 334.568C216.46 335.152 217.144 335.992 217.608 337.088C218.072 338.184 218.284 339.492 218.244 341.012H216.444V340.388C216.412 338.708 216.048 337.44 215.352 336.584C214.664 335.728 213.656 335.3 212.328 335.3C210.936 335.3 209.868 335.752 209.124 336.656C208.388 337.56 208.02 338.848 208.02 340.52C208.02 342.152 208.388 343.42 209.124 344.324C209.868 345.22 210.92 345.668 212.28 345.668C213.208 345.668 214.016 345.456 214.704 345.032C215.4 344.6 215.948 343.98 216.348 343.172L217.992 343.808C217.48 344.936 216.724 345.812 215.724 346.436C214.732 347.052 213.608 347.36 212.352 347.36ZM207.396 341.012V339.536H217.296V341.012H207.396ZM232.043 349.244V347H220.895V334.04H222.659V345.308H229.439V334.04H231.203V345.368H233.807V349.244H232.043ZM239.564 349.88V345.488C240.3 345.488 240.828 345.252 241.148 344.78C241.468 344.3 241.728 343.536 241.928 342.488C242.064 341.808 242.176 341.076 242.264 340.292C242.352 339.508 242.428 338.612 242.492 337.604C242.556 336.588 242.616 335.4 242.672 334.04H251.24V345.488H252.488V349.88H250.784V347H241.256V349.88H239.564ZM242.552 345.488H249.488V335.552H244.304C244.28 336.16 244.244 336.804 244.196 337.484C244.156 338.164 244.104 338.844 244.04 339.524C243.984 340.204 243.916 340.844 243.836 341.444C243.764 342.036 243.676 342.556 243.572 343.004C243.452 343.58 243.32 344.072 243.176 344.48C243.04 344.888 242.832 345.224 242.552 345.488ZM253.691 347V345.452C254.171 345.54 254.535 345.52 254.783 345.392C255.039 345.256 255.227 345.032 255.347 344.72C255.467 344.4 255.567 344.004 255.647 343.532C255.775 342.748 255.891 341.884 255.995 340.94C256.099 339.996 256.191 338.956 256.271 337.82C256.359 336.676 256.447 335.416 256.535 334.04H265.343V347H263.591V335.732H258.167C258.111 336.58 258.047 337.424 257.975 338.264C257.903 339.104 257.827 339.912 257.747 340.688C257.675 341.456 257.595 342.164 257.507 342.812C257.419 343.46 257.327 344.02 257.231 344.492C257.087 345.204 256.895 345.772 256.655 346.196C256.423 346.62 256.075 346.9 255.611 347.036C255.147 347.172 254.507 347.16 253.691 347ZM276.82 347V342.116H273.796C273.444 342.116 273.08 342.104 272.704 342.08C272.336 342.048 271.992 342.004 271.672 341.948C270.76 341.772 269.984 341.372 269.344 340.748C268.712 340.116 268.396 339.244 268.396 338.132C268.396 337.044 268.692 336.172 269.284 335.516C269.876 334.852 270.592 334.42 271.432 334.22C271.816 334.132 272.204 334.08 272.596 334.064C272.996 334.048 273.34 334.04 273.628 334.04H278.584L278.596 347H276.82ZM267.976 347L271.588 341.564H273.544L269.908 347H267.976ZM273.7 340.604H276.82V335.552H273.7C273.508 335.552 273.24 335.56 272.896 335.576C272.552 335.592 272.228 335.644 271.924 335.732C271.66 335.812 271.396 335.952 271.132 336.152C270.876 336.344 270.66 336.604 270.484 336.932C270.308 337.252 270.22 337.644 270.22 338.108C270.22 338.756 270.396 339.276 270.748 339.668C271.108 340.052 271.556 340.316 272.092 340.46C272.38 340.524 272.668 340.564 272.956 340.58C273.244 340.596 273.492 340.604 273.7 340.604ZM292.178 347.36C290.89 347.36 289.79 347.068 288.878 346.484C287.966 345.9 287.266 345.092 286.778 344.06C286.29 343.028 286.046 341.844 286.046 340.508C286.046 339.148 286.294 337.956 286.79 336.932C287.286 335.908 287.99 335.112 288.902 334.544C289.822 333.968 290.914 333.68 292.178 333.68C293.474 333.68 294.578 333.972 295.49 334.556C296.41 335.132 297.11 335.936 297.59 336.968C298.078 337.992 298.322 339.172 298.322 340.508C298.322 341.868 298.078 343.064 297.59 344.096C297.102 345.12 296.398 345.92 295.478 346.496C294.558 347.072 293.458 347.36 292.178 347.36ZM292.178 345.668C293.618 345.668 294.69 345.192 295.394 344.24C296.098 343.28 296.45 342.036 296.45 340.508C296.45 338.94 296.094 337.692 295.382 336.764C294.678 335.836 293.61 335.372 292.178 335.372C291.21 335.372 290.41 335.592 289.778 336.032C289.154 336.464 288.686 337.068 288.374 337.844C288.07 338.612 287.918 339.5 287.918 340.508C287.918 342.068 288.278 343.32 288.998 344.264C289.718 345.2 290.778 345.668 292.178 345.668ZM306.165 347.372C304.957 347.364 303.921 347.1 303.057 346.58C302.193 346.06 301.521 345.284 301.041 344.252C300.569 343.22 300.313 341.932 300.273 340.388C300.249 339.708 300.265 338.968 300.321 338.168C300.377 337.36 300.465 336.592 300.585 335.864C300.705 335.136 300.849 334.544 301.017 334.088C301.225 333.496 301.521 332.944 301.905 332.432C302.297 331.912 302.749 331.488 303.261 331.16C303.757 330.824 304.317 330.564 304.941 330.38C305.573 330.188 306.229 330.04 306.909 329.936C307.597 329.832 308.277 329.74 308.949 329.66C309.629 329.58 310.257 329.48 310.833 329.36L311.025 330.956C310.585 331.044 310.065 331.124 309.465 331.196C308.865 331.268 308.237 331.356 307.581 331.46C306.925 331.556 306.297 331.688 305.697 331.856C305.097 332.024 304.585 332.244 304.161 332.516C303.513 332.908 303.013 333.5 302.661 334.292C302.317 335.084 302.105 335.992 302.025 337.016C302.521 336.24 303.177 335.656 303.993 335.264C304.817 334.872 305.709 334.676 306.669 334.676C307.837 334.676 308.841 334.944 309.681 335.48C310.529 336.016 311.181 336.76 311.637 337.712C312.093 338.664 312.321 339.756 312.321 340.988C312.321 342.276 312.069 343.4 311.565 344.36C311.069 345.32 310.361 346.064 309.441 346.592C308.521 347.112 307.429 347.372 306.165 347.372ZM306.297 345.68C307.657 345.68 308.689 345.256 309.393 344.408C310.105 343.56 310.461 342.432 310.461 341.024C310.461 339.584 310.093 338.448 309.357 337.616C308.629 336.784 307.601 336.368 306.273 336.368C304.945 336.368 303.925 336.784 303.213 337.616C302.501 338.448 302.145 339.584 302.145 341.024C302.145 342.464 302.501 343.6 303.213 344.432C303.925 345.264 304.953 345.68 306.297 345.68ZM319.395 347.36C318.091 347.36 316.951 347.076 315.975 346.508C315.007 345.932 314.243 345.136 313.683 344.12L315.099 343.22C315.571 344.02 316.159 344.628 316.863 345.044C317.567 345.46 318.375 345.668 319.287 345.668C320.239 345.668 321.003 345.448 321.579 345.008C322.155 344.568 322.443 343.964 322.443 343.196C322.443 342.668 322.319 342.248 322.071 341.936C321.831 341.624 321.463 341.4 320.967 341.264C320.479 341.128 319.867 341.06 319.131 341.06H317.595V339.548H319.107C320.003 339.548 320.723 339.388 321.267 339.068C321.819 338.74 322.095 338.228 322.095 337.532C322.095 336.796 321.819 336.252 321.267 335.9C320.723 335.54 320.071 335.36 319.311 335.36C318.543 335.36 317.815 335.52 317.127 335.84C316.447 336.152 315.875 336.556 315.411 337.052L314.283 335.864C314.931 335.152 315.687 334.612 316.551 334.244C317.423 333.868 318.387 333.68 319.443 333.68C320.275 333.68 321.027 333.828 321.699 334.124C322.379 334.412 322.915 334.836 323.307 335.396C323.707 335.956 323.907 336.628 323.907 337.412C323.907 338.148 323.727 338.784 323.367 339.32C323.015 339.856 322.515 340.3 321.867 340.652L321.771 339.992C322.331 340.096 322.795 340.32 323.163 340.664C323.531 341.008 323.803 341.42 323.979 341.9C324.155 342.38 324.243 342.868 324.243 343.364C324.243 344.188 324.027 344.9 323.595 345.5C323.171 346.092 322.591 346.552 321.855 346.88C321.127 347.2 320.307 347.36 319.395 347.36ZM332.303 347.36C331.015 347.36 329.915 347.068 329.003 346.484C328.091 345.9 327.391 345.092 326.903 344.06C326.415 343.028 326.171 341.844 326.171 340.508C326.171 339.148 326.419 337.956 326.915 336.932C327.411 335.908 328.115 335.112 329.027 334.544C329.947 333.968 331.039 333.68 332.303 333.68C333.599 333.68 334.703 333.972 335.615 334.556C336.535 335.132 337.235 335.936 337.715 336.968C338.203 337.992 338.447 339.172 338.447 340.508C338.447 341.868 338.203 343.064 337.715 344.096C337.227 345.12 336.523 345.92 335.603 346.496C334.683 347.072 333.583 347.36 332.303 347.36ZM332.303 345.668C333.743 345.668 334.815 345.192 335.519 344.24C336.223 343.28 336.575 342.036 336.575 340.508C336.575 338.94 336.219 337.692 335.507 336.764C334.803 335.836 333.735 335.372 332.303 335.372C331.335 335.372 330.535 335.592 329.903 336.032C329.279 336.464 328.811 337.068 328.499 337.844C328.195 338.612 328.043 339.5 328.043 340.508C328.043 342.068 328.403 343.32 329.123 344.264C329.843 345.2 330.903 345.668 332.303 345.668ZM346.914 347.36C345.722 347.36 344.714 347.06 343.89 346.46C343.066 345.852 342.442 345.032 342.018 344C341.594 342.96 341.382 341.796 341.382 340.508C341.382 339.196 341.594 338.028 342.018 337.004C342.45 335.972 343.082 335.16 343.914 334.568C344.746 333.976 345.77 333.68 346.986 333.68C348.17 333.68 349.186 333.98 350.034 334.58C350.882 335.18 351.53 335.996 351.978 337.028C352.434 338.06 352.662 339.22 352.662 340.508C352.662 341.804 352.434 342.968 351.978 344C351.522 345.032 350.866 345.852 350.01 346.46C349.154 347.06 348.122 347.36 346.914 347.36ZM341.082 352.76V334.04H342.666V343.796H342.858V352.76H341.082ZM346.734 345.716C347.638 345.716 348.39 345.488 348.99 345.032C349.59 344.576 350.038 343.956 350.334 343.172C350.638 342.38 350.79 341.492 350.79 340.508C350.79 339.532 350.642 338.652 350.346 337.868C350.05 337.084 349.598 336.464 348.99 336.008C348.39 335.552 347.626 335.324 346.698 335.324C345.794 335.324 345.042 335.544 344.442 335.984C343.85 336.424 343.406 337.036 343.11 337.82C342.814 338.596 342.666 339.492 342.666 340.508C342.666 341.508 342.814 342.404 343.11 343.196C343.406 343.98 343.854 344.596 344.454 345.044C345.054 345.492 345.814 345.716 346.734 345.716ZM359.005 347.36C358.029 347.36 357.209 347.184 356.545 346.832C355.889 346.48 355.397 346.012 355.069 345.428C354.741 344.844 354.577 344.208 354.577 343.52C354.577 342.816 354.717 342.216 354.997 341.72C355.285 341.216 355.673 340.804 356.161 340.484C356.657 340.164 357.229 339.92 357.877 339.752C358.533 339.592 359.257 339.452 360.049 339.332C360.849 339.204 361.629 339.096 362.389 339.008C363.157 338.912 363.829 338.82 364.405 338.732L363.781 339.116C363.805 337.836 363.557 336.888 363.037 336.272C362.517 335.656 361.613 335.348 360.325 335.348C359.437 335.348 358.685 335.548 358.069 335.948C357.461 336.348 357.033 336.98 356.785 337.844L355.069 337.34C355.365 336.18 355.961 335.28 356.857 334.64C357.753 334 358.917 333.68 360.349 333.68C361.533 333.68 362.537 333.904 363.361 334.352C364.193 334.792 364.781 335.432 365.125 336.272C365.285 336.648 365.389 337.068 365.437 337.532C365.485 337.996 365.509 338.468 365.509 338.948V347H363.937V343.748L364.393 343.94C363.953 345.052 363.269 345.9 362.341 346.484C361.413 347.068 360.301 347.36 359.005 347.36ZM359.209 345.836C360.033 345.836 360.753 345.688 361.369 345.392C361.985 345.096 362.481 344.692 362.857 344.18C363.233 343.66 363.477 343.076 363.589 342.428C363.685 342.012 363.737 341.556 363.745 341.06C363.753 340.556 363.757 340.18 363.757 339.932L364.429 340.28C363.829 340.36 363.177 340.44 362.473 340.52C361.777 340.6 361.089 340.692 360.409 340.796C359.737 340.9 359.129 341.024 358.585 341.168C358.217 341.272 357.861 341.42 357.517 341.612C357.173 341.796 356.889 342.044 356.665 342.356C356.449 342.668 356.341 343.056 356.341 343.52C356.341 343.896 356.433 344.26 356.617 344.612C356.809 344.964 357.113 345.256 357.529 345.488C357.953 345.72 358.513 345.836 359.209 345.836Z" fill="#1F1F1F"/>
<defs>
<clipPath id="clip0_103_128">
<rect width="54" height="54" fill="white" transform="translate(11 11)"/>
</clipPath>
<clipPath id="clip1_103_128">
<rect width="54" height="54" fill="white" transform="translate(11 11)"/>
</clipPath>
<clipPath id="clip2_103_128">
<rect width="53" height="54" fill="white" transform="translate(64.5 165) rotate(-180)"/>
</clipPath>
<clipPath id="clip3_103_128">
<rect width="52" height="55" fill="white" transform="translate(12 210.5)"/>
</clipPath>
<clipPath id="clip4_103_128">
<rect width="62" height="64" fill="white" transform="translate(7 306)"/>
</clipPath>
</defs>
</svg>
