<svg width="450" height="376" viewBox="0 0 450 376" fill="none" xmlns="http://www.w3.org/2000/svg">
<g clip-path="url(#clip0_118_1270)">
<g clip-path="url(#clip1_118_1270)">
<path d="M24.2044 45.4148L24.2574 45.4678L24.3105 45.4148L38 31.7252L51.6895 45.4148L51.7426 45.4678L51.7956 45.4148L52.9769 44.2335L53.0299 44.1805L52.9769 44.1275L38.6437 29.7943L38.6217 29.7723H38.5906H37.4094H37.3783L37.3563 29.7943L23.0231 44.1275L22.9701 44.1805L23.0231 44.2335L24.2044 45.4148Z" fill="#002336" stroke="black" stroke-width="0.15"/>
<path d="M55.8128 20.281L55.8134 20.2815C60.4196 24.8878 63.248 31.1444 63.248 38.0949C63.248 45.0458 60.4088 51.4075 55.8139 55.9077L55.8134 55.9083C51.2071 60.5146 44.9505 63.343 38 63.343C31.0491 63.343 24.6874 60.5037 20.1872 55.9088L20.1866 55.9082C15.5803 51.3125 12.7414 45.0454 12.7414 38.0949C12.7414 31.144 15.5806 24.7824 20.1755 20.2821L20.176 20.2816C24.7823 15.6858 31.0495 12.8469 38 12.8469C44.9509 12.8469 51.3126 15.6861 55.8128 20.281ZM38.075 10.9251V10.925H38H37.925V10.9251C22.9943 10.9655 10.925 23.0598 10.925 38C10.925 52.9652 23.0348 65.075 38 65.075C52.9652 65.075 65.075 52.9652 65.075 38C65.075 23.0598 53.0057 10.9655 38.075 10.9251Z" fill="#002336" stroke="black" stroke-width="0.15"/>
</g>
</g>
<rect x="0.5" y="0.5" width="75" height="75" rx="7.5" stroke="#CED3D6"/>
<path d="M101.68 47V29.72H103.444V37.88L111.328 29.72H113.584L105.532 38.06L114.244 47H111.94L103.444 38.36V47H101.68ZM120.453 47.36C119.189 47.36 118.093 47.08 117.165 46.52C116.245 45.96 115.529 45.172 115.017 44.156C114.505 43.14 114.249 41.948 114.249 40.58C114.249 39.164 114.501 37.94 115.005 36.908C115.509 35.876 116.217 35.08 117.129 34.52C118.049 33.96 119.133 33.68 120.381 33.68C121.661 33.68 122.753 33.976 123.657 34.568C124.561 35.152 125.245 35.992 125.709 37.088C126.173 38.184 126.385 39.492 126.345 41.012H124.545V40.388C124.513 38.708 124.149 37.44 123.453 36.584C122.765 35.728 121.757 35.3 120.429 35.3C119.037 35.3 117.969 35.752 117.225 36.656C116.489 37.56 116.121 38.848 116.121 40.52C116.121 42.152 116.489 43.42 117.225 44.324C117.969 45.22 119.021 45.668 120.381 45.668C121.309 45.668 122.117 45.456 122.805 45.032C123.501 44.6 124.049 43.98 124.449 43.172L126.093 43.808C125.581 44.936 124.825 45.812 123.825 46.436C122.833 47.052 121.709 47.36 120.453 47.36ZM115.497 41.012V39.536H125.397V41.012H115.497ZM130.622 52.76L133.13 45.956L133.166 47.972L127.49 34.04H129.362L134.018 45.692H133.25L137.546 34.04H139.346L132.386 52.76H130.622ZM146.266 47.348C144.746 47.348 143.494 47.02 142.51 46.364C141.534 45.708 140.934 44.796 140.71 43.628L142.51 43.328C142.702 44.064 143.138 44.652 143.818 45.092C144.506 45.524 145.354 45.74 146.362 45.74C147.346 45.74 148.122 45.536 148.69 45.128C149.258 44.712 149.542 44.148 149.542 43.436C149.542 43.036 149.45 42.712 149.266 42.464C149.09 42.208 148.726 41.972 148.174 41.756C147.622 41.54 146.798 41.284 145.702 40.988C144.526 40.668 143.606 40.348 142.942 40.028C142.278 39.708 141.806 39.34 141.526 38.924C141.246 38.5 141.106 37.984 141.106 37.376C141.106 36.64 141.314 35.996 141.73 35.444C142.146 34.884 142.722 34.452 143.458 34.148C144.194 33.836 145.05 33.68 146.026 33.68C147.002 33.68 147.874 33.84 148.642 34.16C149.418 34.472 150.042 34.912 150.514 35.48C150.986 36.048 151.266 36.708 151.354 37.46L149.554 37.784C149.434 37.024 149.054 36.424 148.414 35.984C147.782 35.536 146.978 35.304 146.002 35.288C145.082 35.264 144.334 35.44 143.758 35.816C143.182 36.184 142.894 36.676 142.894 37.292C142.894 37.636 142.998 37.932 143.206 38.18C143.414 38.42 143.79 38.648 144.334 38.864C144.886 39.08 145.67 39.316 146.686 39.572C147.878 39.876 148.814 40.196 149.494 40.532C150.174 40.868 150.658 41.264 150.946 41.72C151.234 42.176 151.378 42.74 151.378 43.412C151.378 44.636 150.922 45.6 150.01 46.304C149.106 47 147.858 47.348 146.266 47.348ZM165.9 47C165.172 47.152 164.452 47.212 163.74 47.18C163.036 47.148 162.404 46.996 161.844 46.724C161.292 46.452 160.872 46.028 160.584 45.452C160.352 44.972 160.224 44.488 160.2 44C160.184 43.504 160.176 42.94 160.176 42.308V30.44H161.928V42.236C161.928 42.78 161.932 43.236 161.94 43.604C161.956 43.964 162.04 44.284 162.192 44.564C162.48 45.1 162.936 45.42 163.56 45.524C164.192 45.628 164.972 45.604 165.9 45.452V47ZM157.404 35.552V34.04H165.9V35.552H157.404ZM173.397 47.36C172.109 47.36 171.009 47.068 170.097 46.484C169.185 45.9 168.485 45.092 167.997 44.06C167.509 43.028 167.265 41.844 167.265 40.508C167.265 39.148 167.513 37.956 168.009 36.932C168.505 35.908 169.209 35.112 170.121 34.544C171.041 33.968 172.133 33.68 173.397 33.68C174.693 33.68 175.797 33.972 176.709 34.556C177.629 35.132 178.329 35.936 178.809 36.968C179.297 37.992 179.541 39.172 179.541 40.508C179.541 41.868 179.297 43.064 178.809 44.096C178.321 45.12 177.617 45.92 176.697 46.496C175.777 47.072 174.677 47.36 173.397 47.36ZM173.397 45.668C174.837 45.668 175.909 45.192 176.613 44.24C177.317 43.28 177.669 42.036 177.669 40.508C177.669 38.94 177.313 37.692 176.601 36.764C175.897 35.836 174.829 35.372 173.397 35.372C172.429 35.372 171.629 35.592 170.997 36.032C170.373 36.464 169.905 37.068 169.593 37.844C169.289 38.612 169.137 39.5 169.137 40.508C169.137 42.068 169.497 43.32 170.217 44.264C170.937 45.2 171.997 45.668 173.397 45.668ZM202.449 47L202.461 38.492C202.461 37.492 202.181 36.708 201.621 36.14C201.069 35.564 200.365 35.276 199.509 35.276C199.021 35.276 198.545 35.388 198.081 35.612C197.617 35.836 197.233 36.196 196.929 36.692C196.633 37.188 196.485 37.836 196.485 38.636L195.441 38.336C195.417 37.408 195.597 36.596 195.981 35.9C196.373 35.204 196.909 34.664 197.589 34.28C198.277 33.888 199.053 33.692 199.917 33.692C201.221 33.692 202.265 34.096 203.049 34.904C203.833 35.704 204.225 36.788 204.225 38.156L204.213 47H202.449ZM186.981 47V34.04H188.565V37.232H188.757V47H186.981ZM194.733 47L194.745 38.612C194.745 37.58 194.469 36.768 193.917 36.176C193.373 35.576 192.653 35.276 191.757 35.276C190.861 35.276 190.137 35.584 189.585 36.2C189.033 36.808 188.757 37.62 188.757 38.636L187.701 38.06C187.701 37.228 187.897 36.484 188.289 35.828C188.681 35.164 189.217 34.644 189.897 34.268C190.577 33.884 191.349 33.692 192.213 33.692C193.037 33.692 193.769 33.868 194.409 34.22C195.057 34.572 195.565 35.084 195.933 35.756C196.301 36.428 196.485 37.244 196.485 38.204L196.473 47H194.733ZM212.678 47.36C211.39 47.36 210.29 47.068 209.378 46.484C208.466 45.9 207.766 45.092 207.278 44.06C206.79 43.028 206.546 41.844 206.546 40.508C206.546 39.148 206.794 37.956 207.29 36.932C207.786 35.908 208.49 35.112 209.402 34.544C210.322 33.968 211.414 33.68 212.678 33.68C213.974 33.68 215.078 33.972 215.99 34.556C216.91 35.132 217.61 35.936 218.09 36.968C218.578 37.992 218.822 39.172 218.822 40.508C218.822 41.868 218.578 43.064 218.09 44.096C217.602 45.12 216.898 45.92 215.978 46.496C215.058 47.072 213.958 47.36 212.678 47.36ZM212.678 45.668C214.118 45.668 215.19 45.192 215.894 44.24C216.598 43.28 216.95 42.036 216.95 40.508C216.95 38.94 216.594 37.692 215.882 36.764C215.178 35.836 214.11 35.372 212.678 35.372C211.71 35.372 210.91 35.592 210.278 36.032C209.654 36.464 209.186 37.068 208.874 37.844C208.57 38.612 208.418 39.5 208.418 40.508C208.418 42.068 208.778 43.32 209.498 44.264C210.218 45.2 211.278 45.668 212.678 45.668ZM224.504 47L219.8 34.04H221.588L225.416 44.696L229.22 34.04H231.032L226.328 47H224.504ZM238.203 47.36C236.939 47.36 235.843 47.08 234.915 46.52C233.995 45.96 233.279 45.172 232.767 44.156C232.255 43.14 231.999 41.948 231.999 40.58C231.999 39.164 232.251 37.94 232.755 36.908C233.259 35.876 233.967 35.08 234.879 34.52C235.799 33.96 236.883 33.68 238.131 33.68C239.411 33.68 240.503 33.976 241.407 34.568C242.311 35.152 242.995 35.992 243.459 37.088C243.923 38.184 244.135 39.492 244.095 41.012H242.295V40.388C242.263 38.708 241.899 37.44 241.203 36.584C240.515 35.728 239.507 35.3 238.179 35.3C236.787 35.3 235.719 35.752 234.975 36.656C234.239 37.56 233.871 38.848 233.871 40.52C233.871 42.152 234.239 43.42 234.975 44.324C235.719 45.22 236.771 45.668 238.131 45.668C239.059 45.668 239.867 45.456 240.555 45.032C241.251 44.6 241.799 43.98 242.199 43.172L243.843 43.808C243.331 44.936 242.575 45.812 241.575 46.436C240.583 47.052 239.459 47.36 238.203 47.36ZM233.247 41.012V39.536H243.147V41.012H233.247ZM251.563 47V29.72H261.487V31.484H253.327V37.484H260.047V39.236H253.327V47H251.563ZM268.717 47.36C267.429 47.36 266.329 47.068 265.417 46.484C264.505 45.9 263.805 45.092 263.317 44.06C262.829 43.028 262.585 41.844 262.585 40.508C262.585 39.148 262.833 37.956 263.329 36.932C263.825 35.908 264.529 35.112 265.441 34.544C266.361 33.968 267.453 33.68 268.717 33.68C270.013 33.68 271.117 33.972 272.029 34.556C272.949 35.132 273.649 35.936 274.129 36.968C274.617 37.992 274.861 39.172 274.861 40.508C274.861 41.868 274.617 43.064 274.129 44.096C273.641 45.12 272.937 45.92 272.017 46.496C271.097 47.072 269.997 47.36 268.717 47.36ZM268.717 45.668C270.157 45.668 271.229 45.192 271.933 44.24C272.637 43.28 272.989 42.036 272.989 40.508C272.989 38.94 272.633 37.692 271.921 36.764C271.217 35.836 270.149 35.372 268.717 35.372C267.749 35.372 266.949 35.592 266.317 36.032C265.693 36.464 265.225 37.068 264.913 37.844C264.609 38.612 264.457 39.5 264.457 40.508C264.457 42.068 264.817 43.32 265.537 44.264C266.257 45.2 267.317 45.668 268.717 45.668ZM277.508 47V34.04H279.092V37.16L278.78 36.752C278.924 36.368 279.112 36.016 279.344 35.696C279.576 35.368 279.828 35.1 280.1 34.892C280.436 34.596 280.828 34.372 281.276 34.22C281.724 34.06 282.176 33.968 282.632 33.944C283.088 33.912 283.504 33.944 283.88 34.04V35.696C283.408 35.576 282.892 35.548 282.332 35.612C281.772 35.676 281.256 35.9 280.784 36.284C280.352 36.62 280.028 37.024 279.812 37.496C279.596 37.96 279.452 38.456 279.38 38.984C279.308 39.504 279.272 40.02 279.272 40.532V47H277.508ZM288.917 47L284.957 34.028L286.721 34.04L289.793 44.108L292.877 34.04H294.485L297.569 44.108L300.665 34.04H302.417L298.457 47H296.921L293.681 36.68L290.453 47H288.917ZM307.56 47.36C306.584 47.36 305.764 47.184 305.1 46.832C304.444 46.48 303.952 46.012 303.624 45.428C303.296 44.844 303.132 44.208 303.132 43.52C303.132 42.816 303.272 42.216 303.552 41.72C303.84 41.216 304.228 40.804 304.716 40.484C305.212 40.164 305.784 39.92 306.432 39.752C307.088 39.592 307.812 39.452 308.604 39.332C309.404 39.204 310.184 39.096 310.944 39.008C311.712 38.912 312.384 38.82 312.96 38.732L312.336 39.116C312.36 37.836 312.112 36.888 311.592 36.272C311.072 35.656 310.168 35.348 308.88 35.348C307.992 35.348 307.24 35.548 306.624 35.948C306.016 36.348 305.588 36.98 305.34 37.844L303.624 37.34C303.92 36.18 304.516 35.28 305.412 34.64C306.308 34 307.472 33.68 308.904 33.68C310.088 33.68 311.092 33.904 311.916 34.352C312.748 34.792 313.336 35.432 313.68 36.272C313.84 36.648 313.944 37.068 313.992 37.532C314.04 37.996 314.064 38.468 314.064 38.948V47H312.492V43.748L312.948 43.94C312.508 45.052 311.824 45.9 310.896 46.484C309.968 47.068 308.856 47.36 307.56 47.36ZM307.764 45.836C308.588 45.836 309.308 45.688 309.924 45.392C310.54 45.096 311.036 44.692 311.412 44.18C311.788 43.66 312.032 43.076 312.144 42.428C312.24 42.012 312.292 41.556 312.3 41.06C312.308 40.556 312.312 40.18 312.312 39.932L312.984 40.28C312.384 40.36 311.732 40.44 311.028 40.52C310.332 40.6 309.644 40.692 308.964 40.796C308.292 40.9 307.684 41.024 307.14 41.168C306.772 41.272 306.416 41.42 306.072 41.612C305.728 41.796 305.444 42.044 305.22 42.356C305.004 42.668 304.896 43.056 304.896 43.52C304.896 43.896 304.988 44.26 305.172 44.612C305.364 44.964 305.668 45.256 306.084 45.488C306.508 45.72 307.068 45.836 307.764 45.836ZM317.188 47V34.04H318.772V37.16L318.46 36.752C318.604 36.368 318.792 36.016 319.024 35.696C319.256 35.368 319.508 35.1 319.78 34.892C320.116 34.596 320.508 34.372 320.956 34.22C321.404 34.06 321.856 33.968 322.312 33.944C322.768 33.912 323.184 33.944 323.56 34.04V35.696C323.088 35.576 322.572 35.548 322.012 35.612C321.452 35.676 320.936 35.9 320.464 36.284C320.032 36.62 319.708 37.024 319.492 37.496C319.276 37.96 319.132 38.456 319.06 38.984C318.988 39.504 318.952 40.02 318.952 40.532V47H317.188ZM330.63 47.36C329.422 47.36 328.39 47.06 327.534 46.46C326.678 45.852 326.022 45.032 325.566 44C325.11 42.968 324.882 41.804 324.882 40.508C324.882 39.22 325.106 38.06 325.554 37.028C326.01 35.996 326.662 35.18 327.51 34.58C328.358 33.98 329.374 33.68 330.558 33.68C331.774 33.68 332.798 33.976 333.63 34.568C334.462 35.16 335.09 35.972 335.514 37.004C335.946 38.028 336.162 39.196 336.162 40.508C336.162 41.796 335.95 42.96 335.526 44C335.102 45.032 334.478 45.852 333.654 46.46C332.83 47.06 331.822 47.36 330.63 47.36ZM330.81 45.716C331.73 45.716 332.49 45.492 333.09 45.044C333.69 44.596 334.138 43.98 334.434 43.196C334.73 42.404 334.878 41.508 334.878 40.508C334.878 39.492 334.73 38.596 334.434 37.82C334.138 37.036 333.69 36.424 333.09 35.984C332.498 35.544 331.75 35.324 330.846 35.324C329.918 35.324 329.15 35.552 328.542 36.008C327.934 36.464 327.482 37.084 327.186 37.868C326.898 38.652 326.754 39.532 326.754 40.508C326.754 41.492 326.902 42.38 327.198 43.172C327.502 43.956 327.954 44.576 328.554 45.032C329.154 45.488 329.906 45.716 330.81 45.716ZM334.878 47V37.244H334.686V29.72H336.462V47H334.878Z" fill="#1F1F1F"/>
<g clip-path="url(#clip2_118_1270)">
<path d="M51.5416 130.586L51.4881 130.531L51.4346 130.586L38 144.274L24.5654 130.586L24.5119 130.531L24.4584 130.586L23.299 131.767L23.2474 131.82L23.299 131.872L37.3668 146.205L37.3888 146.228H37.4203H38.5797H38.6112L38.6332 146.205L52.701 131.872L52.7525 131.82L52.701 131.767L51.5416 130.586Z" fill="#002336" stroke="black" stroke-width="0.15"/>
<path d="M20.5185 155.72L20.518 155.719C15.9971 151.113 13.2209 144.856 13.2209 137.905C13.2209 130.954 16.0078 124.592 20.5174 120.092L20.518 120.091C25.0388 115.485 31.1791 112.657 38 112.657C44.8213 112.657 51.0647 115.496 55.4815 120.091L55.4821 120.091C60.0029 124.687 62.7895 130.954 62.7895 137.905C62.7895 144.856 60.0026 151.218 55.4929 155.718L55.4924 155.719C50.9715 160.315 44.8209 163.153 38 163.153C31.1787 163.153 24.9353 160.314 20.5185 155.72ZM37.925 165.075V165.075H38H38.075V165.075C52.7306 165.034 64.575 152.938 64.575 138C64.575 123.036 52.6902 110.925 38 110.925C23.3098 110.925 11.425 123.036 11.425 138C11.425 152.938 23.2694 165.034 37.925 165.075Z" fill="#002336" stroke="black" stroke-width="0.15"/>
</g>
<rect x="0.5" y="100.5" width="75" height="75" rx="7.5" stroke="#CED3D6"/>
<path d="M101.68 147V129.72H103.444V137.88L111.328 129.72H113.584L105.532 138.06L114.244 147H111.94L103.444 138.36V147H101.68ZM120.453 147.36C119.189 147.36 118.093 147.08 117.165 146.52C116.245 145.96 115.529 145.172 115.017 144.156C114.505 143.14 114.249 141.948 114.249 140.58C114.249 139.164 114.501 137.94 115.005 136.908C115.509 135.876 116.217 135.08 117.129 134.52C118.049 133.96 119.133 133.68 120.381 133.68C121.661 133.68 122.753 133.976 123.657 134.568C124.561 135.152 125.245 135.992 125.709 137.088C126.173 138.184 126.385 139.492 126.345 141.012H124.545V140.388C124.513 138.708 124.149 137.44 123.453 136.584C122.765 135.728 121.757 135.3 120.429 135.3C119.037 135.3 117.969 135.752 117.225 136.656C116.489 137.56 116.121 138.848 116.121 140.52C116.121 142.152 116.489 143.42 117.225 144.324C117.969 145.22 119.021 145.668 120.381 145.668C121.309 145.668 122.117 145.456 122.805 145.032C123.501 144.6 124.049 143.98 124.449 143.172L126.093 143.808C125.581 144.936 124.825 145.812 123.825 146.436C122.833 147.052 121.709 147.36 120.453 147.36ZM115.497 141.012V139.536H125.397V141.012H115.497ZM130.622 152.76L133.13 145.956L133.166 147.972L127.49 134.04H129.362L134.018 145.692H133.25L137.546 134.04H139.346L132.386 152.76H130.622ZM146.266 147.348C144.746 147.348 143.494 147.02 142.51 146.364C141.534 145.708 140.934 144.796 140.71 143.628L142.51 143.328C142.702 144.064 143.138 144.652 143.818 145.092C144.506 145.524 145.354 145.74 146.362 145.74C147.346 145.74 148.122 145.536 148.69 145.128C149.258 144.712 149.542 144.148 149.542 143.436C149.542 143.036 149.45 142.712 149.266 142.464C149.09 142.208 148.726 141.972 148.174 141.756C147.622 141.54 146.798 141.284 145.702 140.988C144.526 140.668 143.606 140.348 142.942 140.028C142.278 139.708 141.806 139.34 141.526 138.924C141.246 138.5 141.106 137.984 141.106 137.376C141.106 136.64 141.314 135.996 141.73 135.444C142.146 134.884 142.722 134.452 143.458 134.148C144.194 133.836 145.05 133.68 146.026 133.68C147.002 133.68 147.874 133.84 148.642 134.16C149.418 134.472 150.042 134.912 150.514 135.48C150.986 136.048 151.266 136.708 151.354 137.46L149.554 137.784C149.434 137.024 149.054 136.424 148.414 135.984C147.782 135.536 146.978 135.304 146.002 135.288C145.082 135.264 144.334 135.44 143.758 135.816C143.182 136.184 142.894 136.676 142.894 137.292C142.894 137.636 142.998 137.932 143.206 138.18C143.414 138.42 143.79 138.648 144.334 138.864C144.886 139.08 145.67 139.316 146.686 139.572C147.878 139.876 148.814 140.196 149.494 140.532C150.174 140.868 150.658 141.264 150.946 141.72C151.234 142.176 151.378 142.74 151.378 143.412C151.378 144.636 150.922 145.6 150.01 146.304C149.106 147 147.858 147.348 146.266 147.348ZM165.9 147C165.172 147.152 164.452 147.212 163.74 147.18C163.036 147.148 162.404 146.996 161.844 146.724C161.292 146.452 160.872 146.028 160.584 145.452C160.352 144.972 160.224 144.488 160.2 144C160.184 143.504 160.176 142.94 160.176 142.308V130.44H161.928V142.236C161.928 142.78 161.932 143.236 161.94 143.604C161.956 143.964 162.04 144.284 162.192 144.564C162.48 145.1 162.936 145.42 163.56 145.524C164.192 145.628 164.972 145.604 165.9 145.452V147ZM157.404 135.552V134.04H165.9V135.552H157.404ZM173.397 147.36C172.109 147.36 171.009 147.068 170.097 146.484C169.185 145.9 168.485 145.092 167.997 144.06C167.509 143.028 167.265 141.844 167.265 140.508C167.265 139.148 167.513 137.956 168.009 136.932C168.505 135.908 169.209 135.112 170.121 134.544C171.041 133.968 172.133 133.68 173.397 133.68C174.693 133.68 175.797 133.972 176.709 134.556C177.629 135.132 178.329 135.936 178.809 136.968C179.297 137.992 179.541 139.172 179.541 140.508C179.541 141.868 179.297 143.064 178.809 144.096C178.321 145.12 177.617 145.92 176.697 146.496C175.777 147.072 174.677 147.36 173.397 147.36ZM173.397 145.668C174.837 145.668 175.909 145.192 176.613 144.24C177.317 143.28 177.669 142.036 177.669 140.508C177.669 138.94 177.313 137.692 176.601 136.764C175.897 135.836 174.829 135.372 173.397 135.372C172.429 135.372 171.629 135.592 170.997 136.032C170.373 136.464 169.905 137.068 169.593 137.844C169.289 138.612 169.137 139.5 169.137 140.508C169.137 142.068 169.497 143.32 170.217 144.264C170.937 145.2 171.997 145.668 173.397 145.668ZM202.449 147L202.461 138.492C202.461 137.492 202.181 136.708 201.621 136.14C201.069 135.564 200.365 135.276 199.509 135.276C199.021 135.276 198.545 135.388 198.081 135.612C197.617 135.836 197.233 136.196 196.929 136.692C196.633 137.188 196.485 137.836 196.485 138.636L195.441 138.336C195.417 137.408 195.597 136.596 195.981 135.9C196.373 135.204 196.909 134.664 197.589 134.28C198.277 133.888 199.053 133.692 199.917 133.692C201.221 133.692 202.265 134.096 203.049 134.904C203.833 135.704 204.225 136.788 204.225 138.156L204.213 147H202.449ZM186.981 147V134.04H188.565V137.232H188.757V147H186.981ZM194.733 147L194.745 138.612C194.745 137.58 194.469 136.768 193.917 136.176C193.373 135.576 192.653 135.276 191.757 135.276C190.861 135.276 190.137 135.584 189.585 136.2C189.033 136.808 188.757 137.62 188.757 138.636L187.701 138.06C187.701 137.228 187.897 136.484 188.289 135.828C188.681 135.164 189.217 134.644 189.897 134.268C190.577 133.884 191.349 133.692 192.213 133.692C193.037 133.692 193.769 133.868 194.409 134.22C195.057 134.572 195.565 135.084 195.933 135.756C196.301 136.428 196.485 137.244 196.485 138.204L196.473 147H194.733ZM212.678 147.36C211.39 147.36 210.29 147.068 209.378 146.484C208.466 145.9 207.766 145.092 207.278 144.06C206.79 143.028 206.546 141.844 206.546 140.508C206.546 139.148 206.794 137.956 207.29 136.932C207.786 135.908 208.49 135.112 209.402 134.544C210.322 133.968 211.414 133.68 212.678 133.68C213.974 133.68 215.078 133.972 215.99 134.556C216.91 135.132 217.61 135.936 218.09 136.968C218.578 137.992 218.822 139.172 218.822 140.508C218.822 141.868 218.578 143.064 218.09 144.096C217.602 145.12 216.898 145.92 215.978 146.496C215.058 147.072 213.958 147.36 212.678 147.36ZM212.678 145.668C214.118 145.668 215.19 145.192 215.894 144.24C216.598 143.28 216.95 142.036 216.95 140.508C216.95 138.94 216.594 137.692 215.882 136.764C215.178 135.836 214.11 135.372 212.678 135.372C211.71 135.372 210.91 135.592 210.278 136.032C209.654 136.464 209.186 137.068 208.874 137.844C208.57 138.612 208.418 139.5 208.418 140.508C208.418 142.068 208.778 143.32 209.498 144.264C210.218 145.2 211.278 145.668 212.678 145.668ZM224.504 147L219.8 134.04H221.588L225.416 144.696L229.22 134.04H231.032L226.328 147H224.504ZM238.203 147.36C236.939 147.36 235.843 147.08 234.915 146.52C233.995 145.96 233.279 145.172 232.767 144.156C232.255 143.14 231.999 141.948 231.999 140.58C231.999 139.164 232.251 137.94 232.755 136.908C233.259 135.876 233.967 135.08 234.879 134.52C235.799 133.96 236.883 133.68 238.131 133.68C239.411 133.68 240.503 133.976 241.407 134.568C242.311 135.152 242.995 135.992 243.459 137.088C243.923 138.184 244.135 139.492 244.095 141.012H242.295V140.388C242.263 138.708 241.899 137.44 241.203 136.584C240.515 135.728 239.507 135.3 238.179 135.3C236.787 135.3 235.719 135.752 234.975 136.656C234.239 137.56 233.871 138.848 233.871 140.52C233.871 142.152 234.239 143.42 234.975 144.324C235.719 145.22 236.771 145.668 238.131 145.668C239.059 145.668 239.867 145.456 240.555 145.032C241.251 144.6 241.799 143.98 242.199 143.172L243.843 143.808C243.331 144.936 242.575 145.812 241.575 146.436C240.583 147.052 239.459 147.36 238.203 147.36ZM233.247 141.012V139.536H243.147V141.012H233.247ZM251.563 147V129.72H258.235C259.203 129.72 260.047 129.92 260.767 130.32C261.487 130.72 262.047 131.26 262.447 131.94C262.847 132.612 263.047 133.356 263.047 134.172C263.047 135.1 262.799 135.928 262.303 136.656C261.807 137.376 261.143 137.876 260.311 138.156L260.287 137.568C261.407 137.888 262.287 138.448 262.927 139.248C263.567 140.048 263.887 141.016 263.887 142.152C263.887 143.152 263.675 144.016 263.251 144.744C262.827 145.464 262.231 146.02 261.463 146.412C260.695 146.804 259.803 147 258.787 147H251.563ZM253.339 145.308H258.355C259.059 145.308 259.691 145.184 260.251 144.936C260.811 144.68 261.251 144.32 261.571 143.856C261.899 143.392 262.063 142.832 262.063 142.176C262.063 141.536 261.915 140.96 261.619 140.448C261.323 139.936 260.919 139.528 260.407 139.224C259.903 138.912 259.327 138.756 258.679 138.756H253.339V145.308ZM253.339 137.088H258.223C258.775 137.088 259.279 136.964 259.735 136.716C260.191 136.46 260.551 136.112 260.815 135.672C261.087 135.232 261.223 134.724 261.223 134.148C261.223 133.332 260.939 132.668 260.371 132.156C259.811 131.644 259.095 131.388 258.223 131.388H253.339V137.088ZM269.99 147.36C269.014 147.36 268.194 147.184 267.53 146.832C266.874 146.48 266.382 146.012 266.054 145.428C265.726 144.844 265.562 144.208 265.562 143.52C265.562 142.816 265.702 142.216 265.982 141.72C266.27 141.216 266.658 140.804 267.146 140.484C267.642 140.164 268.214 139.92 268.862 139.752C269.518 139.592 270.242 139.452 271.034 139.332C271.834 139.204 272.614 139.096 273.374 139.008C274.142 138.912 274.814 138.82 275.39 138.732L274.766 139.116C274.79 137.836 274.542 136.888 274.022 136.272C273.502 135.656 272.598 135.348 271.31 135.348C270.422 135.348 269.67 135.548 269.054 135.948C268.446 136.348 268.018 136.98 267.77 137.844L266.054 137.34C266.35 136.18 266.946 135.28 267.842 134.64C268.738 134 269.902 133.68 271.334 133.68C272.518 133.68 273.522 133.904 274.346 134.352C275.178 134.792 275.766 135.432 276.11 136.272C276.27 136.648 276.374 137.068 276.422 137.532C276.47 137.996 276.494 138.468 276.494 138.948V147H274.922V143.748L275.378 143.94C274.938 145.052 274.254 145.9 273.326 146.484C272.398 147.068 271.286 147.36 269.99 147.36ZM270.194 145.836C271.018 145.836 271.738 145.688 272.354 145.392C272.97 145.096 273.466 144.692 273.842 144.18C274.218 143.66 274.462 143.076 274.574 142.428C274.67 142.012 274.722 141.556 274.73 141.06C274.738 140.556 274.742 140.18 274.742 139.932L275.414 140.28C274.814 140.36 274.162 140.44 273.458 140.52C272.762 140.6 272.074 140.692 271.394 140.796C270.722 140.9 270.114 141.024 269.57 141.168C269.202 141.272 268.846 141.42 268.502 141.612C268.158 141.796 267.874 142.044 267.65 142.356C267.434 142.668 267.326 143.056 267.326 143.52C267.326 143.896 267.418 144.26 267.602 144.612C267.794 144.964 268.098 145.256 268.514 145.488C268.938 145.72 269.498 145.836 270.194 145.836ZM284.993 147.36C283.69 147.36 282.586 147.068 281.682 146.484C280.778 145.9 280.09 145.096 279.618 144.072C279.154 143.04 278.914 141.856 278.898 140.52C278.914 139.16 279.162 137.968 279.642 136.944C280.122 135.912 280.814 135.112 281.718 134.544C282.622 133.968 283.718 133.68 285.006 133.68C286.318 133.68 287.458 134 288.426 134.64C289.402 135.28 290.07 136.156 290.43 137.268L288.702 137.82C288.398 137.044 287.914 136.444 287.25 136.02C286.594 135.588 285.842 135.372 284.993 135.372C284.042 135.372 283.254 135.592 282.63 136.032C282.006 136.464 281.542 137.068 281.238 137.844C280.934 138.62 280.778 139.512 280.77 140.52C280.786 142.072 281.146 143.32 281.85 144.264C282.554 145.2 283.602 145.668 284.993 145.668C285.874 145.668 286.622 145.468 287.238 145.068C287.862 144.66 288.334 144.068 288.654 143.292L290.43 143.82C289.95 144.972 289.246 145.852 288.318 146.46C287.39 147.06 286.282 147.36 284.993 147.36ZM292.895 147L292.907 129.72H294.683V140.28L300.467 134.04H302.819L296.747 140.52L303.611 147H301.043L294.683 140.76V147H292.895ZM307.573 147L303.613 134.028L305.377 134.04L308.449 144.108L311.533 134.04H313.141L316.225 144.108L319.321 134.04H321.073L317.113 147H315.577L312.337 136.68L309.109 147H307.573ZM326.216 147.36C325.24 147.36 324.42 147.184 323.756 146.832C323.1 146.48 322.608 146.012 322.28 145.428C321.952 144.844 321.788 144.208 321.788 143.52C321.788 142.816 321.928 142.216 322.208 141.72C322.496 141.216 322.884 140.804 323.372 140.484C323.868 140.164 324.44 139.92 325.088 139.752C325.744 139.592 326.468 139.452 327.26 139.332C328.06 139.204 328.84 139.096 329.6 139.008C330.368 138.912 331.04 138.82 331.616 138.732L330.992 139.116C331.016 137.836 330.768 136.888 330.248 136.272C329.728 135.656 328.824 135.348 327.536 135.348C326.648 135.348 325.896 135.548 325.28 135.948C324.672 136.348 324.244 136.98 323.996 137.844L322.28 137.34C322.576 136.18 323.172 135.28 324.068 134.64C324.964 134 326.128 133.68 327.56 133.68C328.744 133.68 329.748 133.904 330.572 134.352C331.404 134.792 331.992 135.432 332.336 136.272C332.496 136.648 332.6 137.068 332.648 137.532C332.696 137.996 332.72 138.468 332.72 138.948V147H331.148V143.748L331.604 143.94C331.164 145.052 330.48 145.9 329.552 146.484C328.624 147.068 327.512 147.36 326.216 147.36ZM326.42 145.836C327.244 145.836 327.964 145.688 328.58 145.392C329.196 145.096 329.692 144.692 330.068 144.18C330.444 143.66 330.688 143.076 330.8 142.428C330.896 142.012 330.948 141.556 330.956 141.06C330.964 140.556 330.968 140.18 330.968 139.932L331.64 140.28C331.04 140.36 330.388 140.44 329.684 140.52C328.988 140.6 328.3 140.692 327.62 140.796C326.948 140.9 326.34 141.024 325.796 141.168C325.428 141.272 325.072 141.42 324.728 141.612C324.384 141.796 324.1 142.044 323.876 142.356C323.66 142.668 323.552 143.056 323.552 143.52C323.552 143.896 323.644 144.26 323.828 144.612C324.02 144.964 324.324 145.256 324.74 145.488C325.164 145.72 325.724 145.836 326.42 145.836ZM335.844 147V134.04H337.428V137.16L337.116 136.752C337.26 136.368 337.448 136.016 337.68 135.696C337.912 135.368 338.164 135.1 338.436 134.892C338.772 134.596 339.164 134.372 339.612 134.22C340.06 134.06 340.512 133.968 340.968 133.944C341.424 133.912 341.84 133.944 342.216 134.04V135.696C341.744 135.576 341.228 135.548 340.668 135.612C340.108 135.676 339.592 135.9 339.12 136.284C338.688 136.62 338.364 137.024 338.148 137.496C337.932 137.96 337.788 138.456 337.716 138.984C337.644 139.504 337.608 140.02 337.608 140.532V147H335.844ZM349.286 147.36C348.078 147.36 347.046 147.06 346.19 146.46C345.334 145.852 344.678 145.032 344.222 144C343.766 142.968 343.538 141.804 343.538 140.508C343.538 139.22 343.762 138.06 344.21 137.028C344.666 135.996 345.318 135.18 346.166 134.58C347.014 133.98 348.03 133.68 349.214 133.68C350.43 133.68 351.454 133.976 352.286 134.568C353.118 135.16 353.746 135.972 354.17 137.004C354.602 138.028 354.818 139.196 354.818 140.508C354.818 141.796 354.606 142.96 354.182 144C353.758 145.032 353.134 145.852 352.31 146.46C351.486 147.06 350.478 147.36 349.286 147.36ZM349.466 145.716C350.386 145.716 351.146 145.492 351.746 145.044C352.346 144.596 352.794 143.98 353.09 143.196C353.386 142.404 353.534 141.508 353.534 140.508C353.534 139.492 353.386 138.596 353.09 137.82C352.794 137.036 352.346 136.424 351.746 135.984C351.154 135.544 350.406 135.324 349.502 135.324C348.574 135.324 347.806 135.552 347.198 136.008C346.59 136.464 346.138 137.084 345.842 137.868C345.554 138.652 345.41 139.532 345.41 140.508C345.41 141.492 345.558 142.38 345.854 143.172C346.158 143.956 346.61 144.576 347.21 145.032C347.81 145.488 348.562 145.716 349.466 145.716ZM353.534 147V137.244H353.342V129.72H355.118V147H353.534Z" fill="#1F1F1F"/>
<g clip-path="url(#clip3_118_1270)">
<mask id="path-10-outside-1_118_1270" maskUnits="userSpaceOnUse" x="12.625" y="211.071" width="52" height="50" fill="black">
<rect fill="white" x="12.625" y="211.071" width="52" height="50"/>
<path fill-rule="evenodd" clip-rule="evenodd" d="M32.1067 217.917C33.085 217.505 34.2164 217.983 34.6234 218.983L41.2487 235.324C41.423 235.763 41.9739 236.001 42.4093 235.816C42.8636 235.625 43.0783 235.094 42.891 234.632L40.5568 228.873C40.3625 228.391 40.3653 227.861 40.5607 227.373C40.7592 226.885 41.1267 226.507 41.5994 226.308C42.0677 226.108 42.5896 226.108 43.0713 226.31C43.5499 226.513 43.9185 226.889 44.1142 227.372L46.8143 234.035C47.0026 234.496 47.5174 234.718 47.9739 234.527C48.4292 234.335 48.6429 233.804 48.4556 233.342L46.7447 229.116C46.5634 228.671 46.5634 228.173 46.7485 227.719C46.9309 227.267 47.2725 226.914 47.7106 226.728C48.6182 226.345 49.673 226.787 50.049 227.718L51.9602 232.432C52.1507 232.899 52.6746 233.109 53.1208 232.924C53.5794 232.729 53.7877 232.199 53.6025 231.736L52.6787 229.459C52.3091 228.531 52.7413 227.463 53.651 227.079C54.0913 226.893 54.5758 226.891 55.0172 227.083C55.4614 227.269 55.805 227.62 55.9874 228.066L61.1577 240.934L61.2322 241.153C61.6935 243.067 61.728 245.369 61.76 247.597C61.7881 249.511 61.8165 251.335 62.0934 252.941L48.0732 258.869C45.0295 256.992 43.2494 256.226 41.8168 255.617C40.1895 254.924 39.0149 254.425 36.7077 252.649C35.6437 251.832 34.4961 250.723 33.3871 249.652C32.0322 248.346 30.7578 247.111 29.5848 246.33C28.3798 245.526 27.1335 244.059 27.2667 243.24C27.3826 242.566 28.6237 242.43 29.1525 242.403C29.759 242.368 30.4158 242.451 31.0244 242.632C31.5371 242.787 32.0209 243.011 32.4612 243.301C33.5403 244.01 37.2165 246.314 40.095 246.824C40.4538 246.884 40.751 246.893 41.0339 246.614C41.2838 246.376 41.4018 245.942 41.2585 245.617L31.0676 220.487C30.6614 219.486 31.1285 218.332 32.1067 217.917ZM36.2642 218.289C35.4813 216.365 33.3094 215.442 31.4292 216.244C29.544 217.04 28.6456 219.257 29.4242 221.182L38.9269 244.624C36.5787 243.795 34.0093 242.162 33.4191 241.774C32.8368 241.393 32.197 241.096 31.5209 240.893C30.725 240.651 29.8778 240.55 29.0576 240.589C26.2912 240.731 25.6503 242.116 25.5122 242.932C25.1766 244.963 27.3921 247.035 28.6103 247.849C29.6479 248.541 30.868 249.72 32.1638 250.968C33.3083 252.076 34.4953 253.218 35.6348 254.094C38.1222 256.009 39.4512 256.573 41.1276 257.289C42.641 257.933 44.3558 258.664 47.5322 260.654C47.6784 260.744 47.8376 260.786 47.9978 260.786C48.1085 260.786 48.2266 260.763 48.3372 260.718L63.4504 254.327C63.8555 254.155 64.079 253.709 63.9743 253.275C63.5945 251.691 63.5642 249.687 63.5319 247.565C63.4996 245.237 63.4634 242.83 62.9535 240.717C62.9114 240.538 62.8689 240.418 62.8003 240.245L57.6269 227.373C57.2653 226.478 56.5801 225.777 55.6947 225.406C54.8152 225.03 53.8451 225.03 52.9704 225.402C52.3478 225.666 51.8471 226.095 51.4753 226.614C50.5947 225.049 48.7026 224.339 47.0314 225.051C46.4249 225.31 45.9193 225.732 45.5374 226.263C45.1333 225.537 44.5208 224.963 43.7481 224.637C42.8281 224.247 41.8257 224.249 40.918 224.633C40.2792 224.901 39.7483 225.348 39.3523 225.908L36.2642 218.289ZM29.9846 212.683C28.0622 213.493 26.5653 215.026 25.7695 216.989C24.9704 218.952 24.9704 221.114 25.7695 223.08C25.9469 223.522 26.1613 223.94 26.403 224.329C26.6648 224.75 27.22 224.875 27.6283 224.605C28.0422 224.336 28.1641 223.774 27.8992 223.352C27.7108 223.05 27.5457 222.728 27.4087 222.386C26.7751 220.823 26.8222 219.142 27.4087 217.691C27.9969 216.234 29.1294 215.005 30.6649 214.356C32.151 213.731 33.7852 213.728 35.2712 214.358C36.7543 214.988 37.9108 216.169 38.5243 217.683C38.6652 218.032 38.7752 218.389 38.8497 218.744C38.9544 219.234 39.4077 219.543 39.9084 219.438C40.3849 219.332 40.6892 218.849 40.5873 218.36C40.4875 217.899 40.3466 217.442 40.1663 216.99C39.3683 215.026 37.8721 213.495 35.9512 212.683C34.0245 211.869 31.9087 211.867 29.9846 212.683ZM32.9999 237.258C31.2679 236.222 29.2489 235.934 27.3156 236.453C25.3774 236.968 23.7523 238.223 22.7396 239.988C21.7251 241.753 21.4479 243.813 21.9539 245.792C22.4577 247.772 23.6858 249.431 25.4147 250.466C25.8047 250.699 26.2067 250.891 26.6136 251.046C27.064 251.231 27.5859 250.976 27.7552 250.514C27.9273 250.048 27.6947 249.526 27.2344 249.349C26.9231 249.23 26.6139 249.083 26.3145 248.902C24.9968 248.112 24.0568 246.845 23.6706 245.337C23.2859 243.826 23.4995 242.253 24.2732 240.907C25.047 239.559 26.2863 238.601 27.7653 238.207C29.2474 237.815 30.7846 238.034 32.1013 238.822C32.4067 239.004 32.6857 239.21 32.9446 239.435C33.3203 239.763 33.8807 239.719 34.198 239.338C34.5175 238.958 34.4732 238.384 34.1014 238.057C33.7616 237.765 33.3969 237.494 32.9999 237.258ZM17.0411 217.624C16.649 217.924 16.5685 218.491 16.8598 218.891C17.1561 219.293 17.7102 219.376 18.1052 219.077L18.8627 218.499L15.7916 240.115L15.2234 239.338C14.9304 238.936 14.3752 238.853 13.9823 239.154C13.5884 239.453 13.508 240.023 13.8021 240.423L15.6517 242.952C15.9448 243.353 16.5021 243.433 16.8928 243.136L19.3683 241.25C19.7601 240.949 19.842 240.382 19.5476 239.98C19.2524 239.578 18.6962 239.497 18.3054 239.796L17.5467 240.374L20.6175 218.76L21.1857 219.537C21.4801 219.936 22.0371 220.017 22.4271 219.72C22.8221 219.419 22.9026 218.851 22.6074 218.451L20.7578 215.922C20.4665 215.521 19.9085 215.439 19.5167 215.738L17.0411 217.624Z"/>
</mask>
<path fill-rule="evenodd" clip-rule="evenodd" d="M32.1067 217.917C33.085 217.505 34.2164 217.983 34.6234 218.983L41.2487 235.324C41.423 235.763 41.9739 236.001 42.4093 235.816C42.8636 235.625 43.0783 235.094 42.891 234.632L40.5568 228.873C40.3625 228.391 40.3653 227.861 40.5607 227.373C40.7592 226.885 41.1267 226.507 41.5994 226.308C42.0677 226.108 42.5896 226.108 43.0713 226.31C43.5499 226.513 43.9185 226.889 44.1142 227.372L46.8143 234.035C47.0026 234.496 47.5174 234.718 47.9739 234.527C48.4292 234.335 48.6429 233.804 48.4556 233.342L46.7447 229.116C46.5634 228.671 46.5634 228.173 46.7485 227.719C46.9309 227.267 47.2725 226.914 47.7106 226.728C48.6182 226.345 49.673 226.787 50.049 227.718L51.9602 232.432C52.1507 232.899 52.6746 233.109 53.1208 232.924C53.5794 232.729 53.7877 232.199 53.6025 231.736L52.6787 229.459C52.3091 228.531 52.7413 227.463 53.651 227.079C54.0913 226.893 54.5758 226.891 55.0172 227.083C55.4614 227.269 55.805 227.62 55.9874 228.066L61.1577 240.934L61.2322 241.153C61.6935 243.067 61.728 245.369 61.76 247.597C61.7881 249.511 61.8165 251.335 62.0934 252.941L48.0732 258.869C45.0295 256.992 43.2494 256.226 41.8168 255.617C40.1895 254.924 39.0149 254.425 36.7077 252.649C35.6437 251.832 34.4961 250.723 33.3871 249.652C32.0322 248.346 30.7578 247.111 29.5848 246.33C28.3798 245.526 27.1335 244.059 27.2667 243.24C27.3826 242.566 28.6237 242.43 29.1525 242.403C29.759 242.368 30.4158 242.451 31.0244 242.632C31.5371 242.787 32.0209 243.011 32.4612 243.301C33.5403 244.01 37.2165 246.314 40.095 246.824C40.4538 246.884 40.751 246.893 41.0339 246.614C41.2838 246.376 41.4018 245.942 41.2585 245.617L31.0676 220.487C30.6614 219.486 31.1285 218.332 32.1067 217.917ZM36.2642 218.289C35.4813 216.365 33.3094 215.442 31.4292 216.244C29.544 217.04 28.6456 219.257 29.4242 221.182L38.9269 244.624C36.5787 243.795 34.0093 242.162 33.4191 241.774C32.8368 241.393 32.197 241.096 31.5209 240.893C30.725 240.651 29.8778 240.55 29.0576 240.589C26.2912 240.731 25.6503 242.116 25.5122 242.932C25.1766 244.963 27.3921 247.035 28.6103 247.849C29.6479 248.541 30.868 249.72 32.1638 250.968C33.3083 252.076 34.4953 253.218 35.6348 254.094C38.1222 256.009 39.4512 256.573 41.1276 257.289C42.641 257.933 44.3558 258.664 47.5322 260.654C47.6784 260.744 47.8376 260.786 47.9978 260.786C48.1085 260.786 48.2266 260.763 48.3372 260.718L63.4504 254.327C63.8555 254.155 64.079 253.709 63.9743 253.275C63.5945 251.691 63.5642 249.687 63.5319 247.565C63.4996 245.237 63.4634 242.83 62.9535 240.717C62.9114 240.538 62.8689 240.418 62.8003 240.245L57.6269 227.373C57.2653 226.478 56.5801 225.777 55.6947 225.406C54.8152 225.03 53.8451 225.03 52.9704 225.402C52.3478 225.666 51.8471 226.095 51.4753 226.614C50.5947 225.049 48.7026 224.339 47.0314 225.051C46.4249 225.31 45.9193 225.732 45.5374 226.263C45.1333 225.537 44.5208 224.963 43.7481 224.637C42.8281 224.247 41.8257 224.249 40.918 224.633C40.2792 224.901 39.7483 225.348 39.3523 225.908L36.2642 218.289ZM29.9846 212.683C28.0622 213.493 26.5653 215.026 25.7695 216.989C24.9704 218.952 24.9704 221.114 25.7695 223.08C25.9469 223.522 26.1613 223.94 26.403 224.329C26.6648 224.75 27.22 224.875 27.6283 224.605C28.0422 224.336 28.1641 223.774 27.8992 223.352C27.7108 223.05 27.5457 222.728 27.4087 222.386C26.7751 220.823 26.8222 219.142 27.4087 217.691C27.9969 216.234 29.1294 215.005 30.6649 214.356C32.151 213.731 33.7852 213.728 35.2712 214.358C36.7543 214.988 37.9108 216.169 38.5243 217.683C38.6652 218.032 38.7752 218.389 38.8497 218.744C38.9544 219.234 39.4077 219.543 39.9084 219.438C40.3849 219.332 40.6892 218.849 40.5873 218.36C40.4875 217.899 40.3466 217.442 40.1663 216.99C39.3683 215.026 37.8721 213.495 35.9512 212.683C34.0245 211.869 31.9087 211.867 29.9846 212.683ZM32.9999 237.258C31.2679 236.222 29.2489 235.934 27.3156 236.453C25.3774 236.968 23.7523 238.223 22.7396 239.988C21.7251 241.753 21.4479 243.813 21.9539 245.792C22.4577 247.772 23.6858 249.431 25.4147 250.466C25.8047 250.699 26.2067 250.891 26.6136 251.046C27.064 251.231 27.5859 250.976 27.7552 250.514C27.9273 250.048 27.6947 249.526 27.2344 249.349C26.9231 249.23 26.6139 249.083 26.3145 248.902C24.9968 248.112 24.0568 246.845 23.6706 245.337C23.2859 243.826 23.4995 242.253 24.2732 240.907C25.047 239.559 26.2863 238.601 27.7653 238.207C29.2474 237.815 30.7846 238.034 32.1013 238.822C32.4067 239.004 32.6857 239.21 32.9446 239.435C33.3203 239.763 33.8807 239.719 34.198 239.338C34.5175 238.958 34.4732 238.384 34.1014 238.057C33.7616 237.765 33.3969 237.494 32.9999 237.258ZM17.0411 217.624C16.649 217.924 16.5685 218.491 16.8598 218.891C17.1561 219.293 17.7102 219.376 18.1052 219.077L18.8627 218.499L15.7916 240.115L15.2234 239.338C14.9304 238.936 14.3752 238.853 13.9823 239.154C13.5884 239.453 13.508 240.023 13.8021 240.423L15.6517 242.952C15.9448 243.353 16.5021 243.433 16.8928 243.136L19.3683 241.25C19.7601 240.949 19.842 240.382 19.5476 239.98C19.2524 239.578 18.6962 239.497 18.3054 239.796L17.5467 240.374L20.6175 218.76L21.1857 219.537C21.4801 219.936 22.0371 220.017 22.4271 219.72C22.8221 219.419 22.9026 218.851 22.6074 218.451L20.7578 215.922C20.4665 215.521 19.9085 215.439 19.5167 215.738L17.0411 217.624Z" fill="black"/>
<path fill-rule="evenodd" clip-rule="evenodd" d="M32.1067 217.917C33.085 217.505 34.2164 217.983 34.6234 218.983L41.2487 235.324C41.423 235.763 41.9739 236.001 42.4093 235.816C42.8636 235.625 43.0783 235.094 42.891 234.632L40.5568 228.873C40.3625 228.391 40.3653 227.861 40.5607 227.373C40.7592 226.885 41.1267 226.507 41.5994 226.308C42.0677 226.108 42.5896 226.108 43.0713 226.31C43.5499 226.513 43.9185 226.889 44.1142 227.372L46.8143 234.035C47.0026 234.496 47.5174 234.718 47.9739 234.527C48.4292 234.335 48.6429 233.804 48.4556 233.342L46.7447 229.116C46.5634 228.671 46.5634 228.173 46.7485 227.719C46.9309 227.267 47.2725 226.914 47.7106 226.728C48.6182 226.345 49.673 226.787 50.049 227.718L51.9602 232.432C52.1507 232.899 52.6746 233.109 53.1208 232.924C53.5794 232.729 53.7877 232.199 53.6025 231.736L52.6787 229.459C52.3091 228.531 52.7413 227.463 53.651 227.079C54.0913 226.893 54.5758 226.891 55.0172 227.083C55.4614 227.269 55.805 227.62 55.9874 228.066L61.1577 240.934L61.2322 241.153C61.6935 243.067 61.728 245.369 61.76 247.597C61.7881 249.511 61.8165 251.335 62.0934 252.941L48.0732 258.869C45.0295 256.992 43.2494 256.226 41.8168 255.617C40.1895 254.924 39.0149 254.425 36.7077 252.649C35.6437 251.832 34.4961 250.723 33.3871 249.652C32.0322 248.346 30.7578 247.111 29.5848 246.33C28.3798 245.526 27.1335 244.059 27.2667 243.24C27.3826 242.566 28.6237 242.43 29.1525 242.403C29.759 242.368 30.4158 242.451 31.0244 242.632C31.5371 242.787 32.0209 243.011 32.4612 243.301C33.5403 244.01 37.2165 246.314 40.095 246.824C40.4538 246.884 40.751 246.893 41.0339 246.614C41.2838 246.376 41.4018 245.942 41.2585 245.617L31.0676 220.487C30.6614 219.486 31.1285 218.332 32.1067 217.917ZM36.2642 218.289C35.4813 216.365 33.3094 215.442 31.4292 216.244C29.544 217.04 28.6456 219.257 29.4242 221.182L38.9269 244.624C36.5787 243.795 34.0093 242.162 33.4191 241.774C32.8368 241.393 32.197 241.096 31.5209 240.893C30.725 240.651 29.8778 240.55 29.0576 240.589C26.2912 240.731 25.6503 242.116 25.5122 242.932C25.1766 244.963 27.3921 247.035 28.6103 247.849C29.6479 248.541 30.868 249.72 32.1638 250.968C33.3083 252.076 34.4953 253.218 35.6348 254.094C38.1222 256.009 39.4512 256.573 41.1276 257.289C42.641 257.933 44.3558 258.664 47.5322 260.654C47.6784 260.744 47.8376 260.786 47.9978 260.786C48.1085 260.786 48.2266 260.763 48.3372 260.718L63.4504 254.327C63.8555 254.155 64.079 253.709 63.9743 253.275C63.5945 251.691 63.5642 249.687 63.5319 247.565C63.4996 245.237 63.4634 242.83 62.9535 240.717C62.9114 240.538 62.8689 240.418 62.8003 240.245L57.6269 227.373C57.2653 226.478 56.5801 225.777 55.6947 225.406C54.8152 225.03 53.8451 225.03 52.9704 225.402C52.3478 225.666 51.8471 226.095 51.4753 226.614C50.5947 225.049 48.7026 224.339 47.0314 225.051C46.4249 225.31 45.9193 225.732 45.5374 226.263C45.1333 225.537 44.5208 224.963 43.7481 224.637C42.8281 224.247 41.8257 224.249 40.918 224.633C40.2792 224.901 39.7483 225.348 39.3523 225.908L36.2642 218.289ZM29.9846 212.683C28.0622 213.493 26.5653 215.026 25.7695 216.989C24.9704 218.952 24.9704 221.114 25.7695 223.08C25.9469 223.522 26.1613 223.94 26.403 224.329C26.6648 224.75 27.22 224.875 27.6283 224.605C28.0422 224.336 28.1641 223.774 27.8992 223.352C27.7108 223.05 27.5457 222.728 27.4087 222.386C26.7751 220.823 26.8222 219.142 27.4087 217.691C27.9969 216.234 29.1294 215.005 30.6649 214.356C32.151 213.731 33.7852 213.728 35.2712 214.358C36.7543 214.988 37.9108 216.169 38.5243 217.683C38.6652 218.032 38.7752 218.389 38.8497 218.744C38.9544 219.234 39.4077 219.543 39.9084 219.438C40.3849 219.332 40.6892 218.849 40.5873 218.36C40.4875 217.899 40.3466 217.442 40.1663 216.99C39.3683 215.026 37.8721 213.495 35.9512 212.683C34.0245 211.869 31.9087 211.867 29.9846 212.683ZM32.9999 237.258C31.2679 236.222 29.2489 235.934 27.3156 236.453C25.3774 236.968 23.7523 238.223 22.7396 239.988C21.7251 241.753 21.4479 243.813 21.9539 245.792C22.4577 247.772 23.6858 249.431 25.4147 250.466C25.8047 250.699 26.2067 250.891 26.6136 251.046C27.064 251.231 27.5859 250.976 27.7552 250.514C27.9273 250.048 27.6947 249.526 27.2344 249.349C26.9231 249.23 26.6139 249.083 26.3145 248.902C24.9968 248.112 24.0568 246.845 23.6706 245.337C23.2859 243.826 23.4995 242.253 24.2732 240.907C25.047 239.559 26.2863 238.601 27.7653 238.207C29.2474 237.815 30.7846 238.034 32.1013 238.822C32.4067 239.004 32.6857 239.21 32.9446 239.435C33.3203 239.763 33.8807 239.719 34.198 239.338C34.5175 238.958 34.4732 238.384 34.1014 238.057C33.7616 237.765 33.3969 237.494 32.9999 237.258ZM17.0411 217.624C16.649 217.924 16.5685 218.491 16.8598 218.891C17.1561 219.293 17.7102 219.376 18.1052 219.077L18.8627 218.499L15.7916 240.115L15.2234 239.338C14.9304 238.936 14.3752 238.853 13.9823 239.154C13.5884 239.453 13.508 240.023 13.8021 240.423L15.6517 242.952C15.9448 243.353 16.5021 243.433 16.8928 243.136L19.3683 241.25C19.7601 240.949 19.842 240.382 19.5476 239.98C19.2524 239.578 18.6962 239.497 18.3054 239.796L17.5467 240.374L20.6175 218.76L21.1857 219.537C21.4801 219.936 22.0371 220.017 22.4271 219.72C22.8221 219.419 22.9026 218.851 22.6074 218.451L20.7578 215.922C20.4665 215.521 19.9085 215.439 19.5167 215.738L17.0411 217.624Z" stroke="black" stroke-width="0.4" mask="url(#path-10-outside-1_118_1270)"/>
</g>
<rect x="0.5" y="200.5" width="75" height="75" rx="7.5" stroke="#CED3D6"/>
<path d="M102.114 247V229.545H108.011C109.381 229.545 110.5 229.793 111.369 230.287C112.244 230.776 112.892 231.438 113.312 232.273C113.733 233.108 113.943 234.04 113.943 235.068C113.943 236.097 113.733 237.031 113.312 237.872C112.898 238.713 112.256 239.384 111.386 239.884C110.517 240.378 109.403 240.625 108.045 240.625H103.818V238.75H107.977C108.915 238.75 109.668 238.588 110.236 238.264C110.804 237.94 111.216 237.503 111.472 236.952C111.733 236.395 111.864 235.767 111.864 235.068C111.864 234.369 111.733 233.744 111.472 233.193C111.216 232.642 110.801 232.21 110.227 231.898C109.653 231.58 108.892 231.42 107.943 231.42H104.227V247H102.114ZM117.075 247V233.909H119.087V247H117.075ZM118.098 231.727C117.706 231.727 117.368 231.594 117.084 231.327C116.805 231.06 116.666 230.739 116.666 230.364C116.666 229.989 116.805 229.668 117.084 229.401C117.368 229.134 117.706 229 118.098 229C118.49 229 118.825 229.134 119.104 229.401C119.388 229.668 119.53 229.989 119.53 230.364C119.53 230.739 119.388 231.06 119.104 231.327C118.825 231.594 118.49 231.727 118.098 231.727ZM124.782 239.125V247H122.771V233.909H124.714V235.955H124.884C125.191 235.29 125.657 234.756 126.282 234.352C126.907 233.943 127.714 233.739 128.702 233.739C129.589 233.739 130.364 233.92 131.029 234.284C131.694 234.642 132.211 235.188 132.58 235.92C132.95 236.648 133.134 237.568 133.134 238.682V247H131.123V238.818C131.123 237.79 130.856 236.989 130.322 236.415C129.788 235.835 129.055 235.545 128.123 235.545C127.481 235.545 126.907 235.685 126.401 235.963C125.901 236.241 125.506 236.648 125.217 237.182C124.927 237.716 124.782 238.364 124.782 239.125ZM142.128 247.273C140.901 247.273 139.844 246.983 138.957 246.403C138.071 245.824 137.389 245.026 136.912 244.009C136.435 242.991 136.196 241.83 136.196 240.523C136.196 239.193 136.44 238.02 136.929 237.003C137.423 235.98 138.111 235.182 138.991 234.608C139.878 234.028 140.912 233.739 142.094 233.739C143.014 233.739 143.844 233.909 144.582 234.25C145.321 234.591 145.926 235.068 146.398 235.682C146.869 236.295 147.162 237.011 147.276 237.83H145.264C145.111 237.233 144.77 236.705 144.241 236.244C143.719 235.778 143.014 235.545 142.128 235.545C141.344 235.545 140.656 235.75 140.065 236.159C139.48 236.562 139.023 237.134 138.693 237.872C138.369 238.605 138.207 239.466 138.207 240.455C138.207 241.466 138.366 242.347 138.685 243.097C139.009 243.847 139.463 244.429 140.048 244.844C140.639 245.259 141.332 245.466 142.128 245.466C142.651 245.466 143.125 245.375 143.551 245.193C143.977 245.011 144.338 244.75 144.634 244.409C144.929 244.068 145.139 243.659 145.264 243.182H147.276C147.162 243.955 146.881 244.651 146.432 245.27C145.989 245.884 145.401 246.372 144.668 246.736C143.94 247.094 143.094 247.273 142.128 247.273ZM152.227 239.125V247H150.216V229.545H152.227V235.955H152.398C152.705 235.278 153.165 234.741 153.778 234.344C154.398 233.94 155.222 233.739 156.25 233.739C157.142 233.739 157.923 233.918 158.594 234.276C159.264 234.628 159.784 235.17 160.153 235.903C160.528 236.631 160.716 237.557 160.716 238.682V247H158.705V238.818C158.705 237.778 158.435 236.974 157.895 236.406C157.361 235.832 156.619 235.545 155.67 235.545C155.011 235.545 154.42 235.685 153.898 235.963C153.381 236.241 152.972 236.648 152.67 237.182C152.375 237.716 152.227 238.364 152.227 239.125ZM176.839 233.909V235.614H170.055V233.909H176.839ZM172.032 230.773H174.043V243.25C174.043 243.818 174.126 244.244 174.29 244.528C174.461 244.807 174.677 244.994 174.938 245.091C175.205 245.182 175.487 245.227 175.782 245.227C176.004 245.227 176.185 245.216 176.327 245.193C176.469 245.165 176.583 245.142 176.668 245.125L177.077 246.932C176.941 246.983 176.751 247.034 176.506 247.085C176.262 247.142 175.952 247.17 175.577 247.17C175.009 247.17 174.452 247.048 173.907 246.804C173.367 246.56 172.918 246.188 172.56 245.688C172.208 245.188 172.032 244.557 172.032 243.795V230.773ZM185.042 247.273C183.86 247.273 182.823 246.991 181.931 246.429C181.045 245.866 180.352 245.08 179.852 244.068C179.357 243.057 179.11 241.875 179.11 240.523C179.11 239.159 179.357 237.969 179.852 236.952C180.352 235.935 181.045 235.145 181.931 234.582C182.823 234.02 183.86 233.739 185.042 233.739C186.224 233.739 187.258 234.02 188.144 234.582C189.036 235.145 189.729 235.935 190.224 236.952C190.724 237.969 190.974 239.159 190.974 240.523C190.974 241.875 190.724 243.057 190.224 244.068C189.729 245.08 189.036 245.866 188.144 246.429C187.258 246.991 186.224 247.273 185.042 247.273ZM185.042 245.466C185.94 245.466 186.678 245.236 187.258 244.776C187.837 244.315 188.266 243.71 188.545 242.96C188.823 242.21 188.962 241.398 188.962 240.523C188.962 239.648 188.823 238.832 188.545 238.077C188.266 237.321 187.837 236.71 187.258 236.244C186.678 235.778 185.94 235.545 185.042 235.545C184.144 235.545 183.406 235.778 182.826 236.244C182.246 236.71 181.817 237.321 181.539 238.077C181.261 238.832 181.121 239.648 181.121 240.523C181.121 241.398 181.261 242.21 181.539 242.96C181.817 243.71 182.246 244.315 182.826 244.776C183.406 245.236 184.144 245.466 185.042 245.466ZM200.487 247V245.466L209.896 231.42H200.385V229.545H212.419V231.08L203.01 245.125H212.521V247H200.487ZM221.112 247.273C219.93 247.273 218.893 246.991 218.001 246.429C217.115 245.866 216.422 245.08 215.922 244.068C215.428 243.057 215.18 241.875 215.18 240.523C215.18 239.159 215.428 237.969 215.922 236.952C216.422 235.935 217.115 235.145 218.001 234.582C218.893 234.02 219.93 233.739 221.112 233.739C222.294 233.739 223.328 234.02 224.214 234.582C225.107 235.145 225.8 235.935 226.294 236.952C226.794 237.969 227.044 239.159 227.044 240.523C227.044 241.875 226.794 243.057 226.294 244.068C225.8 245.08 225.107 245.866 224.214 246.429C223.328 246.991 222.294 247.273 221.112 247.273ZM221.112 245.466C222.01 245.466 222.749 245.236 223.328 244.776C223.908 244.315 224.337 243.71 224.615 242.96C224.893 242.21 225.033 241.398 225.033 240.523C225.033 239.648 224.893 238.832 224.615 238.077C224.337 237.321 223.908 236.71 223.328 236.244C222.749 235.778 222.01 235.545 221.112 235.545C220.214 235.545 219.476 235.778 218.896 236.244C218.317 236.71 217.888 237.321 217.609 238.077C217.331 238.832 217.192 239.648 217.192 240.523C217.192 241.398 217.331 242.21 217.609 242.96C217.888 243.71 218.317 244.315 218.896 244.776C219.476 245.236 220.214 245.466 221.112 245.466ZM235.433 247.273C234.251 247.273 233.214 246.991 232.322 246.429C231.435 245.866 230.742 245.08 230.242 244.068C229.748 243.057 229.501 241.875 229.501 240.523C229.501 239.159 229.748 237.969 230.242 236.952C230.742 235.935 231.435 235.145 232.322 234.582C233.214 234.02 234.251 233.739 235.433 233.739C236.614 233.739 237.648 234.02 238.535 234.582C239.427 235.145 240.12 235.935 240.614 236.952C241.114 237.969 241.364 239.159 241.364 240.523C241.364 241.875 241.114 243.057 240.614 244.068C240.12 245.08 239.427 245.866 238.535 246.429C237.648 246.991 236.614 247.273 235.433 247.273ZM235.433 245.466C236.33 245.466 237.069 245.236 237.648 244.776C238.228 244.315 238.657 243.71 238.935 242.96C239.214 242.21 239.353 241.398 239.353 240.523C239.353 239.648 239.214 238.832 238.935 238.077C238.657 237.321 238.228 236.71 237.648 236.244C237.069 235.778 236.33 235.545 235.433 235.545C234.535 235.545 233.796 235.778 233.217 236.244C232.637 236.71 232.208 237.321 231.93 238.077C231.651 238.832 231.512 239.648 231.512 240.523C231.512 241.398 231.651 242.21 231.93 242.96C232.208 243.71 232.637 244.315 233.217 244.776C233.796 245.236 234.535 245.466 235.433 245.466ZM244.435 247V233.909H246.378V235.955H246.548C246.821 235.256 247.261 234.713 247.869 234.327C248.477 233.935 249.207 233.739 250.06 233.739C250.923 233.739 251.642 233.935 252.216 234.327C252.795 234.713 253.247 235.256 253.571 235.955H253.707C254.043 235.278 254.545 234.741 255.216 234.344C255.886 233.94 256.69 233.739 257.628 233.739C258.798 233.739 259.756 234.105 260.5 234.838C261.244 235.565 261.616 236.699 261.616 238.239V247H259.605V238.239C259.605 237.273 259.341 236.582 258.812 236.168C258.284 235.753 257.662 235.545 256.946 235.545C256.026 235.545 255.313 235.824 254.807 236.381C254.301 236.932 254.048 237.631 254.048 238.477V247H252.003V238.034C252.003 237.29 251.761 236.69 251.278 236.236C250.795 235.776 250.173 235.545 249.412 235.545C248.889 235.545 248.401 235.685 247.946 235.963C247.497 236.241 247.134 236.628 246.855 237.122C246.582 237.611 246.446 238.176 246.446 238.818V247H244.435Z" fill="#1F1F1F"/>
<g clip-path="url(#clip4_118_1270)">
<path d="M25.9603 341.461L25.9602 341.461C24.9972 340.475 23.666 340.053 22.3733 340.088C21.0811 340.123 19.8218 340.614 19.001 341.461C18.1839 342.304 17.5088 343.574 17.3298 344.935C17.1507 346.298 17.4689 347.754 18.641 348.964L18.6411 348.964L32.2463 362.913L32.2465 362.913C32.5316 363.202 32.8424 363.442 33.168 363.651C34.4109 364.697 35.7468 365.53 37.525 366.102C39.3035 366.675 41.5222 366.984 44.5293 366.984C51.4026 366.984 55.1724 365.07 57.2189 361.96C59.2619 358.856 59.5785 354.572 59.5785 349.858V339.876V339.876C59.5733 337.081 57.585 334.819 54.8631 334.819H54.7345C53.7995 334.819 53.0331 335.091 52.2926 335.552C51.6199 333.597 49.9536 332.196 47.8111 332.196C46.8774 332.196 45.9885 332.467 45.2456 332.929C44.5728 330.979 42.9066 329.573 40.7641 329.573C39.9516 329.573 39.1925 329.778 38.5149 330.134V325.158C38.5149 322.378 36.4743 320.117 33.7532 320.117C31.0343 320.117 28.8321 322.376 28.8321 325.158V344.415L25.9603 341.461ZM20.9708 343.824L20.9709 343.824C21.426 343.354 22.0738 343.109 22.7197 343.095C23.3655 343.082 24.0045 343.3 24.4432 343.75L24.479 343.715L24.4432 343.75L24.4433 343.75L24.4436 343.75L24.4448 343.752L24.4497 343.757L24.469 343.777L24.544 343.854L24.8265 344.144L25.816 345.16C26.6242 345.989 27.676 347.069 28.6508 348.067C29.3863 348.823 30.0782 349.534 30.5861 350.055L31.1926 350.676L31.3596 350.847L31.4033 350.892L31.4144 350.904L31.4172 350.907L31.4179 350.907L31.4181 350.907L31.4182 350.907L31.454 350.873L31.4182 350.907L31.504 350.995V350.873V325.678C31.504 324.399 32.5165 323.365 33.7635 323.365C35.0058 323.365 35.8584 324.393 35.8584 325.678V341.703V341.753H35.8752C35.8649 341.822 35.8584 341.895 35.8584 341.968C35.8584 342.722 36.4559 343.33 37.1892 343.33C37.9279 343.33 38.52 342.717 38.52 341.968C38.52 341.895 38.5135 341.822 38.5032 341.753H38.52V341.703V335.135C38.52 333.852 39.4226 332.822 40.6664 332.822L40.6671 332.822L40.6673 332.822L40.6683 332.822L40.6727 332.822L40.6907 332.822C40.7066 332.822 40.7302 332.823 40.7603 332.825C40.8207 332.829 40.9072 332.837 41.0112 332.854C41.2194 332.888 41.4962 332.957 41.7725 333.1C42.0485 333.242 42.3234 333.457 42.5294 333.782C42.7354 334.107 42.8745 334.544 42.8745 335.135V343.805V343.855H42.8913C42.881 343.925 42.8745 343.998 42.8745 344.071C42.8745 344.825 43.472 345.432 44.2053 345.432C44.944 345.432 45.5361 344.819 45.5361 344.071C45.5361 343.997 45.5294 343.927 45.519 343.855H45.5361V343.805V337.763C45.5361 336.48 46.4229 335.451 47.6653 335.45L47.6696 335.451L47.6881 335.452C47.6966 335.453 47.7072 335.454 47.7198 335.456C47.7285 335.457 47.7381 335.458 47.7486 335.459C47.7521 335.459 47.7557 335.46 47.7594 335.46C47.8212 335.469 47.9097 335.483 48.0161 335.507C48.2291 335.555 48.5125 335.641 48.7953 335.795C49.3589 336.102 49.9214 336.678 49.9214 337.763V345.382V345.432H49.9382C49.9279 345.502 49.9214 345.574 49.9214 345.643C49.9214 346.397 50.5189 347.004 51.2522 347.004C51.9925 347.004 52.5521 346.389 52.5521 345.643C52.5521 345.57 52.5457 345.5 52.5354 345.432H52.5521V345.382V340.179C52.5521 338.897 53.4847 337.866 54.7294 337.866L54.7315 337.866L54.7315 337.866L54.7317 337.866L54.7327 337.866L54.737 337.866L54.7548 337.866C54.7705 337.866 54.7937 337.866 54.8235 337.867C54.8831 337.869 54.9685 337.875 55.0712 337.889C55.2768 337.918 55.5502 337.982 55.8229 338.12C56.0954 338.258 56.3669 338.471 56.5705 338.799C56.7741 339.127 56.9118 339.572 56.9118 340.179H56.9618L56.9118 340.179V340.179V340.18V340.18V340.181V340.182V340.183V340.184V340.186V340.187V340.189V340.191V340.193V340.196V340.198V340.201V340.203V340.206V340.209V340.213V340.216V340.22V340.223V340.227V340.231V340.236V340.24V340.244V340.249V340.254V340.259V340.264V340.269V340.275V340.281V340.286V340.292V340.298V340.304V340.311V340.317V340.324V340.331V340.338V340.345V340.352V340.36V340.367V340.375V340.383V340.391V340.399V340.407V340.415V340.424V340.433V340.442V340.45V340.46V340.469V340.478V340.488V340.497V340.507V340.517V340.527V340.537V340.548V340.558V340.569V340.58V340.59V340.601V340.613V340.624V340.635V340.647V340.658V340.67V340.682V340.694V340.706V340.718V340.731V340.743V340.756V340.769V340.782V340.795V340.808V340.821V340.834V340.848V340.862V340.875V340.889V340.903V340.917V340.931V340.946V340.96V340.975V340.989V341.004V341.019V341.034V341.049V341.064V341.08V341.095V341.111V341.126V341.142V341.158V341.174V341.19V341.206V341.222V341.239V341.255V341.272V341.289V341.305V341.322V341.339V341.356V341.374V341.391V341.408V341.426V341.443V341.461V341.479V341.497V341.515V341.533V341.551V341.569V341.588V341.606V341.625V341.643V341.662V341.681V341.7V341.719V341.738V341.757V341.776V341.796V341.815V341.835V341.854V341.874V341.894V341.913V341.933V341.953V341.973V341.994V342.014V342.034V342.055V342.075V342.096V342.116V342.137V342.158V342.179V342.2V342.221V342.242V342.263V342.284V342.305V342.327V342.348V342.37V342.391V342.413V342.435V342.457V342.478V342.5V342.522V342.544V342.567V342.589V342.611V342.633V342.656V342.678V342.701V342.723V342.746V342.769V342.791V342.814V342.837V342.86V342.883V342.906V342.929V342.952V342.975V342.999V343.022V343.045V343.069V343.092V343.116V343.139V343.163V343.186V343.21V343.234V343.258V343.282V343.305V343.329V343.353V343.377V343.401V343.426V343.45V343.474V343.498V343.522V343.547V343.571V343.596V343.62V343.645V343.669V343.694V343.718V343.743V343.767V343.792V343.817V343.842V343.867V343.891V343.916V343.941V343.966V343.991V344.016V344.041V344.066V344.091V344.116V344.141V344.166V344.192V344.217V344.242V344.267V344.293V344.318V344.343V344.369V344.394V344.419V344.445V344.47V344.496V344.521V344.547V344.572V344.598V344.623V344.649V344.674V344.7V344.725V344.751V344.776V344.802V344.828V344.853V344.879V344.905V344.93V344.956V344.982V345.007V345.033V345.059V345.084V345.11V345.136V345.162V345.187V345.213V345.239V345.264V345.29V345.316V345.342V345.367V345.393V345.419V345.445V345.47V345.496V345.522V345.547V345.573V345.599V345.624V345.65V345.676V345.701V345.727V345.753V345.778V345.804V345.83V345.855V345.881V345.906V345.932V345.957V345.983V346.008V346.034V346.059V346.085V346.11V346.136V346.161V346.186V346.212V346.237V346.262V346.288V346.313V346.338V346.363V346.389V346.414V346.439V346.464V346.489V346.514V346.539V346.564V346.589V346.614V346.639V346.664V346.689V346.714V346.739V346.763V346.788V346.813V346.837V346.862V346.887V346.911V346.936V346.96V346.985V347.009V347.033V347.058V347.082V347.106V347.13V347.155V347.179V347.203V347.227V347.251V347.275V347.299V347.323V347.346V347.37V347.394V347.417V347.441V347.465V347.488V347.512V347.535V347.558V347.582V347.605V347.628V347.651V347.674V347.697V347.72V347.743V347.766V347.789V347.811V347.834V347.857V347.879V347.902V347.924V347.947V347.969V347.991V348.013V348.035V348.058V348.08V348.101V348.123V348.145V348.167V348.188V348.21V348.232V348.253V348.274V348.296V348.317V348.338V348.359V348.38V348.401V348.422V348.443V348.463V348.484V348.505V348.525V348.546V348.566V348.586V348.606V348.626V348.646V348.666V348.686V348.706V348.725V348.745V348.765V348.784V348.803V348.823V348.842V348.861V348.88V348.899V348.917V348.936V348.955V348.973V348.992V349.01V349.028V349.046V349.065V349.083V349.1V349.118V349.136V349.153V349.171V349.188V349.206V349.223V349.24V349.257V349.274V349.291V349.307V349.324V349.34V349.357V349.373V349.389V349.405V349.421V349.437V349.453V349.468V349.484V349.499V349.515V349.53V349.545V349.56V349.575V349.59V349.604V349.619V349.633V349.647V349.662V349.676V349.69V349.704V349.717V349.731V349.744V349.758V349.771V349.784V349.797V349.81V349.823V349.835V349.848C56.9118 351.844 56.9095 353.741 56.7127 355.466C56.5159 357.191 56.1251 358.74 55.3506 360.039C53.8047 362.631 50.7175 364.245 44.5242 364.245C39.281 364.245 36.1427 363.037 33.7632 360.602L20.8886 347.397C20.3273 346.818 20.1192 346.161 20.1644 345.533C20.2098 344.903 20.5097 344.298 20.9708 343.824ZM26.9496 332.628L27.034 332.708V332.591V328.179V328.169L27.0299 328.159C26.6262 327.225 26.3962 326.191 26.3962 325.099C26.3962 320.941 29.6622 317.573 33.6863 317.573C37.7105 317.573 40.9765 320.941 40.9765 325.099C40.9765 325.669 40.9101 326.218 40.7925 326.751L40.7796 326.809L40.8393 326.811C41.7468 326.848 42.5679 327.235 43.1661 327.863L43.2272 327.927L43.2505 327.842C43.4881 326.967 43.6278 326.055 43.6278 325.099V325.099C43.6226 319.434 39.173 314.839 33.6812 314.839C28.1894 314.839 23.7398 319.434 23.7398 325.099C23.7398 328.076 24.9802 330.755 26.9496 332.628Z" fill="black" stroke="black" stroke-width="0.1"/>
</g>
<rect x="0.5" y="300.5" width="75" height="75" rx="7.5" stroke="#CED3D6"/>
<path d="M106.276 347V331.412H100.24V329.72H114.076V331.412H108.04V347H106.276ZM119.49 347.36C118.202 347.36 117.102 347.068 116.19 346.484C115.278 345.9 114.578 345.092 114.09 344.06C113.602 343.028 113.358 341.844 113.358 340.508C113.358 339.148 113.606 337.956 114.102 336.932C114.598 335.908 115.302 335.112 116.214 334.544C117.134 333.968 118.226 333.68 119.49 333.68C120.786 333.68 121.89 333.972 122.802 334.556C123.722 335.132 124.422 335.936 124.902 336.968C125.39 337.992 125.634 339.172 125.634 340.508C125.634 341.868 125.39 343.064 124.902 344.096C124.414 345.12 123.71 345.92 122.79 346.496C121.87 347.072 120.77 347.36 119.49 347.36ZM119.49 345.668C120.93 345.668 122.002 345.192 122.706 344.24C123.41 343.28 123.762 342.036 123.762 340.508C123.762 338.94 123.406 337.692 122.694 336.764C121.99 335.836 120.922 335.372 119.49 335.372C118.522 335.372 117.722 335.592 117.09 336.032C116.466 336.464 115.998 337.068 115.686 337.844C115.382 338.612 115.23 339.5 115.23 340.508C115.23 342.068 115.59 343.32 116.31 344.264C117.03 345.2 118.09 345.668 119.49 345.668ZM133.238 347.324C132.462 347.324 131.782 347.204 131.198 346.964C130.622 346.724 130.13 346.4 129.722 345.992C129.322 345.584 128.998 345.12 128.75 344.6C128.502 344.072 128.322 343.516 128.21 342.932C128.098 342.34 128.042 341.752 128.042 341.168V334.04H129.818V340.652C129.818 341.364 129.886 342.024 130.022 342.632C130.158 343.24 130.374 343.772 130.67 344.228C130.974 344.676 131.362 345.024 131.834 345.272C132.314 345.52 132.894 345.644 133.574 345.644C134.198 345.644 134.746 345.536 135.218 345.32C135.698 345.104 136.098 344.796 136.418 344.396C136.746 343.988 136.994 343.496 137.162 342.92C137.33 342.336 137.414 341.68 137.414 340.952L138.662 341.228C138.662 342.556 138.43 343.672 137.966 344.576C137.502 345.48 136.862 346.164 136.046 346.628C135.23 347.092 134.294 347.324 133.238 347.324ZM137.594 347V343.808H137.414V334.04H139.178V347H137.594ZM147.908 347.36C146.604 347.36 145.5 347.068 144.596 346.484C143.692 345.9 143.004 345.096 142.532 344.072C142.068 343.04 141.828 341.856 141.812 340.52C141.828 339.16 142.076 337.968 142.556 336.944C143.036 335.912 143.728 335.112 144.632 334.544C145.536 333.968 146.632 333.68 147.92 333.68C149.232 333.68 150.372 334 151.34 334.64C152.316 335.28 152.984 336.156 153.344 337.268L151.616 337.82C151.312 337.044 150.828 336.444 150.164 336.02C149.508 335.588 148.756 335.372 147.908 335.372C146.956 335.372 146.168 335.592 145.544 336.032C144.92 336.464 144.456 337.068 144.152 337.844C143.848 338.62 143.692 339.512 143.684 340.52C143.7 342.072 144.06 343.32 144.764 344.264C145.468 345.2 146.516 345.668 147.908 345.668C148.788 345.668 149.536 345.468 150.152 345.068C150.776 344.66 151.248 344.068 151.568 343.292L153.344 343.82C152.864 344.972 152.16 345.852 151.232 346.46C150.304 347.06 149.196 347.36 147.908 347.36ZM165.181 347V340.388C165.181 339.668 165.113 339.008 164.977 338.408C164.841 337.8 164.621 337.272 164.317 336.824C164.021 336.368 163.633 336.016 163.153 335.768C162.681 335.52 162.105 335.396 161.425 335.396C160.801 335.396 160.249 335.504 159.769 335.72C159.297 335.936 158.897 336.248 158.569 336.656C158.249 337.056 158.005 337.544 157.837 338.12C157.669 338.696 157.585 339.352 157.585 340.088L156.337 339.812C156.337 338.484 156.569 337.368 157.033 336.464C157.497 335.56 158.137 334.876 158.953 334.412C159.769 333.948 160.705 333.716 161.761 333.716C162.537 333.716 163.213 333.836 163.789 334.076C164.373 334.316 164.865 334.64 165.265 335.048C165.673 335.456 166.001 335.924 166.249 336.452C166.497 336.972 166.677 337.528 166.789 338.12C166.901 338.704 166.957 339.288 166.957 339.872V347H165.181ZM155.809 347V329.72H157.405V339.476H157.585V347H155.809ZM178.583 347.36C177.607 347.36 176.787 347.184 176.123 346.832C175.467 346.48 174.975 346.012 174.647 345.428C174.319 344.844 174.155 344.208 174.155 343.52C174.155 342.816 174.295 342.216 174.575 341.72C174.863 341.216 175.251 340.804 175.739 340.484C176.235 340.164 176.807 339.92 177.455 339.752C178.111 339.592 178.835 339.452 179.627 339.332C180.427 339.204 181.207 339.096 181.967 339.008C182.735 338.912 183.407 338.82 183.983 338.732L183.359 339.116C183.383 337.836 183.135 336.888 182.615 336.272C182.095 335.656 181.191 335.348 179.903 335.348C179.015 335.348 178.263 335.548 177.647 335.948C177.039 336.348 176.611 336.98 176.363 337.844L174.647 337.34C174.943 336.18 175.539 335.28 176.435 334.64C177.331 334 178.495 333.68 179.927 333.68C181.111 333.68 182.115 333.904 182.939 334.352C183.771 334.792 184.359 335.432 184.703 336.272C184.863 336.648 184.967 337.068 185.015 337.532C185.063 337.996 185.087 338.468 185.087 338.948V347H183.515V343.748L183.971 343.94C183.531 345.052 182.847 345.9 181.919 346.484C180.991 347.068 179.879 347.36 178.583 347.36ZM178.787 345.836C179.611 345.836 180.331 345.688 180.947 345.392C181.563 345.096 182.059 344.692 182.435 344.18C182.811 343.66 183.055 343.076 183.167 342.428C183.263 342.012 183.315 341.556 183.323 341.06C183.331 340.556 183.335 340.18 183.335 339.932L184.007 340.28C183.407 340.36 182.755 340.44 182.051 340.52C181.355 340.6 180.667 340.692 179.987 340.796C179.315 340.9 178.707 341.024 178.163 341.168C177.795 341.272 177.439 341.42 177.095 341.612C176.751 341.796 176.467 342.044 176.243 342.356C176.027 342.668 175.919 343.056 175.919 343.52C175.919 343.896 176.011 344.26 176.195 344.612C176.387 344.964 176.691 345.256 177.107 345.488C177.531 345.72 178.091 345.836 178.787 345.836ZM197.571 347V340.388C197.571 339.668 197.503 339.008 197.367 338.408C197.231 337.8 197.011 337.272 196.707 336.824C196.411 336.368 196.023 336.016 195.543 335.768C195.071 335.52 194.495 335.396 193.815 335.396C193.191 335.396 192.639 335.504 192.159 335.72C191.687 335.936 191.287 336.248 190.959 336.656C190.639 337.056 190.395 337.544 190.227 338.12C190.059 338.696 189.975 339.352 189.975 340.088L188.727 339.812C188.727 338.484 188.959 337.368 189.423 336.464C189.887 335.56 190.527 334.876 191.343 334.412C192.159 333.948 193.095 333.716 194.151 333.716C194.927 333.716 195.603 333.836 196.179 334.076C196.763 334.316 197.255 334.64 197.655 335.048C198.063 335.456 198.391 335.924 198.639 336.452C198.887 336.972 199.067 337.528 199.179 338.12C199.291 338.704 199.347 339.288 199.347 339.872V347H197.571ZM188.199 347V334.04H189.795V337.232H189.975V347H188.199ZM207.419 347.36C206.211 347.36 205.179 347.06 204.323 346.46C203.467 345.852 202.811 345.032 202.355 344C201.899 342.968 201.671 341.804 201.671 340.508C201.671 339.22 201.895 338.06 202.343 337.028C202.799 335.996 203.451 335.18 204.299 334.58C205.147 333.98 206.163 333.68 207.347 333.68C208.563 333.68 209.587 333.976 210.419 334.568C211.251 335.16 211.879 335.972 212.303 337.004C212.735 338.028 212.951 339.196 212.951 340.508C212.951 341.796 212.739 342.96 212.315 344C211.891 345.032 211.267 345.852 210.443 346.46C209.619 347.06 208.611 347.36 207.419 347.36ZM207.599 345.716C208.519 345.716 209.279 345.492 209.879 345.044C210.479 344.596 210.927 343.98 211.223 343.196C211.519 342.404 211.667 341.508 211.667 340.508C211.667 339.492 211.519 338.596 211.223 337.82C210.927 337.036 210.479 336.424 209.879 335.984C209.287 335.544 208.539 335.324 207.635 335.324C206.707 335.324 205.939 335.552 205.331 336.008C204.723 336.464 204.271 337.084 203.975 337.868C203.687 338.652 203.543 339.532 203.543 340.508C203.543 341.492 203.691 342.38 203.987 343.172C204.291 343.956 204.743 344.576 205.343 345.032C205.943 345.488 206.695 345.716 207.599 345.716ZM211.667 347V337.244H211.475V329.72H213.251V347H211.667ZM226.45 347.36C225.242 347.36 224.21 347.06 223.354 346.46C222.498 345.852 221.842 345.032 221.386 344C220.93 342.968 220.702 341.804 220.702 340.508C220.702 339.22 220.926 338.06 221.374 337.028C221.83 335.996 222.482 335.18 223.33 334.58C224.178 333.98 225.194 333.68 226.378 333.68C227.594 333.68 228.618 333.976 229.45 334.568C230.282 335.16 230.91 335.972 231.334 337.004C231.766 338.028 231.982 339.196 231.982 340.508C231.982 341.796 231.77 342.96 231.346 344C230.922 345.032 230.298 345.852 229.474 346.46C228.65 347.06 227.642 347.36 226.45 347.36ZM226.63 345.716C227.55 345.716 228.31 345.492 228.91 345.044C229.51 344.596 229.958 343.98 230.254 343.196C230.55 342.404 230.698 341.508 230.698 340.508C230.698 339.492 230.55 338.596 230.254 337.82C229.958 337.036 229.51 336.424 228.91 335.984C228.318 335.544 227.57 335.324 226.666 335.324C225.738 335.324 224.97 335.552 224.362 336.008C223.754 336.464 223.302 337.084 223.006 337.868C222.718 338.652 222.574 339.532 222.574 340.508C222.574 341.492 222.722 342.38 223.018 343.172C223.322 343.956 223.774 344.576 224.374 345.032C224.974 345.488 225.726 345.716 226.63 345.716ZM230.698 347V337.244H230.506V329.72H232.282V347H230.698ZM235.649 347V334.04H237.233V337.16L236.921 336.752C237.065 336.368 237.253 336.016 237.485 335.696C237.717 335.368 237.969 335.1 238.241 334.892C238.577 334.596 238.969 334.372 239.417 334.22C239.865 334.06 240.317 333.968 240.773 333.944C241.229 333.912 241.645 333.944 242.021 334.04V335.696C241.549 335.576 241.033 335.548 240.473 335.612C239.913 335.676 239.397 335.9 238.925 336.284C238.493 336.62 238.169 337.024 237.953 337.496C237.737 337.96 237.593 338.456 237.521 338.984C237.449 339.504 237.413 340.02 237.413 340.532V347H235.649ZM247.513 347.36C246.537 347.36 245.717 347.184 245.053 346.832C244.397 346.48 243.905 346.012 243.577 345.428C243.249 344.844 243.085 344.208 243.085 343.52C243.085 342.816 243.225 342.216 243.505 341.72C243.793 341.216 244.181 340.804 244.669 340.484C245.165 340.164 245.737 339.92 246.385 339.752C247.041 339.592 247.765 339.452 248.557 339.332C249.357 339.204 250.137 339.096 250.897 339.008C251.665 338.912 252.337 338.82 252.913 338.732L252.289 339.116C252.313 337.836 252.065 336.888 251.545 336.272C251.025 335.656 250.121 335.348 248.833 335.348C247.945 335.348 247.193 335.548 246.577 335.948C245.969 336.348 245.541 336.98 245.293 337.844L243.577 337.34C243.873 336.18 244.469 335.28 245.365 334.64C246.261 334 247.425 333.68 248.857 333.68C250.041 333.68 251.045 333.904 251.869 334.352C252.701 334.792 253.289 335.432 253.633 336.272C253.793 336.648 253.897 337.068 253.945 337.532C253.993 337.996 254.017 338.468 254.017 338.948V347H252.445V343.748L252.901 343.94C252.461 345.052 251.777 345.9 250.849 346.484C249.921 347.068 248.809 347.36 247.513 347.36ZM247.717 345.836C248.541 345.836 249.261 345.688 249.877 345.392C250.493 345.096 250.989 344.692 251.365 344.18C251.741 343.66 251.985 343.076 252.097 342.428C252.193 342.012 252.245 341.556 252.253 341.06C252.261 340.556 252.265 340.18 252.265 339.932L252.937 340.28C252.337 340.36 251.685 340.44 250.981 340.52C250.285 340.6 249.597 340.692 248.917 340.796C248.245 340.9 247.637 341.024 247.093 341.168C246.725 341.272 246.369 341.42 246.025 341.612C245.681 341.796 245.397 342.044 245.173 342.356C244.957 342.668 244.849 343.056 244.849 343.52C244.849 343.896 244.941 344.26 245.125 344.612C245.317 344.964 245.621 345.256 246.037 345.488C246.461 345.72 247.021 345.836 247.717 345.836ZM262.289 353.12C261.625 353.12 260.969 353.02 260.321 352.82C259.681 352.628 259.089 352.32 258.545 351.896C258.001 351.48 257.545 350.936 257.177 350.264L258.773 349.376C259.133 350.096 259.637 350.612 260.285 350.924C260.941 351.244 261.609 351.404 262.289 351.404C263.225 351.404 263.981 351.228 264.557 350.876C265.141 350.532 265.565 350.02 265.829 349.34C266.093 348.66 266.221 347.812 266.213 346.796V343.34H266.417V334.04H267.989V346.82C267.989 347.188 267.977 347.54 267.953 347.876C267.937 348.22 267.901 348.556 267.845 348.884C267.693 349.852 267.377 350.648 266.897 351.272C266.425 351.896 265.801 352.36 265.025 352.664C264.257 352.968 263.345 353.12 262.289 353.12ZM262.169 347.36C260.961 347.36 259.929 347.06 259.073 346.46C258.217 345.852 257.561 345.032 257.105 344C256.649 342.968 256.421 341.804 256.421 340.508C256.421 339.22 256.645 338.06 257.093 337.028C257.549 335.996 258.201 335.18 259.049 334.58C259.897 333.98 260.913 333.68 262.097 333.68C263.313 333.68 264.337 333.976 265.169 334.568C266.001 335.16 266.629 335.972 267.053 337.004C267.485 338.028 267.701 339.196 267.701 340.508C267.701 341.796 267.489 342.96 267.065 344C266.641 345.032 266.017 345.852 265.193 346.46C264.369 347.06 263.361 347.36 262.169 347.36ZM262.349 345.716C263.269 345.716 264.029 345.492 264.629 345.044C265.229 344.596 265.677 343.98 265.973 343.196C266.269 342.404 266.417 341.508 266.417 340.508C266.417 339.492 266.269 338.596 265.973 337.82C265.677 337.036 265.229 336.424 264.629 335.984C264.037 335.544 263.289 335.324 262.385 335.324C261.457 335.324 260.689 335.552 260.081 336.008C259.473 336.464 259.021 337.084 258.725 337.868C258.437 338.652 258.293 339.532 258.293 340.508C258.293 341.492 258.441 342.38 258.737 343.172C259.041 343.956 259.493 344.576 260.093 345.032C260.693 345.488 261.445 345.716 262.349 345.716ZM283.205 347C282.477 347.152 281.757 347.212 281.045 347.18C280.341 347.148 279.709 346.996 279.149 346.724C278.597 346.452 278.177 346.028 277.889 345.452C277.657 344.972 277.529 344.488 277.505 344C277.489 343.504 277.481 342.94 277.481 342.308V330.44H279.233V342.236C279.233 342.78 279.237 343.236 279.245 343.604C279.261 343.964 279.345 344.284 279.497 344.564C279.785 345.1 280.241 345.42 280.865 345.524C281.497 345.628 282.277 345.604 283.205 345.452V347ZM274.709 335.552V334.04H283.205V335.552H274.709ZM290.701 347.36C289.413 347.36 288.313 347.068 287.401 346.484C286.489 345.9 285.789 345.092 285.301 344.06C284.813 343.028 284.569 341.844 284.569 340.508C284.569 339.148 284.817 337.956 285.313 336.932C285.809 335.908 286.513 335.112 287.425 334.544C288.345 333.968 289.437 333.68 290.701 333.68C291.997 333.68 293.101 333.972 294.013 334.556C294.933 335.132 295.633 335.936 296.113 336.968C296.601 337.992 296.845 339.172 296.845 340.508C296.845 341.868 296.601 343.064 296.113 344.096C295.625 345.12 294.921 345.92 294.001 346.496C293.081 347.072 291.981 347.36 290.701 347.36ZM290.701 345.668C292.141 345.668 293.213 345.192 293.917 344.24C294.621 343.28 294.973 342.036 294.973 340.508C294.973 338.94 294.617 337.692 293.905 336.764C293.201 335.836 292.133 335.372 290.701 335.372C289.733 335.372 288.933 335.592 288.301 336.032C287.677 336.464 287.209 337.068 286.897 337.844C286.593 338.612 286.441 339.5 286.441 340.508C286.441 342.068 286.801 343.32 287.521 344.264C288.241 345.2 289.301 345.668 290.701 345.668ZM304.537 347V329.36H306.301V347H304.537ZM315.311 347.36C314.023 347.36 312.923 347.068 312.011 346.484C311.099 345.9 310.399 345.092 309.911 344.06C309.423 343.028 309.179 341.844 309.179 340.508C309.179 339.148 309.427 337.956 309.923 336.932C310.419 335.908 311.123 335.112 312.035 334.544C312.955 333.968 314.047 333.68 315.311 333.68C316.607 333.68 317.711 333.972 318.623 334.556C319.543 335.132 320.243 335.936 320.723 336.968C321.211 337.992 321.455 339.172 321.455 340.508C321.455 341.868 321.211 343.064 320.723 344.096C320.235 345.12 319.531 345.92 318.611 346.496C317.691 347.072 316.591 347.36 315.311 347.36ZM315.311 345.668C316.751 345.668 317.823 345.192 318.527 344.24C319.231 343.28 319.583 342.036 319.583 340.508C319.583 338.94 319.227 337.692 318.515 336.764C317.811 335.836 316.743 335.372 315.311 335.372C314.343 335.372 313.543 335.592 312.911 336.032C312.287 336.464 311.819 337.068 311.507 337.844C311.203 338.612 311.051 339.5 311.051 340.508C311.051 342.068 311.411 343.32 312.131 344.264C312.851 345.2 313.911 345.668 315.311 345.668ZM329.514 347.36C328.226 347.36 327.126 347.068 326.214 346.484C325.302 345.9 324.602 345.092 324.114 344.06C323.626 343.028 323.382 341.844 323.382 340.508C323.382 339.148 323.63 337.956 324.126 336.932C324.622 335.908 325.326 335.112 326.238 334.544C327.158 333.968 328.25 333.68 329.514 333.68C330.81 333.68 331.914 333.972 332.826 334.556C333.746 335.132 334.446 335.936 334.926 336.968C335.414 337.992 335.658 339.172 335.658 340.508C335.658 341.868 335.414 343.064 334.926 344.096C334.438 345.12 333.734 345.92 332.814 346.496C331.894 347.072 330.794 347.36 329.514 347.36ZM329.514 345.668C330.954 345.668 332.026 345.192 332.73 344.24C333.434 343.28 333.786 342.036 333.786 340.508C333.786 338.94 333.43 337.692 332.718 336.764C332.014 335.836 330.946 335.372 329.514 335.372C328.546 335.372 327.746 335.592 327.114 336.032C326.49 336.464 326.022 337.068 325.71 337.844C325.406 338.612 325.254 339.5 325.254 340.508C325.254 342.068 325.614 343.32 326.334 344.264C327.054 345.2 328.114 345.668 329.514 345.668ZM338.293 347L338.305 329.72H340.081V340.28L345.865 334.04H348.217L342.145 340.52L349.009 347H346.441L340.081 340.76V347H338.293ZM358.724 347.36C357.748 347.36 356.928 347.184 356.264 346.832C355.608 346.48 355.116 346.012 354.788 345.428C354.46 344.844 354.296 344.208 354.296 343.52C354.296 342.816 354.436 342.216 354.716 341.72C355.004 341.216 355.392 340.804 355.88 340.484C356.376 340.164 356.948 339.92 357.596 339.752C358.252 339.592 358.976 339.452 359.768 339.332C360.568 339.204 361.348 339.096 362.108 339.008C362.876 338.912 363.548 338.82 364.124 338.732L363.5 339.116C363.524 337.836 363.276 336.888 362.756 336.272C362.236 335.656 361.332 335.348 360.044 335.348C359.156 335.348 358.404 335.548 357.788 335.948C357.18 336.348 356.752 336.98 356.504 337.844L354.788 337.34C355.084 336.18 355.68 335.28 356.576 334.64C357.472 334 358.636 333.68 360.068 333.68C361.252 333.68 362.256 333.904 363.08 334.352C363.912 334.792 364.5 335.432 364.844 336.272C365.004 336.648 365.108 337.068 365.156 337.532C365.204 337.996 365.228 338.468 365.228 338.948V347H363.656V343.748L364.112 343.94C363.672 345.052 362.988 345.9 362.06 346.484C361.132 347.068 360.02 347.36 358.724 347.36ZM358.928 345.836C359.752 345.836 360.472 345.688 361.088 345.392C361.704 345.096 362.2 344.692 362.576 344.18C362.952 343.66 363.196 343.076 363.308 342.428C363.404 342.012 363.456 341.556 363.464 341.06C363.472 340.556 363.476 340.18 363.476 339.932L364.148 340.28C363.548 340.36 362.896 340.44 362.192 340.52C361.496 340.6 360.808 340.692 360.128 340.796C359.456 340.9 358.848 341.024 358.304 341.168C357.936 341.272 357.58 341.42 357.236 341.612C356.892 341.796 356.608 342.044 356.384 342.356C356.168 342.668 356.06 343.056 356.06 343.52C356.06 343.896 356.152 344.26 356.336 344.612C356.528 344.964 356.832 345.256 357.248 345.488C357.672 345.72 358.232 345.836 358.928 345.836ZM368.352 347V334.04H369.936V337.16L369.624 336.752C369.768 336.368 369.956 336.016 370.188 335.696C370.42 335.368 370.672 335.1 370.944 334.892C371.28 334.596 371.672 334.372 372.12 334.22C372.568 334.06 373.02 333.968 373.476 333.944C373.932 333.912 374.348 333.944 374.724 334.04V335.696C374.252 335.576 373.736 335.548 373.176 335.612C372.616 335.676 372.1 335.9 371.628 336.284C371.196 336.62 370.872 337.024 370.656 337.496C370.44 337.96 370.296 338.456 370.224 338.984C370.152 339.504 370.116 340.02 370.116 340.532V347H368.352ZM382.178 347.36C380.89 347.36 379.79 347.068 378.878 346.484C377.966 345.9 377.266 345.092 376.778 344.06C376.29 343.028 376.046 341.844 376.046 340.508C376.046 339.148 376.294 337.956 376.79 336.932C377.286 335.908 377.99 335.112 378.902 334.544C379.822 333.968 380.914 333.68 382.178 333.68C383.474 333.68 384.578 333.972 385.49 334.556C386.41 335.132 387.11 335.936 387.59 336.968C388.078 337.992 388.322 339.172 388.322 340.508C388.322 341.868 388.078 343.064 387.59 344.096C387.102 345.12 386.398 345.92 385.478 346.496C384.558 347.072 383.458 347.36 382.178 347.36ZM382.178 345.668C383.618 345.668 384.69 345.192 385.394 344.24C386.098 343.28 386.45 342.036 386.45 340.508C386.45 338.94 386.094 337.692 385.382 336.764C384.678 335.836 383.61 335.372 382.178 335.372C381.21 335.372 380.41 335.592 379.778 336.032C379.154 336.464 378.686 337.068 378.374 337.844C378.07 338.612 377.918 339.5 377.918 340.508C377.918 342.068 378.278 343.32 378.998 344.264C379.718 345.2 380.778 345.668 382.178 345.668ZM395.925 347.324C395.149 347.324 394.469 347.204 393.885 346.964C393.309 346.724 392.817 346.4 392.409 345.992C392.009 345.584 391.685 345.12 391.437 344.6C391.189 344.072 391.009 343.516 390.897 342.932C390.785 342.34 390.729 341.752 390.729 341.168V334.04H392.505V340.652C392.505 341.364 392.573 342.024 392.709 342.632C392.845 343.24 393.061 343.772 393.357 344.228C393.661 344.676 394.049 345.024 394.521 345.272C395.001 345.52 395.581 345.644 396.261 345.644C396.885 345.644 397.433 345.536 397.905 345.32C398.385 345.104 398.785 344.796 399.105 344.396C399.433 343.988 399.681 343.496 399.849 342.92C400.017 342.336 400.101 341.68 400.101 340.952L401.349 341.228C401.349 342.556 401.117 343.672 400.653 344.576C400.189 345.48 399.549 346.164 398.733 346.628C397.917 347.092 396.981 347.324 395.925 347.324ZM400.281 347V343.808H400.101V334.04H401.865V347H400.281ZM414.579 347V340.388C414.579 339.668 414.511 339.008 414.375 338.408C414.239 337.8 414.019 337.272 413.715 336.824C413.419 336.368 413.031 336.016 412.551 335.768C412.079 335.52 411.503 335.396 410.823 335.396C410.199 335.396 409.647 335.504 409.167 335.72C408.695 335.936 408.295 336.248 407.967 336.656C407.647 337.056 407.403 337.544 407.235 338.12C407.067 338.696 406.983 339.352 406.983 340.088L405.735 339.812C405.735 338.484 405.967 337.368 406.431 336.464C406.895 335.56 407.535 334.876 408.351 334.412C409.167 333.948 410.103 333.716 411.159 333.716C411.935 333.716 412.611 333.836 413.187 334.076C413.771 334.316 414.263 334.64 414.663 335.048C415.071 335.456 415.399 335.924 415.647 336.452C415.895 336.972 416.075 337.528 416.187 338.12C416.299 338.704 416.355 339.288 416.355 339.872V347H414.579ZM405.207 347V334.04H406.803V337.232H406.983V347H405.207ZM424.427 347.36C423.219 347.36 422.187 347.06 421.331 346.46C420.475 345.852 419.819 345.032 419.363 344C418.907 342.968 418.679 341.804 418.679 340.508C418.679 339.22 418.903 338.06 419.351 337.028C419.807 335.996 420.459 335.18 421.307 334.58C422.155 333.98 423.171 333.68 424.355 333.68C425.571 333.68 426.595 333.976 427.427 334.568C428.259 335.16 428.887 335.972 429.311 337.004C429.743 338.028 429.959 339.196 429.959 340.508C429.959 341.796 429.747 342.96 429.323 344C428.899 345.032 428.275 345.852 427.451 346.46C426.627 347.06 425.619 347.36 424.427 347.36ZM424.607 345.716C425.527 345.716 426.287 345.492 426.887 345.044C427.487 344.596 427.935 343.98 428.231 343.196C428.527 342.404 428.675 341.508 428.675 340.508C428.675 339.492 428.527 338.596 428.231 337.82C427.935 337.036 427.487 336.424 426.887 335.984C426.295 335.544 425.547 335.324 424.643 335.324C423.715 335.324 422.947 335.552 422.339 336.008C421.731 336.464 421.279 337.084 420.983 337.868C420.695 338.652 420.551 339.532 420.551 340.508C420.551 341.492 420.699 342.38 420.995 343.172C421.299 343.956 421.751 344.576 422.351 345.032C422.951 345.488 423.703 345.716 424.607 345.716ZM428.675 347V337.244H428.483V329.72H430.259V347H428.675Z" fill="#1F1F1F"/>
<defs>
<clipPath id="clip0_118_1270">
<rect width="54" height="54" fill="white" transform="translate(11 11)"/>
</clipPath>
<clipPath id="clip1_118_1270">
<rect width="54" height="54" fill="white" transform="translate(11 11)"/>
</clipPath>
<clipPath id="clip2_118_1270">
<rect width="53" height="54" fill="white" transform="translate(64.5 165) rotate(-180)"/>
</clipPath>
<clipPath id="clip3_118_1270">
<rect width="52" height="55" fill="white" transform="translate(12 210.5)"/>
</clipPath>
<clipPath id="clip4_118_1270">
<rect width="62" height="64" fill="white" transform="translate(7 306)"/>
</clipPath>
</defs>
</svg>
