<svg width="450" height="476" viewBox="0 0 450 476" fill="none" xmlns="http://www.w3.org/2000/svg">
<g clip-path="url(#clip0_118_1334)">
<g clip-path="url(#clip1_118_1334)">
<path d="M24.2044 45.4148L24.2574 45.4678L24.3105 45.4148L38 31.7252L51.6895 45.4148L51.7426 45.4678L51.7956 45.4148L52.9769 44.2335L53.0299 44.1805L52.9769 44.1275L38.6437 29.7943L38.6217 29.7723H38.5906H37.4094H37.3783L37.3563 29.7943L23.0231 44.1275L22.9701 44.1805L23.0231 44.2335L24.2044 45.4148Z" fill="#002336" stroke="black" stroke-width="0.15"/>
<path d="M55.8128 20.281L55.8134 20.2815C60.4196 24.8878 63.248 31.1444 63.248 38.0949C63.248 45.0458 60.4088 51.4075 55.8139 55.9077L55.8134 55.9083C51.2071 60.5146 44.9505 63.343 38 63.343C31.0491 63.343 24.6874 60.5037 20.1872 55.9088L20.1866 55.9082C15.5803 51.3125 12.7414 45.0454 12.7414 38.0949C12.7414 31.144 15.5806 24.7824 20.1755 20.2821L20.176 20.2816C24.7823 15.6858 31.0495 12.8469 38 12.8469C44.9509 12.8469 51.3126 15.6861 55.8128 20.281ZM38.075 10.9251V10.925H38H37.925V10.9251C22.9943 10.9655 10.925 23.0598 10.925 38C10.925 52.9652 23.0348 65.075 38 65.075C52.9652 65.075 65.075 52.9652 65.075 38C65.075 23.0598 53.0057 10.9655 38.075 10.9251Z" fill="#002336" stroke="black" stroke-width="0.15"/>
</g>
</g>
<rect x="0.5" y="0.5" width="75" height="75" rx="7.5" stroke="#CED3D6"/>
<path d="M101.68 47V29.72H103.444V37.88L111.328 29.72H113.584L105.532 38.06L114.244 47H111.94L103.444 38.36V47H101.68ZM120.453 47.36C119.189 47.36 118.093 47.08 117.165 46.52C116.245 45.96 115.529 45.172 115.017 44.156C114.505 43.14 114.249 41.948 114.249 40.58C114.249 39.164 114.501 37.94 115.005 36.908C115.509 35.876 116.217 35.08 117.129 34.52C118.049 33.96 119.133 33.68 120.381 33.68C121.661 33.68 122.753 33.976 123.657 34.568C124.561 35.152 125.245 35.992 125.709 37.088C126.173 38.184 126.385 39.492 126.345 41.012H124.545V40.388C124.513 38.708 124.149 37.44 123.453 36.584C122.765 35.728 121.757 35.3 120.429 35.3C119.037 35.3 117.969 35.752 117.225 36.656C116.489 37.56 116.121 38.848 116.121 40.52C116.121 42.152 116.489 43.42 117.225 44.324C117.969 45.22 119.021 45.668 120.381 45.668C121.309 45.668 122.117 45.456 122.805 45.032C123.501 44.6 124.049 43.98 124.449 43.172L126.093 43.808C125.581 44.936 124.825 45.812 123.825 46.436C122.833 47.052 121.709 47.36 120.453 47.36ZM115.497 41.012V39.536H125.397V41.012H115.497ZM130.622 52.76L133.13 45.956L133.166 47.972L127.49 34.04H129.362L134.018 45.692H133.25L137.546 34.04H139.346L132.386 52.76H130.622ZM146.266 47.348C144.746 47.348 143.494 47.02 142.51 46.364C141.534 45.708 140.934 44.796 140.71 43.628L142.51 43.328C142.702 44.064 143.138 44.652 143.818 45.092C144.506 45.524 145.354 45.74 146.362 45.74C147.346 45.74 148.122 45.536 148.69 45.128C149.258 44.712 149.542 44.148 149.542 43.436C149.542 43.036 149.45 42.712 149.266 42.464C149.09 42.208 148.726 41.972 148.174 41.756C147.622 41.54 146.798 41.284 145.702 40.988C144.526 40.668 143.606 40.348 142.942 40.028C142.278 39.708 141.806 39.34 141.526 38.924C141.246 38.5 141.106 37.984 141.106 37.376C141.106 36.64 141.314 35.996 141.73 35.444C142.146 34.884 142.722 34.452 143.458 34.148C144.194 33.836 145.05 33.68 146.026 33.68C147.002 33.68 147.874 33.84 148.642 34.16C149.418 34.472 150.042 34.912 150.514 35.48C150.986 36.048 151.266 36.708 151.354 37.46L149.554 37.784C149.434 37.024 149.054 36.424 148.414 35.984C147.782 35.536 146.978 35.304 146.002 35.288C145.082 35.264 144.334 35.44 143.758 35.816C143.182 36.184 142.894 36.676 142.894 37.292C142.894 37.636 142.998 37.932 143.206 38.18C143.414 38.42 143.79 38.648 144.334 38.864C144.886 39.08 145.67 39.316 146.686 39.572C147.878 39.876 148.814 40.196 149.494 40.532C150.174 40.868 150.658 41.264 150.946 41.72C151.234 42.176 151.378 42.74 151.378 43.412C151.378 44.636 150.922 45.6 150.01 46.304C149.106 47 147.858 47.348 146.266 47.348ZM165.9 47C165.172 47.152 164.452 47.212 163.74 47.18C163.036 47.148 162.404 46.996 161.844 46.724C161.292 46.452 160.872 46.028 160.584 45.452C160.352 44.972 160.224 44.488 160.2 44C160.184 43.504 160.176 42.94 160.176 42.308V30.44H161.928V42.236C161.928 42.78 161.932 43.236 161.94 43.604C161.956 43.964 162.04 44.284 162.192 44.564C162.48 45.1 162.936 45.42 163.56 45.524C164.192 45.628 164.972 45.604 165.9 45.452V47ZM157.404 35.552V34.04H165.9V35.552H157.404ZM173.397 47.36C172.109 47.36 171.009 47.068 170.097 46.484C169.185 45.9 168.485 45.092 167.997 44.06C167.509 43.028 167.265 41.844 167.265 40.508C167.265 39.148 167.513 37.956 168.009 36.932C168.505 35.908 169.209 35.112 170.121 34.544C171.041 33.968 172.133 33.68 173.397 33.68C174.693 33.68 175.797 33.972 176.709 34.556C177.629 35.132 178.329 35.936 178.809 36.968C179.297 37.992 179.541 39.172 179.541 40.508C179.541 41.868 179.297 43.064 178.809 44.096C178.321 45.12 177.617 45.92 176.697 46.496C175.777 47.072 174.677 47.36 173.397 47.36ZM173.397 45.668C174.837 45.668 175.909 45.192 176.613 44.24C177.317 43.28 177.669 42.036 177.669 40.508C177.669 38.94 177.313 37.692 176.601 36.764C175.897 35.836 174.829 35.372 173.397 35.372C172.429 35.372 171.629 35.592 170.997 36.032C170.373 36.464 169.905 37.068 169.593 37.844C169.289 38.612 169.137 39.5 169.137 40.508C169.137 42.068 169.497 43.32 170.217 44.264C170.937 45.2 171.997 45.668 173.397 45.668ZM202.449 47L202.461 38.492C202.461 37.492 202.181 36.708 201.621 36.14C201.069 35.564 200.365 35.276 199.509 35.276C199.021 35.276 198.545 35.388 198.081 35.612C197.617 35.836 197.233 36.196 196.929 36.692C196.633 37.188 196.485 37.836 196.485 38.636L195.441 38.336C195.417 37.408 195.597 36.596 195.981 35.9C196.373 35.204 196.909 34.664 197.589 34.28C198.277 33.888 199.053 33.692 199.917 33.692C201.221 33.692 202.265 34.096 203.049 34.904C203.833 35.704 204.225 36.788 204.225 38.156L204.213 47H202.449ZM186.981 47V34.04H188.565V37.232H188.757V47H186.981ZM194.733 47L194.745 38.612C194.745 37.58 194.469 36.768 193.917 36.176C193.373 35.576 192.653 35.276 191.757 35.276C190.861 35.276 190.137 35.584 189.585 36.2C189.033 36.808 188.757 37.62 188.757 38.636L187.701 38.06C187.701 37.228 187.897 36.484 188.289 35.828C188.681 35.164 189.217 34.644 189.897 34.268C190.577 33.884 191.349 33.692 192.213 33.692C193.037 33.692 193.769 33.868 194.409 34.22C195.057 34.572 195.565 35.084 195.933 35.756C196.301 36.428 196.485 37.244 196.485 38.204L196.473 47H194.733ZM212.678 47.36C211.39 47.36 210.29 47.068 209.378 46.484C208.466 45.9 207.766 45.092 207.278 44.06C206.79 43.028 206.546 41.844 206.546 40.508C206.546 39.148 206.794 37.956 207.29 36.932C207.786 35.908 208.49 35.112 209.402 34.544C210.322 33.968 211.414 33.68 212.678 33.68C213.974 33.68 215.078 33.972 215.99 34.556C216.91 35.132 217.61 35.936 218.09 36.968C218.578 37.992 218.822 39.172 218.822 40.508C218.822 41.868 218.578 43.064 218.09 44.096C217.602 45.12 216.898 45.92 215.978 46.496C215.058 47.072 213.958 47.36 212.678 47.36ZM212.678 45.668C214.118 45.668 215.19 45.192 215.894 44.24C216.598 43.28 216.95 42.036 216.95 40.508C216.95 38.94 216.594 37.692 215.882 36.764C215.178 35.836 214.11 35.372 212.678 35.372C211.71 35.372 210.91 35.592 210.278 36.032C209.654 36.464 209.186 37.068 208.874 37.844C208.57 38.612 208.418 39.5 208.418 40.508C208.418 42.068 208.778 43.32 209.498 44.264C210.218 45.2 211.278 45.668 212.678 45.668ZM224.504 47L219.8 34.04H221.588L225.416 44.696L229.22 34.04H231.032L226.328 47H224.504ZM238.203 47.36C236.939 47.36 235.843 47.08 234.915 46.52C233.995 45.96 233.279 45.172 232.767 44.156C232.255 43.14 231.999 41.948 231.999 40.58C231.999 39.164 232.251 37.94 232.755 36.908C233.259 35.876 233.967 35.08 234.879 34.52C235.799 33.96 236.883 33.68 238.131 33.68C239.411 33.68 240.503 33.976 241.407 34.568C242.311 35.152 242.995 35.992 243.459 37.088C243.923 38.184 244.135 39.492 244.095 41.012H242.295V40.388C242.263 38.708 241.899 37.44 241.203 36.584C240.515 35.728 239.507 35.3 238.179 35.3C236.787 35.3 235.719 35.752 234.975 36.656C234.239 37.56 233.871 38.848 233.871 40.52C233.871 42.152 234.239 43.42 234.975 44.324C235.719 45.22 236.771 45.668 238.131 45.668C239.059 45.668 239.867 45.456 240.555 45.032C241.251 44.6 241.799 43.98 242.199 43.172L243.843 43.808C243.331 44.936 242.575 45.812 241.575 46.436C240.583 47.052 239.459 47.36 238.203 47.36ZM233.247 41.012V39.536H243.147V41.012H233.247ZM251.563 47V29.72H261.487V31.484H253.327V37.484H260.047V39.236H253.327V47H251.563ZM268.717 47.36C267.429 47.36 266.329 47.068 265.417 46.484C264.505 45.9 263.805 45.092 263.317 44.06C262.829 43.028 262.585 41.844 262.585 40.508C262.585 39.148 262.833 37.956 263.329 36.932C263.825 35.908 264.529 35.112 265.441 34.544C266.361 33.968 267.453 33.68 268.717 33.68C270.013 33.68 271.117 33.972 272.029 34.556C272.949 35.132 273.649 35.936 274.129 36.968C274.617 37.992 274.861 39.172 274.861 40.508C274.861 41.868 274.617 43.064 274.129 44.096C273.641 45.12 272.937 45.92 272.017 46.496C271.097 47.072 269.997 47.36 268.717 47.36ZM268.717 45.668C270.157 45.668 271.229 45.192 271.933 44.24C272.637 43.28 272.989 42.036 272.989 40.508C272.989 38.94 272.633 37.692 271.921 36.764C271.217 35.836 270.149 35.372 268.717 35.372C267.749 35.372 266.949 35.592 266.317 36.032C265.693 36.464 265.225 37.068 264.913 37.844C264.609 38.612 264.457 39.5 264.457 40.508C264.457 42.068 264.817 43.32 265.537 44.264C266.257 45.2 267.317 45.668 268.717 45.668ZM277.508 47V34.04H279.092V37.16L278.78 36.752C278.924 36.368 279.112 36.016 279.344 35.696C279.576 35.368 279.828 35.1 280.1 34.892C280.436 34.596 280.828 34.372 281.276 34.22C281.724 34.06 282.176 33.968 282.632 33.944C283.088 33.912 283.504 33.944 283.88 34.04V35.696C283.408 35.576 282.892 35.548 282.332 35.612C281.772 35.676 281.256 35.9 280.784 36.284C280.352 36.62 280.028 37.024 279.812 37.496C279.596 37.96 279.452 38.456 279.38 38.984C279.308 39.504 279.272 40.02 279.272 40.532V47H277.508ZM288.917 47L284.957 34.028L286.721 34.04L289.793 44.108L292.877 34.04H294.485L297.569 44.108L300.665 34.04H302.417L298.457 47H296.921L293.681 36.68L290.453 47H288.917ZM307.56 47.36C306.584 47.36 305.764 47.184 305.1 46.832C304.444 46.48 303.952 46.012 303.624 45.428C303.296 44.844 303.132 44.208 303.132 43.52C303.132 42.816 303.272 42.216 303.552 41.72C303.84 41.216 304.228 40.804 304.716 40.484C305.212 40.164 305.784 39.92 306.432 39.752C307.088 39.592 307.812 39.452 308.604 39.332C309.404 39.204 310.184 39.096 310.944 39.008C311.712 38.912 312.384 38.82 312.96 38.732L312.336 39.116C312.36 37.836 312.112 36.888 311.592 36.272C311.072 35.656 310.168 35.348 308.88 35.348C307.992 35.348 307.24 35.548 306.624 35.948C306.016 36.348 305.588 36.98 305.34 37.844L303.624 37.34C303.92 36.18 304.516 35.28 305.412 34.64C306.308 34 307.472 33.68 308.904 33.68C310.088 33.68 311.092 33.904 311.916 34.352C312.748 34.792 313.336 35.432 313.68 36.272C313.84 36.648 313.944 37.068 313.992 37.532C314.04 37.996 314.064 38.468 314.064 38.948V47H312.492V43.748L312.948 43.94C312.508 45.052 311.824 45.9 310.896 46.484C309.968 47.068 308.856 47.36 307.56 47.36ZM307.764 45.836C308.588 45.836 309.308 45.688 309.924 45.392C310.54 45.096 311.036 44.692 311.412 44.18C311.788 43.66 312.032 43.076 312.144 42.428C312.24 42.012 312.292 41.556 312.3 41.06C312.308 40.556 312.312 40.18 312.312 39.932L312.984 40.28C312.384 40.36 311.732 40.44 311.028 40.52C310.332 40.6 309.644 40.692 308.964 40.796C308.292 40.9 307.684 41.024 307.14 41.168C306.772 41.272 306.416 41.42 306.072 41.612C305.728 41.796 305.444 42.044 305.22 42.356C305.004 42.668 304.896 43.056 304.896 43.52C304.896 43.896 304.988 44.26 305.172 44.612C305.364 44.964 305.668 45.256 306.084 45.488C306.508 45.72 307.068 45.836 307.764 45.836ZM317.188 47V34.04H318.772V37.16L318.46 36.752C318.604 36.368 318.792 36.016 319.024 35.696C319.256 35.368 319.508 35.1 319.78 34.892C320.116 34.596 320.508 34.372 320.956 34.22C321.404 34.06 321.856 33.968 322.312 33.944C322.768 33.912 323.184 33.944 323.56 34.04V35.696C323.088 35.576 322.572 35.548 322.012 35.612C321.452 35.676 320.936 35.9 320.464 36.284C320.032 36.62 319.708 37.024 319.492 37.496C319.276 37.96 319.132 38.456 319.06 38.984C318.988 39.504 318.952 40.02 318.952 40.532V47H317.188ZM330.63 47.36C329.422 47.36 328.39 47.06 327.534 46.46C326.678 45.852 326.022 45.032 325.566 44C325.11 42.968 324.882 41.804 324.882 40.508C324.882 39.22 325.106 38.06 325.554 37.028C326.01 35.996 326.662 35.18 327.51 34.58C328.358 33.98 329.374 33.68 330.558 33.68C331.774 33.68 332.798 33.976 333.63 34.568C334.462 35.16 335.09 35.972 335.514 37.004C335.946 38.028 336.162 39.196 336.162 40.508C336.162 41.796 335.95 42.96 335.526 44C335.102 45.032 334.478 45.852 333.654 46.46C332.83 47.06 331.822 47.36 330.63 47.36ZM330.81 45.716C331.73 45.716 332.49 45.492 333.09 45.044C333.69 44.596 334.138 43.98 334.434 43.196C334.73 42.404 334.878 41.508 334.878 40.508C334.878 39.492 334.73 38.596 334.434 37.82C334.138 37.036 333.69 36.424 333.09 35.984C332.498 35.544 331.75 35.324 330.846 35.324C329.918 35.324 329.15 35.552 328.542 36.008C327.934 36.464 327.482 37.084 327.186 37.868C326.898 38.652 326.754 39.532 326.754 40.508C326.754 41.492 326.902 42.38 327.198 43.172C327.502 43.956 327.954 44.576 328.554 45.032C329.154 45.488 329.906 45.716 330.81 45.716ZM334.878 47V37.244H334.686V29.72H336.462V47H334.878Z" fill="#1F1F1F"/>
<g clip-path="url(#clip2_118_1334)">
<path d="M51.5416 130.586L51.4881 130.531L51.4346 130.586L38 144.274L24.5654 130.586L24.5119 130.531L24.4584 130.586L23.299 131.767L23.2474 131.82L23.299 131.872L37.3668 146.205L37.3888 146.228H37.4203H38.5797H38.6112L38.6332 146.205L52.701 131.872L52.7525 131.82L52.701 131.767L51.5416 130.586Z" fill="#002336" stroke="black" stroke-width="0.15"/>
<path d="M20.5185 155.72L20.518 155.719C15.9971 151.113 13.2209 144.856 13.2209 137.905C13.2209 130.954 16.0078 124.592 20.5174 120.092L20.518 120.091C25.0388 115.485 31.1791 112.657 38 112.657C44.8213 112.657 51.0647 115.496 55.4815 120.091L55.4821 120.091C60.0029 124.687 62.7895 130.954 62.7895 137.905C62.7895 144.856 60.0026 151.218 55.4929 155.718L55.4924 155.719C50.9715 160.315 44.8209 163.153 38 163.153C31.1787 163.153 24.9353 160.314 20.5185 155.72ZM37.925 165.075V165.075H38H38.075V165.075C52.7306 165.034 64.575 152.938 64.575 138C64.575 123.036 52.6902 110.925 38 110.925C23.3098 110.925 11.425 123.036 11.425 138C11.425 152.938 23.2694 165.034 37.925 165.075Z" fill="#002336" stroke="black" stroke-width="0.15"/>
</g>
<rect x="0.5" y="100.5" width="75" height="75" rx="7.5" stroke="#CED3D6"/>
<path d="M101.68 147V129.72H103.444V137.88L111.328 129.72H113.584L105.532 138.06L114.244 147H111.94L103.444 138.36V147H101.68ZM120.453 147.36C119.189 147.36 118.093 147.08 117.165 146.52C116.245 145.96 115.529 145.172 115.017 144.156C114.505 143.14 114.249 141.948 114.249 140.58C114.249 139.164 114.501 137.94 115.005 136.908C115.509 135.876 116.217 135.08 117.129 134.52C118.049 133.96 119.133 133.68 120.381 133.68C121.661 133.68 122.753 133.976 123.657 134.568C124.561 135.152 125.245 135.992 125.709 137.088C126.173 138.184 126.385 139.492 126.345 141.012H124.545V140.388C124.513 138.708 124.149 137.44 123.453 136.584C122.765 135.728 121.757 135.3 120.429 135.3C119.037 135.3 117.969 135.752 117.225 136.656C116.489 137.56 116.121 138.848 116.121 140.52C116.121 142.152 116.489 143.42 117.225 144.324C117.969 145.22 119.021 145.668 120.381 145.668C121.309 145.668 122.117 145.456 122.805 145.032C123.501 144.6 124.049 143.98 124.449 143.172L126.093 143.808C125.581 144.936 124.825 145.812 123.825 146.436C122.833 147.052 121.709 147.36 120.453 147.36ZM115.497 141.012V139.536H125.397V141.012H115.497ZM130.622 152.76L133.13 145.956L133.166 147.972L127.49 134.04H129.362L134.018 145.692H133.25L137.546 134.04H139.346L132.386 152.76H130.622ZM146.266 147.348C144.746 147.348 143.494 147.02 142.51 146.364C141.534 145.708 140.934 144.796 140.71 143.628L142.51 143.328C142.702 144.064 143.138 144.652 143.818 145.092C144.506 145.524 145.354 145.74 146.362 145.74C147.346 145.74 148.122 145.536 148.69 145.128C149.258 144.712 149.542 144.148 149.542 143.436C149.542 143.036 149.45 142.712 149.266 142.464C149.09 142.208 148.726 141.972 148.174 141.756C147.622 141.54 146.798 141.284 145.702 140.988C144.526 140.668 143.606 140.348 142.942 140.028C142.278 139.708 141.806 139.34 141.526 138.924C141.246 138.5 141.106 137.984 141.106 137.376C141.106 136.64 141.314 135.996 141.73 135.444C142.146 134.884 142.722 134.452 143.458 134.148C144.194 133.836 145.05 133.68 146.026 133.68C147.002 133.68 147.874 133.84 148.642 134.16C149.418 134.472 150.042 134.912 150.514 135.48C150.986 136.048 151.266 136.708 151.354 137.46L149.554 137.784C149.434 137.024 149.054 136.424 148.414 135.984C147.782 135.536 146.978 135.304 146.002 135.288C145.082 135.264 144.334 135.44 143.758 135.816C143.182 136.184 142.894 136.676 142.894 137.292C142.894 137.636 142.998 137.932 143.206 138.18C143.414 138.42 143.79 138.648 144.334 138.864C144.886 139.08 145.67 139.316 146.686 139.572C147.878 139.876 148.814 140.196 149.494 140.532C150.174 140.868 150.658 141.264 150.946 141.72C151.234 142.176 151.378 142.74 151.378 143.412C151.378 144.636 150.922 145.6 150.01 146.304C149.106 147 147.858 147.348 146.266 147.348ZM165.9 147C165.172 147.152 164.452 147.212 163.74 147.18C163.036 147.148 162.404 146.996 161.844 146.724C161.292 146.452 160.872 146.028 160.584 145.452C160.352 144.972 160.224 144.488 160.2 144C160.184 143.504 160.176 142.94 160.176 142.308V130.44H161.928V142.236C161.928 142.78 161.932 143.236 161.94 143.604C161.956 143.964 162.04 144.284 162.192 144.564C162.48 145.1 162.936 145.42 163.56 145.524C164.192 145.628 164.972 145.604 165.9 145.452V147ZM157.404 135.552V134.04H165.9V135.552H157.404ZM173.397 147.36C172.109 147.36 171.009 147.068 170.097 146.484C169.185 145.9 168.485 145.092 167.997 144.06C167.509 143.028 167.265 141.844 167.265 140.508C167.265 139.148 167.513 137.956 168.009 136.932C168.505 135.908 169.209 135.112 170.121 134.544C171.041 133.968 172.133 133.68 173.397 133.68C174.693 133.68 175.797 133.972 176.709 134.556C177.629 135.132 178.329 135.936 178.809 136.968C179.297 137.992 179.541 139.172 179.541 140.508C179.541 141.868 179.297 143.064 178.809 144.096C178.321 145.12 177.617 145.92 176.697 146.496C175.777 147.072 174.677 147.36 173.397 147.36ZM173.397 145.668C174.837 145.668 175.909 145.192 176.613 144.24C177.317 143.28 177.669 142.036 177.669 140.508C177.669 138.94 177.313 137.692 176.601 136.764C175.897 135.836 174.829 135.372 173.397 135.372C172.429 135.372 171.629 135.592 170.997 136.032C170.373 136.464 169.905 137.068 169.593 137.844C169.289 138.612 169.137 139.5 169.137 140.508C169.137 142.068 169.497 143.32 170.217 144.264C170.937 145.2 171.997 145.668 173.397 145.668ZM202.449 147L202.461 138.492C202.461 137.492 202.181 136.708 201.621 136.14C201.069 135.564 200.365 135.276 199.509 135.276C199.021 135.276 198.545 135.388 198.081 135.612C197.617 135.836 197.233 136.196 196.929 136.692C196.633 137.188 196.485 137.836 196.485 138.636L195.441 138.336C195.417 137.408 195.597 136.596 195.981 135.9C196.373 135.204 196.909 134.664 197.589 134.28C198.277 133.888 199.053 133.692 199.917 133.692C201.221 133.692 202.265 134.096 203.049 134.904C203.833 135.704 204.225 136.788 204.225 138.156L204.213 147H202.449ZM186.981 147V134.04H188.565V137.232H188.757V147H186.981ZM194.733 147L194.745 138.612C194.745 137.58 194.469 136.768 193.917 136.176C193.373 135.576 192.653 135.276 191.757 135.276C190.861 135.276 190.137 135.584 189.585 136.2C189.033 136.808 188.757 137.62 188.757 138.636L187.701 138.06C187.701 137.228 187.897 136.484 188.289 135.828C188.681 135.164 189.217 134.644 189.897 134.268C190.577 133.884 191.349 133.692 192.213 133.692C193.037 133.692 193.769 133.868 194.409 134.22C195.057 134.572 195.565 135.084 195.933 135.756C196.301 136.428 196.485 137.244 196.485 138.204L196.473 147H194.733ZM212.678 147.36C211.39 147.36 210.29 147.068 209.378 146.484C208.466 145.9 207.766 145.092 207.278 144.06C206.79 143.028 206.546 141.844 206.546 140.508C206.546 139.148 206.794 137.956 207.29 136.932C207.786 135.908 208.49 135.112 209.402 134.544C210.322 133.968 211.414 133.68 212.678 133.68C213.974 133.68 215.078 133.972 215.99 134.556C216.91 135.132 217.61 135.936 218.09 136.968C218.578 137.992 218.822 139.172 218.822 140.508C218.822 141.868 218.578 143.064 218.09 144.096C217.602 145.12 216.898 145.92 215.978 146.496C215.058 147.072 213.958 147.36 212.678 147.36ZM212.678 145.668C214.118 145.668 215.19 145.192 215.894 144.24C216.598 143.28 216.95 142.036 216.95 140.508C216.95 138.94 216.594 137.692 215.882 136.764C215.178 135.836 214.11 135.372 212.678 135.372C211.71 135.372 210.91 135.592 210.278 136.032C209.654 136.464 209.186 137.068 208.874 137.844C208.57 138.612 208.418 139.5 208.418 140.508C208.418 142.068 208.778 143.32 209.498 144.264C210.218 145.2 211.278 145.668 212.678 145.668ZM224.504 147L219.8 134.04H221.588L225.416 144.696L229.22 134.04H231.032L226.328 147H224.504ZM238.203 147.36C236.939 147.36 235.843 147.08 234.915 146.52C233.995 145.96 233.279 145.172 232.767 144.156C232.255 143.14 231.999 141.948 231.999 140.58C231.999 139.164 232.251 137.94 232.755 136.908C233.259 135.876 233.967 135.08 234.879 134.52C235.799 133.96 236.883 133.68 238.131 133.68C239.411 133.68 240.503 133.976 241.407 134.568C242.311 135.152 242.995 135.992 243.459 137.088C243.923 138.184 244.135 139.492 244.095 141.012H242.295V140.388C242.263 138.708 241.899 137.44 241.203 136.584C240.515 135.728 239.507 135.3 238.179 135.3C236.787 135.3 235.719 135.752 234.975 136.656C234.239 137.56 233.871 138.848 233.871 140.52C233.871 142.152 234.239 143.42 234.975 144.324C235.719 145.22 236.771 145.668 238.131 145.668C239.059 145.668 239.867 145.456 240.555 145.032C241.251 144.6 241.799 143.98 242.199 143.172L243.843 143.808C243.331 144.936 242.575 145.812 241.575 146.436C240.583 147.052 239.459 147.36 238.203 147.36ZM233.247 141.012V139.536H243.147V141.012H233.247ZM251.563 147V129.72H258.235C259.203 129.72 260.047 129.92 260.767 130.32C261.487 130.72 262.047 131.26 262.447 131.94C262.847 132.612 263.047 133.356 263.047 134.172C263.047 135.1 262.799 135.928 262.303 136.656C261.807 137.376 261.143 137.876 260.311 138.156L260.287 137.568C261.407 137.888 262.287 138.448 262.927 139.248C263.567 140.048 263.887 141.016 263.887 142.152C263.887 143.152 263.675 144.016 263.251 144.744C262.827 145.464 262.231 146.02 261.463 146.412C260.695 146.804 259.803 147 258.787 147H251.563ZM253.339 145.308H258.355C259.059 145.308 259.691 145.184 260.251 144.936C260.811 144.68 261.251 144.32 261.571 143.856C261.899 143.392 262.063 142.832 262.063 142.176C262.063 141.536 261.915 140.96 261.619 140.448C261.323 139.936 260.919 139.528 260.407 139.224C259.903 138.912 259.327 138.756 258.679 138.756H253.339V145.308ZM253.339 137.088H258.223C258.775 137.088 259.279 136.964 259.735 136.716C260.191 136.46 260.551 136.112 260.815 135.672C261.087 135.232 261.223 134.724 261.223 134.148C261.223 133.332 260.939 132.668 260.371 132.156C259.811 131.644 259.095 131.388 258.223 131.388H253.339V137.088ZM269.99 147.36C269.014 147.36 268.194 147.184 267.53 146.832C266.874 146.48 266.382 146.012 266.054 145.428C265.726 144.844 265.562 144.208 265.562 143.52C265.562 142.816 265.702 142.216 265.982 141.72C266.27 141.216 266.658 140.804 267.146 140.484C267.642 140.164 268.214 139.92 268.862 139.752C269.518 139.592 270.242 139.452 271.034 139.332C271.834 139.204 272.614 139.096 273.374 139.008C274.142 138.912 274.814 138.82 275.39 138.732L274.766 139.116C274.79 137.836 274.542 136.888 274.022 136.272C273.502 135.656 272.598 135.348 271.31 135.348C270.422 135.348 269.67 135.548 269.054 135.948C268.446 136.348 268.018 136.98 267.77 137.844L266.054 137.34C266.35 136.18 266.946 135.28 267.842 134.64C268.738 134 269.902 133.68 271.334 133.68C272.518 133.68 273.522 133.904 274.346 134.352C275.178 134.792 275.766 135.432 276.11 136.272C276.27 136.648 276.374 137.068 276.422 137.532C276.47 137.996 276.494 138.468 276.494 138.948V147H274.922V143.748L275.378 143.94C274.938 145.052 274.254 145.9 273.326 146.484C272.398 147.068 271.286 147.36 269.99 147.36ZM270.194 145.836C271.018 145.836 271.738 145.688 272.354 145.392C272.97 145.096 273.466 144.692 273.842 144.18C274.218 143.66 274.462 143.076 274.574 142.428C274.67 142.012 274.722 141.556 274.73 141.06C274.738 140.556 274.742 140.18 274.742 139.932L275.414 140.28C274.814 140.36 274.162 140.44 273.458 140.52C272.762 140.6 272.074 140.692 271.394 140.796C270.722 140.9 270.114 141.024 269.57 141.168C269.202 141.272 268.846 141.42 268.502 141.612C268.158 141.796 267.874 142.044 267.65 142.356C267.434 142.668 267.326 143.056 267.326 143.52C267.326 143.896 267.418 144.26 267.602 144.612C267.794 144.964 268.098 145.256 268.514 145.488C268.938 145.72 269.498 145.836 270.194 145.836ZM284.993 147.36C283.69 147.36 282.586 147.068 281.682 146.484C280.778 145.9 280.09 145.096 279.618 144.072C279.154 143.04 278.914 141.856 278.898 140.52C278.914 139.16 279.162 137.968 279.642 136.944C280.122 135.912 280.814 135.112 281.718 134.544C282.622 133.968 283.718 133.68 285.006 133.68C286.318 133.68 287.458 134 288.426 134.64C289.402 135.28 290.07 136.156 290.43 137.268L288.702 137.82C288.398 137.044 287.914 136.444 287.25 136.02C286.594 135.588 285.842 135.372 284.993 135.372C284.042 135.372 283.254 135.592 282.63 136.032C282.006 136.464 281.542 137.068 281.238 137.844C280.934 138.62 280.778 139.512 280.77 140.52C280.786 142.072 281.146 143.32 281.85 144.264C282.554 145.2 283.602 145.668 284.993 145.668C285.874 145.668 286.622 145.468 287.238 145.068C287.862 144.66 288.334 144.068 288.654 143.292L290.43 143.82C289.95 144.972 289.246 145.852 288.318 146.46C287.39 147.06 286.282 147.36 284.993 147.36ZM292.895 147L292.907 129.72H294.683V140.28L300.467 134.04H302.819L296.747 140.52L303.611 147H301.043L294.683 140.76V147H292.895ZM307.573 147L303.613 134.028L305.377 134.04L308.449 144.108L311.533 134.04H313.141L316.225 144.108L319.321 134.04H321.073L317.113 147H315.577L312.337 136.68L309.109 147H307.573ZM326.216 147.36C325.24 147.36 324.42 147.184 323.756 146.832C323.1 146.48 322.608 146.012 322.28 145.428C321.952 144.844 321.788 144.208 321.788 143.52C321.788 142.816 321.928 142.216 322.208 141.72C322.496 141.216 322.884 140.804 323.372 140.484C323.868 140.164 324.44 139.92 325.088 139.752C325.744 139.592 326.468 139.452 327.26 139.332C328.06 139.204 328.84 139.096 329.6 139.008C330.368 138.912 331.04 138.82 331.616 138.732L330.992 139.116C331.016 137.836 330.768 136.888 330.248 136.272C329.728 135.656 328.824 135.348 327.536 135.348C326.648 135.348 325.896 135.548 325.28 135.948C324.672 136.348 324.244 136.98 323.996 137.844L322.28 137.34C322.576 136.18 323.172 135.28 324.068 134.64C324.964 134 326.128 133.68 327.56 133.68C328.744 133.68 329.748 133.904 330.572 134.352C331.404 134.792 331.992 135.432 332.336 136.272C332.496 136.648 332.6 137.068 332.648 137.532C332.696 137.996 332.72 138.468 332.72 138.948V147H331.148V143.748L331.604 143.94C331.164 145.052 330.48 145.9 329.552 146.484C328.624 147.068 327.512 147.36 326.216 147.36ZM326.42 145.836C327.244 145.836 327.964 145.688 328.58 145.392C329.196 145.096 329.692 144.692 330.068 144.18C330.444 143.66 330.688 143.076 330.8 142.428C330.896 142.012 330.948 141.556 330.956 141.06C330.964 140.556 330.968 140.18 330.968 139.932L331.64 140.28C331.04 140.36 330.388 140.44 329.684 140.52C328.988 140.6 328.3 140.692 327.62 140.796C326.948 140.9 326.34 141.024 325.796 141.168C325.428 141.272 325.072 141.42 324.728 141.612C324.384 141.796 324.1 142.044 323.876 142.356C323.66 142.668 323.552 143.056 323.552 143.52C323.552 143.896 323.644 144.26 323.828 144.612C324.02 144.964 324.324 145.256 324.74 145.488C325.164 145.72 325.724 145.836 326.42 145.836ZM335.844 147V134.04H337.428V137.16L337.116 136.752C337.26 136.368 337.448 136.016 337.68 135.696C337.912 135.368 338.164 135.1 338.436 134.892C338.772 134.596 339.164 134.372 339.612 134.22C340.06 134.06 340.512 133.968 340.968 133.944C341.424 133.912 341.84 133.944 342.216 134.04V135.696C341.744 135.576 341.228 135.548 340.668 135.612C340.108 135.676 339.592 135.9 339.12 136.284C338.688 136.62 338.364 137.024 338.148 137.496C337.932 137.96 337.788 138.456 337.716 138.984C337.644 139.504 337.608 140.02 337.608 140.532V147H335.844ZM349.286 147.36C348.078 147.36 347.046 147.06 346.19 146.46C345.334 145.852 344.678 145.032 344.222 144C343.766 142.968 343.538 141.804 343.538 140.508C343.538 139.22 343.762 138.06 344.21 137.028C344.666 135.996 345.318 135.18 346.166 134.58C347.014 133.98 348.03 133.68 349.214 133.68C350.43 133.68 351.454 133.976 352.286 134.568C353.118 135.16 353.746 135.972 354.17 137.004C354.602 138.028 354.818 139.196 354.818 140.508C354.818 141.796 354.606 142.96 354.182 144C353.758 145.032 353.134 145.852 352.31 146.46C351.486 147.06 350.478 147.36 349.286 147.36ZM349.466 145.716C350.386 145.716 351.146 145.492 351.746 145.044C352.346 144.596 352.794 143.98 353.09 143.196C353.386 142.404 353.534 141.508 353.534 140.508C353.534 139.492 353.386 138.596 353.09 137.82C352.794 137.036 352.346 136.424 351.746 135.984C351.154 135.544 350.406 135.324 349.502 135.324C348.574 135.324 347.806 135.552 347.198 136.008C346.59 136.464 346.138 137.084 345.842 137.868C345.554 138.652 345.41 139.532 345.41 140.508C345.41 141.492 345.558 142.38 345.854 143.172C346.158 143.956 346.61 144.576 347.21 145.032C347.81 145.488 348.562 145.716 349.466 145.716ZM353.534 147V137.244H353.342V129.72H355.118V147H353.534Z" fill="#1F1F1F"/>
<g clip-path="url(#clip3_118_1334)">
<path d="M64.9999 212.594C64.9999 211.704 64.2678 211 63.3436 211H48.4622C47.5215 211 46.8209 211.714 46.8192 212.619C46.8192 213.523 47.5215 214.188 48.4622 214.188H61.6874L61.6609 226.974C61.6609 227.879 62.3764 228.568 63.3171 228.568C64.2579 228.566 64.9734 227.879 64.9734 226.974L64.9999 212.618C64.9999 212.613 64.9982 212.61 64.9982 212.607C64.9982 212.602 64.9999 212.599 64.9999 212.594Z" fill="#121313"/>
<path d="M28.589 211H13.7076C13.7026 211 13.6993 211.002 13.6943 211.002C13.691 211.002 13.6861 211 13.6828 211C12.7586 211 12.0265 211.704 12.0265 212.594L12 226.95C12 227.856 12.742 228.531 13.6828 228.531C14.6218 228.531 15.3125 227.856 15.3125 226.95L15.339 214.188H28.589C29.5298 214.188 30.2453 213.499 30.2453 212.594C30.2436 211.688 29.5281 211 28.589 211Z" fill="#121313"/>
<path d="M28.5377 258.812H15.3125V246.062C15.3125 245.157 14.597 244.469 13.6562 244.469C12.7155 244.469 12 245.157 12 246.062V260.382C12 260.387 12.0017 260.39 12.0017 260.394C12.0017 260.398 12 260.401 12 260.406C12 261.296 12.7321 262 13.6562 262H28.5377C29.4784 262 30.179 261.286 30.1807 260.381C30.1807 259.477 29.4784 258.812 28.5377 258.812Z" fill="#121313"/>
<path d="M63.3172 244.505C62.3765 244.505 61.6858 245.181 61.6875 246.086V258.813H48.4375C47.4967 258.813 46.7812 259.501 46.7812 260.406C46.7812 261.312 47.4967 262 48.4375 262H63.3189C63.3239 262 63.3272 261.998 63.3305 261.998C63.3355 261.997 63.3388 262 63.3438 262C64.2679 262 65 261.296 65 260.406V246.086C65 245.181 64.258 244.505 63.3172 244.505Z" fill="#121313"/>
</g>
<rect x="0.5" y="200.5" width="75" height="75" rx="7.5" stroke="#CED3D6"/>
<path d="M102.114 247V229.545H112.58V231.42H104.227V237.318H111.795V239.193H104.227V247H102.114ZM123.357 241.648V233.909H125.368V247H123.357V244.784H123.22C122.913 245.449 122.436 246.014 121.788 246.48C121.141 246.94 120.322 247.17 119.334 247.17C118.516 247.17 117.788 246.991 117.152 246.634C116.516 246.27 116.016 245.724 115.652 244.997C115.288 244.264 115.107 243.341 115.107 242.227V233.909H117.118V242.091C117.118 243.045 117.385 243.807 117.919 244.375C118.459 244.943 119.146 245.227 119.982 245.227C120.482 245.227 120.99 245.099 121.507 244.844C122.03 244.588 122.467 244.196 122.82 243.668C123.178 243.139 123.357 242.466 123.357 241.648ZM131.063 229.545V247H129.052V229.545H131.063ZM136.759 229.545V247H134.747V229.545H136.759ZM142.454 229.545V247H140.442V229.545H142.454ZM155.411 236.841L153.604 237.352C153.49 237.051 153.322 236.759 153.101 236.474C152.885 236.185 152.589 235.946 152.214 235.759C151.839 235.571 151.359 235.477 150.774 235.477C149.973 235.477 149.305 235.662 148.771 236.031C148.243 236.395 147.979 236.858 147.979 237.42C147.979 237.92 148.161 238.315 148.524 238.605C148.888 238.895 149.456 239.136 150.229 239.33L152.172 239.807C153.342 240.091 154.214 240.526 154.788 241.111C155.362 241.69 155.649 242.437 155.649 243.352C155.649 244.102 155.433 244.773 155.001 245.364C154.575 245.955 153.979 246.42 153.212 246.761C152.445 247.102 151.553 247.273 150.536 247.273C149.2 247.273 148.095 246.983 147.22 246.403C146.345 245.824 145.791 244.977 145.558 243.864L147.467 243.386C147.649 244.091 147.993 244.619 148.499 244.972C149.01 245.324 149.678 245.5 150.501 245.5C151.439 245.5 152.183 245.301 152.734 244.903C153.291 244.5 153.57 244.017 153.57 243.455C153.57 243 153.411 242.619 153.092 242.312C152.774 242 152.286 241.767 151.626 241.614L149.445 241.102C148.246 240.818 147.365 240.378 146.803 239.781C146.246 239.179 145.967 238.426 145.967 237.523C145.967 236.784 146.175 236.131 146.589 235.562C147.01 234.994 147.581 234.548 148.303 234.224C149.03 233.901 149.854 233.739 150.774 233.739C152.07 233.739 153.087 234.023 153.825 234.591C154.57 235.159 155.098 235.909 155.411 236.841ZM163.995 247.273C162.768 247.273 161.711 246.983 160.825 246.403C159.938 245.824 159.256 245.026 158.779 244.009C158.302 242.991 158.063 241.83 158.063 240.523C158.063 239.193 158.308 238.02 158.796 237.003C159.29 235.98 159.978 235.182 160.859 234.608C161.745 234.028 162.779 233.739 163.961 233.739C164.881 233.739 165.711 233.909 166.45 234.25C167.188 234.591 167.793 235.068 168.265 235.682C168.737 236.295 169.029 237.011 169.143 237.83H167.131C166.978 237.233 166.637 236.705 166.109 236.244C165.586 235.778 164.881 235.545 163.995 235.545C163.211 235.545 162.523 235.75 161.933 236.159C161.347 236.562 160.89 237.134 160.56 237.872C160.237 238.605 160.075 239.466 160.075 240.455C160.075 241.466 160.234 242.347 160.552 243.097C160.876 243.847 161.33 244.429 161.915 244.844C162.506 245.259 163.2 245.466 163.995 245.466C164.518 245.466 164.992 245.375 165.418 245.193C165.844 245.011 166.205 244.75 166.501 244.409C166.796 244.068 167.006 243.659 167.131 243.182H169.143C169.029 243.955 168.748 244.651 168.299 245.27C167.856 245.884 167.268 246.372 166.535 246.736C165.808 247.094 164.961 247.273 163.995 247.273ZM172.083 247V233.909H174.026V235.886H174.163C174.401 235.239 174.833 234.713 175.458 234.31C176.083 233.906 176.788 233.705 177.572 233.705C177.719 233.705 177.904 233.707 178.126 233.713C178.347 233.719 178.515 233.727 178.629 233.739V235.784C178.56 235.767 178.404 235.741 178.16 235.707C177.921 235.668 177.668 235.648 177.401 235.648C176.765 235.648 176.197 235.781 175.697 236.048C175.202 236.31 174.81 236.673 174.521 237.139C174.237 237.599 174.094 238.125 174.094 238.716V247H172.083ZM186.103 247.273C184.842 247.273 183.754 246.994 182.839 246.438C181.93 245.875 181.228 245.091 180.734 244.085C180.245 243.074 180.001 241.898 180.001 240.557C180.001 239.216 180.245 238.034 180.734 237.011C181.228 235.983 181.915 235.182 182.796 234.608C183.683 234.028 184.717 233.739 185.898 233.739C186.58 233.739 187.254 233.852 187.918 234.08C188.583 234.307 189.188 234.676 189.734 235.188C190.279 235.693 190.714 236.364 191.038 237.199C191.362 238.034 191.523 239.062 191.523 240.284V241.136H181.433V239.398H189.478C189.478 238.659 189.33 238 189.035 237.42C188.745 236.841 188.33 236.384 187.79 236.048C187.256 235.713 186.626 235.545 185.898 235.545C185.097 235.545 184.404 235.744 183.819 236.142C183.239 236.534 182.793 237.045 182.481 237.676C182.168 238.307 182.012 238.983 182.012 239.705V240.864C182.012 241.852 182.183 242.69 182.523 243.378C182.87 244.06 183.35 244.58 183.964 244.938C184.577 245.29 185.29 245.466 186.103 245.466C186.631 245.466 187.109 245.392 187.535 245.244C187.967 245.091 188.339 244.864 188.651 244.562C188.964 244.256 189.205 243.875 189.376 243.42L191.319 243.966C191.114 244.625 190.771 245.205 190.288 245.705C189.805 246.199 189.208 246.585 188.498 246.864C187.788 247.136 186.989 247.273 186.103 247.273ZM200.072 247.273C198.81 247.273 197.722 246.994 196.808 246.438C195.898 245.875 195.197 245.091 194.702 244.085C194.214 243.074 193.969 241.898 193.969 240.557C193.969 239.216 194.214 238.034 194.702 237.011C195.197 235.983 195.884 235.182 196.765 234.608C197.651 234.028 198.685 233.739 199.867 233.739C200.549 233.739 201.222 233.852 201.887 234.08C202.552 234.307 203.157 234.676 203.702 235.188C204.248 235.693 204.683 236.364 205.006 237.199C205.33 238.034 205.492 239.062 205.492 240.284V241.136H195.401V239.398H203.447C203.447 238.659 203.299 238 203.004 237.42C202.714 236.841 202.299 236.384 201.759 236.048C201.225 235.713 200.594 235.545 199.867 235.545C199.066 235.545 198.373 235.744 197.788 236.142C197.208 236.534 196.762 237.045 196.45 237.676C196.137 238.307 195.981 238.983 195.981 239.705V240.864C195.981 241.852 196.151 242.69 196.492 243.378C196.839 244.06 197.319 244.58 197.933 244.938C198.546 245.29 199.259 245.466 200.072 245.466C200.6 245.466 201.077 245.392 201.504 245.244C201.935 245.091 202.308 244.864 202.62 244.562C202.933 244.256 203.174 243.875 203.344 243.42L205.288 243.966C205.083 244.625 204.739 245.205 204.256 245.705C203.773 246.199 203.177 246.585 202.467 246.864C201.756 247.136 200.958 247.273 200.072 247.273ZM210.563 239.125V247H208.552V233.909H210.495V235.955H210.665C210.972 235.29 211.438 234.756 212.063 234.352C212.688 233.943 213.495 233.739 214.484 233.739C215.37 233.739 216.146 233.92 216.81 234.284C217.475 234.642 217.992 235.188 218.362 235.92C218.731 236.648 218.915 237.568 218.915 238.682V247H216.904V238.818C216.904 237.79 216.637 236.989 216.103 236.415C215.569 235.835 214.836 235.545 213.904 235.545C213.262 235.545 212.688 235.685 212.183 235.963C211.683 236.241 211.288 236.648 210.998 237.182C210.708 237.716 210.563 238.364 210.563 239.125Z" fill="#1F1F1F"/>
<g clip-path="url(#clip4_118_1334)">
<mask id="path-16-outside-1_118_1334" maskUnits="userSpaceOnUse" x="12.625" y="311.071" width="52" height="50" fill="black">
<rect fill="white" x="12.625" y="311.071" width="52" height="50"/>
<path fill-rule="evenodd" clip-rule="evenodd" d="M32.1067 317.917C33.085 317.505 34.2164 317.983 34.6234 318.983L41.2487 335.324C41.423 335.763 41.9739 336.001 42.4093 335.816C42.8636 335.625 43.0783 335.094 42.891 334.632L40.5568 328.873C40.3625 328.391 40.3653 327.861 40.5607 327.373C40.7592 326.885 41.1267 326.507 41.5994 326.308C42.0677 326.108 42.5896 326.108 43.0713 326.31C43.5499 326.513 43.9185 326.889 44.1142 327.372L46.8143 334.035C47.0026 334.496 47.5174 334.718 47.9739 334.527C48.4292 334.335 48.6429 333.804 48.4556 333.342L46.7447 329.116C46.5634 328.671 46.5634 328.173 46.7485 327.719C46.9309 327.267 47.2725 326.914 47.7106 326.728C48.6182 326.345 49.673 326.787 50.049 327.718L51.9602 332.432C52.1507 332.899 52.6746 333.109 53.1208 332.924C53.5794 332.729 53.7877 332.199 53.6025 331.736L52.6787 329.459C52.3091 328.531 52.7413 327.463 53.651 327.079C54.0913 326.893 54.5758 326.891 55.0172 327.083C55.4614 327.269 55.805 327.62 55.9874 328.066L61.1577 340.934L61.2322 341.153C61.6935 343.067 61.728 345.369 61.76 347.597C61.7881 349.511 61.8165 351.335 62.0934 352.941L48.0732 358.869C45.0295 356.992 43.2494 356.226 41.8168 355.617C40.1895 354.924 39.0149 354.425 36.7077 352.649C35.6437 351.832 34.4961 350.723 33.3871 349.652C32.0322 348.346 30.7578 347.111 29.5848 346.33C28.3798 345.526 27.1335 344.059 27.2667 343.24C27.3826 342.566 28.6237 342.43 29.1525 342.403C29.759 342.368 30.4158 342.451 31.0244 342.632C31.5371 342.787 32.0209 343.011 32.4612 343.301C33.5403 344.01 37.2165 346.314 40.095 346.824C40.4538 346.884 40.751 346.893 41.0339 346.614C41.2838 346.376 41.4018 345.942 41.2585 345.617L31.0676 320.487C30.6614 319.486 31.1285 318.332 32.1067 317.917ZM36.2642 318.289C35.4813 316.365 33.3094 315.442 31.4292 316.244C29.544 317.04 28.6456 319.257 29.4242 321.182L38.9269 344.624C36.5787 343.795 34.0093 342.162 33.4191 341.774C32.8368 341.393 32.197 341.096 31.5209 340.893C30.725 340.651 29.8778 340.55 29.0576 340.589C26.2912 340.731 25.6503 342.116 25.5122 342.932C25.1766 344.963 27.3921 347.035 28.6103 347.849C29.6479 348.541 30.868 349.72 32.1638 350.968C33.3083 352.076 34.4953 353.218 35.6348 354.094C38.1222 356.009 39.4512 356.573 41.1276 357.289C42.641 357.933 44.3558 358.664 47.5322 360.654C47.6784 360.744 47.8376 360.786 47.9978 360.786C48.1085 360.786 48.2266 360.763 48.3372 360.718L63.4504 354.327C63.8555 354.155 64.079 353.709 63.9743 353.275C63.5945 351.691 63.5642 349.687 63.5319 347.565C63.4996 345.237 63.4634 342.83 62.9535 340.717C62.9114 340.538 62.8689 340.418 62.8003 340.245L57.6269 327.373C57.2653 326.478 56.5801 325.777 55.6947 325.406C54.8152 325.03 53.8451 325.03 52.9704 325.402C52.3478 325.666 51.8471 326.095 51.4753 326.614C50.5947 325.049 48.7026 324.339 47.0314 325.051C46.4249 325.31 45.9193 325.732 45.5374 326.263C45.1333 325.537 44.5208 324.963 43.7481 324.637C42.8281 324.247 41.8257 324.249 40.918 324.633C40.2792 324.901 39.7483 325.348 39.3523 325.908L36.2642 318.289ZM29.9846 312.683C28.0622 313.493 26.5653 315.026 25.7695 316.989C24.9704 318.952 24.9704 321.114 25.7695 323.08C25.9469 323.522 26.1613 323.94 26.403 324.329C26.6648 324.75 27.22 324.875 27.6283 324.605C28.0422 324.336 28.1641 323.774 27.8992 323.352C27.7108 323.05 27.5457 322.728 27.4087 322.386C26.7751 320.823 26.8222 319.142 27.4087 317.691C27.9969 316.234 29.1294 315.005 30.6649 314.356C32.151 313.731 33.7852 313.728 35.2712 314.358C36.7543 314.988 37.9108 316.169 38.5243 317.683C38.6652 318.032 38.7752 318.389 38.8497 318.744C38.9544 319.234 39.4077 319.543 39.9084 319.438C40.3849 319.332 40.6892 318.849 40.5873 318.36C40.4875 317.899 40.3466 317.442 40.1663 316.99C39.3683 315.026 37.8721 313.495 35.9512 312.683C34.0245 311.869 31.9087 311.867 29.9846 312.683ZM32.9999 337.258C31.2679 336.222 29.2489 335.934 27.3156 336.453C25.3774 336.968 23.7523 338.223 22.7396 339.988C21.7251 341.753 21.4479 343.813 21.9539 345.792C22.4577 347.772 23.6858 349.431 25.4147 350.466C25.8047 350.699 26.2067 350.891 26.6136 351.046C27.064 351.231 27.5859 350.976 27.7552 350.514C27.9273 350.048 27.6947 349.526 27.2344 349.349C26.9231 349.23 26.6139 349.083 26.3145 348.902C24.9968 348.112 24.0568 346.845 23.6706 345.337C23.2859 343.826 23.4995 342.253 24.2732 340.907C25.047 339.559 26.2863 338.601 27.7653 338.207C29.2474 337.815 30.7846 338.034 32.1013 338.822C32.4067 339.004 32.6857 339.21 32.9446 339.435C33.3203 339.763 33.8807 339.719 34.198 339.338C34.5175 338.958 34.4732 338.384 34.1014 338.057C33.7616 337.765 33.3969 337.494 32.9999 337.258ZM17.0411 317.624C16.649 317.924 16.5685 318.491 16.8598 318.891C17.1561 319.293 17.7102 319.376 18.1052 319.077L18.8627 318.499L15.7916 340.115L15.2234 339.338C14.9304 338.936 14.3752 338.853 13.9823 339.154C13.5884 339.453 13.508 340.023 13.8021 340.423L15.6517 342.952C15.9448 343.353 16.5021 343.433 16.8928 343.136L19.3683 341.25C19.7601 340.949 19.842 340.382 19.5476 339.98C19.2524 339.578 18.6962 339.497 18.3054 339.796L17.5467 340.374L20.6175 318.76L21.1857 319.537C21.4801 319.936 22.0371 320.017 22.4271 319.72C22.8221 319.419 22.9026 318.851 22.6074 318.451L20.7578 315.922C20.4665 315.521 19.9085 315.439 19.5167 315.738L17.0411 317.624Z"/>
</mask>
<path fill-rule="evenodd" clip-rule="evenodd" d="M32.1067 317.917C33.085 317.505 34.2164 317.983 34.6234 318.983L41.2487 335.324C41.423 335.763 41.9739 336.001 42.4093 335.816C42.8636 335.625 43.0783 335.094 42.891 334.632L40.5568 328.873C40.3625 328.391 40.3653 327.861 40.5607 327.373C40.7592 326.885 41.1267 326.507 41.5994 326.308C42.0677 326.108 42.5896 326.108 43.0713 326.31C43.5499 326.513 43.9185 326.889 44.1142 327.372L46.8143 334.035C47.0026 334.496 47.5174 334.718 47.9739 334.527C48.4292 334.335 48.6429 333.804 48.4556 333.342L46.7447 329.116C46.5634 328.671 46.5634 328.173 46.7485 327.719C46.9309 327.267 47.2725 326.914 47.7106 326.728C48.6182 326.345 49.673 326.787 50.049 327.718L51.9602 332.432C52.1507 332.899 52.6746 333.109 53.1208 332.924C53.5794 332.729 53.7877 332.199 53.6025 331.736L52.6787 329.459C52.3091 328.531 52.7413 327.463 53.651 327.079C54.0913 326.893 54.5758 326.891 55.0172 327.083C55.4614 327.269 55.805 327.62 55.9874 328.066L61.1577 340.934L61.2322 341.153C61.6935 343.067 61.728 345.369 61.76 347.597C61.7881 349.511 61.8165 351.335 62.0934 352.941L48.0732 358.869C45.0295 356.992 43.2494 356.226 41.8168 355.617C40.1895 354.924 39.0149 354.425 36.7077 352.649C35.6437 351.832 34.4961 350.723 33.3871 349.652C32.0322 348.346 30.7578 347.111 29.5848 346.33C28.3798 345.526 27.1335 344.059 27.2667 343.24C27.3826 342.566 28.6237 342.43 29.1525 342.403C29.759 342.368 30.4158 342.451 31.0244 342.632C31.5371 342.787 32.0209 343.011 32.4612 343.301C33.5403 344.01 37.2165 346.314 40.095 346.824C40.4538 346.884 40.751 346.893 41.0339 346.614C41.2838 346.376 41.4018 345.942 41.2585 345.617L31.0676 320.487C30.6614 319.486 31.1285 318.332 32.1067 317.917ZM36.2642 318.289C35.4813 316.365 33.3094 315.442 31.4292 316.244C29.544 317.04 28.6456 319.257 29.4242 321.182L38.9269 344.624C36.5787 343.795 34.0093 342.162 33.4191 341.774C32.8368 341.393 32.197 341.096 31.5209 340.893C30.725 340.651 29.8778 340.55 29.0576 340.589C26.2912 340.731 25.6503 342.116 25.5122 342.932C25.1766 344.963 27.3921 347.035 28.6103 347.849C29.6479 348.541 30.868 349.72 32.1638 350.968C33.3083 352.076 34.4953 353.218 35.6348 354.094C38.1222 356.009 39.4512 356.573 41.1276 357.289C42.641 357.933 44.3558 358.664 47.5322 360.654C47.6784 360.744 47.8376 360.786 47.9978 360.786C48.1085 360.786 48.2266 360.763 48.3372 360.718L63.4504 354.327C63.8555 354.155 64.079 353.709 63.9743 353.275C63.5945 351.691 63.5642 349.687 63.5319 347.565C63.4996 345.237 63.4634 342.83 62.9535 340.717C62.9114 340.538 62.8689 340.418 62.8003 340.245L57.6269 327.373C57.2653 326.478 56.5801 325.777 55.6947 325.406C54.8152 325.03 53.8451 325.03 52.9704 325.402C52.3478 325.666 51.8471 326.095 51.4753 326.614C50.5947 325.049 48.7026 324.339 47.0314 325.051C46.4249 325.31 45.9193 325.732 45.5374 326.263C45.1333 325.537 44.5208 324.963 43.7481 324.637C42.8281 324.247 41.8257 324.249 40.918 324.633C40.2792 324.901 39.7483 325.348 39.3523 325.908L36.2642 318.289ZM29.9846 312.683C28.0622 313.493 26.5653 315.026 25.7695 316.989C24.9704 318.952 24.9704 321.114 25.7695 323.08C25.9469 323.522 26.1613 323.94 26.403 324.329C26.6648 324.75 27.22 324.875 27.6283 324.605C28.0422 324.336 28.1641 323.774 27.8992 323.352C27.7108 323.05 27.5457 322.728 27.4087 322.386C26.7751 320.823 26.8222 319.142 27.4087 317.691C27.9969 316.234 29.1294 315.005 30.6649 314.356C32.151 313.731 33.7852 313.728 35.2712 314.358C36.7543 314.988 37.9108 316.169 38.5243 317.683C38.6652 318.032 38.7752 318.389 38.8497 318.744C38.9544 319.234 39.4077 319.543 39.9084 319.438C40.3849 319.332 40.6892 318.849 40.5873 318.36C40.4875 317.899 40.3466 317.442 40.1663 316.99C39.3683 315.026 37.8721 313.495 35.9512 312.683C34.0245 311.869 31.9087 311.867 29.9846 312.683ZM32.9999 337.258C31.2679 336.222 29.2489 335.934 27.3156 336.453C25.3774 336.968 23.7523 338.223 22.7396 339.988C21.7251 341.753 21.4479 343.813 21.9539 345.792C22.4577 347.772 23.6858 349.431 25.4147 350.466C25.8047 350.699 26.2067 350.891 26.6136 351.046C27.064 351.231 27.5859 350.976 27.7552 350.514C27.9273 350.048 27.6947 349.526 27.2344 349.349C26.9231 349.23 26.6139 349.083 26.3145 348.902C24.9968 348.112 24.0568 346.845 23.6706 345.337C23.2859 343.826 23.4995 342.253 24.2732 340.907C25.047 339.559 26.2863 338.601 27.7653 338.207C29.2474 337.815 30.7846 338.034 32.1013 338.822C32.4067 339.004 32.6857 339.21 32.9446 339.435C33.3203 339.763 33.8807 339.719 34.198 339.338C34.5175 338.958 34.4732 338.384 34.1014 338.057C33.7616 337.765 33.3969 337.494 32.9999 337.258ZM17.0411 317.624C16.649 317.924 16.5685 318.491 16.8598 318.891C17.1561 319.293 17.7102 319.376 18.1052 319.077L18.8627 318.499L15.7916 340.115L15.2234 339.338C14.9304 338.936 14.3752 338.853 13.9823 339.154C13.5884 339.453 13.508 340.023 13.8021 340.423L15.6517 342.952C15.9448 343.353 16.5021 343.433 16.8928 343.136L19.3683 341.25C19.7601 340.949 19.842 340.382 19.5476 339.98C19.2524 339.578 18.6962 339.497 18.3054 339.796L17.5467 340.374L20.6175 318.76L21.1857 319.537C21.4801 319.936 22.0371 320.017 22.4271 319.72C22.8221 319.419 22.9026 318.851 22.6074 318.451L20.7578 315.922C20.4665 315.521 19.9085 315.439 19.5167 315.738L17.0411 317.624Z" fill="black"/>
<path fill-rule="evenodd" clip-rule="evenodd" d="M32.1067 317.917C33.085 317.505 34.2164 317.983 34.6234 318.983L41.2487 335.324C41.423 335.763 41.9739 336.001 42.4093 335.816C42.8636 335.625 43.0783 335.094 42.891 334.632L40.5568 328.873C40.3625 328.391 40.3653 327.861 40.5607 327.373C40.7592 326.885 41.1267 326.507 41.5994 326.308C42.0677 326.108 42.5896 326.108 43.0713 326.31C43.5499 326.513 43.9185 326.889 44.1142 327.372L46.8143 334.035C47.0026 334.496 47.5174 334.718 47.9739 334.527C48.4292 334.335 48.6429 333.804 48.4556 333.342L46.7447 329.116C46.5634 328.671 46.5634 328.173 46.7485 327.719C46.9309 327.267 47.2725 326.914 47.7106 326.728C48.6182 326.345 49.673 326.787 50.049 327.718L51.9602 332.432C52.1507 332.899 52.6746 333.109 53.1208 332.924C53.5794 332.729 53.7877 332.199 53.6025 331.736L52.6787 329.459C52.3091 328.531 52.7413 327.463 53.651 327.079C54.0913 326.893 54.5758 326.891 55.0172 327.083C55.4614 327.269 55.805 327.62 55.9874 328.066L61.1577 340.934L61.2322 341.153C61.6935 343.067 61.728 345.369 61.76 347.597C61.7881 349.511 61.8165 351.335 62.0934 352.941L48.0732 358.869C45.0295 356.992 43.2494 356.226 41.8168 355.617C40.1895 354.924 39.0149 354.425 36.7077 352.649C35.6437 351.832 34.4961 350.723 33.3871 349.652C32.0322 348.346 30.7578 347.111 29.5848 346.33C28.3798 345.526 27.1335 344.059 27.2667 343.24C27.3826 342.566 28.6237 342.43 29.1525 342.403C29.759 342.368 30.4158 342.451 31.0244 342.632C31.5371 342.787 32.0209 343.011 32.4612 343.301C33.5403 344.01 37.2165 346.314 40.095 346.824C40.4538 346.884 40.751 346.893 41.0339 346.614C41.2838 346.376 41.4018 345.942 41.2585 345.617L31.0676 320.487C30.6614 319.486 31.1285 318.332 32.1067 317.917ZM36.2642 318.289C35.4813 316.365 33.3094 315.442 31.4292 316.244C29.544 317.04 28.6456 319.257 29.4242 321.182L38.9269 344.624C36.5787 343.795 34.0093 342.162 33.4191 341.774C32.8368 341.393 32.197 341.096 31.5209 340.893C30.725 340.651 29.8778 340.55 29.0576 340.589C26.2912 340.731 25.6503 342.116 25.5122 342.932C25.1766 344.963 27.3921 347.035 28.6103 347.849C29.6479 348.541 30.868 349.72 32.1638 350.968C33.3083 352.076 34.4953 353.218 35.6348 354.094C38.1222 356.009 39.4512 356.573 41.1276 357.289C42.641 357.933 44.3558 358.664 47.5322 360.654C47.6784 360.744 47.8376 360.786 47.9978 360.786C48.1085 360.786 48.2266 360.763 48.3372 360.718L63.4504 354.327C63.8555 354.155 64.079 353.709 63.9743 353.275C63.5945 351.691 63.5642 349.687 63.5319 347.565C63.4996 345.237 63.4634 342.83 62.9535 340.717C62.9114 340.538 62.8689 340.418 62.8003 340.245L57.6269 327.373C57.2653 326.478 56.5801 325.777 55.6947 325.406C54.8152 325.03 53.8451 325.03 52.9704 325.402C52.3478 325.666 51.8471 326.095 51.4753 326.614C50.5947 325.049 48.7026 324.339 47.0314 325.051C46.4249 325.31 45.9193 325.732 45.5374 326.263C45.1333 325.537 44.5208 324.963 43.7481 324.637C42.8281 324.247 41.8257 324.249 40.918 324.633C40.2792 324.901 39.7483 325.348 39.3523 325.908L36.2642 318.289ZM29.9846 312.683C28.0622 313.493 26.5653 315.026 25.7695 316.989C24.9704 318.952 24.9704 321.114 25.7695 323.08C25.9469 323.522 26.1613 323.94 26.403 324.329C26.6648 324.75 27.22 324.875 27.6283 324.605C28.0422 324.336 28.1641 323.774 27.8992 323.352C27.7108 323.05 27.5457 322.728 27.4087 322.386C26.7751 320.823 26.8222 319.142 27.4087 317.691C27.9969 316.234 29.1294 315.005 30.6649 314.356C32.151 313.731 33.7852 313.728 35.2712 314.358C36.7543 314.988 37.9108 316.169 38.5243 317.683C38.6652 318.032 38.7752 318.389 38.8497 318.744C38.9544 319.234 39.4077 319.543 39.9084 319.438C40.3849 319.332 40.6892 318.849 40.5873 318.36C40.4875 317.899 40.3466 317.442 40.1663 316.99C39.3683 315.026 37.8721 313.495 35.9512 312.683C34.0245 311.869 31.9087 311.867 29.9846 312.683ZM32.9999 337.258C31.2679 336.222 29.2489 335.934 27.3156 336.453C25.3774 336.968 23.7523 338.223 22.7396 339.988C21.7251 341.753 21.4479 343.813 21.9539 345.792C22.4577 347.772 23.6858 349.431 25.4147 350.466C25.8047 350.699 26.2067 350.891 26.6136 351.046C27.064 351.231 27.5859 350.976 27.7552 350.514C27.9273 350.048 27.6947 349.526 27.2344 349.349C26.9231 349.23 26.6139 349.083 26.3145 348.902C24.9968 348.112 24.0568 346.845 23.6706 345.337C23.2859 343.826 23.4995 342.253 24.2732 340.907C25.047 339.559 26.2863 338.601 27.7653 338.207C29.2474 337.815 30.7846 338.034 32.1013 338.822C32.4067 339.004 32.6857 339.21 32.9446 339.435C33.3203 339.763 33.8807 339.719 34.198 339.338C34.5175 338.958 34.4732 338.384 34.1014 338.057C33.7616 337.765 33.3969 337.494 32.9999 337.258ZM17.0411 317.624C16.649 317.924 16.5685 318.491 16.8598 318.891C17.1561 319.293 17.7102 319.376 18.1052 319.077L18.8627 318.499L15.7916 340.115L15.2234 339.338C14.9304 338.936 14.3752 338.853 13.9823 339.154C13.5884 339.453 13.508 340.023 13.8021 340.423L15.6517 342.952C15.9448 343.353 16.5021 343.433 16.8928 343.136L19.3683 341.25C19.7601 340.949 19.842 340.382 19.5476 339.98C19.2524 339.578 18.6962 339.497 18.3054 339.796L17.5467 340.374L20.6175 318.76L21.1857 319.537C21.4801 319.936 22.0371 320.017 22.4271 319.72C22.8221 319.419 22.9026 318.851 22.6074 318.451L20.7578 315.922C20.4665 315.521 19.9085 315.439 19.5167 315.738L17.0411 317.624Z" stroke="black" stroke-width="0.4" mask="url(#path-16-outside-1_118_1334)"/>
</g>
<rect x="0.5" y="300.5" width="75" height="75" rx="7.5" stroke="#CED3D6"/>
<path d="M102.114 347V329.545H108.011C109.381 329.545 110.5 329.793 111.369 330.287C112.244 330.776 112.892 331.438 113.312 332.273C113.733 333.108 113.943 334.04 113.943 335.068C113.943 336.097 113.733 337.031 113.312 337.872C112.898 338.713 112.256 339.384 111.386 339.884C110.517 340.378 109.403 340.625 108.045 340.625H103.818V338.75H107.977C108.915 338.75 109.668 338.588 110.236 338.264C110.804 337.94 111.216 337.503 111.472 336.952C111.733 336.395 111.864 335.767 111.864 335.068C111.864 334.369 111.733 333.744 111.472 333.193C111.216 332.642 110.801 332.21 110.227 331.898C109.653 331.58 108.892 331.42 107.943 331.42H104.227V347H102.114ZM117.075 347V333.909H119.087V347H117.075ZM118.098 331.727C117.706 331.727 117.368 331.594 117.084 331.327C116.805 331.06 116.666 330.739 116.666 330.364C116.666 329.989 116.805 329.668 117.084 329.401C117.368 329.134 117.706 329 118.098 329C118.49 329 118.825 329.134 119.104 329.401C119.388 329.668 119.53 329.989 119.53 330.364C119.53 330.739 119.388 331.06 119.104 331.327C118.825 331.594 118.49 331.727 118.098 331.727ZM124.782 339.125V347H122.771V333.909H124.714V335.955H124.884C125.191 335.29 125.657 334.756 126.282 334.352C126.907 333.943 127.714 333.739 128.702 333.739C129.589 333.739 130.364 333.92 131.029 334.284C131.694 334.642 132.211 335.188 132.58 335.92C132.95 336.648 133.134 337.568 133.134 338.682V347H131.123V338.818C131.123 337.79 130.856 336.989 130.322 336.415C129.788 335.835 129.055 335.545 128.123 335.545C127.481 335.545 126.907 335.685 126.401 335.963C125.901 336.241 125.506 336.648 125.217 337.182C124.927 337.716 124.782 338.364 124.782 339.125ZM142.128 347.273C140.901 347.273 139.844 346.983 138.957 346.403C138.071 345.824 137.389 345.026 136.912 344.009C136.435 342.991 136.196 341.83 136.196 340.523C136.196 339.193 136.44 338.02 136.929 337.003C137.423 335.98 138.111 335.182 138.991 334.608C139.878 334.028 140.912 333.739 142.094 333.739C143.014 333.739 143.844 333.909 144.582 334.25C145.321 334.591 145.926 335.068 146.398 335.682C146.869 336.295 147.162 337.011 147.276 337.83H145.264C145.111 337.233 144.77 336.705 144.241 336.244C143.719 335.778 143.014 335.545 142.128 335.545C141.344 335.545 140.656 335.75 140.065 336.159C139.48 336.562 139.023 337.134 138.693 337.872C138.369 338.605 138.207 339.466 138.207 340.455C138.207 341.466 138.366 342.347 138.685 343.097C139.009 343.847 139.463 344.429 140.048 344.844C140.639 345.259 141.332 345.466 142.128 345.466C142.651 345.466 143.125 345.375 143.551 345.193C143.977 345.011 144.338 344.75 144.634 344.409C144.929 344.068 145.139 343.659 145.264 343.182H147.276C147.162 343.955 146.881 344.651 146.432 345.27C145.989 345.884 145.401 346.372 144.668 346.736C143.94 347.094 143.094 347.273 142.128 347.273ZM152.227 339.125V347H150.216V329.545H152.227V335.955H152.398C152.705 335.278 153.165 334.741 153.778 334.344C154.398 333.94 155.222 333.739 156.25 333.739C157.142 333.739 157.923 333.918 158.594 334.276C159.264 334.628 159.784 335.17 160.153 335.903C160.528 336.631 160.716 337.557 160.716 338.682V347H158.705V338.818C158.705 337.778 158.435 336.974 157.895 336.406C157.361 335.832 156.619 335.545 155.67 335.545C155.011 335.545 154.42 335.685 153.898 335.963C153.381 336.241 152.972 336.648 152.67 337.182C152.375 337.716 152.227 338.364 152.227 339.125ZM176.839 333.909V335.614H170.055V333.909H176.839ZM172.032 330.773H174.043V343.25C174.043 343.818 174.126 344.244 174.29 344.528C174.461 344.807 174.677 344.994 174.938 345.091C175.205 345.182 175.487 345.227 175.782 345.227C176.004 345.227 176.185 345.216 176.327 345.193C176.469 345.165 176.583 345.142 176.668 345.125L177.077 346.932C176.941 346.983 176.751 347.034 176.506 347.085C176.262 347.142 175.952 347.17 175.577 347.17C175.009 347.17 174.452 347.048 173.907 346.804C173.367 346.56 172.918 346.188 172.56 345.688C172.208 345.188 172.032 344.557 172.032 343.795V330.773ZM185.042 347.273C183.86 347.273 182.823 346.991 181.931 346.429C181.045 345.866 180.352 345.08 179.852 344.068C179.357 343.057 179.11 341.875 179.11 340.523C179.11 339.159 179.357 337.969 179.852 336.952C180.352 335.935 181.045 335.145 181.931 334.582C182.823 334.02 183.86 333.739 185.042 333.739C186.224 333.739 187.258 334.02 188.144 334.582C189.036 335.145 189.729 335.935 190.224 336.952C190.724 337.969 190.974 339.159 190.974 340.523C190.974 341.875 190.724 343.057 190.224 344.068C189.729 345.08 189.036 345.866 188.144 346.429C187.258 346.991 186.224 347.273 185.042 347.273ZM185.042 345.466C185.94 345.466 186.678 345.236 187.258 344.776C187.837 344.315 188.266 343.71 188.545 342.96C188.823 342.21 188.962 341.398 188.962 340.523C188.962 339.648 188.823 338.832 188.545 338.077C188.266 337.321 187.837 336.71 187.258 336.244C186.678 335.778 185.94 335.545 185.042 335.545C184.144 335.545 183.406 335.778 182.826 336.244C182.246 336.71 181.817 337.321 181.539 338.077C181.261 338.832 181.121 339.648 181.121 340.523C181.121 341.398 181.261 342.21 181.539 342.96C181.817 343.71 182.246 344.315 182.826 344.776C183.406 345.236 184.144 345.466 185.042 345.466ZM200.487 347V345.466L209.896 331.42H200.385V329.545H212.419V331.08L203.01 345.125H212.521V347H200.487ZM221.112 347.273C219.93 347.273 218.893 346.991 218.001 346.429C217.115 345.866 216.422 345.08 215.922 344.068C215.428 343.057 215.18 341.875 215.18 340.523C215.18 339.159 215.428 337.969 215.922 336.952C216.422 335.935 217.115 335.145 218.001 334.582C218.893 334.02 219.93 333.739 221.112 333.739C222.294 333.739 223.328 334.02 224.214 334.582C225.107 335.145 225.8 335.935 226.294 336.952C226.794 337.969 227.044 339.159 227.044 340.523C227.044 341.875 226.794 343.057 226.294 344.068C225.8 345.08 225.107 345.866 224.214 346.429C223.328 346.991 222.294 347.273 221.112 347.273ZM221.112 345.466C222.01 345.466 222.749 345.236 223.328 344.776C223.908 344.315 224.337 343.71 224.615 342.96C224.893 342.21 225.033 341.398 225.033 340.523C225.033 339.648 224.893 338.832 224.615 338.077C224.337 337.321 223.908 336.71 223.328 336.244C222.749 335.778 222.01 335.545 221.112 335.545C220.214 335.545 219.476 335.778 218.896 336.244C218.317 336.71 217.888 337.321 217.609 338.077C217.331 338.832 217.192 339.648 217.192 340.523C217.192 341.398 217.331 342.21 217.609 342.96C217.888 343.71 218.317 344.315 218.896 344.776C219.476 345.236 220.214 345.466 221.112 345.466ZM235.433 347.273C234.251 347.273 233.214 346.991 232.322 346.429C231.435 345.866 230.742 345.08 230.242 344.068C229.748 343.057 229.501 341.875 229.501 340.523C229.501 339.159 229.748 337.969 230.242 336.952C230.742 335.935 231.435 335.145 232.322 334.582C233.214 334.02 234.251 333.739 235.433 333.739C236.614 333.739 237.648 334.02 238.535 334.582C239.427 335.145 240.12 335.935 240.614 336.952C241.114 337.969 241.364 339.159 241.364 340.523C241.364 341.875 241.114 343.057 240.614 344.068C240.12 345.08 239.427 345.866 238.535 346.429C237.648 346.991 236.614 347.273 235.433 347.273ZM235.433 345.466C236.33 345.466 237.069 345.236 237.648 344.776C238.228 344.315 238.657 343.71 238.935 342.96C239.214 342.21 239.353 341.398 239.353 340.523C239.353 339.648 239.214 338.832 238.935 338.077C238.657 337.321 238.228 336.71 237.648 336.244C237.069 335.778 236.33 335.545 235.433 335.545C234.535 335.545 233.796 335.778 233.217 336.244C232.637 336.71 232.208 337.321 231.93 338.077C231.651 338.832 231.512 339.648 231.512 340.523C231.512 341.398 231.651 342.21 231.93 342.96C232.208 343.71 232.637 344.315 233.217 344.776C233.796 345.236 234.535 345.466 235.433 345.466ZM244.435 347V333.909H246.378V335.955H246.548C246.821 335.256 247.261 334.713 247.869 334.327C248.477 333.935 249.207 333.739 250.06 333.739C250.923 333.739 251.642 333.935 252.216 334.327C252.795 334.713 253.247 335.256 253.571 335.955H253.707C254.043 335.278 254.545 334.741 255.216 334.344C255.886 333.94 256.69 333.739 257.628 333.739C258.798 333.739 259.756 334.105 260.5 334.838C261.244 335.565 261.616 336.699 261.616 338.239V347H259.605V338.239C259.605 337.273 259.341 336.582 258.812 336.168C258.284 335.753 257.662 335.545 256.946 335.545C256.026 335.545 255.313 335.824 254.807 336.381C254.301 336.932 254.048 337.631 254.048 338.477V347H252.003V338.034C252.003 337.29 251.761 336.69 251.278 336.236C250.795 335.776 250.173 335.545 249.412 335.545C248.889 335.545 248.401 335.685 247.946 335.963C247.497 336.241 247.134 336.628 246.855 337.122C246.582 337.611 246.446 338.176 246.446 338.818V347H244.435Z" fill="#1F1F1F"/>
<g clip-path="url(#clip5_118_1334)">
<path d="M25.9603 441.461L25.9602 441.461C24.9972 440.475 23.666 440.053 22.3733 440.088C21.0811 440.123 19.8218 440.614 19.001 441.461C18.1839 442.304 17.5088 443.574 17.3298 444.935C17.1507 446.298 17.4689 447.754 18.641 448.964L18.6411 448.964L32.2463 462.913L32.2465 462.913C32.5316 463.202 32.8424 463.442 33.168 463.651C34.4109 464.697 35.7468 465.53 37.525 466.102C39.3035 466.675 41.5222 466.984 44.5293 466.984C51.4026 466.984 55.1724 465.07 57.2189 461.96C59.2619 458.856 59.5785 454.572 59.5785 449.858V439.876V439.876C59.5733 437.081 57.585 434.819 54.8631 434.819H54.7345C53.7995 434.819 53.0331 435.091 52.2926 435.552C51.6199 433.597 49.9536 432.196 47.8111 432.196C46.8774 432.196 45.9885 432.467 45.2456 432.929C44.5728 430.979 42.9066 429.573 40.7641 429.573C39.9516 429.573 39.1925 429.778 38.5149 430.134V425.158C38.5149 422.378 36.4743 420.117 33.7532 420.117C31.0343 420.117 28.8321 422.376 28.8321 425.158V444.415L25.9603 441.461ZM20.9708 443.824L20.9709 443.824C21.426 443.354 22.0738 443.109 22.7197 443.095C23.3655 443.082 24.0045 443.3 24.4432 443.75L24.479 443.715L24.4432 443.75L24.4433 443.75L24.4436 443.75L24.4448 443.752L24.4497 443.757L24.469 443.777L24.544 443.854L24.8265 444.144L25.816 445.16C26.6242 445.989 27.676 447.069 28.6508 448.067C29.3863 448.823 30.0782 449.534 30.5861 450.055L31.1926 450.676L31.3596 450.847L31.4033 450.892L31.4144 450.904L31.4172 450.907L31.4179 450.907L31.4181 450.907L31.4182 450.907L31.454 450.873L31.4182 450.907L31.504 450.995V450.873V425.678C31.504 424.399 32.5165 423.365 33.7635 423.365C35.0058 423.365 35.8584 424.393 35.8584 425.678V441.703V441.753H35.8752C35.8649 441.822 35.8584 441.895 35.8584 441.968C35.8584 442.722 36.4559 443.33 37.1892 443.33C37.9279 443.33 38.52 442.717 38.52 441.968C38.52 441.895 38.5135 441.822 38.5032 441.753H38.52V441.703V435.135C38.52 433.852 39.4226 432.822 40.6664 432.822L40.6671 432.822L40.6673 432.822L40.6683 432.822L40.6727 432.822L40.6907 432.822C40.7066 432.822 40.7302 432.823 40.7603 432.825C40.8207 432.829 40.9072 432.837 41.0112 432.854C41.2194 432.888 41.4962 432.957 41.7725 433.1C42.0485 433.242 42.3234 433.457 42.5294 433.782C42.7354 434.107 42.8745 434.544 42.8745 435.135V443.805V443.855H42.8913C42.881 443.925 42.8745 443.998 42.8745 444.071C42.8745 444.825 43.472 445.432 44.2053 445.432C44.944 445.432 45.5361 444.819 45.5361 444.071C45.5361 443.997 45.5294 443.927 45.519 443.855H45.5361V443.805V437.763C45.5361 436.48 46.4229 435.451 47.6653 435.45L47.6696 435.451L47.6881 435.452C47.6966 435.453 47.7072 435.454 47.7198 435.456C47.7285 435.457 47.7381 435.458 47.7486 435.459C47.7521 435.459 47.7557 435.46 47.7594 435.46C47.8212 435.469 47.9097 435.483 48.0161 435.507C48.2291 435.555 48.5125 435.641 48.7953 435.795C49.3589 436.102 49.9214 436.678 49.9214 437.763V445.382V445.432H49.9382C49.9279 445.502 49.9214 445.574 49.9214 445.643C49.9214 446.397 50.5189 447.004 51.2522 447.004C51.9925 447.004 52.5521 446.389 52.5521 445.643C52.5521 445.57 52.5457 445.5 52.5354 445.432H52.5521V445.382V440.179C52.5521 438.897 53.4847 437.866 54.7294 437.866L54.7315 437.866L54.7315 437.866L54.7317 437.866L54.7327 437.866L54.737 437.866L54.7548 437.866C54.7705 437.866 54.7937 437.866 54.8235 437.867C54.8831 437.869 54.9685 437.875 55.0712 437.889C55.2768 437.918 55.5502 437.982 55.8229 438.12C56.0954 438.258 56.3669 438.471 56.5705 438.799C56.7741 439.127 56.9118 439.572 56.9118 440.179H56.9618L56.9118 440.179V440.179V440.18V440.18V440.181V440.182V440.183V440.184V440.186V440.187V440.189V440.191V440.193V440.196V440.198V440.201V440.203V440.206V440.209V440.213V440.216V440.22V440.223V440.227V440.231V440.236V440.24V440.244V440.249V440.254V440.259V440.264V440.269V440.275V440.281V440.286V440.292V440.298V440.304V440.311V440.317V440.324V440.331V440.338V440.345V440.352V440.36V440.367V440.375V440.383V440.391V440.399V440.407V440.415V440.424V440.433V440.442V440.45V440.46V440.469V440.478V440.488V440.497V440.507V440.517V440.527V440.537V440.548V440.558V440.569V440.58V440.59V440.601V440.613V440.624V440.635V440.647V440.658V440.67V440.682V440.694V440.706V440.718V440.731V440.743V440.756V440.769V440.782V440.795V440.808V440.821V440.834V440.848V440.862V440.875V440.889V440.903V440.917V440.931V440.946V440.96V440.975V440.989V441.004V441.019V441.034V441.049V441.064V441.08V441.095V441.111V441.126V441.142V441.158V441.174V441.19V441.206V441.222V441.239V441.255V441.272V441.289V441.305V441.322V441.339V441.356V441.374V441.391V441.408V441.426V441.443V441.461V441.479V441.497V441.515V441.533V441.551V441.569V441.588V441.606V441.625V441.643V441.662V441.681V441.7V441.719V441.738V441.757V441.776V441.796V441.815V441.835V441.854V441.874V441.894V441.913V441.933V441.953V441.973V441.994V442.014V442.034V442.055V442.075V442.096V442.116V442.137V442.158V442.179V442.2V442.221V442.242V442.263V442.284V442.305V442.327V442.348V442.37V442.391V442.413V442.435V442.457V442.478V442.5V442.522V442.544V442.567V442.589V442.611V442.633V442.656V442.678V442.701V442.723V442.746V442.769V442.791V442.814V442.837V442.86V442.883V442.906V442.929V442.952V442.975V442.999V443.022V443.045V443.069V443.092V443.116V443.139V443.163V443.186V443.21V443.234V443.258V443.282V443.305V443.329V443.353V443.377V443.401V443.426V443.45V443.474V443.498V443.522V443.547V443.571V443.596V443.62V443.645V443.669V443.694V443.718V443.743V443.767V443.792V443.817V443.842V443.867V443.891V443.916V443.941V443.966V443.991V444.016V444.041V444.066V444.091V444.116V444.141V444.166V444.192V444.217V444.242V444.267V444.293V444.318V444.343V444.369V444.394V444.419V444.445V444.47V444.496V444.521V444.547V444.572V444.598V444.623V444.649V444.674V444.7V444.725V444.751V444.776V444.802V444.828V444.853V444.879V444.905V444.93V444.956V444.982V445.007V445.033V445.059V445.084V445.11V445.136V445.162V445.187V445.213V445.239V445.264V445.29V445.316V445.342V445.367V445.393V445.419V445.445V445.47V445.496V445.522V445.547V445.573V445.599V445.624V445.65V445.676V445.701V445.727V445.753V445.778V445.804V445.83V445.855V445.881V445.906V445.932V445.957V445.983V446.008V446.034V446.059V446.085V446.11V446.136V446.161V446.186V446.212V446.237V446.262V446.288V446.313V446.338V446.363V446.389V446.414V446.439V446.464V446.489V446.514V446.539V446.564V446.589V446.614V446.639V446.664V446.689V446.714V446.739V446.763V446.788V446.813V446.837V446.862V446.887V446.911V446.936V446.96V446.985V447.009V447.033V447.058V447.082V447.106V447.13V447.155V447.179V447.203V447.227V447.251V447.275V447.299V447.323V447.346V447.37V447.394V447.417V447.441V447.465V447.488V447.512V447.535V447.558V447.582V447.605V447.628V447.651V447.674V447.697V447.72V447.743V447.766V447.789V447.811V447.834V447.857V447.879V447.902V447.924V447.947V447.969V447.991V448.013V448.035V448.058V448.08V448.101V448.123V448.145V448.167V448.188V448.21V448.232V448.253V448.274V448.296V448.317V448.338V448.359V448.38V448.401V448.422V448.443V448.463V448.484V448.505V448.525V448.546V448.566V448.586V448.606V448.626V448.646V448.666V448.686V448.706V448.725V448.745V448.765V448.784V448.803V448.823V448.842V448.861V448.88V448.899V448.917V448.936V448.955V448.973V448.992V449.01V449.028V449.046V449.065V449.083V449.1V449.118V449.136V449.153V449.171V449.188V449.206V449.223V449.24V449.257V449.274V449.291V449.307V449.324V449.34V449.357V449.373V449.389V449.405V449.421V449.437V449.453V449.468V449.484V449.499V449.515V449.53V449.545V449.56V449.575V449.59V449.604V449.619V449.633V449.647V449.662V449.676V449.69V449.704V449.717V449.731V449.744V449.758V449.771V449.784V449.797V449.81V449.823V449.835V449.848C56.9118 451.844 56.9095 453.741 56.7127 455.466C56.5159 457.191 56.1251 458.74 55.3506 460.039C53.8047 462.631 50.7175 464.245 44.5242 464.245C39.281 464.245 36.1427 463.037 33.7632 460.602L20.8886 447.397C20.3273 446.818 20.1192 446.161 20.1644 445.533C20.2098 444.903 20.5097 444.298 20.9708 443.824ZM26.9496 432.628L27.034 432.708V432.591V428.179V428.169L27.0299 428.159C26.6262 427.225 26.3962 426.191 26.3962 425.099C26.3962 420.941 29.6622 417.573 33.6863 417.573C37.7105 417.573 40.9765 420.941 40.9765 425.099C40.9765 425.669 40.9101 426.218 40.7925 426.751L40.7796 426.809L40.8393 426.811C41.7468 426.848 42.5679 427.235 43.1661 427.863L43.2272 427.927L43.2505 427.842C43.4881 426.967 43.6278 426.055 43.6278 425.099V425.099C43.6226 419.434 39.173 414.839 33.6812 414.839C28.1894 414.839 23.7398 419.434 23.7398 425.099C23.7398 428.076 24.9802 430.755 26.9496 432.628Z" fill="black" stroke="black" stroke-width="0.1"/>
</g>
<rect x="0.5" y="400.5" width="75" height="75" rx="7.5" stroke="#CED3D6"/>
<path d="M106.276 447V431.412H100.24V429.72H114.076V431.412H108.04V447H106.276ZM119.49 447.36C118.202 447.36 117.102 447.068 116.19 446.484C115.278 445.9 114.578 445.092 114.09 444.06C113.602 443.028 113.358 441.844 113.358 440.508C113.358 439.148 113.606 437.956 114.102 436.932C114.598 435.908 115.302 435.112 116.214 434.544C117.134 433.968 118.226 433.68 119.49 433.68C120.786 433.68 121.89 433.972 122.802 434.556C123.722 435.132 124.422 435.936 124.902 436.968C125.39 437.992 125.634 439.172 125.634 440.508C125.634 441.868 125.39 443.064 124.902 444.096C124.414 445.12 123.71 445.92 122.79 446.496C121.87 447.072 120.77 447.36 119.49 447.36ZM119.49 445.668C120.93 445.668 122.002 445.192 122.706 444.24C123.41 443.28 123.762 442.036 123.762 440.508C123.762 438.94 123.406 437.692 122.694 436.764C121.99 435.836 120.922 435.372 119.49 435.372C118.522 435.372 117.722 435.592 117.09 436.032C116.466 436.464 115.998 437.068 115.686 437.844C115.382 438.612 115.23 439.5 115.23 440.508C115.23 442.068 115.59 443.32 116.31 444.264C117.03 445.2 118.09 445.668 119.49 445.668ZM133.238 447.324C132.462 447.324 131.782 447.204 131.198 446.964C130.622 446.724 130.13 446.4 129.722 445.992C129.322 445.584 128.998 445.12 128.75 444.6C128.502 444.072 128.322 443.516 128.21 442.932C128.098 442.34 128.042 441.752 128.042 441.168V434.04H129.818V440.652C129.818 441.364 129.886 442.024 130.022 442.632C130.158 443.24 130.374 443.772 130.67 444.228C130.974 444.676 131.362 445.024 131.834 445.272C132.314 445.52 132.894 445.644 133.574 445.644C134.198 445.644 134.746 445.536 135.218 445.32C135.698 445.104 136.098 444.796 136.418 444.396C136.746 443.988 136.994 443.496 137.162 442.92C137.33 442.336 137.414 441.68 137.414 440.952L138.662 441.228C138.662 442.556 138.43 443.672 137.966 444.576C137.502 445.48 136.862 446.164 136.046 446.628C135.23 447.092 134.294 447.324 133.238 447.324ZM137.594 447V443.808H137.414V434.04H139.178V447H137.594ZM147.908 447.36C146.604 447.36 145.5 447.068 144.596 446.484C143.692 445.9 143.004 445.096 142.532 444.072C142.068 443.04 141.828 441.856 141.812 440.52C141.828 439.16 142.076 437.968 142.556 436.944C143.036 435.912 143.728 435.112 144.632 434.544C145.536 433.968 146.632 433.68 147.92 433.68C149.232 433.68 150.372 434 151.34 434.64C152.316 435.28 152.984 436.156 153.344 437.268L151.616 437.82C151.312 437.044 150.828 436.444 150.164 436.02C149.508 435.588 148.756 435.372 147.908 435.372C146.956 435.372 146.168 435.592 145.544 436.032C144.92 436.464 144.456 437.068 144.152 437.844C143.848 438.62 143.692 439.512 143.684 440.52C143.7 442.072 144.06 443.32 144.764 444.264C145.468 445.2 146.516 445.668 147.908 445.668C148.788 445.668 149.536 445.468 150.152 445.068C150.776 444.66 151.248 444.068 151.568 443.292L153.344 443.82C152.864 444.972 152.16 445.852 151.232 446.46C150.304 447.06 149.196 447.36 147.908 447.36ZM165.181 447V440.388C165.181 439.668 165.113 439.008 164.977 438.408C164.841 437.8 164.621 437.272 164.317 436.824C164.021 436.368 163.633 436.016 163.153 435.768C162.681 435.52 162.105 435.396 161.425 435.396C160.801 435.396 160.249 435.504 159.769 435.72C159.297 435.936 158.897 436.248 158.569 436.656C158.249 437.056 158.005 437.544 157.837 438.12C157.669 438.696 157.585 439.352 157.585 440.088L156.337 439.812C156.337 438.484 156.569 437.368 157.033 436.464C157.497 435.56 158.137 434.876 158.953 434.412C159.769 433.948 160.705 433.716 161.761 433.716C162.537 433.716 163.213 433.836 163.789 434.076C164.373 434.316 164.865 434.64 165.265 435.048C165.673 435.456 166.001 435.924 166.249 436.452C166.497 436.972 166.677 437.528 166.789 438.12C166.901 438.704 166.957 439.288 166.957 439.872V447H165.181ZM155.809 447V429.72H157.405V439.476H157.585V447H155.809ZM178.583 447.36C177.607 447.36 176.787 447.184 176.123 446.832C175.467 446.48 174.975 446.012 174.647 445.428C174.319 444.844 174.155 444.208 174.155 443.52C174.155 442.816 174.295 442.216 174.575 441.72C174.863 441.216 175.251 440.804 175.739 440.484C176.235 440.164 176.807 439.92 177.455 439.752C178.111 439.592 178.835 439.452 179.627 439.332C180.427 439.204 181.207 439.096 181.967 439.008C182.735 438.912 183.407 438.82 183.983 438.732L183.359 439.116C183.383 437.836 183.135 436.888 182.615 436.272C182.095 435.656 181.191 435.348 179.903 435.348C179.015 435.348 178.263 435.548 177.647 435.948C177.039 436.348 176.611 436.98 176.363 437.844L174.647 437.34C174.943 436.18 175.539 435.28 176.435 434.64C177.331 434 178.495 433.68 179.927 433.68C181.111 433.68 182.115 433.904 182.939 434.352C183.771 434.792 184.359 435.432 184.703 436.272C184.863 436.648 184.967 437.068 185.015 437.532C185.063 437.996 185.087 438.468 185.087 438.948V447H183.515V443.748L183.971 443.94C183.531 445.052 182.847 445.9 181.919 446.484C180.991 447.068 179.879 447.36 178.583 447.36ZM178.787 445.836C179.611 445.836 180.331 445.688 180.947 445.392C181.563 445.096 182.059 444.692 182.435 444.18C182.811 443.66 183.055 443.076 183.167 442.428C183.263 442.012 183.315 441.556 183.323 441.06C183.331 440.556 183.335 440.18 183.335 439.932L184.007 440.28C183.407 440.36 182.755 440.44 182.051 440.52C181.355 440.6 180.667 440.692 179.987 440.796C179.315 440.9 178.707 441.024 178.163 441.168C177.795 441.272 177.439 441.42 177.095 441.612C176.751 441.796 176.467 442.044 176.243 442.356C176.027 442.668 175.919 443.056 175.919 443.52C175.919 443.896 176.011 444.26 176.195 444.612C176.387 444.964 176.691 445.256 177.107 445.488C177.531 445.72 178.091 445.836 178.787 445.836ZM197.571 447V440.388C197.571 439.668 197.503 439.008 197.367 438.408C197.231 437.8 197.011 437.272 196.707 436.824C196.411 436.368 196.023 436.016 195.543 435.768C195.071 435.52 194.495 435.396 193.815 435.396C193.191 435.396 192.639 435.504 192.159 435.72C191.687 435.936 191.287 436.248 190.959 436.656C190.639 437.056 190.395 437.544 190.227 438.12C190.059 438.696 189.975 439.352 189.975 440.088L188.727 439.812C188.727 438.484 188.959 437.368 189.423 436.464C189.887 435.56 190.527 434.876 191.343 434.412C192.159 433.948 193.095 433.716 194.151 433.716C194.927 433.716 195.603 433.836 196.179 434.076C196.763 434.316 197.255 434.64 197.655 435.048C198.063 435.456 198.391 435.924 198.639 436.452C198.887 436.972 199.067 437.528 199.179 438.12C199.291 438.704 199.347 439.288 199.347 439.872V447H197.571ZM188.199 447V434.04H189.795V437.232H189.975V447H188.199ZM207.419 447.36C206.211 447.36 205.179 447.06 204.323 446.46C203.467 445.852 202.811 445.032 202.355 444C201.899 442.968 201.671 441.804 201.671 440.508C201.671 439.22 201.895 438.06 202.343 437.028C202.799 435.996 203.451 435.18 204.299 434.58C205.147 433.98 206.163 433.68 207.347 433.68C208.563 433.68 209.587 433.976 210.419 434.568C211.251 435.16 211.879 435.972 212.303 437.004C212.735 438.028 212.951 439.196 212.951 440.508C212.951 441.796 212.739 442.96 212.315 444C211.891 445.032 211.267 445.852 210.443 446.46C209.619 447.06 208.611 447.36 207.419 447.36ZM207.599 445.716C208.519 445.716 209.279 445.492 209.879 445.044C210.479 444.596 210.927 443.98 211.223 443.196C211.519 442.404 211.667 441.508 211.667 440.508C211.667 439.492 211.519 438.596 211.223 437.82C210.927 437.036 210.479 436.424 209.879 435.984C209.287 435.544 208.539 435.324 207.635 435.324C206.707 435.324 205.939 435.552 205.331 436.008C204.723 436.464 204.271 437.084 203.975 437.868C203.687 438.652 203.543 439.532 203.543 440.508C203.543 441.492 203.691 442.38 203.987 443.172C204.291 443.956 204.743 444.576 205.343 445.032C205.943 445.488 206.695 445.716 207.599 445.716ZM211.667 447V437.244H211.475V429.72H213.251V447H211.667ZM226.45 447.36C225.242 447.36 224.21 447.06 223.354 446.46C222.498 445.852 221.842 445.032 221.386 444C220.93 442.968 220.702 441.804 220.702 440.508C220.702 439.22 220.926 438.06 221.374 437.028C221.83 435.996 222.482 435.18 223.33 434.58C224.178 433.98 225.194 433.68 226.378 433.68C227.594 433.68 228.618 433.976 229.45 434.568C230.282 435.16 230.91 435.972 231.334 437.004C231.766 438.028 231.982 439.196 231.982 440.508C231.982 441.796 231.77 442.96 231.346 444C230.922 445.032 230.298 445.852 229.474 446.46C228.65 447.06 227.642 447.36 226.45 447.36ZM226.63 445.716C227.55 445.716 228.31 445.492 228.91 445.044C229.51 444.596 229.958 443.98 230.254 443.196C230.55 442.404 230.698 441.508 230.698 440.508C230.698 439.492 230.55 438.596 230.254 437.82C229.958 437.036 229.51 436.424 228.91 435.984C228.318 435.544 227.57 435.324 226.666 435.324C225.738 435.324 224.97 435.552 224.362 436.008C223.754 436.464 223.302 437.084 223.006 437.868C222.718 438.652 222.574 439.532 222.574 440.508C222.574 441.492 222.722 442.38 223.018 443.172C223.322 443.956 223.774 444.576 224.374 445.032C224.974 445.488 225.726 445.716 226.63 445.716ZM230.698 447V437.244H230.506V429.72H232.282V447H230.698ZM235.649 447V434.04H237.233V437.16L236.921 436.752C237.065 436.368 237.253 436.016 237.485 435.696C237.717 435.368 237.969 435.1 238.241 434.892C238.577 434.596 238.969 434.372 239.417 434.22C239.865 434.06 240.317 433.968 240.773 433.944C241.229 433.912 241.645 433.944 242.021 434.04V435.696C241.549 435.576 241.033 435.548 240.473 435.612C239.913 435.676 239.397 435.9 238.925 436.284C238.493 436.62 238.169 437.024 237.953 437.496C237.737 437.96 237.593 438.456 237.521 438.984C237.449 439.504 237.413 440.02 237.413 440.532V447H235.649ZM247.513 447.36C246.537 447.36 245.717 447.184 245.053 446.832C244.397 446.48 243.905 446.012 243.577 445.428C243.249 444.844 243.085 444.208 243.085 443.52C243.085 442.816 243.225 442.216 243.505 441.72C243.793 441.216 244.181 440.804 244.669 440.484C245.165 440.164 245.737 439.92 246.385 439.752C247.041 439.592 247.765 439.452 248.557 439.332C249.357 439.204 250.137 439.096 250.897 439.008C251.665 438.912 252.337 438.82 252.913 438.732L252.289 439.116C252.313 437.836 252.065 436.888 251.545 436.272C251.025 435.656 250.121 435.348 248.833 435.348C247.945 435.348 247.193 435.548 246.577 435.948C245.969 436.348 245.541 436.98 245.293 437.844L243.577 437.34C243.873 436.18 244.469 435.28 245.365 434.64C246.261 434 247.425 433.68 248.857 433.68C250.041 433.68 251.045 433.904 251.869 434.352C252.701 434.792 253.289 435.432 253.633 436.272C253.793 436.648 253.897 437.068 253.945 437.532C253.993 437.996 254.017 438.468 254.017 438.948V447H252.445V443.748L252.901 443.94C252.461 445.052 251.777 445.9 250.849 446.484C249.921 447.068 248.809 447.36 247.513 447.36ZM247.717 445.836C248.541 445.836 249.261 445.688 249.877 445.392C250.493 445.096 250.989 444.692 251.365 444.18C251.741 443.66 251.985 443.076 252.097 442.428C252.193 442.012 252.245 441.556 252.253 441.06C252.261 440.556 252.265 440.18 252.265 439.932L252.937 440.28C252.337 440.36 251.685 440.44 250.981 440.52C250.285 440.6 249.597 440.692 248.917 440.796C248.245 440.9 247.637 441.024 247.093 441.168C246.725 441.272 246.369 441.42 246.025 441.612C245.681 441.796 245.397 442.044 245.173 442.356C244.957 442.668 244.849 443.056 244.849 443.52C244.849 443.896 244.941 444.26 245.125 444.612C245.317 444.964 245.621 445.256 246.037 445.488C246.461 445.72 247.021 445.836 247.717 445.836ZM262.289 453.12C261.625 453.12 260.969 453.02 260.321 452.82C259.681 452.628 259.089 452.32 258.545 451.896C258.001 451.48 257.545 450.936 257.177 450.264L258.773 449.376C259.133 450.096 259.637 450.612 260.285 450.924C260.941 451.244 261.609 451.404 262.289 451.404C263.225 451.404 263.981 451.228 264.557 450.876C265.141 450.532 265.565 450.02 265.829 449.34C266.093 448.66 266.221 447.812 266.213 446.796V443.34H266.417V434.04H267.989V446.82C267.989 447.188 267.977 447.54 267.953 447.876C267.937 448.22 267.901 448.556 267.845 448.884C267.693 449.852 267.377 450.648 266.897 451.272C266.425 451.896 265.801 452.36 265.025 452.664C264.257 452.968 263.345 453.12 262.289 453.12ZM262.169 447.36C260.961 447.36 259.929 447.06 259.073 446.46C258.217 445.852 257.561 445.032 257.105 444C256.649 442.968 256.421 441.804 256.421 440.508C256.421 439.22 256.645 438.06 257.093 437.028C257.549 435.996 258.201 435.18 259.049 434.58C259.897 433.98 260.913 433.68 262.097 433.68C263.313 433.68 264.337 433.976 265.169 434.568C266.001 435.16 266.629 435.972 267.053 437.004C267.485 438.028 267.701 439.196 267.701 440.508C267.701 441.796 267.489 442.96 267.065 444C266.641 445.032 266.017 445.852 265.193 446.46C264.369 447.06 263.361 447.36 262.169 447.36ZM262.349 445.716C263.269 445.716 264.029 445.492 264.629 445.044C265.229 444.596 265.677 443.98 265.973 443.196C266.269 442.404 266.417 441.508 266.417 440.508C266.417 439.492 266.269 438.596 265.973 437.82C265.677 437.036 265.229 436.424 264.629 435.984C264.037 435.544 263.289 435.324 262.385 435.324C261.457 435.324 260.689 435.552 260.081 436.008C259.473 436.464 259.021 437.084 258.725 437.868C258.437 438.652 258.293 439.532 258.293 440.508C258.293 441.492 258.441 442.38 258.737 443.172C259.041 443.956 259.493 444.576 260.093 445.032C260.693 445.488 261.445 445.716 262.349 445.716ZM283.205 447C282.477 447.152 281.757 447.212 281.045 447.18C280.341 447.148 279.709 446.996 279.149 446.724C278.597 446.452 278.177 446.028 277.889 445.452C277.657 444.972 277.529 444.488 277.505 444C277.489 443.504 277.481 442.94 277.481 442.308V430.44H279.233V442.236C279.233 442.78 279.237 443.236 279.245 443.604C279.261 443.964 279.345 444.284 279.497 444.564C279.785 445.1 280.241 445.42 280.865 445.524C281.497 445.628 282.277 445.604 283.205 445.452V447ZM274.709 435.552V434.04H283.205V435.552H274.709ZM290.701 447.36C289.413 447.36 288.313 447.068 287.401 446.484C286.489 445.9 285.789 445.092 285.301 444.06C284.813 443.028 284.569 441.844 284.569 440.508C284.569 439.148 284.817 437.956 285.313 436.932C285.809 435.908 286.513 435.112 287.425 434.544C288.345 433.968 289.437 433.68 290.701 433.68C291.997 433.68 293.101 433.972 294.013 434.556C294.933 435.132 295.633 435.936 296.113 436.968C296.601 437.992 296.845 439.172 296.845 440.508C296.845 441.868 296.601 443.064 296.113 444.096C295.625 445.12 294.921 445.92 294.001 446.496C293.081 447.072 291.981 447.36 290.701 447.36ZM290.701 445.668C292.141 445.668 293.213 445.192 293.917 444.24C294.621 443.28 294.973 442.036 294.973 440.508C294.973 438.94 294.617 437.692 293.905 436.764C293.201 435.836 292.133 435.372 290.701 435.372C289.733 435.372 288.933 435.592 288.301 436.032C287.677 436.464 287.209 437.068 286.897 437.844C286.593 438.612 286.441 439.5 286.441 440.508C286.441 442.068 286.801 443.32 287.521 444.264C288.241 445.2 289.301 445.668 290.701 445.668ZM304.537 447V429.36H306.301V447H304.537ZM315.311 447.36C314.023 447.36 312.923 447.068 312.011 446.484C311.099 445.9 310.399 445.092 309.911 444.06C309.423 443.028 309.179 441.844 309.179 440.508C309.179 439.148 309.427 437.956 309.923 436.932C310.419 435.908 311.123 435.112 312.035 434.544C312.955 433.968 314.047 433.68 315.311 433.68C316.607 433.68 317.711 433.972 318.623 434.556C319.543 435.132 320.243 435.936 320.723 436.968C321.211 437.992 321.455 439.172 321.455 440.508C321.455 441.868 321.211 443.064 320.723 444.096C320.235 445.12 319.531 445.92 318.611 446.496C317.691 447.072 316.591 447.36 315.311 447.36ZM315.311 445.668C316.751 445.668 317.823 445.192 318.527 444.24C319.231 443.28 319.583 442.036 319.583 440.508C319.583 438.94 319.227 437.692 318.515 436.764C317.811 435.836 316.743 435.372 315.311 435.372C314.343 435.372 313.543 435.592 312.911 436.032C312.287 436.464 311.819 437.068 311.507 437.844C311.203 438.612 311.051 439.5 311.051 440.508C311.051 442.068 311.411 443.32 312.131 444.264C312.851 445.2 313.911 445.668 315.311 445.668ZM329.514 447.36C328.226 447.36 327.126 447.068 326.214 446.484C325.302 445.9 324.602 445.092 324.114 444.06C323.626 443.028 323.382 441.844 323.382 440.508C323.382 439.148 323.63 437.956 324.126 436.932C324.622 435.908 325.326 435.112 326.238 434.544C327.158 433.968 328.25 433.68 329.514 433.68C330.81 433.68 331.914 433.972 332.826 434.556C333.746 435.132 334.446 435.936 334.926 436.968C335.414 437.992 335.658 439.172 335.658 440.508C335.658 441.868 335.414 443.064 334.926 444.096C334.438 445.12 333.734 445.92 332.814 446.496C331.894 447.072 330.794 447.36 329.514 447.36ZM329.514 445.668C330.954 445.668 332.026 445.192 332.73 444.24C333.434 443.28 333.786 442.036 333.786 440.508C333.786 438.94 333.43 437.692 332.718 436.764C332.014 435.836 330.946 435.372 329.514 435.372C328.546 435.372 327.746 435.592 327.114 436.032C326.49 436.464 326.022 437.068 325.71 437.844C325.406 438.612 325.254 439.5 325.254 440.508C325.254 442.068 325.614 443.32 326.334 444.264C327.054 445.2 328.114 445.668 329.514 445.668ZM338.293 447L338.305 429.72H340.081V440.28L345.865 434.04H348.217L342.145 440.52L349.009 447H346.441L340.081 440.76V447H338.293ZM358.724 447.36C357.748 447.36 356.928 447.184 356.264 446.832C355.608 446.48 355.116 446.012 354.788 445.428C354.46 444.844 354.296 444.208 354.296 443.52C354.296 442.816 354.436 442.216 354.716 441.72C355.004 441.216 355.392 440.804 355.88 440.484C356.376 440.164 356.948 439.92 357.596 439.752C358.252 439.592 358.976 439.452 359.768 439.332C360.568 439.204 361.348 439.096 362.108 439.008C362.876 438.912 363.548 438.82 364.124 438.732L363.5 439.116C363.524 437.836 363.276 436.888 362.756 436.272C362.236 435.656 361.332 435.348 360.044 435.348C359.156 435.348 358.404 435.548 357.788 435.948C357.18 436.348 356.752 436.98 356.504 437.844L354.788 437.34C355.084 436.18 355.68 435.28 356.576 434.64C357.472 434 358.636 433.68 360.068 433.68C361.252 433.68 362.256 433.904 363.08 434.352C363.912 434.792 364.5 435.432 364.844 436.272C365.004 436.648 365.108 437.068 365.156 437.532C365.204 437.996 365.228 438.468 365.228 438.948V447H363.656V443.748L364.112 443.94C363.672 445.052 362.988 445.9 362.06 446.484C361.132 447.068 360.02 447.36 358.724 447.36ZM358.928 445.836C359.752 445.836 360.472 445.688 361.088 445.392C361.704 445.096 362.2 444.692 362.576 444.18C362.952 443.66 363.196 443.076 363.308 442.428C363.404 442.012 363.456 441.556 363.464 441.06C363.472 440.556 363.476 440.18 363.476 439.932L364.148 440.28C363.548 440.36 362.896 440.44 362.192 440.52C361.496 440.6 360.808 440.692 360.128 440.796C359.456 440.9 358.848 441.024 358.304 441.168C357.936 441.272 357.58 441.42 357.236 441.612C356.892 441.796 356.608 442.044 356.384 442.356C356.168 442.668 356.06 443.056 356.06 443.52C356.06 443.896 356.152 444.26 356.336 444.612C356.528 444.964 356.832 445.256 357.248 445.488C357.672 445.72 358.232 445.836 358.928 445.836ZM368.352 447V434.04H369.936V437.16L369.624 436.752C369.768 436.368 369.956 436.016 370.188 435.696C370.42 435.368 370.672 435.1 370.944 434.892C371.28 434.596 371.672 434.372 372.12 434.22C372.568 434.06 373.02 433.968 373.476 433.944C373.932 433.912 374.348 433.944 374.724 434.04V435.696C374.252 435.576 373.736 435.548 373.176 435.612C372.616 435.676 372.1 435.9 371.628 436.284C371.196 436.62 370.872 437.024 370.656 437.496C370.44 437.96 370.296 438.456 370.224 438.984C370.152 439.504 370.116 440.02 370.116 440.532V447H368.352ZM382.178 447.36C380.89 447.36 379.79 447.068 378.878 446.484C377.966 445.9 377.266 445.092 376.778 444.06C376.29 443.028 376.046 441.844 376.046 440.508C376.046 439.148 376.294 437.956 376.79 436.932C377.286 435.908 377.99 435.112 378.902 434.544C379.822 433.968 380.914 433.68 382.178 433.68C383.474 433.68 384.578 433.972 385.49 434.556C386.41 435.132 387.11 435.936 387.59 436.968C388.078 437.992 388.322 439.172 388.322 440.508C388.322 441.868 388.078 443.064 387.59 444.096C387.102 445.12 386.398 445.92 385.478 446.496C384.558 447.072 383.458 447.36 382.178 447.36ZM382.178 445.668C383.618 445.668 384.69 445.192 385.394 444.24C386.098 443.28 386.45 442.036 386.45 440.508C386.45 438.94 386.094 437.692 385.382 436.764C384.678 435.836 383.61 435.372 382.178 435.372C381.21 435.372 380.41 435.592 379.778 436.032C379.154 436.464 378.686 437.068 378.374 437.844C378.07 438.612 377.918 439.5 377.918 440.508C377.918 442.068 378.278 443.32 378.998 444.264C379.718 445.2 380.778 445.668 382.178 445.668ZM395.925 447.324C395.149 447.324 394.469 447.204 393.885 446.964C393.309 446.724 392.817 446.4 392.409 445.992C392.009 445.584 391.685 445.12 391.437 444.6C391.189 444.072 391.009 443.516 390.897 442.932C390.785 442.34 390.729 441.752 390.729 441.168V434.04H392.505V440.652C392.505 441.364 392.573 442.024 392.709 442.632C392.845 443.24 393.061 443.772 393.357 444.228C393.661 444.676 394.049 445.024 394.521 445.272C395.001 445.52 395.581 445.644 396.261 445.644C396.885 445.644 397.433 445.536 397.905 445.32C398.385 445.104 398.785 444.796 399.105 444.396C399.433 443.988 399.681 443.496 399.849 442.92C400.017 442.336 400.101 441.68 400.101 440.952L401.349 441.228C401.349 442.556 401.117 443.672 400.653 444.576C400.189 445.48 399.549 446.164 398.733 446.628C397.917 447.092 396.981 447.324 395.925 447.324ZM400.281 447V443.808H400.101V434.04H401.865V447H400.281ZM414.579 447V440.388C414.579 439.668 414.511 439.008 414.375 438.408C414.239 437.8 414.019 437.272 413.715 436.824C413.419 436.368 413.031 436.016 412.551 435.768C412.079 435.52 411.503 435.396 410.823 435.396C410.199 435.396 409.647 435.504 409.167 435.72C408.695 435.936 408.295 436.248 407.967 436.656C407.647 437.056 407.403 437.544 407.235 438.12C407.067 438.696 406.983 439.352 406.983 440.088L405.735 439.812C405.735 438.484 405.967 437.368 406.431 436.464C406.895 435.56 407.535 434.876 408.351 434.412C409.167 433.948 410.103 433.716 411.159 433.716C411.935 433.716 412.611 433.836 413.187 434.076C413.771 434.316 414.263 434.64 414.663 435.048C415.071 435.456 415.399 435.924 415.647 436.452C415.895 436.972 416.075 437.528 416.187 438.12C416.299 438.704 416.355 439.288 416.355 439.872V447H414.579ZM405.207 447V434.04H406.803V437.232H406.983V447H405.207ZM424.427 447.36C423.219 447.36 422.187 447.06 421.331 446.46C420.475 445.852 419.819 445.032 419.363 444C418.907 442.968 418.679 441.804 418.679 440.508C418.679 439.22 418.903 438.06 419.351 437.028C419.807 435.996 420.459 435.18 421.307 434.58C422.155 433.98 423.171 433.68 424.355 433.68C425.571 433.68 426.595 433.976 427.427 434.568C428.259 435.16 428.887 435.972 429.311 437.004C429.743 438.028 429.959 439.196 429.959 440.508C429.959 441.796 429.747 442.96 429.323 444C428.899 445.032 428.275 445.852 427.451 446.46C426.627 447.06 425.619 447.36 424.427 447.36ZM424.607 445.716C425.527 445.716 426.287 445.492 426.887 445.044C427.487 444.596 427.935 443.98 428.231 443.196C428.527 442.404 428.675 441.508 428.675 440.508C428.675 439.492 428.527 438.596 428.231 437.82C427.935 437.036 427.487 436.424 426.887 435.984C426.295 435.544 425.547 435.324 424.643 435.324C423.715 435.324 422.947 435.552 422.339 436.008C421.731 436.464 421.279 437.084 420.983 437.868C420.695 438.652 420.551 439.532 420.551 440.508C420.551 441.492 420.699 442.38 420.995 443.172C421.299 443.956 421.751 444.576 422.351 445.032C422.951 445.488 423.703 445.716 424.607 445.716ZM428.675 447V437.244H428.483V429.72H430.259V447H428.675Z" fill="#1F1F1F"/>
<defs>
<clipPath id="clip0_118_1334">
<rect width="54" height="54" fill="white" transform="translate(11 11)"/>
</clipPath>
<clipPath id="clip1_118_1334">
<rect width="54" height="54" fill="white" transform="translate(11 11)"/>
</clipPath>
<clipPath id="clip2_118_1334">
<rect width="53" height="54" fill="white" transform="translate(64.5 165) rotate(-180)"/>
</clipPath>
<clipPath id="clip3_118_1334">
<rect width="53" height="54" fill="white" transform="translate(64.5 265) rotate(-180)"/>
</clipPath>
<clipPath id="clip4_118_1334">
<rect width="52" height="55" fill="white" transform="translate(12 310.5)"/>
</clipPath>
<clipPath id="clip5_118_1334">
<rect width="62" height="64" fill="white" transform="translate(7 406)"/>
</clipPath>
</defs>
</svg>
