<svg width="450" height="476" viewBox="0 0 450 476" fill="none" xmlns="http://www.w3.org/2000/svg">
<g clip-path="url(#clip0_118_1002)">
<g clip-path="url(#clip1_118_1002)">
<path d="M24.2044 45.4147L24.2574 45.4678L24.3105 45.4147L38 31.7252L51.6895 45.4147L51.7426 45.4678L51.7956 45.4147L52.9769 44.2335L53.0299 44.1805L52.9769 44.1274L38.6437 29.7942L38.6217 29.7723H38.5906H37.4094H37.3783L37.3563 29.7942L23.0231 44.1274L22.9701 44.1805L23.0231 44.2335L24.2044 45.4147Z" fill="#002336" stroke="black" stroke-width="0.15"/>
<path d="M55.8128 20.281L55.8134 20.2815C60.4196 24.8878 63.248 31.1444 63.248 38.0949C63.248 45.0458 60.4088 51.4075 55.8139 55.9077L55.8134 55.9083C51.2071 60.5146 44.9505 63.343 38 63.343C31.0491 63.343 24.6874 60.5037 20.1872 55.9088L20.1866 55.9082C15.5803 51.3125 12.7414 45.0454 12.7414 38.0949C12.7414 31.144 15.5806 24.7824 20.1755 20.2821L20.176 20.2816C24.7823 15.6858 31.0495 12.8469 38 12.8469C44.9509 12.8469 51.3126 15.6861 55.8128 20.281ZM38.075 10.9251V10.925H38H37.925V10.9251C22.9943 10.9655 10.925 23.0598 10.925 38C10.925 52.9652 23.0348 65.075 38 65.075C52.9652 65.075 65.075 52.9652 65.075 38C65.075 23.0598 53.0057 10.9655 38.075 10.9251Z" fill="#002336" stroke="black" stroke-width="0.15"/>
</g>
</g>
<rect x="0.5" y="0.5" width="75" height="75" rx="7.5" stroke="#CED3D6"/>
<path d="M100.876 49.88V45.308C101.548 45.308 102.088 45.14 102.496 44.804C102.904 44.46 103.216 44.004 103.432 43.436C103.648 42.868 103.812 42.232 103.924 41.528C104.036 40.816 104.132 40.096 104.212 39.368C104.324 38.304 104.412 37.276 104.476 36.284C104.548 35.292 104.608 34.264 104.656 33.2C104.712 32.136 104.776 30.972 104.848 29.708L115.504 29.72V45.308H116.74V49.88H114.988V47H102.64V49.88H100.876ZM104.248 45.308H113.74V31.412L106.492 31.4C106.444 32.376 106.396 33.32 106.348 34.232C106.3 35.144 106.244 36.064 106.18 36.992C106.116 37.92 106.032 38.888 105.928 39.896C105.84 40.816 105.736 41.62 105.616 42.308C105.496 42.996 105.328 43.584 105.112 44.072C104.904 44.56 104.616 44.972 104.248 45.308ZM119.363 47V34.04H124.703C124.975 34.04 125.303 34.056 125.687 34.088C126.079 34.12 126.443 34.18 126.779 34.268C127.507 34.46 128.091 34.852 128.531 35.444C128.979 36.036 129.203 36.748 129.203 37.58C129.203 38.044 129.131 38.46 128.987 38.828C128.851 39.188 128.655 39.5 128.399 39.764C128.279 39.9 128.147 40.02 128.003 40.124C127.859 40.22 127.719 40.3 127.583 40.364C127.839 40.412 128.115 40.524 128.411 40.7C128.875 40.972 129.227 41.34 129.467 41.804C129.707 42.26 129.827 42.816 129.827 43.472C129.827 44.36 129.615 45.084 129.191 45.644C128.767 46.204 128.199 46.588 127.487 46.796C127.167 46.884 126.819 46.94 126.443 46.964C126.075 46.988 125.727 47 125.399 47H119.363ZM121.139 45.5H125.315C125.483 45.5 125.695 45.488 125.951 45.464C126.207 45.432 126.435 45.392 126.635 45.344C127.107 45.224 127.451 44.984 127.667 44.624C127.891 44.256 128.003 43.856 128.003 43.424C128.003 42.856 127.835 42.392 127.499 42.032C127.171 41.664 126.731 41.44 126.179 41.36C125.995 41.32 125.803 41.296 125.603 41.288C125.403 41.28 125.223 41.276 125.063 41.276H121.139V45.5ZM121.139 39.764H124.763C124.971 39.764 125.203 39.752 125.459 39.728C125.723 39.696 125.951 39.644 126.143 39.572C126.559 39.428 126.863 39.18 127.055 38.828C127.255 38.476 127.355 38.092 127.355 37.676C127.355 37.22 127.247 36.82 127.031 36.476C126.823 36.132 126.507 35.892 126.083 35.756C125.795 35.652 125.483 35.592 125.147 35.576C124.819 35.56 124.611 35.552 124.523 35.552H121.139V39.764ZM142.515 34.04V47H140.799V36.908L133.695 47H132.207V34.04H133.923V44.048L141.039 34.04H142.515ZM144.443 47L149.915 40.52L144.671 34.04H146.663L151.775 40.436V34.04H153.407V40.436L158.519 34.04H160.499L155.255 40.52L160.727 47H158.675L153.407 40.604V47H151.775V40.604L146.495 47H144.443ZM167.656 47.36C166.392 47.36 165.296 47.08 164.368 46.52C163.448 45.96 162.732 45.172 162.22 44.156C161.708 43.14 161.452 41.948 161.452 40.58C161.452 39.164 161.704 37.94 162.208 36.908C162.712 35.876 163.42 35.08 164.332 34.52C165.252 33.96 166.336 33.68 167.584 33.68C168.864 33.68 169.956 33.976 170.86 34.568C171.764 35.152 172.448 35.992 172.912 37.088C173.376 38.184 173.588 39.492 173.548 41.012H171.748V40.388C171.716 38.708 171.352 37.44 170.656 36.584C169.968 35.728 168.96 35.3 167.632 35.3C166.24 35.3 165.172 35.752 164.428 36.656C163.692 37.56 163.324 38.848 163.324 40.52C163.324 42.152 163.692 43.42 164.428 44.324C165.172 45.22 166.224 45.668 167.584 45.668C168.512 45.668 169.32 45.456 170.008 45.032C170.704 44.6 171.252 43.98 171.652 43.172L173.296 43.808C172.784 44.936 172.028 45.812 171.028 46.436C170.036 47.052 168.912 47.36 167.656 47.36ZM162.7 41.012V39.536H172.6V41.012H162.7ZM176.199 47V34.04H177.963V39.668H185.271V34.04H187.035V47H185.271V41.36H177.963V47H176.199ZM200.687 34.04V47H198.971V36.908L191.867 47H190.379V34.04H192.095V44.048L199.211 34.04H200.687ZM209.539 47.36C208.275 47.36 207.179 47.08 206.251 46.52C205.331 45.96 204.615 45.172 204.103 44.156C203.591 43.14 203.335 41.948 203.335 40.58C203.335 39.164 203.587 37.94 204.091 36.908C204.595 35.876 205.303 35.08 206.215 34.52C207.135 33.96 208.219 33.68 209.467 33.68C210.747 33.68 211.839 33.976 212.743 34.568C213.647 35.152 214.331 35.992 214.795 37.088C215.259 38.184 215.471 39.492 215.431 41.012H213.631V40.388C213.599 38.708 213.235 37.44 212.539 36.584C211.851 35.728 210.843 35.3 209.515 35.3C208.123 35.3 207.055 35.752 206.311 36.656C205.575 37.56 205.207 38.848 205.207 40.52C205.207 42.152 205.575 43.42 206.311 44.324C207.055 45.22 208.107 45.668 209.467 45.668C210.395 45.668 211.203 45.456 211.891 45.032C212.587 44.6 213.135 43.98 213.535 43.172L215.179 43.808C214.667 44.936 213.911 45.812 212.911 46.436C211.919 47.052 210.795 47.36 209.539 47.36ZM204.583 41.012V39.536H214.483V41.012H204.583ZM222.887 47V34.04H228.227C228.499 34.04 228.827 34.056 229.211 34.088C229.603 34.12 229.967 34.18 230.303 34.268C231.031 34.46 231.615 34.852 232.055 35.444C232.503 36.036 232.727 36.748 232.727 37.58C232.727 38.044 232.655 38.46 232.511 38.828C232.375 39.188 232.179 39.5 231.923 39.764C231.803 39.9 231.671 40.02 231.527 40.124C231.383 40.22 231.243 40.3 231.107 40.364C231.363 40.412 231.639 40.524 231.935 40.7C232.399 40.972 232.751 41.34 232.991 41.804C233.231 42.26 233.351 42.816 233.351 43.472C233.351 44.36 233.139 45.084 232.715 45.644C232.291 46.204 231.723 46.588 231.011 46.796C230.691 46.884 230.343 46.94 229.967 46.964C229.599 46.988 229.251 47 228.923 47H222.887ZM224.663 45.5H228.839C229.007 45.5 229.219 45.488 229.475 45.464C229.731 45.432 229.959 45.392 230.159 45.344C230.631 45.224 230.975 44.984 231.191 44.624C231.415 44.256 231.527 43.856 231.527 43.424C231.527 42.856 231.359 42.392 231.023 42.032C230.695 41.664 230.255 41.44 229.703 41.36C229.519 41.32 229.327 41.296 229.127 41.288C228.927 41.28 228.747 41.276 228.587 41.276H224.663V45.5ZM224.663 39.764H228.287C228.495 39.764 228.727 39.752 228.983 39.728C229.247 39.696 229.475 39.644 229.667 39.572C230.083 39.428 230.387 39.18 230.579 38.828C230.779 38.476 230.879 38.092 230.879 37.676C230.879 37.22 230.771 36.82 230.555 36.476C230.347 36.132 230.031 35.892 229.607 35.756C229.319 35.652 229.007 35.592 228.671 35.576C228.343 35.56 228.135 35.552 228.047 35.552H224.663V39.764ZM235.731 47V34.04H246.039V47H244.275V35.732H237.495V47H235.731ZM254.891 47.36C253.627 47.36 252.531 47.08 251.603 46.52C250.683 45.96 249.967 45.172 249.455 44.156C248.943 43.14 248.687 41.948 248.687 40.58C248.687 39.164 248.939 37.94 249.443 36.908C249.947 35.876 250.655 35.08 251.567 34.52C252.487 33.96 253.571 33.68 254.819 33.68C256.099 33.68 257.191 33.976 258.095 34.568C258.999 35.152 259.683 35.992 260.147 37.088C260.611 38.184 260.823 39.492 260.783 41.012H258.983V40.388C258.951 38.708 258.587 37.44 257.891 36.584C257.203 35.728 256.195 35.3 254.867 35.3C253.475 35.3 252.407 35.752 251.663 36.656C250.927 37.56 250.559 38.848 250.559 40.52C250.559 42.152 250.927 43.42 251.663 44.324C252.407 45.22 253.459 45.668 254.819 45.668C255.747 45.668 256.555 45.456 257.243 45.032C257.939 44.6 258.487 43.98 258.887 43.172L260.531 43.808C260.019 44.936 259.263 45.812 258.263 46.436C257.271 47.052 256.147 47.36 254.891 47.36ZM249.935 41.012V39.536H259.835V41.012H249.935ZM269.266 47.36C268.074 47.36 267.066 47.06 266.242 46.46C265.418 45.852 264.794 45.032 264.37 44C263.946 42.96 263.734 41.796 263.734 40.508C263.734 39.196 263.946 38.028 264.37 37.004C264.802 35.972 265.434 35.16 266.266 34.568C267.098 33.976 268.122 33.68 269.338 33.68C270.522 33.68 271.538 33.98 272.386 34.58C273.234 35.18 273.882 35.996 274.33 37.028C274.786 38.06 275.014 39.22 275.014 40.508C275.014 41.804 274.786 42.968 274.33 44C273.874 45.032 273.218 45.852 272.362 46.46C271.506 47.06 270.474 47.36 269.266 47.36ZM263.434 52.76V34.04H265.018V43.796H265.21V52.76H263.434ZM269.086 45.716C269.99 45.716 270.742 45.488 271.342 45.032C271.942 44.576 272.39 43.956 272.686 43.172C272.99 42.38 273.142 41.492 273.142 40.508C273.142 39.532 272.994 38.652 272.698 37.868C272.402 37.084 271.95 36.464 271.342 36.008C270.742 35.552 269.978 35.324 269.05 35.324C268.146 35.324 267.394 35.544 266.794 35.984C266.202 36.424 265.758 37.036 265.462 37.82C265.166 38.596 265.018 39.492 265.018 40.508C265.018 41.508 265.166 42.404 265.462 43.196C265.758 43.98 266.206 44.596 266.806 45.044C267.406 45.492 268.166 45.716 269.086 45.716ZM283.133 47.36C281.869 47.36 280.773 47.08 279.845 46.52C278.925 45.96 278.209 45.172 277.697 44.156C277.185 43.14 276.929 41.948 276.929 40.58C276.929 39.164 277.181 37.94 277.685 36.908C278.189 35.876 278.897 35.08 279.809 34.52C280.729 33.96 281.813 33.68 283.061 33.68C284.341 33.68 285.433 33.976 286.337 34.568C287.241 35.152 287.925 35.992 288.389 37.088C288.853 38.184 289.065 39.492 289.025 41.012H287.225V40.388C287.193 38.708 286.829 37.44 286.133 36.584C285.445 35.728 284.437 35.3 283.109 35.3C281.717 35.3 280.649 35.752 279.905 36.656C279.169 37.56 278.801 38.848 278.801 40.52C278.801 42.152 279.169 43.42 279.905 44.324C280.649 45.22 281.701 45.668 283.061 45.668C283.989 45.668 284.797 45.456 285.485 45.032C286.181 44.6 286.729 43.98 287.129 43.172L288.773 43.808C288.261 44.936 287.505 45.812 286.505 46.436C285.513 47.052 284.389 47.36 283.133 47.36ZM278.177 41.012V39.536H288.077V41.012H278.177ZM290.728 49.88V45.488C291.464 45.488 291.992 45.252 292.312 44.78C292.632 44.3 292.892 43.536 293.092 42.488C293.228 41.808 293.34 41.076 293.428 40.292C293.516 39.508 293.592 38.612 293.656 37.604C293.72 36.588 293.78 35.4 293.836 34.04H302.404V45.488H303.652V49.88H301.948V47H292.42V49.88H290.728ZM293.716 45.488H300.652V35.552H295.468C295.444 36.16 295.408 36.804 295.36 37.484C295.32 38.164 295.268 38.844 295.204 39.524C295.148 40.204 295.08 40.844 295 41.444C294.928 42.036 294.84 42.556 294.736 43.004C294.616 43.58 294.484 44.072 294.34 44.48C294.204 44.888 293.996 45.224 293.716 45.488Z" fill="#1F1F1F"/>
<g clip-path="url(#clip2_118_1002)">
<path d="M51.5416 130.586L51.4881 130.531L51.4346 130.586L38 144.274L24.5654 130.586L24.5119 130.531L24.4584 130.586L23.299 131.767L23.2474 131.82L23.299 131.872L37.3668 146.205L37.3888 146.228H37.4203H38.5797H38.6112L38.6332 146.205L52.701 131.872L52.7525 131.82L52.701 131.767L51.5416 130.586Z" fill="#002336" stroke="black" stroke-width="0.15"/>
<path d="M20.5185 155.72L20.518 155.719C15.9971 151.113 13.2209 144.856 13.2209 137.905C13.2209 130.954 16.0078 124.592 20.5174 120.092L20.518 120.091C25.0388 115.485 31.1791 112.657 38 112.657C44.8213 112.657 51.0647 115.496 55.4815 120.091L55.4821 120.091C60.0029 124.687 62.7895 130.954 62.7895 137.905C62.7895 144.856 60.0026 151.218 55.4929 155.718L55.4924 155.719C50.9715 160.315 44.8209 163.153 38 163.153C31.1787 163.153 24.9353 160.314 20.5185 155.72ZM37.925 165.075V165.075H38H38.075V165.075C52.7306 165.034 64.575 152.938 64.575 138C64.575 123.036 52.6902 110.925 38 110.925C23.3098 110.925 11.425 123.036 11.425 138C11.425 152.938 23.2694 165.034 37.925 165.075Z" fill="#002336" stroke="black" stroke-width="0.15"/>
</g>
<rect x="0.5" y="100.5" width="75" height="75" rx="7.5" stroke="#CED3D6"/>
<path d="M100.876 149.88V145.308C101.548 145.308 102.088 145.14 102.496 144.804C102.904 144.46 103.216 144.004 103.432 143.436C103.648 142.868 103.812 142.232 103.924 141.528C104.036 140.816 104.132 140.096 104.212 139.368C104.324 138.304 104.412 137.276 104.476 136.284C104.548 135.292 104.608 134.264 104.656 133.2C104.712 132.136 104.776 130.972 104.848 129.708L115.504 129.72V145.308H116.74V149.88H114.988V147H102.64V149.88H100.876ZM104.248 145.308H113.74V131.412L106.492 131.4C106.444 132.376 106.396 133.32 106.348 134.232C106.3 135.144 106.244 136.064 106.18 136.992C106.116 137.92 106.032 138.888 105.928 139.896C105.84 140.816 105.736 141.62 105.616 142.308C105.496 142.996 105.328 143.584 105.112 144.072C104.904 144.56 104.616 144.972 104.248 145.308ZM119.363 147V134.04H124.703C124.975 134.04 125.303 134.056 125.687 134.088C126.079 134.12 126.443 134.18 126.779 134.268C127.507 134.46 128.091 134.852 128.531 135.444C128.979 136.036 129.203 136.748 129.203 137.58C129.203 138.044 129.131 138.46 128.987 138.828C128.851 139.188 128.655 139.5 128.399 139.764C128.279 139.9 128.147 140.02 128.003 140.124C127.859 140.22 127.719 140.3 127.583 140.364C127.839 140.412 128.115 140.524 128.411 140.7C128.875 140.972 129.227 141.34 129.467 141.804C129.707 142.26 129.827 142.816 129.827 143.472C129.827 144.36 129.615 145.084 129.191 145.644C128.767 146.204 128.199 146.588 127.487 146.796C127.167 146.884 126.819 146.94 126.443 146.964C126.075 146.988 125.727 147 125.399 147H119.363ZM121.139 145.5H125.315C125.483 145.5 125.695 145.488 125.951 145.464C126.207 145.432 126.435 145.392 126.635 145.344C127.107 145.224 127.451 144.984 127.667 144.624C127.891 144.256 128.003 143.856 128.003 143.424C128.003 142.856 127.835 142.392 127.499 142.032C127.171 141.664 126.731 141.44 126.179 141.36C125.995 141.32 125.803 141.296 125.603 141.288C125.403 141.28 125.223 141.276 125.063 141.276H121.139V145.5ZM121.139 139.764H124.763C124.971 139.764 125.203 139.752 125.459 139.728C125.723 139.696 125.951 139.644 126.143 139.572C126.559 139.428 126.863 139.18 127.055 138.828C127.255 138.476 127.355 138.092 127.355 137.676C127.355 137.22 127.247 136.82 127.031 136.476C126.823 136.132 126.507 135.892 126.083 135.756C125.795 135.652 125.483 135.592 125.147 135.576C124.819 135.56 124.611 135.552 124.523 135.552H121.139V139.764ZM142.515 134.04V147H140.799V136.908L133.695 147H132.207V134.04H133.923V144.048L141.039 134.04H142.515ZM144.443 147L149.915 140.52L144.671 134.04H146.663L151.775 140.436V134.04H153.407V140.436L158.519 134.04H160.499L155.255 140.52L160.727 147H158.675L153.407 140.604V147H151.775V140.604L146.495 147H144.443ZM167.656 147.36C166.392 147.36 165.296 147.08 164.368 146.52C163.448 145.96 162.732 145.172 162.22 144.156C161.708 143.14 161.452 141.948 161.452 140.58C161.452 139.164 161.704 137.94 162.208 136.908C162.712 135.876 163.42 135.08 164.332 134.52C165.252 133.96 166.336 133.68 167.584 133.68C168.864 133.68 169.956 133.976 170.86 134.568C171.764 135.152 172.448 135.992 172.912 137.088C173.376 138.184 173.588 139.492 173.548 141.012H171.748V140.388C171.716 138.708 171.352 137.44 170.656 136.584C169.968 135.728 168.96 135.3 167.632 135.3C166.24 135.3 165.172 135.752 164.428 136.656C163.692 137.56 163.324 138.848 163.324 140.52C163.324 142.152 163.692 143.42 164.428 144.324C165.172 145.22 166.224 145.668 167.584 145.668C168.512 145.668 169.32 145.456 170.008 145.032C170.704 144.6 171.252 143.98 171.652 143.172L173.296 143.808C172.784 144.936 172.028 145.812 171.028 146.436C170.036 147.052 168.912 147.36 167.656 147.36ZM162.7 141.012V139.536H172.6V141.012H162.7ZM176.199 147V134.04H177.963V139.668H185.271V134.04H187.035V147H185.271V141.36H177.963V147H176.199ZM200.687 134.04V147H198.971V136.908L191.867 147H190.379V134.04H192.095V144.048L199.211 134.04H200.687ZM209.539 147.36C208.275 147.36 207.179 147.08 206.251 146.52C205.331 145.96 204.615 145.172 204.103 144.156C203.591 143.14 203.335 141.948 203.335 140.58C203.335 139.164 203.587 137.94 204.091 136.908C204.595 135.876 205.303 135.08 206.215 134.52C207.135 133.96 208.219 133.68 209.467 133.68C210.747 133.68 211.839 133.976 212.743 134.568C213.647 135.152 214.331 135.992 214.795 137.088C215.259 138.184 215.471 139.492 215.431 141.012H213.631V140.388C213.599 138.708 213.235 137.44 212.539 136.584C211.851 135.728 210.843 135.3 209.515 135.3C208.123 135.3 207.055 135.752 206.311 136.656C205.575 137.56 205.207 138.848 205.207 140.52C205.207 142.152 205.575 143.42 206.311 144.324C207.055 145.22 208.107 145.668 209.467 145.668C210.395 145.668 211.203 145.456 211.891 145.032C212.587 144.6 213.135 143.98 213.535 143.172L215.179 143.808C214.667 144.936 213.911 145.812 212.911 146.436C211.919 147.052 210.795 147.36 209.539 147.36ZM204.583 141.012V139.536H214.483V141.012H204.583ZM222.887 147V134.04H224.651V139.668H231.959V134.04H233.723V147H231.959V141.36H224.651V147H222.887ZM240.786 147.36C239.81 147.36 238.99 147.184 238.326 146.832C237.67 146.48 237.178 146.012 236.85 145.428C236.522 144.844 236.358 144.208 236.358 143.52C236.358 142.816 236.498 142.216 236.778 141.72C237.066 141.216 237.454 140.804 237.942 140.484C238.438 140.164 239.01 139.92 239.658 139.752C240.314 139.592 241.038 139.452 241.83 139.332C242.63 139.204 243.41 139.096 244.17 139.008C244.938 138.912 245.61 138.82 246.186 138.732L245.562 139.116C245.586 137.836 245.338 136.888 244.818 136.272C244.298 135.656 243.394 135.348 242.106 135.348C241.218 135.348 240.466 135.548 239.85 135.948C239.242 136.348 238.814 136.98 238.566 137.844L236.85 137.34C237.146 136.18 237.742 135.28 238.638 134.64C239.534 134 240.698 133.68 242.13 133.68C243.314 133.68 244.318 133.904 245.142 134.352C245.974 134.792 246.562 135.432 246.906 136.272C247.066 136.648 247.17 137.068 247.218 137.532C247.266 137.996 247.29 138.468 247.29 138.948V147H245.718V143.748L246.174 143.94C245.734 145.052 245.05 145.9 244.122 146.484C243.194 147.068 242.082 147.36 240.786 147.36ZM240.99 145.836C241.814 145.836 242.534 145.688 243.15 145.392C243.766 145.096 244.262 144.692 244.638 144.18C245.014 143.66 245.258 143.076 245.37 142.428C245.466 142.012 245.518 141.556 245.526 141.06C245.534 140.556 245.538 140.18 245.538 139.932L246.21 140.28C245.61 140.36 244.958 140.44 244.254 140.52C243.558 140.6 242.87 140.692 242.19 140.796C241.518 140.9 240.91 141.024 240.366 141.168C239.998 141.272 239.642 141.42 239.298 141.612C238.954 141.796 238.67 142.044 238.446 142.356C238.23 142.668 238.122 143.056 238.122 143.52C238.122 143.896 238.214 144.26 238.398 144.612C238.59 144.964 238.894 145.256 239.31 145.488C239.734 145.72 240.294 145.836 240.99 145.836ZM255.082 147.36C253.778 147.36 252.638 147.076 251.662 146.508C250.694 145.932 249.93 145.136 249.37 144.12L250.786 143.22C251.258 144.02 251.846 144.628 252.55 145.044C253.254 145.46 254.062 145.668 254.974 145.668C255.926 145.668 256.69 145.448 257.266 145.008C257.842 144.568 258.13 143.964 258.13 143.196C258.13 142.668 258.006 142.248 257.758 141.936C257.518 141.624 257.15 141.4 256.654 141.264C256.166 141.128 255.554 141.06 254.818 141.06H253.282V139.548H254.794C255.69 139.548 256.41 139.388 256.954 139.068C257.506 138.74 257.782 138.228 257.782 137.532C257.782 136.796 257.506 136.252 256.954 135.9C256.41 135.54 255.758 135.36 254.998 135.36C254.23 135.36 253.502 135.52 252.814 135.84C252.134 136.152 251.562 136.556 251.098 137.052L249.97 135.864C250.618 135.152 251.374 134.612 252.238 134.244C253.11 133.868 254.074 133.68 255.13 133.68C255.962 133.68 256.714 133.828 257.386 134.124C258.066 134.412 258.602 134.836 258.994 135.396C259.394 135.956 259.594 136.628 259.594 137.412C259.594 138.148 259.414 138.784 259.054 139.32C258.702 139.856 258.202 140.3 257.554 140.652L257.458 139.992C258.018 140.096 258.482 140.32 258.85 140.664C259.218 141.008 259.49 141.42 259.666 141.9C259.842 142.38 259.93 142.868 259.93 143.364C259.93 144.188 259.714 144.9 259.282 145.5C258.858 146.092 258.278 146.552 257.542 146.88C256.814 147.2 255.994 147.36 255.082 147.36ZM266.286 147.36C265.31 147.36 264.49 147.184 263.826 146.832C263.17 146.48 262.678 146.012 262.35 145.428C262.022 144.844 261.858 144.208 261.858 143.52C261.858 142.816 261.998 142.216 262.278 141.72C262.566 141.216 262.954 140.804 263.442 140.484C263.938 140.164 264.51 139.92 265.158 139.752C265.814 139.592 266.538 139.452 267.33 139.332C268.13 139.204 268.91 139.096 269.67 139.008C270.438 138.912 271.11 138.82 271.686 138.732L271.062 139.116C271.086 137.836 270.838 136.888 270.318 136.272C269.798 135.656 268.894 135.348 267.606 135.348C266.718 135.348 265.966 135.548 265.35 135.948C264.742 136.348 264.314 136.98 264.066 137.844L262.35 137.34C262.646 136.18 263.242 135.28 264.138 134.64C265.034 134 266.198 133.68 267.63 133.68C268.814 133.68 269.818 133.904 270.642 134.352C271.474 134.792 272.062 135.432 272.406 136.272C272.566 136.648 272.67 137.068 272.718 137.532C272.766 137.996 272.79 138.468 272.79 138.948V147H271.218V143.748L271.674 143.94C271.234 145.052 270.55 145.9 269.622 146.484C268.694 147.068 267.582 147.36 266.286 147.36ZM266.49 145.836C267.314 145.836 268.034 145.688 268.65 145.392C269.266 145.096 269.762 144.692 270.138 144.18C270.514 143.66 270.758 143.076 270.87 142.428C270.966 142.012 271.018 141.556 271.026 141.06C271.034 140.556 271.038 140.18 271.038 139.932L271.71 140.28C271.11 140.36 270.458 140.44 269.754 140.52C269.058 140.6 268.37 140.692 267.69 140.796C267.018 140.9 266.41 141.024 265.866 141.168C265.498 141.272 265.142 141.42 264.798 141.612C264.454 141.796 264.17 142.044 263.946 142.356C263.73 142.668 263.622 143.056 263.622 143.52C263.622 143.896 263.714 144.26 263.898 144.612C264.09 144.964 264.394 145.256 264.81 145.488C265.234 145.72 265.794 145.836 266.49 145.836ZM274.954 149.88V145.488C275.69 145.488 276.218 145.252 276.538 144.78C276.858 144.3 277.118 143.536 277.318 142.488C277.454 141.808 277.566 141.076 277.654 140.292C277.742 139.508 277.818 138.612 277.882 137.604C277.946 136.588 278.006 135.4 278.062 134.04H286.63V145.488H287.878V149.88H286.174V147H276.646V149.88H274.954ZM277.942 145.488H284.878V135.552H279.694C279.67 136.16 279.634 136.804 279.586 137.484C279.546 138.164 279.494 138.844 279.43 139.524C279.374 140.204 279.306 140.844 279.226 141.444C279.154 142.036 279.066 142.556 278.962 143.004C278.842 143.58 278.71 144.072 278.566 144.48C278.43 144.888 278.222 145.224 277.942 145.488Z" fill="#1F1F1F"/>
<g clip-path="url(#clip3_118_1002)">
<path d="M64.9999 212.594C64.9999 211.704 64.2678 211 63.3436 211H48.4622C47.5215 211 46.8209 211.714 46.8192 212.619C46.8192 213.523 47.5215 214.188 48.4622 214.188H61.6874L61.6609 226.974C61.6609 227.879 62.3764 228.568 63.3171 228.568C64.2579 228.566 64.9734 227.879 64.9734 226.974L64.9999 212.618C64.9999 212.613 64.9982 212.61 64.9982 212.607C64.9982 212.602 64.9999 212.599 64.9999 212.594Z" fill="#121313"/>
<path d="M28.589 211H13.7076C13.7026 211 13.6993 211.002 13.6943 211.002C13.691 211.002 13.6861 211 13.6828 211C12.7586 211 12.0265 211.704 12.0265 212.594L12 226.95C12 227.856 12.742 228.531 13.6828 228.531C14.6218 228.531 15.3125 227.856 15.3125 226.95L15.339 214.188H28.589C29.5298 214.188 30.2453 213.499 30.2453 212.594C30.2436 211.688 29.5281 211 28.589 211Z" fill="#121313"/>
<path d="M28.5377 258.812H15.3125V246.062C15.3125 245.157 14.597 244.469 13.6562 244.469C12.7155 244.469 12 245.157 12 246.062V260.382C12 260.387 12.0017 260.39 12.0017 260.394C12.0017 260.398 12 260.401 12 260.406C12 261.296 12.7321 262 13.6562 262H28.5377C29.4784 262 30.179 261.286 30.1807 260.381C30.1807 259.477 29.4784 258.812 28.5377 258.812Z" fill="#121313"/>
<path d="M63.3172 244.505C62.3765 244.505 61.6858 245.181 61.6875 246.086V258.813H48.4375C47.4967 258.813 46.7812 259.501 46.7812 260.406C46.7812 261.312 47.4967 262 48.4375 262H63.3189C63.3239 262 63.3272 261.998 63.3305 261.998C63.3355 261.997 63.3388 262 63.3438 262C64.2679 262 65 261.296 65 260.406V246.086C65 245.181 64.258 244.505 63.3172 244.505Z" fill="#121313"/>
</g>
<rect x="0.5" y="200.5" width="75" height="75" rx="7.5" stroke="#CED3D6"/>
<path d="M115.17 229.545V247H113.057V231.42H104.261V247H102.148V229.545H115.17ZM124.479 247.273C123.298 247.273 122.261 246.991 121.369 246.429C120.482 245.866 119.789 245.08 119.289 244.068C118.795 243.057 118.548 241.875 118.548 240.523C118.548 239.159 118.795 237.969 119.289 236.952C119.789 235.935 120.482 235.145 121.369 234.582C122.261 234.02 123.298 233.739 124.479 233.739C125.661 233.739 126.695 234.02 127.582 234.582C128.474 235.145 129.167 235.935 129.661 236.952C130.161 237.969 130.411 239.159 130.411 240.523C130.411 241.875 130.161 243.057 129.661 244.068C129.167 245.08 128.474 245.866 127.582 246.429C126.695 246.991 125.661 247.273 124.479 247.273ZM124.479 245.466C125.377 245.466 126.116 245.236 126.695 244.776C127.275 244.315 127.704 243.71 127.982 242.96C128.261 242.21 128.4 241.398 128.4 240.523C128.4 239.648 128.261 238.832 127.982 238.077C127.704 237.321 127.275 236.71 126.695 236.244C126.116 235.778 125.377 235.545 124.479 235.545C123.582 235.545 122.843 235.778 122.263 236.244C121.684 236.71 121.255 237.321 120.977 238.077C120.698 238.832 120.559 239.648 120.559 240.523C120.559 241.398 120.698 242.21 120.977 242.96C121.255 243.71 121.684 244.315 122.263 244.776C122.843 245.236 123.582 245.466 124.479 245.466ZM132.322 247V245.125H132.8C133.192 245.125 133.518 245.048 133.78 244.895C134.041 244.736 134.251 244.46 134.411 244.068C134.575 243.67 134.7 243.119 134.786 242.415C134.876 241.705 134.942 240.801 134.982 239.705L135.22 233.909H143.947V247H141.936V235.784H137.129L136.925 240.455C136.879 241.528 136.783 242.474 136.635 243.293C136.493 244.105 136.274 244.787 135.979 245.338C135.689 245.889 135.303 246.304 134.82 246.582C134.337 246.861 133.732 247 133.004 247H132.322ZM156.399 239.534V241.409H149.172V239.534H156.399ZM149.649 233.909V247H147.638V233.909H149.649ZM157.933 233.909V247H155.922V233.909H157.933ZM166.925 247.273C165.743 247.273 164.706 246.991 163.814 246.429C162.928 245.866 162.234 245.08 161.734 244.068C161.24 243.057 160.993 241.875 160.993 240.523C160.993 239.159 161.24 237.969 161.734 236.952C162.234 235.935 162.928 235.145 163.814 234.582C164.706 234.02 165.743 233.739 166.925 233.739C168.107 233.739 169.141 234.02 170.027 234.582C170.919 235.145 171.612 235.935 172.107 236.952C172.607 237.969 172.857 239.159 172.857 240.523C172.857 241.875 172.607 243.057 172.107 244.068C171.612 245.08 170.919 245.866 170.027 246.429C169.141 246.991 168.107 247.273 166.925 247.273ZM166.925 245.466C167.822 245.466 168.561 245.236 169.141 244.776C169.72 244.315 170.149 243.71 170.428 242.96C170.706 242.21 170.845 241.398 170.845 240.523C170.845 239.648 170.706 238.832 170.428 238.077C170.149 237.321 169.72 236.71 169.141 236.244C168.561 235.778 167.822 235.545 166.925 235.545C166.027 235.545 165.288 235.778 164.709 236.244C164.129 236.71 163.7 237.321 163.422 238.077C163.143 238.832 163.004 239.648 163.004 240.523C163.004 241.398 163.143 242.21 163.422 242.96C163.7 243.71 164.129 244.315 164.709 244.776C165.288 245.236 166.027 245.466 166.925 245.466ZM180.256 235.614C179.802 235.619 179.344 235.736 178.884 235.963C178.43 236.19 178.049 236.491 177.742 236.866C177.441 237.236 177.29 237.648 177.29 238.102H175.313C175.313 237.534 175.45 236.989 175.722 236.466C175.995 235.943 176.362 235.477 176.822 235.068C177.288 234.659 177.816 234.335 178.407 234.097C179.004 233.858 179.62 233.739 180.256 233.739C181.45 233.739 182.461 234.04 183.29 234.642C184.126 235.244 184.759 236.04 185.191 237.028C185.629 238.017 185.847 239.091 185.847 240.25V240.727C185.847 241.881 185.629 242.955 185.191 243.949C184.759 244.937 184.126 245.733 183.29 246.335C182.461 246.937 181.45 247.239 180.256 247.239C179.302 247.239 178.452 247.028 177.708 246.608C176.964 246.182 176.379 245.614 175.952 244.903C175.526 244.193 175.313 243.403 175.313 242.534H177.29C177.29 243.028 177.43 243.491 177.708 243.923C177.992 244.349 178.359 244.696 178.808 244.963C179.262 245.224 179.745 245.358 180.256 245.364C181.018 245.358 181.665 245.119 182.2 244.648C182.734 244.176 183.14 243.585 183.418 242.875C183.697 242.165 183.836 241.449 183.836 240.727V240.25C183.836 239.511 183.697 238.79 183.418 238.085C183.146 237.375 182.742 236.787 182.208 236.321C181.68 235.855 181.029 235.619 180.256 235.614ZM184.654 239.466V241.341H178.927V239.466H184.654ZM188.911 247V233.909H190.923V239.602H192.252L196.957 233.909H199.548L194.263 240.216L199.616 247H197.025L192.729 241.477H190.923V247H188.911ZM201.802 251.909V233.909H203.745V235.989H203.984C204.131 235.761 204.336 235.472 204.597 235.119C204.864 234.761 205.245 234.443 205.739 234.165C206.239 233.881 206.915 233.739 207.768 233.739C208.87 233.739 209.842 234.014 210.683 234.565C211.523 235.116 212.18 235.898 212.651 236.909C213.123 237.92 213.359 239.114 213.359 240.489C213.359 241.875 213.123 243.077 212.651 244.094C212.18 245.105 211.526 245.889 210.691 246.446C209.856 246.997 208.893 247.273 207.802 247.273C206.961 247.273 206.288 247.134 205.782 246.855C205.276 246.571 204.887 246.25 204.614 245.892C204.342 245.528 204.131 245.227 203.984 244.989H203.813V251.909H201.802ZM203.779 240.455C203.779 241.443 203.924 242.315 204.214 243.071C204.504 243.821 204.927 244.409 205.484 244.835C206.04 245.256 206.722 245.466 207.529 245.466C208.37 245.466 209.072 245.244 209.634 244.801C210.202 244.352 210.629 243.75 210.913 242.994C211.202 242.233 211.347 241.386 211.347 240.455C211.347 239.534 211.205 238.705 210.921 237.966C210.643 237.222 210.219 236.634 209.651 236.202C209.089 235.764 208.381 235.545 207.529 235.545C206.711 235.545 206.023 235.753 205.467 236.168C204.91 236.577 204.489 237.151 204.205 237.889C203.921 238.622 203.779 239.477 203.779 240.455ZM220.279 247.307C219.45 247.307 218.697 247.151 218.021 246.838C217.344 246.52 216.808 246.062 216.41 245.466C216.012 244.864 215.813 244.136 215.813 243.284C215.813 242.534 215.961 241.926 216.256 241.46C216.552 240.989 216.947 240.619 217.441 240.352C217.935 240.085 218.481 239.886 219.077 239.756C219.68 239.619 220.285 239.511 220.893 239.432C221.688 239.33 222.333 239.253 222.827 239.202C223.327 239.145 223.691 239.051 223.918 238.92C224.151 238.79 224.268 238.562 224.268 238.239V238.17C224.268 237.33 224.038 236.676 223.577 236.21C223.123 235.744 222.433 235.511 221.506 235.511C220.546 235.511 219.793 235.722 219.248 236.142C218.702 236.562 218.319 237.011 218.097 237.489L216.188 236.807C216.529 236.011 216.984 235.392 217.552 234.949C218.126 234.5 218.751 234.187 219.427 234.011C220.109 233.83 220.779 233.739 221.438 233.739C221.859 233.739 222.342 233.79 222.887 233.892C223.438 233.989 223.969 234.19 224.481 234.497C224.998 234.804 225.427 235.267 225.768 235.886C226.109 236.506 226.279 237.335 226.279 238.375V247H224.268V245.227H224.165C224.029 245.511 223.802 245.815 223.484 246.139C223.165 246.463 222.742 246.739 222.214 246.966C221.685 247.193 221.04 247.307 220.279 247.307ZM220.586 245.5C221.381 245.5 222.052 245.344 222.597 245.031C223.148 244.719 223.563 244.315 223.842 243.821C224.126 243.327 224.268 242.807 224.268 242.261V240.42C224.183 240.523 223.995 240.616 223.705 240.702C223.421 240.781 223.092 240.852 222.717 240.915C222.347 240.972 221.987 241.023 221.634 241.068C221.288 241.108 221.006 241.142 220.79 241.17C220.268 241.239 219.779 241.349 219.325 241.503C218.876 241.651 218.512 241.875 218.234 242.176C217.961 242.472 217.825 242.875 217.825 243.386C217.825 244.085 218.083 244.614 218.6 244.972C219.123 245.324 219.785 245.5 220.586 245.5ZM238.712 239.534V241.409H231.484V239.534H238.712ZM231.962 233.909V247H229.95V233.909H231.962ZM240.246 233.909V247H238.234V233.909H240.246ZM252.68 239.534V241.409H245.453V239.534H252.68ZM245.93 233.909V247H243.919V233.909H245.93ZM254.214 233.909V247H252.203V233.909H254.214ZM259.626 238.648H263.376C264.911 238.648 266.084 239.037 266.896 239.815C267.709 240.594 268.115 241.58 268.115 242.773C268.115 243.557 267.933 244.27 267.57 244.912C267.206 245.548 266.672 246.057 265.967 246.438C265.263 246.812 264.399 247 263.376 247H257.888V233.909H259.899V245.125H263.376C264.172 245.125 264.825 244.915 265.337 244.494C265.848 244.074 266.104 243.534 266.104 242.875C266.104 242.182 265.848 241.616 265.337 241.179C264.825 240.741 264.172 240.523 263.376 240.523H259.626V238.648ZM270.195 247V233.909H272.206V247H270.195ZM277.899 244.034L284.206 233.909H286.524V247H284.513V236.875L278.24 247H275.888V233.909H277.899V244.034ZM282.876 229.545H284.751C284.751 230.466 284.433 231.219 283.797 231.804C283.161 232.389 282.297 232.682 281.206 232.682C280.132 232.682 279.277 232.389 278.641 231.804C278.01 231.219 277.695 230.466 277.695 229.545H279.57C279.57 229.989 279.692 230.378 279.936 230.713C280.186 231.048 280.609 231.216 281.206 231.216C281.803 231.216 282.229 231.048 282.484 230.713C282.746 230.378 282.876 229.989 282.876 229.545ZM296.958 251.909V233.909H298.901V235.989H299.14C299.288 235.761 299.492 235.472 299.754 235.119C300.021 234.761 300.401 234.443 300.896 234.165C301.396 233.881 302.072 233.739 302.924 233.739C304.026 233.739 304.998 234.014 305.839 234.565C306.68 235.116 307.336 235.898 307.808 236.909C308.279 237.92 308.515 239.114 308.515 240.489C308.515 241.875 308.279 243.077 307.808 244.094C307.336 245.105 306.683 245.889 305.847 246.446C305.012 246.997 304.049 247.273 302.958 247.273C302.117 247.273 301.444 247.134 300.938 246.855C300.433 246.571 300.043 246.25 299.771 245.892C299.498 245.528 299.288 245.227 299.14 244.989H298.969V251.909H296.958ZM298.935 240.455C298.935 241.443 299.08 242.315 299.37 243.071C299.66 243.821 300.083 244.409 300.64 244.835C301.197 245.256 301.879 245.466 302.685 245.466C303.526 245.466 304.228 245.244 304.79 244.801C305.359 244.352 305.785 243.75 306.069 242.994C306.359 242.233 306.504 241.386 306.504 240.455C306.504 239.534 306.362 238.705 306.077 237.966C305.799 237.222 305.376 236.634 304.808 236.202C304.245 235.764 303.538 235.545 302.685 235.545C301.867 235.545 301.18 235.753 300.623 236.168C300.066 236.577 299.646 237.151 299.362 237.889C299.077 238.622 298.935 239.477 298.935 240.455ZM317.072 247.273C315.81 247.273 314.722 246.994 313.808 246.438C312.898 245.875 312.197 245.091 311.702 244.085C311.214 243.074 310.969 241.898 310.969 240.557C310.969 239.216 311.214 238.034 311.702 237.011C312.197 235.983 312.884 235.182 313.765 234.608C314.651 234.028 315.685 233.739 316.867 233.739C317.549 233.739 318.222 233.852 318.887 234.08C319.552 234.307 320.157 234.676 320.702 235.188C321.248 235.693 321.683 236.364 322.006 237.199C322.33 238.034 322.492 239.062 322.492 240.284V241.136H312.401V239.398H320.447C320.447 238.659 320.299 238 320.004 237.42C319.714 236.841 319.299 236.384 318.759 236.048C318.225 235.713 317.594 235.545 316.867 235.545C316.066 235.545 315.373 235.744 314.788 236.142C314.208 236.534 313.762 237.045 313.45 237.676C313.137 238.307 312.981 238.983 312.981 239.705V240.864C312.981 241.852 313.151 242.69 313.492 243.378C313.839 244.06 314.319 244.58 314.933 244.938C315.546 245.29 316.259 245.466 317.072 245.466C317.6 245.466 318.077 245.392 318.504 245.244C318.935 245.091 319.308 244.864 319.62 244.562C319.933 244.256 320.174 243.875 320.344 243.42L322.288 243.966C322.083 244.625 321.739 245.205 321.256 245.705C320.773 246.199 320.177 246.585 319.467 246.864C318.756 247.136 317.958 247.273 317.072 247.273ZM324.382 247L329.7 240.352L324.45 233.909H326.837L331.2 239.5H332.291V233.909H334.303V239.5H335.359L339.723 233.909H342.109L336.893 240.352L342.178 247H339.757L335.325 241.375H334.303V247H332.291V241.375H331.268L326.803 247H324.382ZM347.063 244.034L353.37 233.909H355.688V247H353.677V236.875L347.404 247H345.052V233.909H347.063V244.034ZM366.531 244.273L371.099 233.909H373.009L367.349 247H365.713L360.156 233.909H362.031L366.531 244.273ZM361.384 233.909V247H359.372V233.909H361.384ZM371.679 247V233.909H373.69V247H371.679Z" fill="#1F1F1F"/>
<g clip-path="url(#clip4_118_1002)">
<mask id="path-16-outside-1_118_1002" maskUnits="userSpaceOnUse" x="12.625" y="311.071" width="52" height="50" fill="black">
<rect fill="white" x="12.625" y="311.071" width="52" height="50"/>
<path fill-rule="evenodd" clip-rule="evenodd" d="M32.1067 317.917C33.085 317.505 34.2164 317.983 34.6234 318.983L41.2487 335.324C41.423 335.763 41.9739 336.001 42.4093 335.816C42.8636 335.625 43.0783 335.094 42.891 334.632L40.5568 328.873C40.3625 328.391 40.3653 327.861 40.5607 327.373C40.7592 326.885 41.1267 326.507 41.5994 326.308C42.0677 326.108 42.5896 326.108 43.0713 326.31C43.5499 326.513 43.9185 326.889 44.1142 327.372L46.8143 334.035C47.0026 334.497 47.5174 334.718 47.9739 334.527C48.4292 334.335 48.6429 333.804 48.4556 333.342L46.7447 329.116C46.5634 328.671 46.5634 328.173 46.7485 327.719C46.9309 327.267 47.2725 326.914 47.7106 326.728C48.6182 326.345 49.673 326.787 50.049 327.718L51.9602 332.432C52.1507 332.899 52.6746 333.109 53.1208 332.924C53.5794 332.729 53.7877 332.199 53.6025 331.736L52.6787 329.459C52.3091 328.531 52.7413 327.463 53.651 327.079C54.0913 326.893 54.5758 326.891 55.0172 327.083C55.4614 327.269 55.805 327.62 55.9874 328.066L61.1577 340.934L61.2322 341.153C61.6935 343.067 61.728 345.37 61.76 347.597C61.7881 349.511 61.8165 351.335 62.0934 352.941L48.0732 358.869C45.0295 356.992 43.2494 356.226 41.8168 355.617C40.1895 354.924 39.0149 354.425 36.7077 352.649C35.6437 351.832 34.4961 350.723 33.3871 349.652C32.0322 348.346 30.7578 347.112 29.5848 346.33C28.3798 345.526 27.1335 344.059 27.2667 343.24C27.3826 342.566 28.6237 342.43 29.1525 342.403C29.759 342.368 30.4158 342.451 31.0244 342.632C31.5371 342.787 32.0209 343.011 32.4612 343.301C33.5403 344.01 37.2165 346.314 40.095 346.824C40.4538 346.884 40.751 346.893 41.0339 346.614C41.2838 346.376 41.4018 345.942 41.2585 345.617L31.0676 320.487C30.6614 319.486 31.1285 318.332 32.1067 317.917ZM36.2642 318.289C35.4813 316.365 33.3094 315.442 31.4292 316.244C29.544 317.04 28.6456 319.257 29.4242 321.182L38.9269 344.624C36.5787 343.795 34.0093 342.162 33.4191 341.775C32.8368 341.393 32.197 341.096 31.5209 340.893C30.725 340.651 29.8778 340.55 29.0576 340.589C26.2912 340.731 25.6503 342.116 25.5122 342.932C25.1766 344.963 27.3921 347.035 28.6103 347.849C29.6479 348.541 30.868 349.72 32.1638 350.968C33.3083 352.076 34.4953 353.218 35.6348 354.094C38.1222 356.009 39.4512 356.573 41.1276 357.289C42.641 357.933 44.3558 358.664 47.5322 360.654C47.6784 360.744 47.8376 360.786 47.9978 360.786C48.1085 360.786 48.2266 360.763 48.3372 360.718L63.4504 354.327C63.8555 354.155 64.079 353.709 63.9743 353.275C63.5945 351.691 63.5642 349.687 63.5319 347.565C63.4996 345.237 63.4634 342.83 62.9535 340.717C62.9114 340.538 62.8689 340.418 62.8003 340.245L57.6269 327.373C57.2653 326.478 56.5801 325.777 55.6947 325.406C54.8152 325.03 53.8451 325.03 52.9704 325.402C52.3478 325.666 51.8471 326.095 51.4753 326.614C50.5947 325.049 48.7026 324.339 47.0314 325.051C46.4249 325.31 45.9193 325.732 45.5374 326.263C45.1333 325.537 44.5208 324.963 43.7481 324.637C42.8281 324.247 41.8257 324.249 40.918 324.633C40.2792 324.901 39.7483 325.348 39.3523 325.908L36.2642 318.289ZM29.9846 312.683C28.0622 313.493 26.5653 315.026 25.7695 316.989C24.9704 318.952 24.9704 321.114 25.7695 323.08C25.9469 323.522 26.1613 323.94 26.403 324.329C26.6648 324.75 27.22 324.875 27.6283 324.605C28.0422 324.336 28.1641 323.774 27.8992 323.352C27.7108 323.05 27.5457 322.728 27.4087 322.386C26.7751 320.823 26.8222 319.143 27.4087 317.691C27.9969 316.234 29.1294 315.005 30.6649 314.356C32.151 313.731 33.7852 313.728 35.2712 314.358C36.7543 314.988 37.9108 316.169 38.5243 317.683C38.6652 318.032 38.7752 318.389 38.8497 318.744C38.9544 319.234 39.4077 319.543 39.9084 319.438C40.3849 319.332 40.6892 318.849 40.5873 318.36C40.4875 317.899 40.3466 317.442 40.1663 316.99C39.3683 315.026 37.8721 313.496 35.9512 312.683C34.0245 311.869 31.9087 311.867 29.9846 312.683ZM32.9999 337.258C31.2679 336.222 29.2489 335.934 27.3156 336.453C25.3774 336.968 23.7523 338.223 22.7396 339.988C21.7251 341.753 21.4479 343.813 21.9539 345.792C22.4577 347.772 23.6858 349.431 25.4147 350.466C25.8047 350.699 26.2067 350.891 26.6136 351.046C27.064 351.231 27.5859 350.976 27.7552 350.514C27.9273 350.048 27.6947 349.526 27.2344 349.349C26.9231 349.23 26.6139 349.083 26.3145 348.902C24.9968 348.112 24.0568 346.845 23.6706 345.337C23.2859 343.826 23.4995 342.253 24.2732 340.907C25.047 339.559 26.2863 338.601 27.7653 338.207C29.2474 337.815 30.7846 338.034 32.1013 338.822C32.4067 339.004 32.6857 339.21 32.9446 339.435C33.3203 339.763 33.8807 339.719 34.198 339.338C34.5175 338.958 34.4732 338.384 34.1014 338.057C33.7616 337.765 33.3969 337.494 32.9999 337.258ZM17.0411 317.624C16.649 317.924 16.5685 318.491 16.8598 318.891C17.1561 319.293 17.7102 319.376 18.1052 319.077L18.8627 318.499L15.7916 340.115L15.2234 339.338C14.9304 338.936 14.3752 338.853 13.9823 339.154C13.5884 339.453 13.508 340.023 13.8021 340.423L15.6517 342.952C15.9448 343.353 16.5021 343.433 16.8928 343.136L19.3683 341.25C19.7601 340.949 19.842 340.382 19.5476 339.98C19.2524 339.578 18.6962 339.497 18.3054 339.796L17.5467 340.374L20.6175 318.76L21.1857 319.537C21.4801 319.936 22.0371 320.017 22.4271 319.72C22.8221 319.419 22.9026 318.851 22.6074 318.451L20.7578 315.922C20.4665 315.521 19.9085 315.439 19.5167 315.738L17.0411 317.624Z"/>
</mask>
<path fill-rule="evenodd" clip-rule="evenodd" d="M32.1067 317.917C33.085 317.505 34.2164 317.983 34.6234 318.983L41.2487 335.324C41.423 335.763 41.9739 336.001 42.4093 335.816C42.8636 335.625 43.0783 335.094 42.891 334.632L40.5568 328.873C40.3625 328.391 40.3653 327.861 40.5607 327.373C40.7592 326.885 41.1267 326.507 41.5994 326.308C42.0677 326.108 42.5896 326.108 43.0713 326.31C43.5499 326.513 43.9185 326.889 44.1142 327.372L46.8143 334.035C47.0026 334.497 47.5174 334.718 47.9739 334.527C48.4292 334.335 48.6429 333.804 48.4556 333.342L46.7447 329.116C46.5634 328.671 46.5634 328.173 46.7485 327.719C46.9309 327.267 47.2725 326.914 47.7106 326.728C48.6182 326.345 49.673 326.787 50.049 327.718L51.9602 332.432C52.1507 332.899 52.6746 333.109 53.1208 332.924C53.5794 332.729 53.7877 332.199 53.6025 331.736L52.6787 329.459C52.3091 328.531 52.7413 327.463 53.651 327.079C54.0913 326.893 54.5758 326.891 55.0172 327.083C55.4614 327.269 55.805 327.62 55.9874 328.066L61.1577 340.934L61.2322 341.153C61.6935 343.067 61.728 345.37 61.76 347.597C61.7881 349.511 61.8165 351.335 62.0934 352.941L48.0732 358.869C45.0295 356.992 43.2494 356.226 41.8168 355.617C40.1895 354.924 39.0149 354.425 36.7077 352.649C35.6437 351.832 34.4961 350.723 33.3871 349.652C32.0322 348.346 30.7578 347.112 29.5848 346.33C28.3798 345.526 27.1335 344.059 27.2667 343.24C27.3826 342.566 28.6237 342.43 29.1525 342.403C29.759 342.368 30.4158 342.451 31.0244 342.632C31.5371 342.787 32.0209 343.011 32.4612 343.301C33.5403 344.01 37.2165 346.314 40.095 346.824C40.4538 346.884 40.751 346.893 41.0339 346.614C41.2838 346.376 41.4018 345.942 41.2585 345.617L31.0676 320.487C30.6614 319.486 31.1285 318.332 32.1067 317.917ZM36.2642 318.289C35.4813 316.365 33.3094 315.442 31.4292 316.244C29.544 317.04 28.6456 319.257 29.4242 321.182L38.9269 344.624C36.5787 343.795 34.0093 342.162 33.4191 341.775C32.8368 341.393 32.197 341.096 31.5209 340.893C30.725 340.651 29.8778 340.55 29.0576 340.589C26.2912 340.731 25.6503 342.116 25.5122 342.932C25.1766 344.963 27.3921 347.035 28.6103 347.849C29.6479 348.541 30.868 349.72 32.1638 350.968C33.3083 352.076 34.4953 353.218 35.6348 354.094C38.1222 356.009 39.4512 356.573 41.1276 357.289C42.641 357.933 44.3558 358.664 47.5322 360.654C47.6784 360.744 47.8376 360.786 47.9978 360.786C48.1085 360.786 48.2266 360.763 48.3372 360.718L63.4504 354.327C63.8555 354.155 64.079 353.709 63.9743 353.275C63.5945 351.691 63.5642 349.687 63.5319 347.565C63.4996 345.237 63.4634 342.83 62.9535 340.717C62.9114 340.538 62.8689 340.418 62.8003 340.245L57.6269 327.373C57.2653 326.478 56.5801 325.777 55.6947 325.406C54.8152 325.03 53.8451 325.03 52.9704 325.402C52.3478 325.666 51.8471 326.095 51.4753 326.614C50.5947 325.049 48.7026 324.339 47.0314 325.051C46.4249 325.31 45.9193 325.732 45.5374 326.263C45.1333 325.537 44.5208 324.963 43.7481 324.637C42.8281 324.247 41.8257 324.249 40.918 324.633C40.2792 324.901 39.7483 325.348 39.3523 325.908L36.2642 318.289ZM29.9846 312.683C28.0622 313.493 26.5653 315.026 25.7695 316.989C24.9704 318.952 24.9704 321.114 25.7695 323.08C25.9469 323.522 26.1613 323.94 26.403 324.329C26.6648 324.75 27.22 324.875 27.6283 324.605C28.0422 324.336 28.1641 323.774 27.8992 323.352C27.7108 323.05 27.5457 322.728 27.4087 322.386C26.7751 320.823 26.8222 319.143 27.4087 317.691C27.9969 316.234 29.1294 315.005 30.6649 314.356C32.151 313.731 33.7852 313.728 35.2712 314.358C36.7543 314.988 37.9108 316.169 38.5243 317.683C38.6652 318.032 38.7752 318.389 38.8497 318.744C38.9544 319.234 39.4077 319.543 39.9084 319.438C40.3849 319.332 40.6892 318.849 40.5873 318.36C40.4875 317.899 40.3466 317.442 40.1663 316.99C39.3683 315.026 37.8721 313.496 35.9512 312.683C34.0245 311.869 31.9087 311.867 29.9846 312.683ZM32.9999 337.258C31.2679 336.222 29.2489 335.934 27.3156 336.453C25.3774 336.968 23.7523 338.223 22.7396 339.988C21.7251 341.753 21.4479 343.813 21.9539 345.792C22.4577 347.772 23.6858 349.431 25.4147 350.466C25.8047 350.699 26.2067 350.891 26.6136 351.046C27.064 351.231 27.5859 350.976 27.7552 350.514C27.9273 350.048 27.6947 349.526 27.2344 349.349C26.9231 349.23 26.6139 349.083 26.3145 348.902C24.9968 348.112 24.0568 346.845 23.6706 345.337C23.2859 343.826 23.4995 342.253 24.2732 340.907C25.047 339.559 26.2863 338.601 27.7653 338.207C29.2474 337.815 30.7846 338.034 32.1013 338.822C32.4067 339.004 32.6857 339.21 32.9446 339.435C33.3203 339.763 33.8807 339.719 34.198 339.338C34.5175 338.958 34.4732 338.384 34.1014 338.057C33.7616 337.765 33.3969 337.494 32.9999 337.258ZM17.0411 317.624C16.649 317.924 16.5685 318.491 16.8598 318.891C17.1561 319.293 17.7102 319.376 18.1052 319.077L18.8627 318.499L15.7916 340.115L15.2234 339.338C14.9304 338.936 14.3752 338.853 13.9823 339.154C13.5884 339.453 13.508 340.023 13.8021 340.423L15.6517 342.952C15.9448 343.353 16.5021 343.433 16.8928 343.136L19.3683 341.25C19.7601 340.949 19.842 340.382 19.5476 339.98C19.2524 339.578 18.6962 339.497 18.3054 339.796L17.5467 340.374L20.6175 318.76L21.1857 319.537C21.4801 319.936 22.0371 320.017 22.4271 319.72C22.8221 319.419 22.9026 318.851 22.6074 318.451L20.7578 315.922C20.4665 315.521 19.9085 315.439 19.5167 315.738L17.0411 317.624Z" fill="black"/>
<path fill-rule="evenodd" clip-rule="evenodd" d="M32.1067 317.917C33.085 317.505 34.2164 317.983 34.6234 318.983L41.2487 335.324C41.423 335.763 41.9739 336.001 42.4093 335.816C42.8636 335.625 43.0783 335.094 42.891 334.632L40.5568 328.873C40.3625 328.391 40.3653 327.861 40.5607 327.373C40.7592 326.885 41.1267 326.507 41.5994 326.308C42.0677 326.108 42.5896 326.108 43.0713 326.31C43.5499 326.513 43.9185 326.889 44.1142 327.372L46.8143 334.035C47.0026 334.497 47.5174 334.718 47.9739 334.527C48.4292 334.335 48.6429 333.804 48.4556 333.342L46.7447 329.116C46.5634 328.671 46.5634 328.173 46.7485 327.719C46.9309 327.267 47.2725 326.914 47.7106 326.728C48.6182 326.345 49.673 326.787 50.049 327.718L51.9602 332.432C52.1507 332.899 52.6746 333.109 53.1208 332.924C53.5794 332.729 53.7877 332.199 53.6025 331.736L52.6787 329.459C52.3091 328.531 52.7413 327.463 53.651 327.079C54.0913 326.893 54.5758 326.891 55.0172 327.083C55.4614 327.269 55.805 327.62 55.9874 328.066L61.1577 340.934L61.2322 341.153C61.6935 343.067 61.728 345.37 61.76 347.597C61.7881 349.511 61.8165 351.335 62.0934 352.941L48.0732 358.869C45.0295 356.992 43.2494 356.226 41.8168 355.617C40.1895 354.924 39.0149 354.425 36.7077 352.649C35.6437 351.832 34.4961 350.723 33.3871 349.652C32.0322 348.346 30.7578 347.112 29.5848 346.33C28.3798 345.526 27.1335 344.059 27.2667 343.24C27.3826 342.566 28.6237 342.43 29.1525 342.403C29.759 342.368 30.4158 342.451 31.0244 342.632C31.5371 342.787 32.0209 343.011 32.4612 343.301C33.5403 344.01 37.2165 346.314 40.095 346.824C40.4538 346.884 40.751 346.893 41.0339 346.614C41.2838 346.376 41.4018 345.942 41.2585 345.617L31.0676 320.487C30.6614 319.486 31.1285 318.332 32.1067 317.917ZM36.2642 318.289C35.4813 316.365 33.3094 315.442 31.4292 316.244C29.544 317.04 28.6456 319.257 29.4242 321.182L38.9269 344.624C36.5787 343.795 34.0093 342.162 33.4191 341.775C32.8368 341.393 32.197 341.096 31.5209 340.893C30.725 340.651 29.8778 340.55 29.0576 340.589C26.2912 340.731 25.6503 342.116 25.5122 342.932C25.1766 344.963 27.3921 347.035 28.6103 347.849C29.6479 348.541 30.868 349.72 32.1638 350.968C33.3083 352.076 34.4953 353.218 35.6348 354.094C38.1222 356.009 39.4512 356.573 41.1276 357.289C42.641 357.933 44.3558 358.664 47.5322 360.654C47.6784 360.744 47.8376 360.786 47.9978 360.786C48.1085 360.786 48.2266 360.763 48.3372 360.718L63.4504 354.327C63.8555 354.155 64.079 353.709 63.9743 353.275C63.5945 351.691 63.5642 349.687 63.5319 347.565C63.4996 345.237 63.4634 342.83 62.9535 340.717C62.9114 340.538 62.8689 340.418 62.8003 340.245L57.6269 327.373C57.2653 326.478 56.5801 325.777 55.6947 325.406C54.8152 325.03 53.8451 325.03 52.9704 325.402C52.3478 325.666 51.8471 326.095 51.4753 326.614C50.5947 325.049 48.7026 324.339 47.0314 325.051C46.4249 325.31 45.9193 325.732 45.5374 326.263C45.1333 325.537 44.5208 324.963 43.7481 324.637C42.8281 324.247 41.8257 324.249 40.918 324.633C40.2792 324.901 39.7483 325.348 39.3523 325.908L36.2642 318.289ZM29.9846 312.683C28.0622 313.493 26.5653 315.026 25.7695 316.989C24.9704 318.952 24.9704 321.114 25.7695 323.08C25.9469 323.522 26.1613 323.94 26.403 324.329C26.6648 324.75 27.22 324.875 27.6283 324.605C28.0422 324.336 28.1641 323.774 27.8992 323.352C27.7108 323.05 27.5457 322.728 27.4087 322.386C26.7751 320.823 26.8222 319.143 27.4087 317.691C27.9969 316.234 29.1294 315.005 30.6649 314.356C32.151 313.731 33.7852 313.728 35.2712 314.358C36.7543 314.988 37.9108 316.169 38.5243 317.683C38.6652 318.032 38.7752 318.389 38.8497 318.744C38.9544 319.234 39.4077 319.543 39.9084 319.438C40.3849 319.332 40.6892 318.849 40.5873 318.36C40.4875 317.899 40.3466 317.442 40.1663 316.99C39.3683 315.026 37.8721 313.496 35.9512 312.683C34.0245 311.869 31.9087 311.867 29.9846 312.683ZM32.9999 337.258C31.2679 336.222 29.2489 335.934 27.3156 336.453C25.3774 336.968 23.7523 338.223 22.7396 339.988C21.7251 341.753 21.4479 343.813 21.9539 345.792C22.4577 347.772 23.6858 349.431 25.4147 350.466C25.8047 350.699 26.2067 350.891 26.6136 351.046C27.064 351.231 27.5859 350.976 27.7552 350.514C27.9273 350.048 27.6947 349.526 27.2344 349.349C26.9231 349.23 26.6139 349.083 26.3145 348.902C24.9968 348.112 24.0568 346.845 23.6706 345.337C23.2859 343.826 23.4995 342.253 24.2732 340.907C25.047 339.559 26.2863 338.601 27.7653 338.207C29.2474 337.815 30.7846 338.034 32.1013 338.822C32.4067 339.004 32.6857 339.21 32.9446 339.435C33.3203 339.763 33.8807 339.719 34.198 339.338C34.5175 338.958 34.4732 338.384 34.1014 338.057C33.7616 337.765 33.3969 337.494 32.9999 337.258ZM17.0411 317.624C16.649 317.924 16.5685 318.491 16.8598 318.891C17.1561 319.293 17.7102 319.376 18.1052 319.077L18.8627 318.499L15.7916 340.115L15.2234 339.338C14.9304 338.936 14.3752 338.853 13.9823 339.154C13.5884 339.453 13.508 340.023 13.8021 340.423L15.6517 342.952C15.9448 343.353 16.5021 343.433 16.8928 343.136L19.3683 341.25C19.7601 340.949 19.842 340.382 19.5476 339.98C19.2524 339.578 18.6962 339.497 18.3054 339.796L17.5467 340.374L20.6175 318.76L21.1857 319.537C21.4801 319.936 22.0371 320.017 22.4271 319.72C22.8221 319.419 22.9026 318.851 22.6074 318.451L20.7578 315.922C20.4665 315.521 19.9085 315.439 19.5167 315.738L17.0411 317.624Z" stroke="black" stroke-width="0.4" mask="url(#path-16-outside-1_118_1002)"/>
</g>
<rect x="0.5" y="300.5" width="75" height="75" rx="7.5" stroke="#CED3D6"/>
<path d="M100.614 351.227V345.125H101.739C102.125 344.773 102.489 344.276 102.83 343.634C103.176 342.986 103.469 342.122 103.707 341.043C103.952 339.957 104.114 338.58 104.193 336.909L104.568 329.545H114.932V345.125H116.943V351.193H114.932V347H102.625V351.227H100.614ZM104.261 345.125H112.92V331.42H106.477L106.205 336.909C106.136 338.182 106.017 339.335 105.847 340.369C105.676 341.398 105.457 342.31 105.19 343.105C104.923 343.895 104.614 344.568 104.261 345.125ZM119.864 347V333.909H125.217C126.626 333.909 127.745 334.227 128.575 334.864C129.404 335.5 129.819 336.341 129.819 337.386C129.819 338.182 129.583 338.798 129.112 339.236C128.64 339.668 128.035 339.96 127.296 340.114C127.779 340.182 128.248 340.352 128.702 340.625C129.163 340.898 129.543 341.273 129.844 341.75C130.146 342.222 130.296 342.801 130.296 343.489C130.296 344.159 130.126 344.759 129.785 345.287C129.444 345.815 128.955 346.233 128.319 346.54C127.683 346.847 126.921 347 126.035 347H119.864ZM121.773 345.159H126.035C126.728 345.159 127.271 344.994 127.663 344.665C128.055 344.335 128.251 343.886 128.251 343.318C128.251 342.642 128.055 342.111 127.663 341.724C127.271 341.332 126.728 341.136 126.035 341.136H121.773V345.159ZM121.773 339.398H125.217C125.756 339.398 126.219 339.324 126.606 339.176C126.992 339.023 127.288 338.807 127.492 338.528C127.702 338.244 127.808 337.909 127.808 337.523C127.808 336.972 127.577 336.54 127.117 336.227C126.657 335.909 126.023 335.75 125.217 335.75H121.773V339.398ZM137.193 347.307C136.364 347.307 135.611 347.151 134.935 346.838C134.259 346.52 133.722 346.062 133.324 345.466C132.926 344.864 132.727 344.136 132.727 343.284C132.727 342.534 132.875 341.926 133.17 341.46C133.466 340.989 133.861 340.619 134.355 340.352C134.849 340.085 135.395 339.886 135.991 339.756C136.594 339.619 137.199 339.511 137.807 339.432C138.602 339.33 139.247 339.253 139.741 339.202C140.241 339.145 140.605 339.051 140.832 338.92C141.065 338.79 141.182 338.562 141.182 338.239V338.17C141.182 337.33 140.952 336.676 140.491 336.21C140.037 335.744 139.347 335.511 138.42 335.511C137.46 335.511 136.707 335.722 136.162 336.142C135.616 336.562 135.233 337.011 135.011 337.489L133.102 336.807C133.443 336.011 133.898 335.392 134.466 334.949C135.04 334.5 135.665 334.187 136.341 334.011C137.023 333.83 137.693 333.739 138.352 333.739C138.773 333.739 139.256 333.79 139.801 333.892C140.352 333.989 140.884 334.19 141.395 334.497C141.912 334.804 142.341 335.267 142.682 335.886C143.023 336.506 143.193 337.335 143.193 338.375V347H141.182V345.227H141.08C140.943 345.511 140.716 345.815 140.398 346.139C140.08 346.463 139.656 346.739 139.128 346.966C138.599 347.193 137.955 347.307 137.193 347.307ZM137.5 345.5C138.295 345.5 138.966 345.344 139.511 345.031C140.063 344.719 140.477 344.315 140.756 343.821C141.04 343.327 141.182 342.807 141.182 342.261V340.42C141.097 340.523 140.909 340.616 140.619 340.702C140.335 340.781 140.006 340.852 139.631 340.915C139.261 340.972 138.901 341.023 138.548 341.068C138.202 341.108 137.92 341.142 137.705 341.17C137.182 341.239 136.693 341.349 136.239 341.503C135.79 341.651 135.426 341.875 135.148 342.176C134.875 342.472 134.739 342.875 134.739 343.386C134.739 344.085 134.997 344.614 135.514 344.972C136.037 345.324 136.699 345.5 137.5 345.5ZM153.614 347V333.909H163.91V347H161.898V335.784H155.626V347H153.614ZM171.435 347.307C170.606 347.307 169.853 347.151 169.177 346.838C168.501 346.52 167.964 346.062 167.566 345.466C167.168 344.864 166.969 344.136 166.969 343.284C166.969 342.534 167.117 341.926 167.413 341.46C167.708 340.989 168.103 340.619 168.597 340.352C169.092 340.085 169.637 339.886 170.234 339.756C170.836 339.619 171.441 339.511 172.049 339.432C172.844 339.33 173.489 339.253 173.984 339.202C174.484 339.145 174.847 339.051 175.075 338.92C175.308 338.79 175.424 338.562 175.424 338.239V338.17C175.424 337.33 175.194 336.676 174.734 336.21C174.279 335.744 173.589 335.511 172.663 335.511C171.702 335.511 170.95 335.722 170.404 336.142C169.859 336.562 169.475 337.011 169.254 337.489L167.344 336.807C167.685 336.011 168.14 335.392 168.708 334.949C169.282 334.5 169.907 334.187 170.583 334.011C171.265 333.83 171.935 333.739 172.594 333.739C173.015 333.739 173.498 333.79 174.043 333.892C174.594 333.989 175.126 334.19 175.637 334.497C176.154 334.804 176.583 335.267 176.924 335.886C177.265 336.506 177.435 337.335 177.435 338.375V347H175.424V345.227H175.322C175.185 345.511 174.958 345.815 174.64 346.139C174.322 346.463 173.898 346.739 173.37 346.966C172.842 347.193 172.197 347.307 171.435 347.307ZM171.742 345.5C172.538 345.5 173.208 345.344 173.754 345.031C174.305 344.719 174.719 344.315 174.998 343.821C175.282 343.327 175.424 342.807 175.424 342.261V340.42C175.339 340.523 175.151 340.616 174.862 340.702C174.577 340.781 174.248 340.852 173.873 340.915C173.504 340.972 173.143 341.023 172.79 341.068C172.444 341.108 172.163 341.142 171.947 341.17C171.424 341.239 170.935 341.349 170.481 341.503C170.032 341.651 169.668 341.875 169.39 342.176C169.117 342.472 168.981 342.875 168.981 343.386C168.981 344.085 169.239 344.614 169.756 344.972C170.279 345.324 170.941 345.5 171.742 345.5ZM179.947 347V345.125H180.425C180.817 345.125 181.143 345.048 181.405 344.895C181.666 344.736 181.876 344.46 182.036 344.068C182.2 343.67 182.325 343.119 182.411 342.415C182.501 341.705 182.567 340.801 182.607 339.705L182.845 333.909H191.572V347H189.561V335.784H184.754L184.55 340.455C184.504 341.528 184.408 342.474 184.26 343.293C184.118 344.105 183.899 344.787 183.604 345.338C183.314 345.889 182.928 346.304 182.445 346.582C181.962 346.861 181.357 347 180.629 347H179.947ZM197.001 338.648H200.751C202.286 338.648 203.459 339.037 204.271 339.815C205.084 340.594 205.49 341.58 205.49 342.773C205.49 343.557 205.308 344.27 204.945 344.912C204.581 345.548 204.047 346.057 203.342 346.438C202.638 346.812 201.774 347 200.751 347H195.263V333.909H197.274V345.125H200.751C201.547 345.125 202.2 344.915 202.712 344.494C203.223 344.074 203.479 343.534 203.479 342.875C203.479 342.182 203.223 341.616 202.712 341.179C202.2 340.741 201.547 340.523 200.751 340.523H197.001V338.648ZM218.847 333.909V345.125H220.688V351.227H218.677V347H208.552V333.909H210.563V345.125H216.836V333.909H218.847ZM227.638 347.307C226.809 347.307 226.056 347.151 225.38 346.838C224.704 346.52 224.167 346.062 223.769 345.466C223.371 344.864 223.173 344.136 223.173 343.284C223.173 342.534 223.32 341.926 223.616 341.46C223.911 340.989 224.306 340.619 224.8 340.352C225.295 340.085 225.84 339.886 226.437 339.756C227.039 339.619 227.644 339.511 228.252 339.432C229.048 339.33 229.692 339.253 230.187 339.202C230.687 339.145 231.05 339.051 231.278 338.92C231.511 338.79 231.627 338.562 231.627 338.239V338.17C231.627 337.33 231.397 336.676 230.937 336.21C230.482 335.744 229.792 335.511 228.866 335.511C227.906 335.511 227.153 335.722 226.607 336.142C226.062 336.562 225.678 337.011 225.457 337.489L223.548 336.807C223.888 336.011 224.343 335.392 224.911 334.949C225.485 334.5 226.11 334.187 226.786 334.011C227.468 333.83 228.138 333.739 228.798 333.739C229.218 333.739 229.701 333.79 230.246 333.892C230.798 333.989 231.329 334.19 231.84 334.497C232.357 334.804 232.786 335.267 233.127 335.886C233.468 336.506 233.638 337.335 233.638 338.375V347H231.627V345.227H231.525C231.388 345.511 231.161 345.815 230.843 346.139C230.525 346.463 230.102 346.739 229.573 346.966C229.045 347.193 228.4 347.307 227.638 347.307ZM227.945 345.5C228.741 345.5 229.411 345.344 229.957 345.031C230.508 344.719 230.923 344.315 231.201 343.821C231.485 343.327 231.627 342.807 231.627 342.261V340.42C231.542 340.523 231.354 340.616 231.065 340.702C230.781 340.781 230.451 340.852 230.076 340.915C229.707 340.972 229.346 341.023 228.994 341.068C228.647 341.108 228.366 341.142 228.15 341.17C227.627 341.239 227.138 341.349 226.684 341.503C226.235 341.651 225.871 341.875 225.593 342.176C225.32 342.472 225.184 342.875 225.184 343.386C225.184 344.085 225.442 344.614 225.96 344.972C226.482 345.324 227.144 345.5 227.945 345.5ZM242.662 350.75V345.125H243.753C244.02 344.847 244.25 344.545 244.443 344.222C244.636 343.898 244.804 343.514 244.946 343.071C245.094 342.622 245.219 342.077 245.321 341.435C245.423 340.787 245.514 340.006 245.594 339.091L246.037 333.909H254.355V345.125H256.366V350.75H254.355V347H244.673V350.75H242.662ZM246.037 345.125H252.344V335.784H247.912L247.571 339.091C247.429 340.46 247.253 341.656 247.043 342.679C246.832 343.702 246.497 344.517 246.037 345.125ZM257.877 347V345.125H258.354C258.746 345.125 259.073 345.048 259.335 344.895C259.596 344.736 259.806 344.46 259.965 344.068C260.13 343.67 260.255 343.119 260.34 342.415C260.431 341.705 260.496 340.801 260.536 339.705L260.775 333.909H269.502V347H267.491V335.784H262.684L262.479 340.455C262.434 341.528 262.337 342.474 262.19 343.293C262.048 344.105 261.829 344.787 261.533 345.338C261.244 345.889 260.857 346.304 260.374 346.582C259.891 346.861 259.286 347 258.559 347H257.877ZM281.067 347V335.75H277.59C276.806 335.75 276.19 335.932 275.741 336.295C275.292 336.659 275.067 337.159 275.067 337.795C275.067 338.42 275.269 338.912 275.673 339.27C276.082 339.628 276.641 339.807 277.352 339.807H281.579V341.682H277.352C276.465 341.682 275.701 341.526 275.059 341.213C274.417 340.901 273.923 340.455 273.576 339.875C273.229 339.29 273.056 338.597 273.056 337.795C273.056 336.989 273.238 336.295 273.602 335.716C273.965 335.136 274.485 334.69 275.161 334.378C275.843 334.065 276.653 333.909 277.59 333.909H282.977V347H281.067ZM272.34 347L276.056 340.489H278.238L274.522 347H272.34ZM292.601 343.659H294.749C294.794 344.25 295.061 344.699 295.55 345.006C296.044 345.312 296.686 345.466 297.476 345.466C298.283 345.466 298.973 345.301 299.547 344.972C300.121 344.636 300.408 344.097 300.408 343.352C300.408 342.915 300.3 342.534 300.084 342.21C299.868 341.881 299.564 341.625 299.172 341.443C298.78 341.261 298.317 341.17 297.783 341.17H295.533V339.364H297.783C298.584 339.364 299.175 339.182 299.555 338.818C299.942 338.455 300.135 338 300.135 337.455C300.135 336.869 299.928 336.401 299.513 336.048C299.098 335.69 298.51 335.511 297.749 335.511C296.982 335.511 296.342 335.685 295.831 336.031C295.32 336.372 295.05 336.812 295.021 337.352H292.908C292.93 336.648 293.146 336.026 293.555 335.486C293.964 334.94 294.521 334.514 295.226 334.207C295.93 333.895 296.737 333.739 297.646 333.739C298.567 333.739 299.365 333.901 300.041 334.224C300.723 334.543 301.249 334.977 301.618 335.528C301.993 336.074 302.18 336.693 302.18 337.386C302.18 338.125 301.973 338.722 301.558 339.176C301.143 339.631 300.624 339.955 299.999 340.148V340.284C300.493 340.318 300.922 340.477 301.286 340.761C301.655 341.04 301.942 341.406 302.146 341.861C302.351 342.31 302.453 342.807 302.453 343.352C302.453 344.148 302.24 344.841 301.814 345.432C301.388 346.017 300.803 346.472 300.058 346.795C299.314 347.114 298.464 347.273 297.51 347.273C296.584 347.273 295.754 347.122 295.021 346.821C294.288 346.514 293.706 346.091 293.274 345.551C292.848 345.006 292.624 344.375 292.601 343.659ZM306.574 351.909C306.233 351.909 305.929 351.881 305.662 351.824C305.395 351.773 305.21 351.722 305.108 351.67L305.619 349.898C306.108 350.023 306.54 350.068 306.915 350.034C307.29 350 307.622 349.832 307.912 349.531C308.207 349.236 308.477 348.756 308.722 348.091L309.097 347.068L304.256 333.909H306.438L310.051 344.341H310.188L313.801 333.909H315.983L310.426 348.909C310.176 349.585 309.866 350.145 309.497 350.588C309.128 351.037 308.699 351.369 308.21 351.585C307.727 351.801 307.182 351.909 306.574 351.909ZM325.797 344.273L330.365 333.909H332.274L326.615 347H324.979L319.422 333.909H321.297L325.797 344.273ZM320.649 333.909V347H318.638V333.909H320.649ZM330.945 347V333.909H332.956V347H330.945ZM340.49 347.307C339.661 347.307 338.908 347.151 338.232 346.838C337.555 346.52 337.018 346.062 336.621 345.466C336.223 344.864 336.024 344.136 336.024 343.284C336.024 342.534 336.172 341.926 336.467 341.46C336.763 340.989 337.158 340.619 337.652 340.352C338.146 340.085 338.692 339.886 339.288 339.756C339.891 339.619 340.496 339.511 341.104 339.432C341.899 339.33 342.544 339.253 343.038 339.202C343.538 339.145 343.902 339.051 344.129 338.92C344.362 338.79 344.479 338.562 344.479 338.239V338.17C344.479 337.33 344.249 336.676 343.788 336.21C343.334 335.744 342.643 335.511 341.717 335.511C340.757 335.511 340.004 335.722 339.459 336.142C338.913 336.562 338.53 337.011 338.308 337.489L336.399 336.807C336.74 336.011 337.195 335.392 337.763 334.949C338.337 334.5 338.962 334.187 339.638 334.011C340.32 333.83 340.99 333.739 341.649 333.739C342.07 333.739 342.553 333.79 343.098 333.892C343.649 333.989 344.18 334.19 344.692 334.497C345.209 334.804 345.638 335.267 345.979 335.886C346.32 336.506 346.49 337.335 346.49 338.375V347H344.479V345.227H344.376C344.24 345.511 344.013 345.815 343.695 346.139C343.376 346.463 342.953 346.739 342.425 346.966C341.896 347.193 341.251 347.307 340.49 347.307ZM340.797 345.5C341.592 345.5 342.263 345.344 342.808 345.031C343.359 344.719 343.774 344.315 344.053 343.821C344.337 343.327 344.479 342.807 344.479 342.261V340.42C344.393 340.523 344.206 340.616 343.916 340.702C343.632 340.781 343.303 340.852 342.928 340.915C342.558 340.972 342.197 341.023 341.845 341.068C341.499 341.108 341.217 341.142 341.001 341.17C340.479 341.239 339.99 341.349 339.536 341.503C339.087 341.651 338.723 341.875 338.445 342.176C338.172 342.472 338.036 342.875 338.036 343.386C338.036 344.085 338.294 344.614 338.811 344.972C339.334 345.324 339.996 345.5 340.797 345.5Z" fill="#1F1F1F"/>
<g clip-path="url(#clip5_118_1002)">
<path d="M25.9603 441.461L25.9602 441.461C24.9972 440.475 23.666 440.053 22.3733 440.088C21.0811 440.123 19.8218 440.614 19.001 441.461C18.1839 442.304 17.5088 443.574 17.3298 444.935C17.1507 446.298 17.4689 447.754 18.641 448.964L18.6411 448.964L32.2463 462.913L32.2465 462.913C32.5316 463.202 32.8424 463.442 33.168 463.651C34.4109 464.697 35.7468 465.53 37.525 466.102C39.3035 466.675 41.5222 466.984 44.5293 466.984C51.4026 466.984 55.1724 465.07 57.2189 461.96C59.2619 458.856 59.5785 454.572 59.5785 449.858V439.876V439.876C59.5733 437.081 57.585 434.819 54.8631 434.819H54.7345C53.7995 434.819 53.0331 435.091 52.2926 435.552C51.6199 433.597 49.9536 432.196 47.8111 432.196C46.8774 432.196 45.9885 432.467 45.2456 432.929C44.5728 430.979 42.9066 429.573 40.7641 429.573C39.9516 429.573 39.1925 429.778 38.5149 430.134V425.158C38.5149 422.378 36.4743 420.117 33.7532 420.117C31.0343 420.117 28.8321 422.376 28.8321 425.158V444.415L25.9603 441.461ZM20.9708 443.824L20.9709 443.824C21.426 443.354 22.0738 443.109 22.7197 443.095C23.3655 443.082 24.0045 443.3 24.4432 443.75L24.479 443.715L24.4432 443.75L24.4433 443.75L24.4436 443.75L24.4448 443.752L24.4497 443.757L24.469 443.777L24.544 443.854L24.8265 444.144L25.816 445.16C26.6242 445.989 27.676 447.069 28.6508 448.067C29.3863 448.823 30.0782 449.534 30.5861 450.055L31.1926 450.676L31.3596 450.847L31.4033 450.892L31.4144 450.904L31.4172 450.907L31.4179 450.907L31.4181 450.907L31.4182 450.907L31.454 450.873L31.4182 450.907L31.504 450.995V450.873V425.678C31.504 424.399 32.5165 423.365 33.7635 423.365C35.0058 423.365 35.8584 424.393 35.8584 425.678V441.703V441.753H35.8752C35.8649 441.822 35.8584 441.895 35.8584 441.968C35.8584 442.722 36.4559 443.33 37.1892 443.33C37.9279 443.33 38.52 442.717 38.52 441.968C38.52 441.895 38.5135 441.822 38.5032 441.753H38.52V441.703V435.135C38.52 433.852 39.4226 432.822 40.6664 432.822L40.6671 432.822L40.6673 432.822L40.6683 432.822L40.6727 432.822L40.6907 432.822C40.7066 432.822 40.7302 432.823 40.7603 432.825C40.8207 432.829 40.9072 432.837 41.0112 432.854C41.2194 432.888 41.4962 432.957 41.7725 433.1C42.0485 433.242 42.3234 433.457 42.5294 433.782C42.7354 434.107 42.8745 434.544 42.8745 435.135V443.805V443.855H42.8913C42.881 443.925 42.8745 443.998 42.8745 444.071C42.8745 444.825 43.472 445.432 44.2053 445.432C44.944 445.432 45.5361 444.819 45.5361 444.071C45.5361 443.997 45.5294 443.927 45.519 443.855H45.5361V443.805V437.763C45.5361 436.48 46.4229 435.451 47.6653 435.45L47.6696 435.451L47.6881 435.452C47.6966 435.453 47.7072 435.454 47.7198 435.456C47.7285 435.457 47.7381 435.458 47.7486 435.459C47.7521 435.459 47.7557 435.46 47.7594 435.46C47.8212 435.469 47.9097 435.483 48.0161 435.507C48.2291 435.555 48.5125 435.641 48.7953 435.795C49.3589 436.102 49.9214 436.678 49.9214 437.763V445.382V445.432H49.9382C49.9279 445.502 49.9214 445.574 49.9214 445.643C49.9214 446.397 50.5189 447.004 51.2522 447.004C51.9925 447.004 52.5521 446.389 52.5521 445.643C52.5521 445.57 52.5457 445.5 52.5354 445.432H52.5521V445.382V440.179C52.5521 438.897 53.4847 437.866 54.7294 437.866L54.7315 437.866L54.7315 437.866L54.7317 437.866L54.7327 437.866L54.737 437.866L54.7548 437.866C54.7705 437.866 54.7937 437.866 54.8235 437.867C54.8831 437.869 54.9685 437.875 55.0712 437.889C55.2768 437.918 55.5502 437.982 55.8229 438.12C56.0954 438.258 56.3669 438.471 56.5705 438.799C56.7741 439.127 56.9118 439.572 56.9118 440.179H56.9618L56.9118 440.179V440.179V440.18V440.18V440.181V440.182V440.183V440.184V440.186V440.187V440.189V440.191V440.193V440.196V440.198V440.201V440.203V440.206V440.209V440.213V440.216V440.22V440.223V440.227V440.231V440.236V440.24V440.244V440.249V440.254V440.259V440.264V440.269V440.275V440.281V440.286V440.292V440.298V440.304V440.311V440.317V440.324V440.331V440.338V440.345V440.352V440.36V440.367V440.375V440.383V440.391V440.399V440.407V440.415V440.424V440.433V440.442V440.45V440.46V440.469V440.478V440.488V440.497V440.507V440.517V440.527V440.537V440.548V440.558V440.569V440.58V440.59V440.601V440.613V440.624V440.635V440.647V440.658V440.67V440.682V440.694V440.706V440.718V440.731V440.743V440.756V440.769V440.782V440.795V440.808V440.821V440.834V440.848V440.862V440.875V440.889V440.903V440.917V440.931V440.946V440.96V440.975V440.989V441.004V441.019V441.034V441.049V441.064V441.08V441.095V441.111V441.126V441.142V441.158V441.174V441.19V441.206V441.222V441.239V441.255V441.272V441.289V441.305V441.322V441.339V441.356V441.374V441.391V441.408V441.426V441.443V441.461V441.479V441.497V441.515V441.533V441.551V441.569V441.588V441.606V441.625V441.643V441.662V441.681V441.7V441.719V441.738V441.757V441.776V441.796V441.815V441.835V441.854V441.874V441.894V441.913V441.933V441.953V441.973V441.994V442.014V442.034V442.055V442.075V442.096V442.116V442.137V442.158V442.179V442.2V442.221V442.242V442.263V442.284V442.305V442.327V442.348V442.37V442.391V442.413V442.435V442.457V442.478V442.5V442.522V442.544V442.567V442.589V442.611V442.633V442.656V442.678V442.701V442.723V442.746V442.769V442.791V442.814V442.837V442.86V442.883V442.906V442.929V442.952V442.975V442.999V443.022V443.045V443.069V443.092V443.116V443.139V443.163V443.186V443.21V443.234V443.258V443.282V443.305V443.329V443.353V443.377V443.401V443.426V443.45V443.474V443.498V443.522V443.547V443.571V443.596V443.62V443.645V443.669V443.694V443.718V443.743V443.767V443.792V443.817V443.842V443.867V443.891V443.916V443.941V443.966V443.991V444.016V444.041V444.066V444.091V444.116V444.141V444.166V444.192V444.217V444.242V444.267V444.293V444.318V444.343V444.369V444.394V444.419V444.445V444.47V444.496V444.521V444.547V444.572V444.598V444.623V444.649V444.674V444.7V444.725V444.751V444.776V444.802V444.828V444.853V444.879V444.905V444.93V444.956V444.982V445.007V445.033V445.059V445.084V445.11V445.136V445.162V445.187V445.213V445.239V445.264V445.29V445.316V445.342V445.367V445.393V445.419V445.445V445.47V445.496V445.522V445.547V445.573V445.599V445.624V445.65V445.676V445.701V445.727V445.753V445.778V445.804V445.83V445.855V445.881V445.906V445.932V445.957V445.983V446.008V446.034V446.059V446.085V446.11V446.136V446.161V446.186V446.212V446.237V446.262V446.288V446.313V446.338V446.363V446.389V446.414V446.439V446.464V446.489V446.514V446.539V446.564V446.589V446.614V446.639V446.664V446.689V446.714V446.739V446.763V446.788V446.813V446.837V446.862V446.887V446.911V446.936V446.96V446.985V447.009V447.033V447.058V447.082V447.106V447.13V447.155V447.179V447.203V447.227V447.251V447.275V447.299V447.323V447.346V447.37V447.394V447.417V447.441V447.465V447.488V447.512V447.535V447.558V447.582V447.605V447.628V447.651V447.674V447.697V447.72V447.743V447.766V447.789V447.811V447.834V447.857V447.879V447.902V447.924V447.947V447.969V447.991V448.013V448.035V448.058V448.08V448.101V448.123V448.145V448.167V448.188V448.21V448.232V448.253V448.274V448.296V448.317V448.338V448.359V448.38V448.401V448.422V448.443V448.463V448.484V448.505V448.525V448.546V448.566V448.586V448.606V448.626V448.646V448.666V448.686V448.706V448.725V448.745V448.765V448.784V448.803V448.823V448.842V448.861V448.88V448.899V448.917V448.936V448.955V448.973V448.992V449.01V449.028V449.046V449.065V449.083V449.1V449.118V449.136V449.153V449.171V449.188V449.206V449.223V449.24V449.257V449.274V449.291V449.307V449.324V449.34V449.357V449.373V449.389V449.405V449.421V449.437V449.453V449.468V449.484V449.499V449.515V449.53V449.545V449.56V449.575V449.59V449.604V449.619V449.633V449.647V449.662V449.676V449.69V449.704V449.717V449.731V449.744V449.758V449.771V449.784V449.797V449.81V449.823V449.835V449.848C56.9118 451.844 56.9095 453.741 56.7127 455.466C56.5159 457.191 56.1251 458.74 55.3506 460.039C53.8047 462.631 50.7175 464.245 44.5242 464.245C39.281 464.245 36.1427 463.037 33.7632 460.602L20.8886 447.397C20.3273 446.818 20.1192 446.161 20.1644 445.533C20.2098 444.903 20.5097 444.298 20.9708 443.824ZM26.9496 432.628L27.034 432.708V432.591V428.179V428.169L27.0299 428.159C26.6262 427.225 26.3962 426.191 26.3962 425.099C26.3962 420.941 29.6622 417.573 33.6863 417.573C37.7105 417.573 40.9765 420.941 40.9765 425.099C40.9765 425.669 40.9101 426.218 40.7925 426.751L40.7796 426.809L40.8393 426.811C41.7468 426.848 42.5679 427.235 43.1661 427.863L43.2272 427.927L43.2505 427.842C43.4881 426.967 43.6278 426.055 43.6278 425.099V425.099C43.6226 419.434 39.173 414.839 33.6812 414.839C28.1894 414.839 23.7398 419.434 23.7398 425.099C23.7398 428.076 24.9802 430.755 26.9496 432.628Z" fill="black" stroke="black" stroke-width="0.1"/>
</g>
<rect x="0.5" y="400.5" width="75" height="75" rx="7.5" stroke="#CED3D6"/>
<path d="M108.676 447.36C106.956 447.36 105.504 446.98 104.32 446.22C103.136 445.452 102.24 444.392 101.632 443.04C101.024 441.688 100.72 440.128 100.72 438.36C100.72 436.592 101.024 435.032 101.632 433.68C102.24 432.328 103.136 431.272 104.32 430.512C105.504 429.744 106.956 429.36 108.676 429.36C110.404 429.36 111.856 429.744 113.032 430.512C114.216 431.272 115.112 432.328 115.72 433.68C116.336 435.032 116.644 436.592 116.644 438.36C116.644 440.128 116.336 441.688 115.72 443.04C115.112 444.392 114.216 445.452 113.032 446.22C111.856 446.98 110.404 447.36 108.676 447.36ZM108.676 445.668C110.028 445.668 111.156 445.36 112.06 444.744C112.964 444.128 113.64 443.272 114.088 442.176C114.544 441.072 114.772 439.8 114.772 438.36C114.772 436.92 114.544 435.652 114.088 434.556C113.64 433.46 112.964 432.604 112.06 431.988C111.156 431.372 110.028 431.06 108.676 431.052C107.324 431.052 106.2 431.36 105.304 431.976C104.408 432.592 103.732 433.452 103.276 434.556C102.828 435.652 102.6 436.92 102.592 438.36C102.584 439.8 102.804 441.068 103.252 442.164C103.708 443.252 104.388 444.108 105.292 444.732C106.196 445.348 107.324 445.66 108.676 445.668ZM118.087 449.88V445.488C118.823 445.488 119.351 445.252 119.671 444.78C119.991 444.3 120.251 443.536 120.451 442.488C120.587 441.808 120.699 441.076 120.787 440.292C120.875 439.508 120.951 438.612 121.015 437.604C121.079 436.588 121.139 435.4 121.195 434.04H129.763V445.488H131.011V449.88H129.307V447H119.779V449.88H118.087ZM121.075 445.488H128.011V435.552H122.827C122.803 436.16 122.767 436.804 122.719 437.484C122.679 438.164 122.627 438.844 122.563 439.524C122.507 440.204 122.439 440.844 122.359 441.444C122.287 442.036 122.199 442.556 122.095 443.004C121.975 443.58 121.843 444.072 121.699 444.48C121.563 444.888 121.355 445.224 121.075 445.488ZM143.71 434.04V447H141.994V436.908L134.89 447H133.402V434.04H135.118V444.048L142.234 434.04H143.71ZM147.066 447V434.04H148.83V439.668H156.138V434.04H157.902V447H156.138V441.36H148.83V447H147.066ZM166.051 447V434.04H176.359V447H174.595V435.732H167.815V447H166.051ZM183.435 447.36C182.459 447.36 181.639 447.184 180.975 446.832C180.319 446.48 179.827 446.012 179.499 445.428C179.171 444.844 179.007 444.208 179.007 443.52C179.007 442.816 179.147 442.216 179.427 441.72C179.715 441.216 180.103 440.804 180.591 440.484C181.087 440.164 181.659 439.92 182.307 439.752C182.963 439.592 183.687 439.452 184.479 439.332C185.279 439.204 186.059 439.096 186.819 439.008C187.587 438.912 188.259 438.82 188.835 438.732L188.211 439.116C188.235 437.836 187.987 436.888 187.467 436.272C186.947 435.656 186.043 435.348 184.755 435.348C183.867 435.348 183.115 435.548 182.499 435.948C181.891 436.348 181.463 436.98 181.215 437.844L179.499 437.34C179.795 436.18 180.391 435.28 181.287 434.64C182.183 434 183.347 433.68 184.779 433.68C185.963 433.68 186.967 433.904 187.791 434.352C188.623 434.792 189.211 435.432 189.555 436.272C189.715 436.648 189.819 437.068 189.867 437.532C189.915 437.996 189.939 438.468 189.939 438.948V447H188.367V443.748L188.823 443.94C188.383 445.052 187.699 445.9 186.771 446.484C185.843 447.068 184.731 447.36 183.435 447.36ZM183.639 445.836C184.463 445.836 185.183 445.688 185.799 445.392C186.415 445.096 186.911 444.692 187.287 444.18C187.663 443.66 187.907 443.076 188.019 442.428C188.115 442.012 188.167 441.556 188.175 441.06C188.183 440.556 188.187 440.18 188.187 439.932L188.859 440.28C188.259 440.36 187.607 440.44 186.903 440.52C186.207 440.6 185.519 440.692 184.839 440.796C184.167 440.9 183.559 441.024 183.015 441.168C182.647 441.272 182.291 441.42 181.947 441.612C181.603 441.796 181.319 442.044 181.095 442.356C180.879 442.668 180.771 443.056 180.771 443.52C180.771 443.896 180.863 444.26 181.047 444.612C181.239 444.964 181.543 445.256 181.959 445.488C182.383 445.72 182.943 445.836 183.639 445.836ZM191.863 447V445.452C192.343 445.54 192.707 445.52 192.955 445.392C193.211 445.256 193.399 445.032 193.519 444.72C193.639 444.4 193.739 444.004 193.819 443.532C193.947 442.748 194.063 441.884 194.167 440.94C194.271 439.996 194.363 438.956 194.443 437.82C194.531 436.676 194.619 435.416 194.707 434.04H203.515V447H201.763V435.732H196.339C196.283 436.58 196.219 437.424 196.147 438.264C196.075 439.104 195.999 439.912 195.919 440.688C195.847 441.456 195.767 442.164 195.679 442.812C195.591 443.46 195.499 444.02 195.403 444.492C195.259 445.204 195.067 445.772 194.827 446.196C194.595 446.62 194.247 446.9 193.783 447.036C193.319 447.172 192.679 447.16 191.863 447ZM212.352 447.36C211.088 447.36 209.992 447.08 209.064 446.52C208.144 445.96 207.428 445.172 206.916 444.156C206.404 443.14 206.148 441.948 206.148 440.58C206.148 439.164 206.4 437.94 206.904 436.908C207.408 435.876 208.116 435.08 209.028 434.52C209.948 433.96 211.032 433.68 212.28 433.68C213.56 433.68 214.652 433.976 215.556 434.568C216.46 435.152 217.144 435.992 217.608 437.088C218.072 438.184 218.284 439.492 218.244 441.012H216.444V440.388C216.412 438.708 216.048 437.44 215.352 436.584C214.664 435.728 213.656 435.3 212.328 435.3C210.936 435.3 209.868 435.752 209.124 436.656C208.388 437.56 208.02 438.848 208.02 440.52C208.02 442.152 208.388 443.42 209.124 444.324C209.868 445.22 210.92 445.668 212.28 445.668C213.208 445.668 214.016 445.456 214.704 445.032C215.4 444.6 215.948 443.98 216.348 443.172L217.992 443.808C217.48 444.936 216.724 445.812 215.724 446.436C214.732 447.052 213.608 447.36 212.352 447.36ZM207.396 441.012V439.536H217.296V441.012H207.396ZM232.043 449.244V447H220.895V434.04H222.659V445.308H229.439V434.04H231.203V445.368H233.807V449.244H232.043ZM239.564 449.88V445.488C240.3 445.488 240.828 445.252 241.148 444.78C241.468 444.3 241.728 443.536 241.928 442.488C242.064 441.808 242.176 441.076 242.264 440.292C242.352 439.508 242.428 438.612 242.492 437.604C242.556 436.588 242.616 435.4 242.672 434.04H251.24V445.488H252.488V449.88H250.784V447H241.256V449.88H239.564ZM242.552 445.488H249.488V435.552H244.304C244.28 436.16 244.244 436.804 244.196 437.484C244.156 438.164 244.104 438.844 244.04 439.524C243.984 440.204 243.916 440.844 243.836 441.444C243.764 442.036 243.676 442.556 243.572 443.004C243.452 443.58 243.32 444.072 243.176 444.48C243.04 444.888 242.832 445.224 242.552 445.488ZM253.691 447V445.452C254.171 445.54 254.535 445.52 254.783 445.392C255.039 445.256 255.227 445.032 255.347 444.72C255.467 444.4 255.567 444.004 255.647 443.532C255.775 442.748 255.891 441.884 255.995 440.94C256.099 439.996 256.191 438.956 256.271 437.82C256.359 436.676 256.447 435.416 256.535 434.04H265.343V447H263.591V435.732H258.167C258.111 436.58 258.047 437.424 257.975 438.264C257.903 439.104 257.827 439.912 257.747 440.688C257.675 441.456 257.595 442.164 257.507 442.812C257.419 443.46 257.327 444.02 257.231 444.492C257.087 445.204 256.895 445.772 256.655 446.196C256.423 446.62 256.075 446.9 255.611 447.036C255.147 447.172 254.507 447.16 253.691 447ZM276.82 447V442.116H273.796C273.444 442.116 273.08 442.104 272.704 442.08C272.336 442.048 271.992 442.004 271.672 441.948C270.76 441.772 269.984 441.372 269.344 440.748C268.712 440.116 268.396 439.244 268.396 438.132C268.396 437.044 268.692 436.172 269.284 435.516C269.876 434.852 270.592 434.42 271.432 434.22C271.816 434.132 272.204 434.08 272.596 434.064C272.996 434.048 273.34 434.04 273.628 434.04H278.584L278.596 447H276.82ZM267.976 447L271.588 441.564H273.544L269.908 447H267.976ZM273.7 440.604H276.82V435.552H273.7C273.508 435.552 273.24 435.56 272.896 435.576C272.552 435.592 272.228 435.644 271.924 435.732C271.66 435.812 271.396 435.952 271.132 436.152C270.876 436.344 270.66 436.604 270.484 436.932C270.308 437.252 270.22 437.644 270.22 438.108C270.22 438.756 270.396 439.276 270.748 439.668C271.108 440.052 271.556 440.316 272.092 440.46C272.38 440.524 272.668 440.564 272.956 440.58C273.244 440.596 273.492 440.604 273.7 440.604ZM292.178 447.36C290.89 447.36 289.79 447.068 288.878 446.484C287.966 445.9 287.266 445.092 286.778 444.06C286.29 443.028 286.046 441.844 286.046 440.508C286.046 439.148 286.294 437.956 286.79 436.932C287.286 435.908 287.99 435.112 288.902 434.544C289.822 433.968 290.914 433.68 292.178 433.68C293.474 433.68 294.578 433.972 295.49 434.556C296.41 435.132 297.11 435.936 297.59 436.968C298.078 437.992 298.322 439.172 298.322 440.508C298.322 441.868 298.078 443.064 297.59 444.096C297.102 445.12 296.398 445.92 295.478 446.496C294.558 447.072 293.458 447.36 292.178 447.36ZM292.178 445.668C293.618 445.668 294.69 445.192 295.394 444.24C296.098 443.28 296.45 442.036 296.45 440.508C296.45 438.94 296.094 437.692 295.382 436.764C294.678 435.836 293.61 435.372 292.178 435.372C291.21 435.372 290.41 435.592 289.778 436.032C289.154 436.464 288.686 437.068 288.374 437.844C288.07 438.612 287.918 439.5 287.918 440.508C287.918 442.068 288.278 443.32 288.998 444.264C289.718 445.2 290.778 445.668 292.178 445.668ZM306.165 447.372C304.957 447.364 303.921 447.1 303.057 446.58C302.193 446.06 301.521 445.284 301.041 444.252C300.569 443.22 300.313 441.932 300.273 440.388C300.249 439.708 300.265 438.968 300.321 438.168C300.377 437.36 300.465 436.592 300.585 435.864C300.705 435.136 300.849 434.544 301.017 434.088C301.225 433.496 301.521 432.944 301.905 432.432C302.297 431.912 302.749 431.488 303.261 431.16C303.757 430.824 304.317 430.564 304.941 430.38C305.573 430.188 306.229 430.04 306.909 429.936C307.597 429.832 308.277 429.74 308.949 429.66C309.629 429.58 310.257 429.48 310.833 429.36L311.025 430.956C310.585 431.044 310.065 431.124 309.465 431.196C308.865 431.268 308.237 431.356 307.581 431.46C306.925 431.556 306.297 431.688 305.697 431.856C305.097 432.024 304.585 432.244 304.161 432.516C303.513 432.908 303.013 433.5 302.661 434.292C302.317 435.084 302.105 435.992 302.025 437.016C302.521 436.24 303.177 435.656 303.993 435.264C304.817 434.872 305.709 434.676 306.669 434.676C307.837 434.676 308.841 434.944 309.681 435.48C310.529 436.016 311.181 436.76 311.637 437.712C312.093 438.664 312.321 439.756 312.321 440.988C312.321 442.276 312.069 443.4 311.565 444.36C311.069 445.32 310.361 446.064 309.441 446.592C308.521 447.112 307.429 447.372 306.165 447.372ZM306.297 445.68C307.657 445.68 308.689 445.256 309.393 444.408C310.105 443.56 310.461 442.432 310.461 441.024C310.461 439.584 310.093 438.448 309.357 437.616C308.629 436.784 307.601 436.368 306.273 436.368C304.945 436.368 303.925 436.784 303.213 437.616C302.501 438.448 302.145 439.584 302.145 441.024C302.145 442.464 302.501 443.6 303.213 444.432C303.925 445.264 304.953 445.68 306.297 445.68ZM319.395 447.36C318.091 447.36 316.951 447.076 315.975 446.508C315.007 445.932 314.243 445.136 313.683 444.12L315.099 443.22C315.571 444.02 316.159 444.628 316.863 445.044C317.567 445.46 318.375 445.668 319.287 445.668C320.239 445.668 321.003 445.448 321.579 445.008C322.155 444.568 322.443 443.964 322.443 443.196C322.443 442.668 322.319 442.248 322.071 441.936C321.831 441.624 321.463 441.4 320.967 441.264C320.479 441.128 319.867 441.06 319.131 441.06H317.595V439.548H319.107C320.003 439.548 320.723 439.388 321.267 439.068C321.819 438.74 322.095 438.228 322.095 437.532C322.095 436.796 321.819 436.252 321.267 435.9C320.723 435.54 320.071 435.36 319.311 435.36C318.543 435.36 317.815 435.52 317.127 435.84C316.447 436.152 315.875 436.556 315.411 437.052L314.283 435.864C314.931 435.152 315.687 434.612 316.551 434.244C317.423 433.868 318.387 433.68 319.443 433.68C320.275 433.68 321.027 433.828 321.699 434.124C322.379 434.412 322.915 434.836 323.307 435.396C323.707 435.956 323.907 436.628 323.907 437.412C323.907 438.148 323.727 438.784 323.367 439.32C323.015 439.856 322.515 440.3 321.867 440.652L321.771 439.992C322.331 440.096 322.795 440.32 323.163 440.664C323.531 441.008 323.803 441.42 323.979 441.9C324.155 442.38 324.243 442.868 324.243 443.364C324.243 444.188 324.027 444.9 323.595 445.5C323.171 446.092 322.591 446.552 321.855 446.88C321.127 447.2 320.307 447.36 319.395 447.36ZM332.303 447.36C331.015 447.36 329.915 447.068 329.003 446.484C328.091 445.9 327.391 445.092 326.903 444.06C326.415 443.028 326.171 441.844 326.171 440.508C326.171 439.148 326.419 437.956 326.915 436.932C327.411 435.908 328.115 435.112 329.027 434.544C329.947 433.968 331.039 433.68 332.303 433.68C333.599 433.68 334.703 433.972 335.615 434.556C336.535 435.132 337.235 435.936 337.715 436.968C338.203 437.992 338.447 439.172 338.447 440.508C338.447 441.868 338.203 443.064 337.715 444.096C337.227 445.12 336.523 445.92 335.603 446.496C334.683 447.072 333.583 447.36 332.303 447.36ZM332.303 445.668C333.743 445.668 334.815 445.192 335.519 444.24C336.223 443.28 336.575 442.036 336.575 440.508C336.575 438.94 336.219 437.692 335.507 436.764C334.803 435.836 333.735 435.372 332.303 435.372C331.335 435.372 330.535 435.592 329.903 436.032C329.279 436.464 328.811 437.068 328.499 437.844C328.195 438.612 328.043 439.5 328.043 440.508C328.043 442.068 328.403 443.32 329.123 444.264C329.843 445.2 330.903 445.668 332.303 445.668ZM346.914 447.36C345.722 447.36 344.714 447.06 343.89 446.46C343.066 445.852 342.442 445.032 342.018 444C341.594 442.96 341.382 441.796 341.382 440.508C341.382 439.196 341.594 438.028 342.018 437.004C342.45 435.972 343.082 435.16 343.914 434.568C344.746 433.976 345.77 433.68 346.986 433.68C348.17 433.68 349.186 433.98 350.034 434.58C350.882 435.18 351.53 435.996 351.978 437.028C352.434 438.06 352.662 439.22 352.662 440.508C352.662 441.804 352.434 442.968 351.978 444C351.522 445.032 350.866 445.852 350.01 446.46C349.154 447.06 348.122 447.36 346.914 447.36ZM341.082 452.76V434.04H342.666V443.796H342.858V452.76H341.082ZM346.734 445.716C347.638 445.716 348.39 445.488 348.99 445.032C349.59 444.576 350.038 443.956 350.334 443.172C350.638 442.38 350.79 441.492 350.79 440.508C350.79 439.532 350.642 438.652 350.346 437.868C350.05 437.084 349.598 436.464 348.99 436.008C348.39 435.552 347.626 435.324 346.698 435.324C345.794 435.324 345.042 435.544 344.442 435.984C343.85 436.424 343.406 437.036 343.11 437.82C342.814 438.596 342.666 439.492 342.666 440.508C342.666 441.508 342.814 442.404 343.11 443.196C343.406 443.98 343.854 444.596 344.454 445.044C345.054 445.492 345.814 445.716 346.734 445.716ZM359.005 447.36C358.029 447.36 357.209 447.184 356.545 446.832C355.889 446.48 355.397 446.012 355.069 445.428C354.741 444.844 354.577 444.208 354.577 443.52C354.577 442.816 354.717 442.216 354.997 441.72C355.285 441.216 355.673 440.804 356.161 440.484C356.657 440.164 357.229 439.92 357.877 439.752C358.533 439.592 359.257 439.452 360.049 439.332C360.849 439.204 361.629 439.096 362.389 439.008C363.157 438.912 363.829 438.82 364.405 438.732L363.781 439.116C363.805 437.836 363.557 436.888 363.037 436.272C362.517 435.656 361.613 435.348 360.325 435.348C359.437 435.348 358.685 435.548 358.069 435.948C357.461 436.348 357.033 436.98 356.785 437.844L355.069 437.34C355.365 436.18 355.961 435.28 356.857 434.64C357.753 434 358.917 433.68 360.349 433.68C361.533 433.68 362.537 433.904 363.361 434.352C364.193 434.792 364.781 435.432 365.125 436.272C365.285 436.648 365.389 437.068 365.437 437.532C365.485 437.996 365.509 438.468 365.509 438.948V447H363.937V443.748L364.393 443.94C363.953 445.052 363.269 445.9 362.341 446.484C361.413 447.068 360.301 447.36 359.005 447.36ZM359.209 445.836C360.033 445.836 360.753 445.688 361.369 445.392C361.985 445.096 362.481 444.692 362.857 444.18C363.233 443.66 363.477 443.076 363.589 442.428C363.685 442.012 363.737 441.556 363.745 441.06C363.753 440.556 363.757 440.18 363.757 439.932L364.429 440.28C363.829 440.36 363.177 440.44 362.473 440.52C361.777 440.6 361.089 440.692 360.409 440.796C359.737 440.9 359.129 441.024 358.585 441.168C358.217 441.272 357.861 441.42 357.517 441.612C357.173 441.796 356.889 442.044 356.665 442.356C356.449 442.668 356.341 443.056 356.341 443.52C356.341 443.896 356.433 444.26 356.617 444.612C356.809 444.964 357.113 445.256 357.529 445.488C357.953 445.72 358.513 445.836 359.209 445.836Z" fill="#1F1F1F"/>
<defs>
<clipPath id="clip0_118_1002">
<rect width="54" height="54" fill="white" transform="translate(11 11)"/>
</clipPath>
<clipPath id="clip1_118_1002">
<rect width="54" height="54" fill="white" transform="translate(11 11)"/>
</clipPath>
<clipPath id="clip2_118_1002">
<rect width="53" height="54" fill="white" transform="translate(64.5 165) rotate(-180)"/>
</clipPath>
<clipPath id="clip3_118_1002">
<rect width="53" height="54" fill="white" transform="translate(64.5 265) rotate(-180)"/>
</clipPath>
<clipPath id="clip4_118_1002">
<rect width="52" height="55" fill="white" transform="translate(12 310.5)"/>
</clipPath>
<clipPath id="clip5_118_1002">
<rect width="62" height="64" fill="white" transform="translate(7 406)"/>
</clipPath>
</defs>
</svg>
