<svg width="450" height="356" viewBox="0 0 450 356" fill="none" xmlns="http://www.w3.org/2000/svg">
<path d="M28 33V19" stroke="#002336" stroke-width="2" stroke-linecap="round" stroke-linejoin="round"/>
<path d="M21 26L28 19L35 26" stroke="#002336" stroke-width="2" stroke-linecap="round" stroke-linejoin="round"/>
<rect x="0.5" y="0.5" width="55" height="51" rx="7.5" stroke="#CED3D6"/>
<path d="M90.5462 33L86.8516 19.9091H89.402L91.7607 29.5291H91.8821L94.4006 19.9091H96.7209L99.2457 29.5355H99.3608L101.719 19.9091H104.27L100.575 33H98.2358L95.6151 23.8146H95.5128L92.8857 33H90.5462Z" fill="#002336"/>
<rect x="68.5" y="0.5" width="55" height="51" rx="7.5" stroke="#CED3D6"/>
<path d="M149.4 34V19.6H150.87V26.4L157.44 19.6H159.32L152.61 26.55L159.87 34H157.95L150.87 26.8V34H149.4ZM165.044 34.3C163.991 34.3 163.078 34.0667 162.304 33.6C161.538 33.1333 160.941 32.4767 160.514 31.63C160.088 30.7833 159.874 29.79 159.874 28.65C159.874 27.47 160.084 26.45 160.504 25.59C160.924 24.73 161.514 24.0667 162.274 23.6C163.041 23.1333 163.944 22.9 164.984 22.9C166.051 22.9 166.961 23.1467 167.714 23.64C168.468 24.1267 169.038 24.8267 169.424 25.74C169.811 26.6533 169.988 27.7433 169.954 29.01H168.454V28.49C168.428 27.09 168.124 26.0333 167.544 25.32C166.971 24.6067 166.131 24.25 165.024 24.25C163.864 24.25 162.974 24.6267 162.354 25.38C161.741 26.1333 161.434 27.2067 161.434 28.6C161.434 29.96 161.741 31.0167 162.354 31.77C162.974 32.5167 163.851 32.89 164.984 32.89C165.758 32.89 166.431 32.7133 167.004 32.36C167.584 32 168.041 31.4833 168.374 30.81L169.744 31.34C169.318 32.28 168.688 33.01 167.854 33.53C167.028 34.0433 166.091 34.3 165.044 34.3ZM160.914 29.01V27.78H169.164V29.01H160.914ZM173.518 38.8L175.608 33.13L175.638 34.81L170.908 23.2H172.468L176.348 32.91H175.708L179.288 23.2H180.788L174.988 38.8H173.518ZM186.555 34.29C185.288 34.29 184.245 34.0167 183.425 33.47C182.612 32.9233 182.112 32.1633 181.925 31.19L183.425 30.94C183.585 31.5533 183.948 32.0433 184.515 32.41C185.088 32.77 185.795 32.95 186.635 32.95C187.455 32.95 188.102 32.78 188.575 32.44C189.048 32.0933 189.285 31.6233 189.285 31.03C189.285 30.6967 189.208 30.4267 189.055 30.22C188.908 30.0067 188.605 29.81 188.145 29.63C187.685 29.45 186.998 29.2367 186.085 28.99C185.105 28.7233 184.338 28.4567 183.785 28.19C183.232 27.9233 182.838 27.6167 182.605 27.27C182.372 26.9167 182.255 26.4867 182.255 25.98C182.255 25.3667 182.428 24.83 182.775 24.37C183.122 23.9033 183.602 23.5433 184.215 23.29C184.828 23.03 185.542 22.9 186.355 22.9C187.168 22.9 187.895 23.0333 188.535 23.3C189.182 23.56 189.702 23.9267 190.095 24.4C190.488 24.8733 190.722 25.4233 190.795 26.05L189.295 26.32C189.195 25.6867 188.878 25.1867 188.345 24.82C187.818 24.4467 187.148 24.2533 186.335 24.24C185.568 24.22 184.945 24.3667 184.465 24.68C183.985 24.9867 183.745 25.3967 183.745 25.91C183.745 26.1967 183.832 26.4433 184.005 26.65C184.178 26.85 184.492 27.04 184.945 27.22C185.405 27.4 186.058 27.5967 186.905 27.81C187.898 28.0633 188.678 28.33 189.245 28.61C189.812 28.89 190.215 29.22 190.455 29.6C190.695 29.98 190.815 30.45 190.815 31.01C190.815 32.03 190.435 32.8333 189.675 33.42C188.922 34 187.882 34.29 186.555 34.29ZM202.917 34C202.31 34.1267 201.71 34.1767 201.117 34.15C200.53 34.1233 200.003 33.9967 199.537 33.77C199.077 33.5433 198.727 33.19 198.487 32.71C198.293 32.31 198.187 31.9067 198.167 31.5C198.153 31.0867 198.147 30.6167 198.147 30.09V20.2H199.607V30.03C199.607 30.4833 199.61 30.8633 199.617 31.17C199.63 31.47 199.7 31.7367 199.827 31.97C200.067 32.4167 200.447 32.6833 200.967 32.77C201.493 32.8567 202.143 32.8367 202.917 32.71V34ZM195.837 24.46V23.2H202.917V24.46H195.837ZM209.164 34.3C208.091 34.3 207.174 34.0567 206.414 33.57C205.654 33.0833 205.071 32.41 204.664 31.55C204.257 30.69 204.054 29.7033 204.054 28.59C204.054 27.4567 204.261 26.4633 204.674 25.61C205.087 24.7567 205.674 24.0933 206.434 23.62C207.201 23.14 208.111 22.9 209.164 22.9C210.244 22.9 211.164 23.1433 211.924 23.63C212.691 24.11 213.274 24.78 213.674 25.64C214.081 26.4933 214.284 27.4767 214.284 28.59C214.284 29.7233 214.081 30.72 213.674 31.58C213.267 32.4333 212.681 33.1 211.914 33.58C211.147 34.06 210.231 34.3 209.164 34.3ZM209.164 32.89C210.364 32.89 211.257 32.4933 211.844 31.7C212.431 30.9 212.724 29.8633 212.724 28.59C212.724 27.2833 212.427 26.2433 211.834 25.47C211.247 24.6967 210.357 24.31 209.164 24.31C208.357 24.31 207.691 24.4933 207.164 24.86C206.644 25.22 206.254 25.7233 205.994 26.37C205.741 27.01 205.614 27.75 205.614 28.59C205.614 29.89 205.914 30.9333 206.514 31.72C207.114 32.5 207.997 32.89 209.164 32.89ZM233.374 34L233.384 26.91C233.384 26.0767 233.15 25.4233 232.684 24.95C232.224 24.47 231.637 24.23 230.924 24.23C230.517 24.23 230.12 24.3233 229.734 24.51C229.347 24.6967 229.027 24.9967 228.774 25.41C228.527 25.8233 228.404 26.3633 228.404 27.03L227.534 26.78C227.514 26.0067 227.664 25.33 227.984 24.75C228.31 24.17 228.757 23.72 229.324 23.4C229.897 23.0733 230.544 22.91 231.264 22.91C232.35 22.91 233.22 23.2467 233.874 23.92C234.527 24.5867 234.854 25.49 234.854 26.63L234.844 34H233.374ZM220.484 34V23.2H221.804V25.86H221.964V34H220.484ZM226.944 34L226.954 27.01C226.954 26.15 226.724 25.4733 226.264 24.98C225.81 24.48 225.21 24.23 224.464 24.23C223.717 24.23 223.114 24.4867 222.654 25C222.194 25.5067 221.964 26.1833 221.964 27.03L221.084 26.55C221.084 25.8567 221.247 25.2367 221.574 24.69C221.9 24.1367 222.347 23.7033 222.914 23.39C223.48 23.07 224.124 22.91 224.844 22.91C225.53 22.91 226.14 23.0567 226.674 23.35C227.214 23.6433 227.637 24.07 227.944 24.63C228.25 25.19 228.404 25.87 228.404 26.67L228.394 34H226.944ZM241.898 34.3C240.825 34.3 239.908 34.0567 239.148 33.57C238.388 33.0833 237.805 32.41 237.398 31.55C236.992 30.69 236.788 29.7033 236.788 28.59C236.788 27.4567 236.995 26.4633 237.408 25.61C237.822 24.7567 238.408 24.0933 239.168 23.62C239.935 23.14 240.845 22.9 241.898 22.9C242.978 22.9 243.898 23.1433 244.658 23.63C245.425 24.11 246.008 24.78 246.408 25.64C246.815 26.4933 247.018 27.4767 247.018 28.59C247.018 29.7233 246.815 30.72 246.408 31.58C246.002 32.4333 245.415 33.1 244.648 33.58C243.882 34.06 242.965 34.3 241.898 34.3ZM241.898 32.89C243.098 32.89 243.992 32.4933 244.578 31.7C245.165 30.9 245.458 29.8633 245.458 28.59C245.458 27.2833 245.162 26.2433 244.568 25.47C243.982 24.6967 243.092 24.31 241.898 24.31C241.092 24.31 240.425 24.4933 239.898 24.86C239.378 25.22 238.988 25.7233 238.728 26.37C238.475 27.01 238.348 27.75 238.348 28.59C238.348 29.89 238.648 30.9333 239.248 31.72C239.848 32.5 240.732 32.89 241.898 32.89ZM251.754 34L247.834 23.2H249.324L252.514 32.08L255.684 23.2H257.194L253.274 34H251.754ZM263.169 34.3C262.116 34.3 261.203 34.0667 260.429 33.6C259.663 33.1333 259.066 32.4767 258.639 31.63C258.213 30.7833 257.999 29.79 257.999 28.65C257.999 27.47 258.209 26.45 258.629 25.59C259.049 24.73 259.639 24.0667 260.399 23.6C261.166 23.1333 262.069 22.9 263.109 22.9C264.176 22.9 265.086 23.1467 265.839 23.64C266.593 24.1267 267.163 24.8267 267.549 25.74C267.936 26.6533 268.113 27.7433 268.079 29.01H266.579V28.49C266.553 27.09 266.249 26.0333 265.669 25.32C265.096 24.6067 264.256 24.25 263.149 24.25C261.989 24.25 261.099 24.6267 260.479 25.38C259.866 26.1333 259.559 27.2067 259.559 28.6C259.559 29.96 259.866 31.0167 260.479 31.77C261.099 32.5167 261.976 32.89 263.109 32.89C263.883 32.89 264.556 32.7133 265.129 32.36C265.709 32 266.166 31.4833 266.499 30.81L267.869 31.34C267.443 32.28 266.813 33.01 265.979 33.53C265.153 34.0433 264.216 34.3 263.169 34.3ZM259.039 29.01V27.78H267.289V29.01H259.039ZM274.302 34V19.6H282.572V21.07H275.772V26.07H281.372V27.53H275.772V34H274.302ZM288.598 34.3C287.524 34.3 286.608 34.0567 285.848 33.57C285.088 33.0833 284.504 32.41 284.098 31.55C283.691 30.69 283.488 29.7033 283.488 28.59C283.488 27.4567 283.694 26.4633 284.108 25.61C284.521 24.7567 285.108 24.0933 285.868 23.62C286.634 23.14 287.544 22.9 288.598 22.9C289.678 22.9 290.598 23.1433 291.358 23.63C292.124 24.11 292.708 24.78 293.108 25.64C293.514 26.4933 293.718 27.4767 293.718 28.59C293.718 29.7233 293.514 30.72 293.108 31.58C292.701 32.4333 292.114 33.1 291.348 33.58C290.581 34.06 289.664 34.3 288.598 34.3ZM288.598 32.89C289.798 32.89 290.691 32.4933 291.278 31.7C291.864 30.9 292.158 29.8633 292.158 28.59C292.158 27.2833 291.861 26.2433 291.268 25.47C290.681 24.6967 289.791 24.31 288.598 24.31C287.791 24.31 287.124 24.4933 286.598 24.86C286.078 25.22 285.688 25.7233 285.428 26.37C285.174 27.01 285.048 27.75 285.048 28.59C285.048 29.89 285.348 30.9333 285.948 31.72C286.548 32.5 287.431 32.89 288.598 32.89ZM295.923 34V23.2H297.243V25.8L296.983 25.46C297.103 25.14 297.26 24.8467 297.453 24.58C297.647 24.3067 297.857 24.0833 298.083 23.91C298.363 23.6633 298.69 23.4767 299.063 23.35C299.437 23.2167 299.813 23.14 300.193 23.12C300.573 23.0933 300.92 23.12 301.233 23.2V24.58C300.84 24.48 300.41 24.4567 299.943 24.51C299.477 24.5633 299.047 24.75 298.653 25.07C298.293 25.35 298.023 25.6867 297.843 26.08C297.663 26.4667 297.543 26.88 297.483 27.32C297.423 27.7533 297.393 28.1833 297.393 28.61V34H295.923ZM305.43 34L302.13 23.19L303.6 23.2L306.16 31.59L308.73 23.2H310.07L312.64 31.59L315.22 23.2H316.68L313.38 34H312.1L309.4 25.4L306.71 34H305.43ZM320.967 34.3C320.153 34.3 319.47 34.1533 318.917 33.86C318.37 33.5667 317.96 33.1767 317.687 32.69C317.413 32.2033 317.277 31.6733 317.277 31.1C317.277 30.5133 317.393 30.0133 317.627 29.6C317.867 29.18 318.19 28.8367 318.597 28.57C319.01 28.3033 319.487 28.1 320.027 27.96C320.573 27.8267 321.177 27.71 321.837 27.61C322.503 27.5033 323.153 27.4133 323.787 27.34C324.427 27.26 324.987 27.1833 325.467 27.11L324.947 27.43C324.967 26.3633 324.76 25.5733 324.327 25.06C323.893 24.5467 323.14 24.29 322.067 24.29C321.327 24.29 320.7 24.4567 320.187 24.79C319.68 25.1233 319.323 25.65 319.117 26.37L317.687 25.95C317.933 24.9833 318.43 24.2333 319.177 23.7C319.923 23.1667 320.893 22.9 322.087 22.9C323.073 22.9 323.91 23.0867 324.597 23.46C325.29 23.8267 325.78 24.36 326.067 25.06C326.2 25.3733 326.287 25.7233 326.327 26.11C326.367 26.4967 326.387 26.89 326.387 27.29V34H325.077V31.29L325.457 31.45C325.09 32.3767 324.52 33.0833 323.747 33.57C322.973 34.0567 322.047 34.3 320.967 34.3ZM321.137 33.03C321.823 33.03 322.423 32.9067 322.937 32.66C323.45 32.4133 323.863 32.0767 324.177 31.65C324.49 31.2167 324.693 30.73 324.787 30.19C324.867 29.8433 324.91 29.4633 324.917 29.05C324.923 28.63 324.927 28.3167 324.927 28.11L325.487 28.4C324.987 28.4667 324.443 28.5333 323.857 28.6C323.277 28.6667 322.703 28.7433 322.137 28.83C321.577 28.9167 321.07 29.02 320.617 29.14C320.31 29.2267 320.013 29.35 319.727 29.51C319.44 29.6633 319.203 29.87 319.017 30.13C318.837 30.39 318.747 30.7133 318.747 31.1C318.747 31.4133 318.823 31.7167 318.977 32.01C319.137 32.3033 319.39 32.5467 319.737 32.74C320.09 32.9333 320.557 33.03 321.137 33.03ZM328.99 34V23.2H330.31V25.8L330.05 25.46C330.17 25.14 330.327 24.8467 330.52 24.58C330.713 24.3067 330.923 24.0833 331.15 23.91C331.43 23.6633 331.757 23.4767 332.13 23.35C332.503 23.2167 332.88 23.14 333.26 23.12C333.64 23.0933 333.987 23.12 334.3 23.2V24.58C333.907 24.48 333.477 24.4567 333.01 24.51C332.543 24.5633 332.113 24.75 331.72 25.07C331.36 25.35 331.09 25.6867 330.91 26.08C330.73 26.4667 330.61 26.88 330.55 27.32C330.49 27.7533 330.46 28.1833 330.46 28.61V34H328.99ZM340.192 34.3C339.185 34.3 338.325 34.05 337.612 33.55C336.898 33.0433 336.352 32.36 335.972 31.5C335.592 30.64 335.402 29.67 335.402 28.59C335.402 27.5167 335.588 26.55 335.962 25.69C336.342 24.83 336.885 24.15 337.592 23.65C338.298 23.15 339.145 22.9 340.132 22.9C341.145 22.9 341.998 23.1467 342.692 23.64C343.385 24.1333 343.908 24.81 344.262 25.67C344.622 26.5233 344.802 27.4967 344.802 28.59C344.802 29.6633 344.625 30.6333 344.272 31.5C343.918 32.36 343.398 33.0433 342.712 33.55C342.025 34.05 341.185 34.3 340.192 34.3ZM340.342 32.93C341.108 32.93 341.742 32.7433 342.242 32.37C342.742 31.9967 343.115 31.4833 343.362 30.83C343.608 30.17 343.732 29.4233 343.732 28.59C343.732 27.7433 343.608 26.9967 343.362 26.35C343.115 25.6967 342.742 25.1867 342.242 24.82C341.748 24.4533 341.125 24.27 340.372 24.27C339.598 24.27 338.958 24.46 338.452 24.84C337.945 25.22 337.568 25.7367 337.322 26.39C337.082 27.0433 336.962 27.7767 336.962 28.59C336.962 29.41 337.085 30.15 337.332 30.81C337.585 31.4633 337.962 31.98 338.462 32.36C338.962 32.74 339.588 32.93 340.342 32.93ZM343.732 34V25.87H343.572V19.6H345.052V34H343.732Z" fill="#1F1F1F"/>
<path d="M28 95V109" stroke="#002336" stroke-width="2" stroke-linecap="round" stroke-linejoin="round"/>
<path d="M21 102L28 109L35 102" stroke="#002336" stroke-width="2" stroke-linecap="round" stroke-linejoin="round"/>
<rect x="0.5" y="76.5" width="55" height="51" rx="7.5" stroke="#CED3D6"/>
<path d="M98.4055 99.5078C98.3459 98.9496 98.0945 98.5149 97.6513 98.2038C97.2124 97.8928 96.6413 97.7372 95.9382 97.7372C95.4439 97.7372 95.0199 97.8118 94.6662 97.9609C94.3125 98.1101 94.0419 98.3125 93.8544 98.5682C93.6669 98.8239 93.571 99.1158 93.5668 99.4439C93.5668 99.7166 93.6286 99.9531 93.7521 100.153C93.88 100.354 94.0526 100.524 94.2699 100.665C94.4872 100.801 94.728 100.916 94.9922 101.01C95.2564 101.104 95.5227 101.183 95.7912 101.246L97.0185 101.553C97.5128 101.668 97.9879 101.824 98.4439 102.02C98.9041 102.216 99.3153 102.463 99.6776 102.761C100.044 103.06 100.334 103.42 100.547 103.842C100.76 104.263 100.866 104.758 100.866 105.325C100.866 106.092 100.67 106.767 100.278 107.351C99.8864 107.93 99.3196 108.384 98.5781 108.712C97.8409 109.036 96.9482 109.198 95.8999 109.198C94.8814 109.198 93.9972 109.04 93.2472 108.725C92.5014 108.41 91.9176 107.95 91.4957 107.344C91.0781 106.739 90.8523 106.002 90.8182 105.133H93.1513C93.1854 105.589 93.326 105.968 93.5732 106.271C93.8203 106.573 94.142 106.799 94.5384 106.948C94.9389 107.097 95.3864 107.172 95.8807 107.172C96.3963 107.172 96.848 107.095 97.2358 106.942C97.6278 106.784 97.9347 106.567 98.1562 106.29C98.3778 106.009 98.4908 105.68 98.495 105.305C98.4908 104.964 98.3906 104.683 98.1946 104.462C97.9986 104.236 97.7237 104.048 97.37 103.899C97.0206 103.746 96.6115 103.609 96.1428 103.49L94.6534 103.107C93.5753 102.83 92.723 102.41 92.0966 101.847C91.4744 101.281 91.1634 100.528 91.1634 99.5909C91.1634 98.8196 91.3722 98.1442 91.7898 97.5646C92.2116 96.9851 92.7848 96.5355 93.5092 96.2159C94.2337 95.892 95.054 95.7301 95.9702 95.7301C96.8991 95.7301 97.7131 95.892 98.4119 96.2159C99.1151 96.5355 99.6669 96.9808 100.067 97.5518C100.468 98.1186 100.675 98.7706 100.688 99.5078H98.4055Z" fill="#002336"/>
<rect x="68.5" y="76.5" width="55" height="51" rx="7.5" stroke="#CED3D6"/>
<path d="M149.4 110V95.6H150.87V102.4L157.44 95.6H159.32L152.61 102.55L159.87 110H157.95L150.87 102.8V110H149.4ZM165.044 110.3C163.991 110.3 163.078 110.067 162.304 109.6C161.538 109.133 160.941 108.477 160.514 107.63C160.088 106.783 159.874 105.79 159.874 104.65C159.874 103.47 160.084 102.45 160.504 101.59C160.924 100.73 161.514 100.067 162.274 99.6C163.041 99.1333 163.944 98.9 164.984 98.9C166.051 98.9 166.961 99.1467 167.714 99.64C168.468 100.127 169.038 100.827 169.424 101.74C169.811 102.653 169.988 103.743 169.954 105.01H168.454V104.49C168.428 103.09 168.124 102.033 167.544 101.32C166.971 100.607 166.131 100.25 165.024 100.25C163.864 100.25 162.974 100.627 162.354 101.38C161.741 102.133 161.434 103.207 161.434 104.6C161.434 105.96 161.741 107.017 162.354 107.77C162.974 108.517 163.851 108.89 164.984 108.89C165.758 108.89 166.431 108.713 167.004 108.36C167.584 108 168.041 107.483 168.374 106.81L169.744 107.34C169.318 108.28 168.688 109.01 167.854 109.53C167.028 110.043 166.091 110.3 165.044 110.3ZM160.914 105.01V103.78H169.164V105.01H160.914ZM173.518 114.8L175.608 109.13L175.638 110.81L170.908 99.2H172.468L176.348 108.91H175.708L179.288 99.2H180.788L174.988 114.8H173.518ZM186.555 110.29C185.288 110.29 184.245 110.017 183.425 109.47C182.612 108.923 182.112 108.163 181.925 107.19L183.425 106.94C183.585 107.553 183.948 108.043 184.515 108.41C185.088 108.77 185.795 108.95 186.635 108.95C187.455 108.95 188.102 108.78 188.575 108.44C189.048 108.093 189.285 107.623 189.285 107.03C189.285 106.697 189.208 106.427 189.055 106.22C188.908 106.007 188.605 105.81 188.145 105.63C187.685 105.45 186.998 105.237 186.085 104.99C185.105 104.723 184.338 104.457 183.785 104.19C183.232 103.923 182.838 103.617 182.605 103.27C182.372 102.917 182.255 102.487 182.255 101.98C182.255 101.367 182.428 100.83 182.775 100.37C183.122 99.9033 183.602 99.5433 184.215 99.29C184.828 99.03 185.542 98.9 186.355 98.9C187.168 98.9 187.895 99.0333 188.535 99.3C189.182 99.56 189.702 99.9267 190.095 100.4C190.488 100.873 190.722 101.423 190.795 102.05L189.295 102.32C189.195 101.687 188.878 101.187 188.345 100.82C187.818 100.447 187.148 100.253 186.335 100.24C185.568 100.22 184.945 100.367 184.465 100.68C183.985 100.987 183.745 101.397 183.745 101.91C183.745 102.197 183.832 102.443 184.005 102.65C184.178 102.85 184.492 103.04 184.945 103.22C185.405 103.4 186.058 103.597 186.905 103.81C187.898 104.063 188.678 104.33 189.245 104.61C189.812 104.89 190.215 105.22 190.455 105.6C190.695 105.98 190.815 106.45 190.815 107.01C190.815 108.03 190.435 108.833 189.675 109.42C188.922 110 187.882 110.29 186.555 110.29ZM202.917 110C202.31 110.127 201.71 110.177 201.117 110.15C200.53 110.123 200.003 109.997 199.537 109.77C199.077 109.543 198.727 109.19 198.487 108.71C198.293 108.31 198.187 107.907 198.167 107.5C198.153 107.087 198.147 106.617 198.147 106.09V96.2H199.607V106.03C199.607 106.483 199.61 106.863 199.617 107.17C199.63 107.47 199.7 107.737 199.827 107.97C200.067 108.417 200.447 108.683 200.967 108.77C201.493 108.857 202.143 108.837 202.917 108.71V110ZM195.837 100.46V99.2H202.917V100.46H195.837ZM209.164 110.3C208.091 110.3 207.174 110.057 206.414 109.57C205.654 109.083 205.071 108.41 204.664 107.55C204.257 106.69 204.054 105.703 204.054 104.59C204.054 103.457 204.261 102.463 204.674 101.61C205.087 100.757 205.674 100.093 206.434 99.62C207.201 99.14 208.111 98.9 209.164 98.9C210.244 98.9 211.164 99.1433 211.924 99.63C212.691 100.11 213.274 100.78 213.674 101.64C214.081 102.493 214.284 103.477 214.284 104.59C214.284 105.723 214.081 106.72 213.674 107.58C213.267 108.433 212.681 109.1 211.914 109.58C211.147 110.06 210.231 110.3 209.164 110.3ZM209.164 108.89C210.364 108.89 211.257 108.493 211.844 107.7C212.431 106.9 212.724 105.863 212.724 104.59C212.724 103.283 212.427 102.243 211.834 101.47C211.247 100.697 210.357 100.31 209.164 100.31C208.357 100.31 207.691 100.493 207.164 100.86C206.644 101.22 206.254 101.723 205.994 102.37C205.741 103.01 205.614 103.75 205.614 104.59C205.614 105.89 205.914 106.933 206.514 107.72C207.114 108.5 207.997 108.89 209.164 108.89ZM233.374 110L233.384 102.91C233.384 102.077 233.15 101.423 232.684 100.95C232.224 100.47 231.637 100.23 230.924 100.23C230.517 100.23 230.12 100.323 229.734 100.51C229.347 100.697 229.027 100.997 228.774 101.41C228.527 101.823 228.404 102.363 228.404 103.03L227.534 102.78C227.514 102.007 227.664 101.33 227.984 100.75C228.31 100.17 228.757 99.72 229.324 99.4C229.897 99.0733 230.544 98.91 231.264 98.91C232.35 98.91 233.22 99.2467 233.874 99.92C234.527 100.587 234.854 101.49 234.854 102.63L234.844 110H233.374ZM220.484 110V99.2H221.804V101.86H221.964V110H220.484ZM226.944 110L226.954 103.01C226.954 102.15 226.724 101.473 226.264 100.98C225.81 100.48 225.21 100.23 224.464 100.23C223.717 100.23 223.114 100.487 222.654 101C222.194 101.507 221.964 102.183 221.964 103.03L221.084 102.55C221.084 101.857 221.247 101.237 221.574 100.69C221.9 100.137 222.347 99.7033 222.914 99.39C223.48 99.07 224.124 98.91 224.844 98.91C225.53 98.91 226.14 99.0567 226.674 99.35C227.214 99.6433 227.637 100.07 227.944 100.63C228.25 101.19 228.404 101.87 228.404 102.67L228.394 110H226.944ZM241.898 110.3C240.825 110.3 239.908 110.057 239.148 109.57C238.388 109.083 237.805 108.41 237.398 107.55C236.992 106.69 236.788 105.703 236.788 104.59C236.788 103.457 236.995 102.463 237.408 101.61C237.822 100.757 238.408 100.093 239.168 99.62C239.935 99.14 240.845 98.9 241.898 98.9C242.978 98.9 243.898 99.1433 244.658 99.63C245.425 100.11 246.008 100.78 246.408 101.64C246.815 102.493 247.018 103.477 247.018 104.59C247.018 105.723 246.815 106.72 246.408 107.58C246.002 108.433 245.415 109.1 244.648 109.58C243.882 110.06 242.965 110.3 241.898 110.3ZM241.898 108.89C243.098 108.89 243.992 108.493 244.578 107.7C245.165 106.9 245.458 105.863 245.458 104.59C245.458 103.283 245.162 102.243 244.568 101.47C243.982 100.697 243.092 100.31 241.898 100.31C241.092 100.31 240.425 100.493 239.898 100.86C239.378 101.22 238.988 101.723 238.728 102.37C238.475 103.01 238.348 103.75 238.348 104.59C238.348 105.89 238.648 106.933 239.248 107.72C239.848 108.5 240.732 108.89 241.898 108.89ZM251.754 110L247.834 99.2H249.324L252.514 108.08L255.684 99.2H257.194L253.274 110H251.754ZM263.169 110.3C262.116 110.3 261.203 110.067 260.429 109.6C259.663 109.133 259.066 108.477 258.639 107.63C258.213 106.783 257.999 105.79 257.999 104.65C257.999 103.47 258.209 102.45 258.629 101.59C259.049 100.73 259.639 100.067 260.399 99.6C261.166 99.1333 262.069 98.9 263.109 98.9C264.176 98.9 265.086 99.1467 265.839 99.64C266.593 100.127 267.163 100.827 267.549 101.74C267.936 102.653 268.113 103.743 268.079 105.01H266.579V104.49C266.553 103.09 266.249 102.033 265.669 101.32C265.096 100.607 264.256 100.25 263.149 100.25C261.989 100.25 261.099 100.627 260.479 101.38C259.866 102.133 259.559 103.207 259.559 104.6C259.559 105.96 259.866 107.017 260.479 107.77C261.099 108.517 261.976 108.89 263.109 108.89C263.883 108.89 264.556 108.713 265.129 108.36C265.709 108 266.166 107.483 266.499 106.81L267.869 107.34C267.443 108.28 266.813 109.01 265.979 109.53C265.153 110.043 264.216 110.3 263.169 110.3ZM259.039 105.01V103.78H267.289V105.01H259.039ZM274.302 110V95.6H279.862C280.669 95.6 281.372 95.7667 281.972 96.1C282.572 96.4333 283.039 96.8833 283.372 97.45C283.706 98.01 283.872 98.63 283.872 99.31C283.872 100.083 283.666 100.773 283.252 101.38C282.839 101.98 282.286 102.397 281.592 102.63L281.572 102.14C282.506 102.407 283.239 102.873 283.772 103.54C284.306 104.207 284.572 105.013 284.572 105.96C284.572 106.793 284.396 107.513 284.042 108.12C283.689 108.72 283.192 109.183 282.552 109.51C281.912 109.837 281.169 110 280.322 110H274.302ZM275.782 108.59H279.962C280.549 108.59 281.076 108.487 281.542 108.28C282.009 108.067 282.376 107.767 282.642 107.38C282.916 106.993 283.052 106.527 283.052 105.98C283.052 105.447 282.929 104.967 282.682 104.54C282.436 104.113 282.099 103.773 281.672 103.52C281.252 103.26 280.772 103.13 280.232 103.13H275.782V108.59ZM275.782 101.74H279.852C280.312 101.74 280.732 101.637 281.112 101.43C281.492 101.217 281.792 100.927 282.012 100.56C282.239 100.193 282.352 99.77 282.352 99.29C282.352 98.61 282.116 98.0567 281.642 97.63C281.176 97.2033 280.579 96.99 279.852 96.99H275.782V101.74ZM289.658 110.3C288.845 110.3 288.161 110.153 287.608 109.86C287.061 109.567 286.651 109.177 286.378 108.69C286.105 108.203 285.968 107.673 285.968 107.1C285.968 106.513 286.085 106.013 286.318 105.6C286.558 105.18 286.881 104.837 287.288 104.57C287.701 104.303 288.178 104.1 288.718 103.96C289.265 103.827 289.868 103.71 290.528 103.61C291.195 103.503 291.845 103.413 292.478 103.34C293.118 103.26 293.678 103.183 294.158 103.11L293.638 103.43C293.658 102.363 293.451 101.573 293.018 101.06C292.585 100.547 291.831 100.29 290.758 100.29C290.018 100.29 289.391 100.457 288.878 100.79C288.371 101.123 288.015 101.65 287.808 102.37L286.378 101.95C286.625 100.983 287.121 100.233 287.868 99.7C288.615 99.1667 289.585 98.9 290.778 98.9C291.765 98.9 292.601 99.0867 293.288 99.46C293.981 99.8267 294.471 100.36 294.758 101.06C294.891 101.373 294.978 101.723 295.018 102.11C295.058 102.497 295.078 102.89 295.078 103.29V110H293.768V107.29L294.148 107.45C293.781 108.377 293.211 109.083 292.438 109.57C291.665 110.057 290.738 110.3 289.658 110.3ZM289.828 109.03C290.515 109.03 291.115 108.907 291.628 108.66C292.141 108.413 292.555 108.077 292.868 107.65C293.181 107.217 293.385 106.73 293.478 106.19C293.558 105.843 293.601 105.463 293.608 105.05C293.615 104.63 293.618 104.317 293.618 104.11L294.178 104.4C293.678 104.467 293.135 104.533 292.548 104.6C291.968 104.667 291.395 104.743 290.828 104.83C290.268 104.917 289.761 105.02 289.308 105.14C289.001 105.227 288.705 105.35 288.418 105.51C288.131 105.663 287.895 105.87 287.708 106.13C287.528 106.39 287.438 106.713 287.438 107.1C287.438 107.413 287.515 107.717 287.668 108.01C287.828 108.303 288.081 108.547 288.428 108.74C288.781 108.933 289.248 109.03 289.828 109.03ZM302.161 110.3C301.075 110.3 300.155 110.057 299.401 109.57C298.648 109.083 298.075 108.413 297.681 107.56C297.295 106.7 297.095 105.713 297.081 104.6C297.095 103.467 297.301 102.473 297.701 101.62C298.101 100.76 298.678 100.093 299.431 99.62C300.185 99.14 301.098 98.9 302.171 98.9C303.265 98.9 304.215 99.1667 305.021 99.7C305.835 100.233 306.391 100.963 306.691 101.89L305.251 102.35C304.998 101.703 304.595 101.203 304.041 100.85C303.495 100.49 302.868 100.31 302.161 100.31C301.368 100.31 300.711 100.493 300.191 100.86C299.671 101.22 299.285 101.723 299.031 102.37C298.778 103.017 298.648 103.76 298.641 104.6C298.655 105.893 298.955 106.933 299.541 107.72C300.128 108.5 301.001 108.89 302.161 108.89C302.895 108.89 303.518 108.723 304.031 108.39C304.551 108.05 304.945 107.557 305.211 106.91L306.691 107.35C306.291 108.31 305.705 109.043 304.931 109.55C304.158 110.05 303.235 110.3 302.161 110.3ZM308.745 110L308.755 95.6H310.235V104.4L315.055 99.2H317.015L311.955 104.6L317.675 110H315.535L310.235 104.8V110H308.745ZM320.977 110L317.677 99.19L319.147 99.2L321.707 107.59L324.277 99.2H325.617L328.187 107.59L330.767 99.2H332.227L328.927 110H327.647L324.947 101.4L322.257 110H320.977ZM336.513 110.3C335.7 110.3 335.017 110.153 334.463 109.86C333.917 109.567 333.507 109.177 333.233 108.69C332.96 108.203 332.823 107.673 332.823 107.1C332.823 106.513 332.94 106.013 333.173 105.6C333.413 105.18 333.737 104.837 334.143 104.57C334.557 104.303 335.033 104.1 335.573 103.96C336.12 103.827 336.723 103.71 337.383 103.61C338.05 103.503 338.7 103.413 339.333 103.34C339.973 103.26 340.533 103.183 341.013 103.11L340.493 103.43C340.513 102.363 340.307 101.573 339.873 101.06C339.44 100.547 338.687 100.29 337.613 100.29C336.873 100.29 336.247 100.457 335.733 100.79C335.227 101.123 334.87 101.65 334.663 102.37L333.233 101.95C333.48 100.983 333.977 100.233 334.723 99.7C335.47 99.1667 336.44 98.9 337.633 98.9C338.62 98.9 339.457 99.0867 340.143 99.46C340.837 99.8267 341.327 100.36 341.613 101.06C341.747 101.373 341.833 101.723 341.873 102.11C341.913 102.497 341.933 102.89 341.933 103.29V110H340.623V107.29L341.003 107.45C340.637 108.377 340.067 109.083 339.293 109.57C338.52 110.057 337.593 110.3 336.513 110.3ZM336.683 109.03C337.37 109.03 337.97 108.907 338.483 108.66C338.997 108.413 339.41 108.077 339.723 107.65C340.037 107.217 340.24 106.73 340.333 106.19C340.413 105.843 340.457 105.463 340.463 105.05C340.47 104.63 340.473 104.317 340.473 104.11L341.033 104.4C340.533 104.467 339.99 104.533 339.403 104.6C338.823 104.667 338.25 104.743 337.683 104.83C337.123 104.917 336.617 105.02 336.163 105.14C335.857 105.227 335.56 105.35 335.273 105.51C334.987 105.663 334.75 105.87 334.563 106.13C334.383 106.39 334.293 106.713 334.293 107.1C334.293 107.413 334.37 107.717 334.523 108.01C334.683 108.303 334.937 108.547 335.283 108.74C335.637 108.933 336.103 109.03 336.683 109.03ZM344.537 110V99.2H345.857V101.8L345.597 101.46C345.717 101.14 345.873 100.847 346.067 100.58C346.26 100.307 346.47 100.083 346.697 99.91C346.977 99.6633 347.303 99.4767 347.677 99.35C348.05 99.2167 348.427 99.14 348.807 99.12C349.187 99.0933 349.533 99.12 349.847 99.2V100.58C349.453 100.48 349.023 100.457 348.557 100.51C348.09 100.563 347.66 100.75 347.267 101.07C346.907 101.35 346.637 101.687 346.457 102.08C346.277 102.467 346.157 102.88 346.097 103.32C346.037 103.753 346.007 104.183 346.007 104.61V110H344.537ZM355.738 110.3C354.732 110.3 353.872 110.05 353.158 109.55C352.445 109.043 351.898 108.36 351.518 107.5C351.138 106.64 350.948 105.67 350.948 104.59C350.948 103.517 351.135 102.55 351.508 101.69C351.888 100.83 352.432 100.15 353.138 99.65C353.845 99.15 354.692 98.9 355.678 98.9C356.692 98.9 357.545 99.1467 358.238 99.64C358.932 100.133 359.455 100.81 359.808 101.67C360.168 102.523 360.348 103.497 360.348 104.59C360.348 105.663 360.172 106.633 359.818 107.5C359.465 108.36 358.945 109.043 358.258 109.55C357.572 110.05 356.732 110.3 355.738 110.3ZM355.888 108.93C356.655 108.93 357.288 108.743 357.788 108.37C358.288 107.997 358.662 107.483 358.908 106.83C359.155 106.17 359.278 105.423 359.278 104.59C359.278 103.743 359.155 102.997 358.908 102.35C358.662 101.697 358.288 101.187 357.788 100.82C357.295 100.453 356.672 100.27 355.918 100.27C355.145 100.27 354.505 100.46 353.998 100.84C353.492 101.22 353.115 101.737 352.868 102.39C352.628 103.043 352.508 103.777 352.508 104.59C352.508 105.41 352.632 106.15 352.878 106.81C353.132 107.463 353.508 107.98 354.008 108.36C354.508 108.74 355.135 108.93 355.888 108.93ZM359.278 110V101.87H359.118V95.6H360.598V110H359.278Z" fill="#1F1F1F"/>
<path d="M40 166.75C40 166.331 39.6685 166 39.25 166H32.5113C32.0853 166 31.768 166.336 31.7673 166.762C31.7673 167.187 32.0853 167.5 32.5113 167.5H38.5L38.488 173.517C38.488 173.943 38.812 174.267 39.238 174.267C39.664 174.266 39.988 173.943 39.988 173.517L40 166.761C40 166.759 39.9993 166.757 39.9993 166.756C39.9993 166.754 40 166.752 40 166.75Z" fill="#121313"/>
<path d="M23.512 166H16.7732C16.771 166 16.7695 166.001 16.7673 166.001C16.7657 166.001 16.7635 166 16.762 166C16.3435 166 16.012 166.331 16.012 166.75L16 173.506C16 173.932 16.336 174.25 16.762 174.25C17.1873 174.25 17.5 173.932 17.5 173.506L17.512 167.5H23.512C23.938 167.5 24.262 167.176 24.262 166.75C24.2612 166.324 23.9372 166 23.512 166Z" fill="#121313"/>
<path d="M23.4887 188.5H17.5V182.5C17.5 182.074 17.176 181.75 16.75 181.75C16.324 181.75 16 182.074 16 182.5V189.239C16 189.241 16.0008 189.243 16.0008 189.244C16.0008 189.246 16 189.248 16 189.25C16 189.668 16.3315 190 16.75 190H23.4887C23.9147 190 24.232 189.664 24.2327 189.238C24.2327 188.813 23.9147 188.5 23.4887 188.5Z" fill="#121313"/>
<path d="M39.238 181.767C38.812 181.767 38.4992 182.085 38.5 182.511V188.5H32.5C32.074 188.5 31.75 188.824 31.75 189.25C31.75 189.676 32.074 190 32.5 190H39.2388C39.241 190 39.2425 189.999 39.244 189.999C39.2463 189.999 39.2477 190 39.25 190C39.6685 190 40 189.669 40 189.25V182.511C40 182.085 39.664 181.767 39.238 181.767Z" fill="#121313"/>
<rect x="0.5" y="152.5" width="55" height="51" rx="7.5" stroke="#CED3D6"/>
<path d="M91.7912 185V171.909H100.178V173.897H94.1626V177.451H99.6023V179.439H94.1626V185H91.7912Z" fill="#002336"/>
<rect x="68.5" y="152.5" width="55" height="51" rx="7.5" stroke="#CED3D6"/>
<path d="M149.761 185V170.455H158.483V172.017H151.523V176.932H157.83V178.494H151.523V185H149.761ZM167.464 180.54V174.091H169.14V185H167.464V183.153H167.35C167.094 183.707 166.697 184.179 166.157 184.567C165.617 184.95 164.935 185.142 164.112 185.142C163.43 185.142 162.824 184.993 162.293 184.695C161.763 184.392 161.346 183.937 161.043 183.331C160.74 182.72 160.589 181.951 160.589 181.023V174.091H162.265V180.909C162.265 181.705 162.487 182.339 162.933 182.812C163.382 183.286 163.955 183.523 164.651 183.523C165.068 183.523 165.492 183.416 165.923 183.203C166.358 182.99 166.723 182.663 167.016 182.223C167.315 181.783 167.464 181.222 167.464 180.54ZM173.886 170.455V185H172.21V170.455H173.886ZM178.632 170.455V185H176.956V170.455H178.632ZM189.429 176.534L187.924 176.96C187.829 176.709 187.689 176.465 187.505 176.229C187.325 175.987 187.078 175.788 186.766 175.632C186.453 175.476 186.053 175.398 185.566 175.398C184.898 175.398 184.342 175.552 183.897 175.859C183.456 176.162 183.236 176.548 183.236 177.017C183.236 177.434 183.388 177.763 183.691 178.004C183.994 178.246 184.467 178.447 185.111 178.608L186.73 179.006C187.706 179.242 188.433 179.605 188.911 180.092C189.389 180.575 189.628 181.198 189.628 181.96C189.628 182.585 189.448 183.144 189.088 183.636C188.733 184.129 188.236 184.517 187.597 184.801C186.958 185.085 186.214 185.227 185.367 185.227C184.254 185.227 183.333 184.986 182.604 184.503C181.875 184.02 181.413 183.314 181.219 182.386L182.81 181.989C182.962 182.576 183.248 183.016 183.669 183.31C184.096 183.603 184.652 183.75 185.338 183.75C186.12 183.75 186.74 183.584 187.199 183.253C187.663 182.917 187.895 182.514 187.895 182.045C187.895 181.667 187.763 181.349 187.498 181.094C187.232 180.833 186.825 180.639 186.276 180.511L184.458 180.085C183.459 179.848 182.725 179.482 182.256 178.984C181.792 178.482 181.56 177.855 181.56 177.102C181.56 176.487 181.733 175.942 182.078 175.469C182.429 174.995 182.905 174.624 183.506 174.354C184.112 174.084 184.799 173.949 185.566 173.949C186.645 173.949 187.493 174.186 188.108 174.659C188.729 175.133 189.169 175.758 189.429 176.534ZM196.583 185.227C195.56 185.227 194.68 184.986 193.941 184.503C193.202 184.02 192.634 183.355 192.237 182.507C191.839 181.66 191.64 180.691 191.64 179.602C191.64 178.494 191.844 177.517 192.251 176.669C192.663 175.817 193.236 175.152 193.969 174.673C194.708 174.19 195.57 173.949 196.555 173.949C197.322 173.949 198.013 174.091 198.629 174.375C199.244 174.659 199.748 175.057 200.141 175.568C200.534 176.08 200.778 176.676 200.873 177.358H199.197C199.069 176.861 198.785 176.42 198.344 176.037C197.909 175.649 197.322 175.455 196.583 175.455C195.93 175.455 195.357 175.625 194.864 175.966C194.377 176.302 193.996 176.778 193.721 177.393C193.451 178.004 193.316 178.722 193.316 179.545C193.316 180.388 193.449 181.122 193.714 181.747C193.984 182.372 194.362 182.857 194.85 183.203C195.343 183.549 195.92 183.722 196.583 183.722C197.019 183.722 197.414 183.646 197.769 183.494C198.124 183.343 198.425 183.125 198.671 182.841C198.917 182.557 199.093 182.216 199.197 181.818H200.873C200.778 182.462 200.544 183.042 200.17 183.558C199.8 184.07 199.31 184.477 198.7 184.78C198.094 185.078 197.388 185.227 196.583 185.227ZM203.323 185V174.091H204.942V175.739H205.056C205.255 175.199 205.615 174.761 206.136 174.425C206.656 174.089 207.244 173.92 207.897 173.92C208.02 173.92 208.174 173.923 208.359 173.928C208.543 173.932 208.683 173.939 208.778 173.949V175.653C208.721 175.639 208.591 175.618 208.387 175.589C208.188 175.556 207.978 175.54 207.755 175.54C207.225 175.54 206.751 175.651 206.335 175.874C205.923 176.091 205.596 176.394 205.354 176.783C205.118 177.166 204.999 177.604 204.999 178.097V185H203.323ZM215.006 185.227C213.955 185.227 213.049 184.995 212.286 184.531C211.529 184.062 210.944 183.409 210.532 182.571C210.125 181.728 209.921 180.748 209.921 179.631C209.921 178.513 210.125 177.528 210.532 176.676C210.944 175.819 211.517 175.152 212.251 174.673C212.989 174.19 213.851 173.949 214.836 173.949C215.404 173.949 215.965 174.044 216.519 174.233C217.073 174.422 217.577 174.73 218.032 175.156C218.487 175.578 218.849 176.136 219.119 176.832C219.388 177.528 219.523 178.385 219.523 179.403V180.114H211.114V178.665H217.819C217.819 178.049 217.696 177.5 217.45 177.017C217.208 176.534 216.862 176.153 216.413 175.874C215.968 175.594 215.442 175.455 214.836 175.455C214.168 175.455 213.591 175.62 213.103 175.952C212.62 176.278 212.248 176.705 211.988 177.23C211.728 177.756 211.597 178.319 211.597 178.92V179.886C211.597 180.71 211.739 181.409 212.023 181.982C212.312 182.55 212.712 182.983 213.224 183.281C213.735 183.575 214.329 183.722 215.006 183.722C215.447 183.722 215.844 183.66 216.2 183.537C216.559 183.409 216.87 183.22 217.13 182.969C217.39 182.713 217.592 182.396 217.734 182.017L219.353 182.472C219.183 183.021 218.896 183.504 218.494 183.92C218.091 184.332 217.594 184.654 217.002 184.886C216.41 185.114 215.745 185.227 215.006 185.227ZM226.647 185.227C225.596 185.227 224.689 184.995 223.927 184.531C223.169 184.062 222.585 183.409 222.173 182.571C221.765 181.728 221.562 180.748 221.562 179.631C221.562 178.513 221.765 177.528 222.173 176.676C222.585 175.819 223.157 175.152 223.891 174.673C224.63 174.19 225.492 173.949 226.477 173.949C227.045 173.949 227.606 174.044 228.16 174.233C228.714 174.422 229.218 174.73 229.673 175.156C230.127 175.578 230.489 176.136 230.759 176.832C231.029 177.528 231.164 178.385 231.164 179.403V180.114H222.755V178.665H229.46C229.46 178.049 229.336 177.5 229.09 177.017C228.849 176.534 228.503 176.153 228.053 175.874C227.608 175.594 227.083 175.455 226.477 175.455C225.809 175.455 225.231 175.62 224.744 175.952C224.261 176.278 223.889 176.705 223.629 177.23C223.368 177.756 223.238 178.319 223.238 178.92V179.886C223.238 180.71 223.38 181.409 223.664 181.982C223.953 182.55 224.353 182.983 224.864 183.281C225.376 183.575 225.97 183.722 226.647 183.722C227.087 183.722 227.485 183.66 227.84 183.537C228.2 183.409 228.51 183.22 228.771 182.969C229.031 182.713 229.232 182.396 229.374 182.017L230.994 182.472C230.823 183.021 230.537 183.504 230.134 183.92C229.732 184.332 229.235 184.654 228.643 184.886C228.051 185.114 227.386 185.227 226.647 185.227ZM235.39 178.438V185H233.714V174.091H235.333V175.795H235.475C235.731 175.241 236.119 174.796 236.64 174.46C237.161 174.119 237.833 173.949 238.657 173.949C239.396 173.949 240.042 174.1 240.596 174.403C241.15 174.702 241.581 175.156 241.888 175.767C242.196 176.373 242.35 177.14 242.35 178.068V185H240.674V178.182C240.674 177.325 240.451 176.657 240.006 176.179C239.561 175.696 238.951 175.455 238.174 175.455C237.639 175.455 237.161 175.571 236.739 175.803C236.323 176.035 235.994 176.373 235.752 176.818C235.511 177.263 235.39 177.803 235.39 178.438Z" fill="#1F1F1F"/>
<path d="M28.6485 244.386H27.4125C24.4745 244.386 22.0705 246.79 22.0705 249.728V258.195C22.0705 261.133 24.4745 263.537 27.4125 263.537H28.6485C31.5865 263.537 33.9905 261.133 33.9905 258.195V249.728C33.9905 246.79 31.5865 244.386 28.6485 244.386Z" fill="#D0CFCE"/>
<path d="M28.0305 247.056C27.7557 247.057 27.4924 247.166 27.2981 247.361C27.1038 247.555 26.9943 247.818 26.9935 248.093V251.01C26.9944 251.285 27.104 251.548 27.2983 251.742C27.4926 251.936 27.7558 252.046 28.0305 252.046C28.3052 252.046 28.5684 251.936 28.7627 251.742C28.957 251.548 29.0666 251.285 29.0675 251.01V248.093C29.0667 247.818 28.9572 247.555 28.7629 247.361C28.5686 247.166 28.3053 247.057 28.0305 247.056Z" fill="#3F3F3F"/>
<path d="M27.568 245.089C29.0815 245.738 30.52 246.67 30.6875 249.025C30.8815 251.753 29.8725 256.86 29.5475 259.454C29.321 261.267 28.424 262.107 27.2325 263.059C26.6325 263.539 29.866 263.48 31.1975 262.702C32.3405 262.034 33.4475 260.888 33.461 261.25L33.6225 248.348C33.6225 248.348 33.154 244.879 29.3395 244.878C29.3395 244.878 25.5135 244.681 27.568 245.089Z" fill="#9B9B9A"/>
<path fill-rule="evenodd" clip-rule="evenodd" d="M26.6465 245.173C24.4381 245.173 22.629 246.982 22.629 249.19V258.734C22.629 260.942 24.4376 262.751 26.6465 262.751H29.4145C29.4147 262.751 29.4148 262.751 29.415 262.751C31.6232 262.75 33.432 260.942 33.432 258.734V249.19C33.432 246.982 31.6234 245.173 29.4145 245.173H26.6465ZM29.4152 263.751C32.1755 263.75 34.432 261.494 34.432 258.734V249.19C34.432 246.429 32.1756 244.173 29.4145 244.173H26.6465C23.8859 244.173 21.629 246.429 21.629 249.19V258.734C21.629 261.494 23.8854 263.751 26.6465 263.751H29.4145C29.4147 263.751 29.4148 263.751 29.415 263.751" fill="black"/>
<path fill-rule="evenodd" clip-rule="evenodd" d="M28.047 238.838C28.1784 238.835 28.3108 238.884 28.4111 238.984L31.0191 241.592C31.2143 241.788 31.2143 242.104 31.0191 242.3C30.8238 242.495 30.5072 242.495 30.3119 242.3L28.047 240.035L25.7821 242.3C25.5868 242.495 25.2702 242.495 25.0749 242.3C24.8797 242.104 24.8797 241.788 25.0749 241.592L27.6829 238.984C27.7832 238.884 27.9156 238.835 28.047 238.838ZM27.9885 247.526C27.7063 247.526 27.4735 247.758 27.4735 248.04V251.062C27.474 251.198 27.5284 251.329 27.6251 251.426C27.7217 251.523 27.8525 251.577 27.9891 251.578H28.0725C28.0801 251.578 28.0876 251.578 28.0951 251.578C28.3667 251.566 28.5875 251.338 28.5875 251.064V248.041C28.5875 247.758 28.3545 247.526 28.0725 247.526H27.9885ZM28.0406 252.578C28.0511 252.578 28.0618 252.579 28.0725 252.579C28.9066 252.579 29.5875 251.898 29.5875 251.064V248.041C29.5875 247.206 28.9065 246.526 28.0725 246.526H27.9885C27.1547 246.526 26.4735 247.206 26.4735 248.04V251.063L26.4735 251.064C26.4745 251.465 26.6343 251.849 26.918 252.133C27.2016 252.417 27.5861 252.577 27.9873 252.578L27.9885 252.578H28.0406ZM25.0749 265.654C25.2702 265.459 25.5868 265.459 25.7821 265.654L28.047 267.919L30.3119 265.654C30.5072 265.459 30.8238 265.459 31.0191 265.654C31.2143 265.85 31.2143 266.166 31.0191 266.362L28.4111 268.97C28.3108 269.07 28.1784 269.119 28.047 269.116C27.9156 269.119 27.7832 269.07 27.6829 268.97L25.0749 266.362C24.8797 266.166 24.8797 265.85 25.0749 265.654Z" fill="black"/>
<rect x="0.5" y="228.5" width="55" height="51" rx="7.5" stroke="#CED3D6"/>
<path d="M86.4 262.3C85.3933 262.3 84.4867 262.133 83.68 261.8C82.88 261.46 82.2167 260.98 81.69 260.36C81.17 259.74 80.83 259.003 80.67 258.15L82.17 257.9C82.41 258.833 82.9167 259.567 83.69 260.1C84.4633 260.627 85.3867 260.89 86.46 260.89C87.1667 260.89 87.8 260.78 88.36 260.56C88.92 260.333 89.36 260.013 89.68 259.6C90 259.187 90.16 258.697 90.16 258.13C90.16 257.757 90.0933 257.44 89.96 257.18C89.8267 256.913 89.65 256.693 89.43 256.52C89.21 256.347 88.97 256.203 88.71 256.09C88.45 255.97 88.1967 255.873 87.95 255.8L84.3 254.71C83.86 254.583 83.4533 254.423 83.08 254.23C82.7067 254.03 82.38 253.793 82.1 253.52C81.8267 253.24 81.6133 252.913 81.46 252.54C81.3067 252.167 81.23 251.74 81.23 251.26C81.23 250.447 81.4433 249.743 81.87 249.15C82.2967 248.557 82.88 248.1 83.62 247.78C84.36 247.46 85.2033 247.303 86.15 247.31C87.11 247.31 87.9667 247.48 88.72 247.82C89.48 248.16 90.1067 248.647 90.6 249.28C91.0933 249.907 91.42 250.65 91.58 251.51L90.04 251.79C89.94 251.163 89.71 250.62 89.35 250.16C88.99 249.7 88.53 249.347 87.97 249.1C87.4167 248.847 86.8067 248.717 86.14 248.71C85.4933 248.71 84.9167 248.82 84.41 249.04C83.91 249.253 83.5133 249.547 83.22 249.92C82.9267 250.293 82.78 250.72 82.78 251.2C82.78 251.687 82.9133 252.077 83.18 252.37C83.4533 252.663 83.7867 252.893 84.18 253.06C84.58 253.227 84.9667 253.363 85.34 253.47L88.16 254.3C88.4533 254.38 88.7967 254.497 89.19 254.65C89.59 254.797 89.9767 255.01 90.35 255.29C90.73 255.563 91.0433 255.923 91.29 256.37C91.5367 256.817 91.66 257.383 91.66 258.07C91.66 258.737 91.5267 259.333 91.26 259.86C91 260.387 90.63 260.83 90.15 261.19C89.6767 261.55 89.12 261.823 88.48 262.01C87.8467 262.203 87.1533 262.3 86.4 262.3ZM98.2042 262.3C97.1176 262.3 96.1976 262.057 95.4442 261.57C94.6909 261.083 94.1176 260.413 93.7242 259.56C93.3376 258.7 93.1376 257.713 93.1242 256.6C93.1376 255.467 93.3442 254.473 93.7442 253.62C94.1442 252.76 94.7209 252.093 95.4742 251.62C96.2276 251.14 97.1409 250.9 98.2142 250.9C99.3076 250.9 100.258 251.167 101.064 251.7C101.878 252.233 102.434 252.963 102.734 253.89L101.294 254.35C101.041 253.703 100.638 253.203 100.084 252.85C99.5376 252.49 98.9109 252.31 98.2042 252.31C97.4109 252.31 96.7542 252.493 96.2342 252.86C95.7142 253.22 95.3276 253.723 95.0742 254.37C94.8209 255.017 94.6909 255.76 94.6842 256.6C94.6976 257.893 94.9976 258.933 95.5842 259.72C96.1709 260.5 97.0442 260.89 98.2042 260.89C98.9376 260.89 99.5609 260.723 100.074 260.39C100.594 260.05 100.988 259.557 101.254 258.91L102.734 259.35C102.334 260.31 101.748 261.043 100.974 261.55C100.201 262.05 99.2776 262.3 98.2042 262.3ZM104.798 262V251.2H106.118V253.8L105.858 253.46C105.978 253.14 106.135 252.847 106.328 252.58C106.522 252.307 106.732 252.083 106.958 251.91C107.238 251.663 107.565 251.477 107.938 251.35C108.312 251.217 108.688 251.14 109.068 251.12C109.448 251.093 109.795 251.12 110.108 251.2V252.58C109.715 252.48 109.285 252.457 108.818 252.51C108.352 252.563 107.922 252.75 107.528 253.07C107.168 253.35 106.898 253.687 106.718 254.08C106.538 254.467 106.418 254.88 106.358 255.32C106.298 255.753 106.268 256.183 106.268 256.61V262H104.798ZM116.32 262.3C115.247 262.3 114.33 262.057 113.57 261.57C112.81 261.083 112.227 260.41 111.82 259.55C111.413 258.69 111.21 257.703 111.21 256.59C111.21 255.457 111.417 254.463 111.83 253.61C112.243 252.757 112.83 252.093 113.59 251.62C114.357 251.14 115.267 250.9 116.32 250.9C117.4 250.9 118.32 251.143 119.08 251.63C119.847 252.11 120.43 252.78 120.83 253.64C121.237 254.493 121.44 255.477 121.44 256.59C121.44 257.723 121.237 258.72 120.83 259.58C120.423 260.433 119.837 261.1 119.07 261.58C118.303 262.06 117.387 262.3 116.32 262.3ZM116.32 260.89C117.52 260.89 118.413 260.493 119 259.7C119.587 258.9 119.88 257.863 119.88 256.59C119.88 255.283 119.583 254.243 118.99 253.47C118.403 252.697 117.513 252.31 116.32 252.31C115.513 252.31 114.847 252.493 114.32 252.86C113.8 253.22 113.41 253.723 113.15 254.37C112.897 255.01 112.77 255.75 112.77 256.59C112.77 257.89 113.07 258.933 113.67 259.72C114.27 260.5 115.153 260.89 116.32 260.89ZM123.846 262V247.3H125.316V262H123.846ZM128.514 262V247.3H129.984V262H128.514ZM139.286 262L135.986 251.19L137.456 251.2L140.016 259.59L142.586 251.2H143.926L146.496 259.59L149.076 251.2H150.536L147.236 262H145.956L143.256 253.4L140.566 262H139.286ZM160.138 262V256.49C160.138 255.89 160.081 255.34 159.968 254.84C159.854 254.333 159.671 253.893 159.418 253.52C159.171 253.14 158.848 252.847 158.448 252.64C158.054 252.433 157.574 252.33 157.008 252.33C156.488 252.33 156.028 252.42 155.628 252.6C155.234 252.78 154.901 253.04 154.628 253.38C154.361 253.713 154.158 254.12 154.018 254.6C153.878 255.08 153.808 255.627 153.808 256.24L152.768 256.01C152.768 254.903 152.961 253.973 153.348 253.22C153.734 252.467 154.268 251.897 154.948 251.51C155.628 251.123 156.408 250.93 157.288 250.93C157.934 250.93 158.498 251.03 158.978 251.23C159.464 251.43 159.874 251.7 160.208 252.04C160.548 252.38 160.821 252.77 161.028 253.21C161.234 253.643 161.384 254.107 161.478 254.6C161.571 255.087 161.618 255.573 161.618 256.06V262H160.138ZM152.328 262V247.6H153.658V255.73H153.808V262H152.328ZM168.783 262.3C167.729 262.3 166.816 262.067 166.043 261.6C165.276 261.133 164.679 260.477 164.253 259.63C163.826 258.783 163.613 257.79 163.613 256.65C163.613 255.47 163.823 254.45 164.243 253.59C164.663 252.73 165.253 252.067 166.013 251.6C166.779 251.133 167.683 250.9 168.723 250.9C169.789 250.9 170.699 251.147 171.453 251.64C172.206 252.127 172.776 252.827 173.163 253.74C173.549 254.653 173.726 255.743 173.693 257.01H172.193V256.49C172.166 255.09 171.863 254.033 171.283 253.32C170.709 252.607 169.869 252.25 168.763 252.25C167.603 252.25 166.713 252.627 166.093 253.38C165.479 254.133 165.173 255.207 165.173 256.6C165.173 257.96 165.479 259.017 166.093 259.77C166.713 260.517 167.589 260.89 168.723 260.89C169.496 260.89 170.169 260.713 170.743 260.36C171.323 260 171.779 259.483 172.113 258.81L173.483 259.34C173.056 260.28 172.426 261.01 171.593 261.53C170.766 262.043 169.829 262.3 168.783 262.3ZM164.653 257.01V255.78H172.903V257.01H164.653ZM180.482 262.3C179.428 262.3 178.515 262.067 177.742 261.6C176.975 261.133 176.378 260.477 175.952 259.63C175.525 258.783 175.312 257.79 175.312 256.65C175.312 255.47 175.522 254.45 175.942 253.59C176.362 252.73 176.952 252.067 177.712 251.6C178.478 251.133 179.382 250.9 180.422 250.9C181.488 250.9 182.398 251.147 183.152 251.64C183.905 252.127 184.475 252.827 184.862 253.74C185.248 254.653 185.425 255.743 185.392 257.01H183.892V256.49C183.865 255.09 183.562 254.033 182.982 253.32C182.408 252.607 181.568 252.25 180.462 252.25C179.302 252.25 178.412 252.627 177.792 253.38C177.178 254.133 176.872 255.207 176.872 256.6C176.872 257.96 177.178 259.017 177.792 259.77C178.412 260.517 179.288 260.89 180.422 260.89C181.195 260.89 181.868 260.713 182.442 260.36C183.022 260 183.478 259.483 183.812 258.81L185.182 259.34C184.755 260.28 184.125 261.01 183.292 261.53C182.465 262.043 181.528 262.3 180.482 262.3ZM176.352 257.01V255.78H184.602V257.01H176.352ZM187.811 262V247.3H189.281V262H187.811ZM197.353 262V250.4C197.353 250.12 197.366 249.843 197.393 249.57C197.426 249.297 197.489 249.037 197.583 248.79C197.676 248.537 197.823 248.303 198.023 248.09C198.243 247.85 198.483 247.677 198.743 247.57C199.003 247.457 199.273 247.383 199.553 247.35C199.839 247.317 200.119 247.3 200.393 247.3H201.773V248.54H200.493C199.933 248.54 199.513 248.677 199.233 248.95C198.959 249.223 198.823 249.653 198.823 250.24V262H197.353ZM195.483 252.46V251.2H201.773V252.46H195.483ZM207.492 262.3C206.419 262.3 205.502 262.057 204.742 261.57C203.982 261.083 203.399 260.41 202.992 259.55C202.585 258.69 202.382 257.703 202.382 256.59C202.382 255.457 202.589 254.463 203.002 253.61C203.415 252.757 204.002 252.093 204.762 251.62C205.529 251.14 206.439 250.9 207.492 250.9C208.572 250.9 209.492 251.143 210.252 251.63C211.019 252.11 211.602 252.78 212.002 253.64C212.409 254.493 212.612 255.477 212.612 256.59C212.612 257.723 212.409 258.72 212.002 259.58C211.595 260.433 211.009 261.1 210.242 261.58C209.475 262.06 208.559 262.3 207.492 262.3ZM207.492 260.89C208.692 260.89 209.585 260.493 210.172 259.7C210.759 258.9 211.052 257.863 211.052 256.59C211.052 255.283 210.755 254.243 210.162 253.47C209.575 252.697 208.685 252.31 207.492 252.31C206.685 252.31 206.019 252.493 205.492 252.86C204.972 253.22 204.582 253.723 204.322 254.37C204.069 255.01 203.942 255.75 203.942 256.59C203.942 257.89 204.242 258.933 204.842 259.72C205.442 260.5 206.325 260.89 207.492 260.89ZM214.818 262V251.2H216.138V253.8L215.878 253.46C215.998 253.14 216.155 252.847 216.348 252.58C216.541 252.307 216.751 252.083 216.978 251.91C217.258 251.663 217.585 251.477 217.958 251.35C218.331 251.217 218.708 251.14 219.088 251.12C219.468 251.093 219.815 251.12 220.128 251.2V252.58C219.735 252.48 219.305 252.457 218.838 252.51C218.371 252.563 217.941 252.75 217.548 253.07C217.188 253.35 216.918 253.687 216.738 254.08C216.558 254.467 216.438 254.88 216.378 255.32C216.318 255.753 216.288 256.183 216.288 256.61V262H214.818ZM225.029 262V261.69L231.999 252.57H225.549V251.2H234.419V251.54L227.459 260.63H234.039V262H225.029ZM240.324 262.3C239.251 262.3 238.334 262.057 237.574 261.57C236.814 261.083 236.231 260.41 235.824 259.55C235.417 258.69 235.214 257.703 235.214 256.59C235.214 255.457 235.421 254.463 235.834 253.61C236.247 252.757 236.834 252.093 237.594 251.62C238.361 251.14 239.271 250.9 240.324 250.9C241.404 250.9 242.324 251.143 243.084 251.63C243.851 252.11 244.434 252.78 244.834 253.64C245.241 254.493 245.444 255.477 245.444 256.59C245.444 257.723 245.241 258.72 244.834 259.58C244.427 260.433 243.841 261.1 243.074 261.58C242.307 262.06 241.391 262.3 240.324 262.3ZM240.324 260.89C241.524 260.89 242.417 260.493 243.004 259.7C243.591 258.9 243.884 257.863 243.884 256.59C243.884 255.283 243.587 254.243 242.994 253.47C242.407 252.697 241.517 252.31 240.324 252.31C239.517 252.31 238.851 252.493 238.324 252.86C237.804 253.22 237.414 253.723 237.154 254.37C236.901 255.01 236.774 255.75 236.774 256.59C236.774 257.89 237.074 258.933 237.674 259.72C238.274 260.5 239.157 260.89 240.324 260.89ZM252.16 262.3C251.087 262.3 250.17 262.057 249.41 261.57C248.65 261.083 248.067 260.41 247.66 259.55C247.253 258.69 247.05 257.703 247.05 256.59C247.05 255.457 247.257 254.463 247.67 253.61C248.083 252.757 248.67 252.093 249.43 251.62C250.197 251.14 251.107 250.9 252.16 250.9C253.24 250.9 254.16 251.143 254.92 251.63C255.687 252.11 256.27 252.78 256.67 253.64C257.077 254.493 257.28 255.477 257.28 256.59C257.28 257.723 257.077 258.72 256.67 259.58C256.263 260.433 255.677 261.1 254.91 261.58C254.143 262.06 253.227 262.3 252.16 262.3ZM252.16 260.89C253.36 260.89 254.253 260.493 254.84 259.7C255.427 258.9 255.72 257.863 255.72 256.59C255.72 255.283 255.423 254.243 254.83 253.47C254.243 252.697 253.353 252.31 252.16 252.31C251.353 252.31 250.687 252.493 250.16 252.86C249.64 253.22 249.25 253.723 248.99 254.37C248.737 255.01 248.61 255.75 248.61 256.59C248.61 257.89 248.91 258.933 249.51 259.72C250.11 260.5 250.993 260.89 252.16 260.89ZM272.366 262L272.376 254.91C272.376 254.077 272.143 253.423 271.676 252.95C271.216 252.47 270.629 252.23 269.916 252.23C269.509 252.23 269.113 252.323 268.726 252.51C268.339 252.697 268.019 252.997 267.766 253.41C267.519 253.823 267.396 254.363 267.396 255.03L266.526 254.78C266.506 254.007 266.656 253.33 266.976 252.75C267.303 252.17 267.749 251.72 268.316 251.4C268.889 251.073 269.536 250.91 270.256 250.91C271.343 250.91 272.213 251.247 272.866 251.92C273.519 252.587 273.846 253.49 273.846 254.63L273.836 262H272.366ZM259.476 262V251.2H260.796V253.86H260.956V262H259.476ZM265.936 262L265.946 255.01C265.946 254.15 265.716 253.473 265.256 252.98C264.803 252.48 264.203 252.23 263.456 252.23C262.709 252.23 262.106 252.487 261.646 253C261.186 253.507 260.956 254.183 260.956 255.03L260.076 254.55C260.076 253.857 260.239 253.237 260.566 252.69C260.893 252.137 261.339 251.703 261.906 251.39C262.473 251.07 263.116 250.91 263.836 250.91C264.523 250.91 265.133 251.057 265.666 251.35C266.206 251.643 266.629 252.07 266.936 252.63C267.243 253.19 267.396 253.87 267.396 254.67L267.386 262H265.936Z" fill="#1F1F1F"/>
<path d="M28.6485 320.386H27.4125C24.4745 320.386 22.0705 322.79 22.0705 325.728V334.195C22.0705 337.133 24.4745 339.537 27.4125 339.537H28.6485C31.5865 339.537 33.9905 337.133 33.9905 334.195V325.728C33.9905 322.79 31.5865 320.386 28.6485 320.386Z" fill="#D0CFCE"/>
<path d="M27.8355 326.867V321.294H26.2809C24.0185 321.294 22.6906 323.729 22.6906 325L22.6906 326.867C22.6906 328.134 22.6658 329 25 329C27.3342 329 27.8355 328.273 27.8355 326.867Z" fill="#4A4A4A" stroke="#4A4A4A" stroke-width="0.25"/>
<path d="M28.0305 323.056C27.7557 323.057 27.4924 323.166 27.2981 323.361C27.1038 323.555 26.9943 323.818 26.9935 324.093V327.01C26.9944 327.285 27.104 327.548 27.2983 327.742C27.4926 327.936 27.7558 328.046 28.0305 328.047C28.3052 328.046 28.5684 327.936 28.7627 327.742C28.957 327.548 29.0666 327.285 29.0675 327.01V324.093C29.0667 323.818 28.9572 323.555 28.7629 323.361C28.5686 323.166 28.3053 323.057 28.0305 323.056Z" fill="#3F3F3F"/>
<path d="M27.568 321.089C29.0815 321.738 30.52 322.67 30.6875 325.025C30.8815 327.753 29.8725 332.86 29.5475 335.454C29.321 337.267 28.424 338.107 27.2325 339.059C26.6325 339.539 29.866 339.48 31.1975 338.702C32.3405 338.034 33.4475 336.888 33.461 337.25L33.6225 324.348C33.6225 324.348 33.154 320.879 29.3395 320.878C29.3395 320.878 25.5135 320.681 27.568 321.089Z" fill="#9B9B9A"/>
<path fill-rule="evenodd" clip-rule="evenodd" d="M26.6465 321.173C24.4381 321.173 22.629 322.982 22.629 325.19V334.733C22.629 336.942 24.4376 338.75 26.6465 338.75H29.4145C29.4147 338.75 29.4148 338.75 29.415 338.75C31.6232 338.75 33.432 336.942 33.432 334.733V325.19C33.432 322.982 31.6234 321.173 29.4145 321.173H26.6465ZM29.4152 339.75C32.1755 339.75 34.432 337.494 34.432 334.733V325.19C34.432 322.429 32.1756 320.173 29.4145 320.173H26.6465C23.8859 320.173 21.629 322.429 21.629 325.19V334.733C21.629 337.494 23.8854 339.75 26.6465 339.75H29.4145C29.4147 339.75 29.4148 339.75 29.415 339.75" fill="black"/>
<path fill-rule="evenodd" clip-rule="evenodd" d="M27.9885 323.525C27.7063 323.525 27.4735 323.758 27.4735 324.04V327.062C27.474 327.198 27.5285 327.329 27.6251 327.426C27.7217 327.523 27.8526 327.577 27.9892 327.577H28.0725C28.0801 327.577 28.0876 327.578 28.0951 327.578C28.3667 327.566 28.5875 327.338 28.5875 327.063V324.04C28.5875 323.758 28.3545 323.525 28.0725 323.525H27.9885ZM28.0406 328.577C28.0512 328.578 28.0618 328.578 28.0725 328.578C28.9067 328.578 29.5875 327.898 29.5875 327.063V324.04C29.5875 323.206 28.9065 322.525 28.0725 322.525H27.9885C27.1547 322.525 26.4735 323.205 26.4735 324.04V327.062L26.4735 327.064C26.4745 327.465 26.6343 327.849 26.918 328.133C27.2016 328.417 27.5861 328.576 27.9873 328.577L27.9885 328.577H28.0406ZM17.8695 323.505C18.0648 323.7 18.0648 324.017 17.8696 324.212L15.605 326.477L17.8696 328.742C18.0648 328.937 18.0648 329.254 17.8695 329.449C17.6742 329.644 17.3577 329.644 17.1624 329.449L14.5549 326.841C14.4546 326.741 14.4059 326.608 14.4086 326.477C14.4059 326.346 14.4546 326.213 14.5549 326.113L17.1624 323.505C17.3577 323.31 17.6742 323.31 17.8695 323.505ZM38.2245 323.505C38.4197 323.31 38.7363 323.31 38.9316 323.505L41.5396 326.113C41.6399 326.213 41.6886 326.346 41.6859 326.477C41.6886 326.608 41.6399 326.741 41.5396 326.841L38.9316 329.449C38.7363 329.644 38.4197 329.644 38.2245 329.449C38.0292 329.254 38.0292 328.937 38.2245 328.742L40.4894 326.477L38.2245 324.212C38.0292 324.017 38.0292 323.7 38.2245 323.505Z" fill="black"/>
<rect x="0.5" y="304.5" width="55" height="51" rx="7.5" stroke="#CED3D6"/>
<path d="M87.23 338.3C85.7967 338.3 84.5867 337.983 83.6 337.35C82.6133 336.71 81.8667 335.827 81.36 334.7C80.8533 333.573 80.6 332.273 80.6 330.8C80.6 329.327 80.8533 328.027 81.36 326.9C81.8667 325.773 82.6133 324.893 83.6 324.26C84.5867 323.62 85.7967 323.3 87.23 323.3C88.9033 323.3 90.27 323.73 91.33 324.59C92.39 325.443 93.1167 326.59 93.51 328.03L92.01 328.42C91.7033 327.28 91.1533 326.377 90.36 325.71C89.5667 325.043 88.5233 324.71 87.23 324.71C86.1033 324.71 85.1667 324.967 84.42 325.48C83.6733 325.993 83.11 326.71 82.73 327.63C82.3567 328.543 82.1633 329.6 82.15 330.8C82.1433 332 82.3267 333.057 82.7 333.97C83.08 334.883 83.6467 335.6 84.4 336.12C85.16 336.633 86.1033 336.89 87.23 336.89C88.5233 336.89 89.5667 336.557 90.36 335.89C91.1533 335.217 91.7033 334.313 92.01 333.18L93.51 333.57C93.1167 335.01 92.39 336.16 91.33 337.02C90.27 337.873 88.9033 338.3 87.23 338.3ZM95.9164 338V323.3H97.3864V338H95.9164ZM100.584 325.15V323.5H102.054V325.15H100.584ZM100.584 338V327.2H102.054V338H100.584ZM109.532 338.3C108.446 338.3 107.526 338.057 106.772 337.57C106.019 337.083 105.446 336.413 105.052 335.56C104.666 334.7 104.466 333.713 104.452 332.6C104.466 331.467 104.672 330.473 105.072 329.62C105.472 328.76 106.049 328.093 106.802 327.62C107.556 327.14 108.469 326.9 109.542 326.9C110.636 326.9 111.586 327.167 112.392 327.7C113.206 328.233 113.762 328.963 114.062 329.89L112.622 330.35C112.369 329.703 111.966 329.203 111.412 328.85C110.866 328.49 110.239 328.31 109.532 328.31C108.739 328.31 108.082 328.493 107.562 328.86C107.042 329.22 106.656 329.723 106.402 330.37C106.149 331.017 106.019 331.76 106.012 332.6C106.026 333.893 106.326 334.933 106.912 335.72C107.499 336.5 108.372 336.89 109.532 336.89C110.266 336.89 110.889 336.723 111.402 336.39C111.922 336.05 112.316 335.557 112.582 334.91L114.062 335.35C113.662 336.31 113.076 337.043 112.302 337.55C111.529 338.05 110.606 338.3 109.532 338.3ZM116.117 338L116.127 323.6H117.607V332.4L122.427 327.2H124.387L119.327 332.6L125.047 338H122.907L117.607 332.8V338H116.117ZM133.142 338.3C132.329 338.3 131.646 338.153 131.092 337.86C130.546 337.567 130.136 337.177 129.862 336.69C129.589 336.203 129.452 335.673 129.452 335.1C129.452 334.513 129.569 334.013 129.802 333.6C130.042 333.18 130.366 332.837 130.772 332.57C131.186 332.303 131.662 332.1 132.202 331.96C132.749 331.827 133.352 331.71 134.012 331.61C134.679 331.503 135.329 331.413 135.962 331.34C136.602 331.26 137.162 331.183 137.642 331.11L137.122 331.43C137.142 330.363 136.936 329.573 136.502 329.06C136.069 328.547 135.316 328.29 134.242 328.29C133.502 328.29 132.876 328.457 132.362 328.79C131.856 329.123 131.499 329.65 131.292 330.37L129.862 329.95C130.109 328.983 130.606 328.233 131.352 327.7C132.099 327.167 133.069 326.9 134.262 326.9C135.249 326.9 136.086 327.087 136.772 327.46C137.466 327.827 137.956 328.36 138.242 329.06C138.376 329.373 138.462 329.723 138.502 330.11C138.542 330.497 138.562 330.89 138.562 331.29V338H137.252V335.29L137.632 335.45C137.266 336.377 136.696 337.083 135.922 337.57C135.149 338.057 134.222 338.3 133.142 338.3ZM133.312 337.03C133.999 337.03 134.599 336.907 135.112 336.66C135.626 336.413 136.039 336.077 136.352 335.65C136.666 335.217 136.869 334.73 136.962 334.19C137.042 333.843 137.086 333.463 137.092 333.05C137.099 332.63 137.102 332.317 137.102 332.11L137.662 332.4C137.162 332.467 136.619 332.533 136.032 332.6C135.452 332.667 134.879 332.743 134.312 332.83C133.752 332.917 133.246 333.02 132.792 333.14C132.486 333.227 132.189 333.35 131.902 333.51C131.616 333.663 131.379 333.87 131.192 334.13C131.012 334.39 130.922 334.713 130.922 335.1C130.922 335.413 130.999 335.717 131.152 336.01C131.312 336.303 131.566 336.547 131.912 336.74C132.266 336.933 132.732 337.03 133.312 337.03ZM148.966 338V332.49C148.966 331.89 148.909 331.34 148.796 330.84C148.682 330.333 148.499 329.893 148.246 329.52C147.999 329.14 147.676 328.847 147.276 328.64C146.882 328.433 146.402 328.33 145.836 328.33C145.316 328.33 144.856 328.42 144.456 328.6C144.062 328.78 143.729 329.04 143.456 329.38C143.189 329.713 142.986 330.12 142.846 330.6C142.706 331.08 142.636 331.627 142.636 332.24L141.596 332.01C141.596 330.903 141.789 329.973 142.176 329.22C142.562 328.467 143.096 327.897 143.776 327.51C144.456 327.123 145.236 326.93 146.116 326.93C146.762 326.93 147.326 327.03 147.806 327.23C148.292 327.43 148.702 327.7 149.036 328.04C149.376 328.38 149.649 328.77 149.856 329.21C150.062 329.643 150.212 330.107 150.306 330.6C150.399 331.087 150.446 331.573 150.446 332.06V338H148.966ZM141.156 338V327.2H142.486V329.86H142.636V338H141.156ZM157.172 338.3C156.165 338.3 155.305 338.05 154.592 337.55C153.879 337.043 153.332 336.36 152.952 335.5C152.572 334.64 152.382 333.67 152.382 332.59C152.382 331.517 152.569 330.55 152.942 329.69C153.322 328.83 153.865 328.15 154.572 327.65C155.279 327.15 156.125 326.9 157.112 326.9C158.125 326.9 158.979 327.147 159.672 327.64C160.365 328.133 160.889 328.81 161.242 329.67C161.602 330.523 161.782 331.497 161.782 332.59C161.782 333.663 161.605 334.633 161.252 335.5C160.899 336.36 160.379 337.043 159.692 337.55C159.005 338.05 158.165 338.3 157.172 338.3ZM157.322 336.93C158.089 336.93 158.722 336.743 159.222 336.37C159.722 335.997 160.095 335.483 160.342 334.83C160.589 334.17 160.712 333.423 160.712 332.59C160.712 331.743 160.589 330.997 160.342 330.35C160.095 329.697 159.722 329.187 159.222 328.82C158.729 328.453 158.105 328.27 157.352 328.27C156.579 328.27 155.939 328.46 155.432 328.84C154.925 329.22 154.549 329.737 154.302 330.39C154.062 331.043 153.942 331.777 153.942 332.59C153.942 333.41 154.065 334.15 154.312 334.81C154.565 335.463 154.942 335.98 155.442 336.36C155.942 336.74 156.569 336.93 157.322 336.93ZM160.712 338V329.87H160.552V323.6H162.032V338H160.712ZM173.031 338.3C172.025 338.3 171.165 338.05 170.451 337.55C169.738 337.043 169.191 336.36 168.811 335.5C168.431 334.64 168.241 333.67 168.241 332.59C168.241 331.517 168.428 330.55 168.801 329.69C169.181 328.83 169.725 328.15 170.431 327.65C171.138 327.15 171.985 326.9 172.971 326.9C173.985 326.9 174.838 327.147 175.531 327.64C176.225 328.133 176.748 328.81 177.101 329.67C177.461 330.523 177.641 331.497 177.641 332.59C177.641 333.663 177.465 334.633 177.111 335.5C176.758 336.36 176.238 337.043 175.551 337.55C174.865 338.05 174.025 338.3 173.031 338.3ZM173.181 336.93C173.948 336.93 174.581 336.743 175.081 336.37C175.581 335.997 175.955 335.483 176.201 334.83C176.448 334.17 176.571 333.423 176.571 332.59C176.571 331.743 176.448 330.997 176.201 330.35C175.955 329.697 175.581 329.187 175.081 328.82C174.588 328.453 173.965 328.27 173.211 328.27C172.438 328.27 171.798 328.46 171.291 328.84C170.785 329.22 170.408 329.737 170.161 330.39C169.921 331.043 169.801 331.777 169.801 332.59C169.801 333.41 169.925 334.15 170.171 334.81C170.425 335.463 170.801 335.98 171.301 336.36C171.801 336.74 172.428 336.93 173.181 336.93ZM176.571 338V329.87H176.411V323.6H177.891V338H176.571ZM180.697 338V327.2H182.017V329.8L181.757 329.46C181.877 329.14 182.034 328.847 182.227 328.58C182.42 328.307 182.63 328.083 182.857 327.91C183.137 327.663 183.464 327.477 183.837 327.35C184.21 327.217 184.587 327.14 184.967 327.12C185.347 327.093 185.694 327.12 186.007 327.2V328.58C185.614 328.48 185.184 328.457 184.717 328.51C184.25 328.563 183.82 328.75 183.427 329.07C183.067 329.35 182.797 329.687 182.617 330.08C182.437 330.467 182.317 330.88 182.257 331.32C182.197 331.753 182.167 332.183 182.167 332.61V338H180.697ZM190.584 338.3C189.77 338.3 189.087 338.153 188.534 337.86C187.987 337.567 187.577 337.177 187.304 336.69C187.03 336.203 186.894 335.673 186.894 335.1C186.894 334.513 187.01 334.013 187.244 333.6C187.484 333.18 187.807 332.837 188.214 332.57C188.627 332.303 189.104 332.1 189.644 331.96C190.19 331.827 190.794 331.71 191.454 331.61C192.12 331.503 192.77 331.413 193.404 331.34C194.044 331.26 194.604 331.183 195.084 331.11L194.564 331.43C194.584 330.363 194.377 329.573 193.944 329.06C193.51 328.547 192.757 328.29 191.684 328.29C190.944 328.29 190.317 328.457 189.804 328.79C189.297 329.123 188.94 329.65 188.734 330.37L187.304 329.95C187.55 328.983 188.047 328.233 188.794 327.7C189.54 327.167 190.51 326.9 191.704 326.9C192.69 326.9 193.527 327.087 194.214 327.46C194.907 327.827 195.397 328.36 195.684 329.06C195.817 329.373 195.904 329.723 195.944 330.11C195.984 330.497 196.004 330.89 196.004 331.29V338H194.694V335.29L195.074 335.45C194.707 336.377 194.137 337.083 193.364 337.57C192.59 338.057 191.664 338.3 190.584 338.3ZM190.754 337.03C191.44 337.03 192.04 336.907 192.554 336.66C193.067 336.413 193.48 336.077 193.794 335.65C194.107 335.217 194.31 334.73 194.404 334.19C194.484 333.843 194.527 333.463 194.534 333.05C194.54 332.63 194.544 332.317 194.544 332.11L195.104 332.4C194.604 332.467 194.06 332.533 193.474 332.6C192.894 332.667 192.32 332.743 191.754 332.83C191.194 332.917 190.687 333.02 190.234 333.14C189.927 333.227 189.63 333.35 189.344 333.51C189.057 333.663 188.82 333.87 188.634 334.13C188.454 334.39 188.364 334.713 188.364 335.1C188.364 335.413 188.44 335.717 188.594 336.01C188.754 336.303 189.007 336.547 189.354 336.74C189.707 336.933 190.174 337.03 190.754 337.03ZM202.897 343.1C202.344 343.1 201.797 343.017 201.257 342.85C200.724 342.69 200.23 342.433 199.777 342.08C199.324 341.733 198.944 341.28 198.637 340.72L199.967 339.98C200.267 340.58 200.687 341.01 201.227 341.27C201.774 341.537 202.33 341.67 202.897 341.67C203.677 341.67 204.307 341.523 204.787 341.23C205.274 340.943 205.627 340.517 205.847 339.95C206.067 339.383 206.174 338.677 206.167 337.83V334.95H206.337V327.2H207.647V337.85C207.647 338.157 207.637 338.45 207.617 338.73C207.604 339.017 207.574 339.297 207.527 339.57C207.4 340.377 207.137 341.04 206.737 341.56C206.344 342.08 205.824 342.467 205.177 342.72C204.537 342.973 203.777 343.1 202.897 343.1ZM202.797 338.3C201.79 338.3 200.93 338.05 200.217 337.55C199.504 337.043 198.957 336.36 198.577 335.5C198.197 334.64 198.007 333.67 198.007 332.59C198.007 331.517 198.194 330.55 198.567 329.69C198.947 328.83 199.49 328.15 200.197 327.65C200.904 327.15 201.75 326.9 202.737 326.9C203.75 326.9 204.604 327.147 205.297 327.64C205.99 328.133 206.514 328.81 206.867 329.67C207.227 330.523 207.407 331.497 207.407 332.59C207.407 333.663 207.23 334.633 206.877 335.5C206.524 336.36 206.004 337.043 205.317 337.55C204.63 338.05 203.79 338.3 202.797 338.3ZM202.947 336.93C203.714 336.93 204.347 336.743 204.847 336.37C205.347 335.997 205.72 335.483 205.967 334.83C206.214 334.17 206.337 333.423 206.337 332.59C206.337 331.743 206.214 330.997 205.967 330.35C205.72 329.697 205.347 329.187 204.847 328.82C204.354 328.453 203.73 328.27 202.977 328.27C202.204 328.27 201.564 328.46 201.057 328.84C200.55 329.22 200.174 329.737 199.927 330.39C199.687 331.043 199.567 331.777 199.567 332.59C199.567 333.41 199.69 334.15 199.937 334.81C200.19 335.463 200.567 335.98 201.067 336.36C201.567 336.74 202.194 336.93 202.947 336.93ZM220.327 338C219.72 338.127 219.12 338.177 218.527 338.15C217.94 338.123 217.414 337.997 216.947 337.77C216.487 337.543 216.137 337.19 215.897 336.71C215.704 336.31 215.597 335.907 215.577 335.5C215.564 335.087 215.557 334.617 215.557 334.09V324.2H217.017V334.03C217.017 334.483 217.02 334.863 217.027 335.17C217.04 335.47 217.11 335.737 217.237 335.97C217.477 336.417 217.857 336.683 218.377 336.77C218.904 336.857 219.554 336.837 220.327 336.71V338ZM213.247 328.46V327.2H220.327V328.46H213.247ZM226.574 338.3C225.501 338.3 224.584 338.057 223.824 337.57C223.064 337.083 222.481 336.41 222.074 335.55C221.667 334.69 221.464 333.703 221.464 332.59C221.464 331.457 221.671 330.463 222.084 329.61C222.497 328.757 223.084 328.093 223.844 327.62C224.611 327.14 225.521 326.9 226.574 326.9C227.654 326.9 228.574 327.143 229.334 327.63C230.101 328.11 230.684 328.78 231.084 329.64C231.491 330.493 231.694 331.477 231.694 332.59C231.694 333.723 231.491 334.72 231.084 335.58C230.677 336.433 230.091 337.1 229.324 337.58C228.557 338.06 227.641 338.3 226.574 338.3ZM226.574 336.89C227.774 336.89 228.667 336.493 229.254 335.7C229.841 334.9 230.134 333.863 230.134 332.59C230.134 331.283 229.837 330.243 229.244 329.47C228.657 328.697 227.767 328.31 226.574 328.31C225.767 328.31 225.101 328.493 224.574 328.86C224.054 329.22 223.664 329.723 223.404 330.37C223.151 331.01 223.024 331.75 223.024 332.59C223.024 333.89 223.324 334.933 223.924 335.72C224.524 336.5 225.407 336.89 226.574 336.89ZM238.104 338V323.3H239.574V338H238.104ZM247.082 338.3C246.009 338.3 245.092 338.057 244.332 337.57C243.572 337.083 242.989 336.41 242.582 335.55C242.175 334.69 241.972 333.703 241.972 332.59C241.972 331.457 242.179 330.463 242.592 329.61C243.005 328.757 243.592 328.093 244.352 327.62C245.119 327.14 246.029 326.9 247.082 326.9C248.162 326.9 249.082 327.143 249.842 327.63C250.609 328.11 251.192 328.78 251.592 329.64C251.999 330.493 252.202 331.477 252.202 332.59C252.202 333.723 251.999 334.72 251.592 335.58C251.185 336.433 250.599 337.1 249.832 337.58C249.065 338.06 248.149 338.3 247.082 338.3ZM247.082 336.89C248.282 336.89 249.175 336.493 249.762 335.7C250.349 334.9 250.642 333.863 250.642 332.59C250.642 331.283 250.345 330.243 249.752 329.47C249.165 328.697 248.275 328.31 247.082 328.31C246.275 328.31 245.609 328.493 245.082 328.86C244.562 329.22 244.172 329.723 243.912 330.37C243.659 331.01 243.532 331.75 243.532 332.59C243.532 333.89 243.832 334.933 244.432 335.72C245.032 336.5 245.915 336.89 247.082 336.89ZM258.918 338.3C257.844 338.3 256.928 338.057 256.168 337.57C255.408 337.083 254.824 336.41 254.418 335.55C254.011 334.69 253.808 333.703 253.808 332.59C253.808 331.457 254.014 330.463 254.428 329.61C254.841 328.757 255.428 328.093 256.188 327.62C256.954 327.14 257.864 326.9 258.918 326.9C259.998 326.9 260.918 327.143 261.678 327.63C262.444 328.11 263.028 328.78 263.428 329.64C263.834 330.493 264.038 331.477 264.038 332.59C264.038 333.723 263.834 334.72 263.428 335.58C263.021 336.433 262.434 337.1 261.668 337.58C260.901 338.06 259.984 338.3 258.918 338.3ZM258.918 336.89C260.118 336.89 261.011 336.493 261.598 335.7C262.184 334.9 262.478 333.863 262.478 332.59C262.478 331.283 262.181 330.243 261.588 329.47C261.001 328.697 260.111 328.31 258.918 328.31C258.111 328.31 257.444 328.493 256.918 328.86C256.398 329.22 256.008 329.723 255.748 330.37C255.494 331.01 255.368 331.75 255.368 332.59C255.368 333.89 255.668 334.933 256.268 335.72C256.868 336.5 257.751 336.89 258.918 336.89ZM266.234 338L266.244 323.6H267.724V332.4L272.544 327.2H274.504L269.444 332.6L275.164 338H273.024L267.724 332.8V338H266.234ZM283.26 338.3C282.446 338.3 281.763 338.153 281.21 337.86C280.663 337.567 280.253 337.177 279.98 336.69C279.706 336.203 279.57 335.673 279.57 335.1C279.57 334.513 279.686 334.013 279.92 333.6C280.16 333.18 280.483 332.837 280.89 332.57C281.303 332.303 281.78 332.1 282.32 331.96C282.866 331.827 283.47 331.71 284.13 331.61C284.796 331.503 285.446 331.413 286.08 331.34C286.72 331.26 287.28 331.183 287.76 331.11L287.24 331.43C287.26 330.363 287.053 329.573 286.62 329.06C286.186 328.547 285.433 328.29 284.36 328.29C283.62 328.29 282.993 328.457 282.48 328.79C281.973 329.123 281.616 329.65 281.41 330.37L279.98 329.95C280.226 328.983 280.723 328.233 281.47 327.7C282.216 327.167 283.186 326.9 284.38 326.9C285.366 326.9 286.203 327.087 286.89 327.46C287.583 327.827 288.073 328.36 288.36 329.06C288.493 329.373 288.58 329.723 288.62 330.11C288.66 330.497 288.68 330.89 288.68 331.29V338H287.37V335.29L287.75 335.45C287.383 336.377 286.813 337.083 286.04 337.57C285.266 338.057 284.34 338.3 283.26 338.3ZM283.43 337.03C284.116 337.03 284.716 336.907 285.23 336.66C285.743 336.413 286.156 336.077 286.47 335.65C286.783 335.217 286.986 334.73 287.08 334.19C287.16 333.843 287.203 333.463 287.21 333.05C287.216 332.63 287.22 332.317 287.22 332.11L287.78 332.4C287.28 332.467 286.736 332.533 286.15 332.6C285.57 332.667 284.996 332.743 284.43 332.83C283.87 332.917 283.363 333.02 282.91 333.14C282.603 333.227 282.306 333.35 282.02 333.51C281.733 333.663 281.496 333.87 281.31 334.13C281.13 334.39 281.04 334.713 281.04 335.1C281.04 335.413 281.116 335.717 281.27 336.01C281.43 336.303 281.683 336.547 282.03 336.74C282.383 336.933 282.85 337.03 283.43 337.03ZM291.283 338V327.2H292.603V329.8L292.343 329.46C292.463 329.14 292.619 328.847 292.813 328.58C293.006 328.307 293.216 328.083 293.443 327.91C293.723 327.663 294.049 327.477 294.423 327.35C294.796 327.217 295.173 327.14 295.553 327.12C295.933 327.093 296.279 327.12 296.593 327.2V328.58C296.199 328.48 295.769 328.457 295.303 328.51C294.836 328.563 294.406 328.75 294.013 329.07C293.653 329.35 293.383 329.687 293.203 330.08C293.023 330.467 292.903 330.88 292.843 331.32C292.783 331.753 292.753 332.183 292.753 332.61V338H291.283ZM302.805 338.3C301.731 338.3 300.815 338.057 300.055 337.57C299.295 337.083 298.711 336.41 298.305 335.55C297.898 334.69 297.695 333.703 297.695 332.59C297.695 331.457 297.901 330.463 298.315 329.61C298.728 328.757 299.315 328.093 300.075 327.62C300.841 327.14 301.751 326.9 302.805 326.9C303.885 326.9 304.805 327.143 305.565 327.63C306.331 328.11 306.915 328.78 307.315 329.64C307.721 330.493 307.925 331.477 307.925 332.59C307.925 333.723 307.721 334.72 307.315 335.58C306.908 336.433 306.321 337.1 305.555 337.58C304.788 338.06 303.871 338.3 302.805 338.3ZM302.805 336.89C304.005 336.89 304.898 336.493 305.485 335.7C306.071 334.9 306.365 333.863 306.365 332.59C306.365 331.283 306.068 330.243 305.475 329.47C304.888 328.697 303.998 328.31 302.805 328.31C301.998 328.31 301.331 328.493 300.805 328.86C300.285 329.22 299.895 329.723 299.635 330.37C299.381 331.01 299.255 331.75 299.255 332.59C299.255 333.89 299.555 334.933 300.155 335.72C300.755 336.5 301.638 336.89 302.805 336.89ZM314.26 338.27C313.614 338.27 313.047 338.17 312.56 337.97C312.08 337.77 311.67 337.5 311.33 337.16C310.997 336.82 310.727 336.433 310.52 336C310.314 335.56 310.164 335.097 310.07 334.61C309.977 334.117 309.93 333.627 309.93 333.14V327.2H311.41V332.71C311.41 333.303 311.467 333.853 311.58 334.36C311.694 334.867 311.874 335.31 312.12 335.69C312.374 336.063 312.697 336.353 313.09 336.56C313.49 336.767 313.974 336.87 314.54 336.87C315.06 336.87 315.517 336.78 315.91 336.6C316.31 336.42 316.644 336.163 316.91 335.83C317.184 335.49 317.39 335.08 317.53 334.6C317.67 334.113 317.74 333.567 317.74 332.96L318.78 333.19C318.78 334.297 318.587 335.227 318.2 335.98C317.814 336.733 317.28 337.303 316.6 337.69C315.92 338.077 315.14 338.27 314.26 338.27ZM317.89 338V335.34H317.74V327.2H319.21V338H317.89ZM329.805 338V332.49C329.805 331.89 329.749 331.34 329.635 330.84C329.522 330.333 329.339 329.893 329.085 329.52C328.839 329.14 328.515 328.847 328.115 328.64C327.722 328.433 327.242 328.33 326.675 328.33C326.155 328.33 325.695 328.42 325.295 328.6C324.902 328.78 324.569 329.04 324.295 329.38C324.029 329.713 323.825 330.12 323.685 330.6C323.545 331.08 323.475 331.627 323.475 332.24L322.435 332.01C322.435 330.903 322.629 329.973 323.015 329.22C323.402 328.467 323.935 327.897 324.615 327.51C325.295 327.123 326.075 326.93 326.955 326.93C327.602 326.93 328.165 327.03 328.645 327.23C329.132 327.43 329.542 327.7 329.875 328.04C330.215 328.38 330.489 328.77 330.695 329.21C330.902 329.643 331.052 330.107 331.145 330.6C331.239 331.087 331.285 331.573 331.285 332.06V338H329.805ZM321.995 338V327.2H323.325V329.86H323.475V338H321.995ZM338.012 338.3C337.005 338.3 336.145 338.05 335.432 337.55C334.719 337.043 334.172 336.36 333.792 335.5C333.412 334.64 333.222 333.67 333.222 332.59C333.222 331.517 333.409 330.55 333.782 329.69C334.162 328.83 334.705 328.15 335.412 327.65C336.119 327.15 336.965 326.9 337.952 326.9C338.965 326.9 339.819 327.147 340.512 327.64C341.205 328.133 341.729 328.81 342.082 329.67C342.442 330.523 342.622 331.497 342.622 332.59C342.622 333.663 342.445 334.633 342.092 335.5C341.739 336.36 341.219 337.043 340.532 337.55C339.845 338.05 339.005 338.3 338.012 338.3ZM338.162 336.93C338.929 336.93 339.562 336.743 340.062 336.37C340.562 335.997 340.935 335.483 341.182 334.83C341.429 334.17 341.552 333.423 341.552 332.59C341.552 331.743 341.429 330.997 341.182 330.35C340.935 329.697 340.562 329.187 340.062 328.82C339.569 328.453 338.945 328.27 338.192 328.27C337.419 328.27 336.779 328.46 336.272 328.84C335.765 329.22 335.389 329.737 335.142 330.39C334.902 331.043 334.782 331.777 334.782 332.59C334.782 333.41 334.905 334.15 335.152 334.81C335.405 335.463 335.782 335.98 336.282 336.36C336.782 336.74 337.409 336.93 338.162 336.93ZM341.552 338V329.87H341.392V323.6H342.872V338H341.552Z" fill="#1F1F1F"/>
</svg>
