<svg width="450" height="356" viewBox="0 0 450 356" fill="none" xmlns="http://www.w3.org/2000/svg">
<path d="M28 33V19" stroke="#002336" stroke-width="2" stroke-linecap="round" stroke-linejoin="round"/>
<path d="M21 26L28 19L35 26" stroke="#002336" stroke-width="2" stroke-linecap="round" stroke-linejoin="round"/>
<rect x="0.5" y="0.5" width="55" height="51" rx="7.5" stroke="#CED3D6"/>
<path d="M90.5462 33L86.8516 19.9091H89.402L91.7607 29.5291H91.8821L94.4006 19.9091H96.7209L99.2457 29.5355H99.3608L101.719 19.9091H104.27L100.575 33H98.2358L95.6151 23.8146H95.5128L92.8857 33H90.5462Z" fill="#002336"/>
<rect x="68.5" y="0.5" width="55" height="51" rx="7.5" stroke="#CED3D6"/>
<path d="M148.73 36.4V32.59C149.29 32.59 149.74 32.45 150.08 32.17C150.42 31.8833 150.68 31.5033 150.86 31.03C151.04 30.5567 151.177 30.0267 151.27 29.44C151.363 28.8467 151.443 28.2467 151.51 27.64C151.603 26.7533 151.677 25.8967 151.73 25.07C151.79 24.2433 151.84 23.3867 151.88 22.5C151.927 21.6133 151.98 20.6433 152.04 19.59L160.92 19.6V32.59H161.95V36.4H160.49V34H150.2V36.4H148.73ZM151.54 32.59H159.45V21.01L153.41 21C153.37 21.8133 153.33 22.6 153.29 23.36C153.25 24.12 153.203 24.8867 153.15 25.66C153.097 26.4333 153.027 27.24 152.94 28.08C152.867 28.8467 152.78 29.5167 152.68 30.09C152.58 30.6633 152.44 31.1533 152.26 31.56C152.087 31.9667 151.847 32.31 151.54 32.59ZM164.136 34V23.2H168.586C168.813 23.2 169.086 23.2133 169.406 23.24C169.733 23.2667 170.036 23.3167 170.316 23.39C170.923 23.55 171.409 23.8767 171.776 24.37C172.149 24.8633 172.336 25.4567 172.336 26.15C172.336 26.5367 172.276 26.8833 172.156 27.19C172.043 27.49 171.879 27.75 171.666 27.97C171.566 28.0833 171.456 28.1833 171.336 28.27C171.216 28.35 171.099 28.4167 170.986 28.47C171.199 28.51 171.429 28.6033 171.676 28.75C172.063 28.9767 172.356 29.2833 172.556 29.67C172.756 30.05 172.856 30.5133 172.856 31.06C172.856 31.8 172.679 32.4033 172.326 32.87C171.973 33.3367 171.499 33.6567 170.906 33.83C170.639 33.9033 170.349 33.95 170.036 33.97C169.729 33.99 169.439 34 169.166 34H164.136ZM165.616 32.75H169.096C169.236 32.75 169.413 32.74 169.626 32.72C169.839 32.6933 170.029 32.66 170.196 32.62C170.589 32.52 170.876 32.32 171.056 32.02C171.243 31.7133 171.336 31.38 171.336 31.02C171.336 30.5467 171.196 30.16 170.916 29.86C170.643 29.5533 170.276 29.3667 169.816 29.3C169.663 29.2667 169.503 29.2467 169.336 29.24C169.169 29.2333 169.019 29.23 168.886 29.23H165.616V32.75ZM165.616 27.97H168.636C168.809 27.97 169.003 27.96 169.216 27.94C169.436 27.9133 169.626 27.87 169.786 27.81C170.133 27.69 170.386 27.4833 170.546 27.19C170.713 26.8967 170.796 26.5767 170.796 26.23C170.796 25.85 170.706 25.5167 170.526 25.23C170.353 24.9433 170.089 24.7433 169.736 24.63C169.496 24.5433 169.236 24.4933 168.956 24.48C168.683 24.4667 168.509 24.46 168.436 24.46H165.616V27.97ZM183.429 23.2V34H181.999V25.59L176.079 34H174.839V23.2H176.269V31.54L182.199 23.2H183.429ZM185.036 34L189.596 28.6L185.226 23.2H186.886L191.146 28.53V23.2H192.506V28.53L196.766 23.2H198.416L194.046 28.6L198.606 34H196.896L192.506 28.67V34H191.146V28.67L186.746 34H185.036ZM204.38 34.3C203.327 34.3 202.413 34.0667 201.64 33.6C200.873 33.1333 200.277 32.4767 199.85 31.63C199.423 30.7833 199.21 29.79 199.21 28.65C199.21 27.47 199.42 26.45 199.84 25.59C200.26 24.73 200.85 24.0667 201.61 23.6C202.377 23.1333 203.28 22.9 204.32 22.9C205.387 22.9 206.297 23.1467 207.05 23.64C207.803 24.1267 208.373 24.8267 208.76 25.74C209.147 26.6533 209.323 27.7433 209.29 29.01H207.79V28.49C207.763 27.09 207.46 26.0333 206.88 25.32C206.307 24.6067 205.467 24.25 204.36 24.25C203.2 24.25 202.31 24.6267 201.69 25.38C201.077 26.1333 200.77 27.2067 200.77 28.6C200.77 29.96 201.077 31.0167 201.69 31.77C202.31 32.5167 203.187 32.89 204.32 32.89C205.093 32.89 205.767 32.7133 206.34 32.36C206.92 32 207.377 31.4833 207.71 30.81L209.08 31.34C208.653 32.28 208.023 33.01 207.19 33.53C206.363 34.0433 205.427 34.3 204.38 34.3ZM200.25 29.01V27.78H208.5V29.01H200.25ZM211.499 34V23.2H212.969V27.89H219.059V23.2H220.529V34H219.059V29.3H212.969V34H211.499ZM231.906 23.2V34H230.476V25.59L224.556 34H223.316V23.2H224.746V31.54L230.676 23.2H231.906ZM239.283 34.3C238.229 34.3 237.316 34.0667 236.543 33.6C235.776 33.1333 235.179 32.4767 234.753 31.63C234.326 30.7833 234.113 29.79 234.113 28.65C234.113 27.47 234.323 26.45 234.743 25.59C235.163 24.73 235.753 24.0667 236.513 23.6C237.279 23.1333 238.183 22.9 239.223 22.9C240.289 22.9 241.199 23.1467 241.953 23.64C242.706 24.1267 243.276 24.8267 243.663 25.74C244.049 26.6533 244.226 27.7433 244.193 29.01H242.693V28.49C242.666 27.09 242.363 26.0333 241.783 25.32C241.209 24.6067 240.369 24.25 239.263 24.25C238.103 24.25 237.213 24.6267 236.593 25.38C235.979 26.1333 235.673 27.2067 235.673 28.6C235.673 29.96 235.979 31.0167 236.593 31.77C237.213 32.5167 238.089 32.89 239.223 32.89C239.996 32.89 240.669 32.7133 241.243 32.36C241.823 32 242.279 31.4833 242.613 30.81L243.983 31.34C243.556 32.28 242.926 33.01 242.093 33.53C241.266 34.0433 240.329 34.3 239.283 34.3ZM235.153 29.01V27.78H243.403V29.01H235.153ZM250.406 34V23.2H254.856C255.082 23.2 255.356 23.2133 255.676 23.24C256.002 23.2667 256.306 23.3167 256.586 23.39C257.192 23.55 257.679 23.8767 258.046 24.37C258.419 24.8633 258.606 25.4567 258.606 26.15C258.606 26.5367 258.546 26.8833 258.426 27.19C258.312 27.49 258.149 27.75 257.936 27.97C257.836 28.0833 257.726 28.1833 257.606 28.27C257.486 28.35 257.369 28.4167 257.256 28.47C257.469 28.51 257.699 28.6033 257.946 28.75C258.332 28.9767 258.626 29.2833 258.826 29.67C259.026 30.05 259.126 30.5133 259.126 31.06C259.126 31.8 258.949 32.4033 258.596 32.87C258.242 33.3367 257.769 33.6567 257.176 33.83C256.909 33.9033 256.619 33.95 256.306 33.97C255.999 33.99 255.709 34 255.436 34H250.406ZM251.886 32.75H255.366C255.506 32.75 255.682 32.74 255.896 32.72C256.109 32.6933 256.299 32.66 256.466 32.62C256.859 32.52 257.146 32.32 257.326 32.02C257.512 31.7133 257.606 31.38 257.606 31.02C257.606 30.5467 257.466 30.16 257.186 29.86C256.912 29.5533 256.546 29.3667 256.086 29.3C255.932 29.2667 255.772 29.2467 255.606 29.24C255.439 29.2333 255.289 29.23 255.156 29.23H251.886V32.75ZM251.886 27.97H254.906C255.079 27.97 255.272 27.96 255.486 27.94C255.706 27.9133 255.896 27.87 256.056 27.81C256.402 27.69 256.656 27.4833 256.816 27.19C256.982 26.8967 257.066 26.5767 257.066 26.23C257.066 25.85 256.976 25.5167 256.796 25.23C256.622 24.9433 256.359 24.7433 256.006 24.63C255.766 24.5433 255.506 24.4933 255.226 24.48C254.952 24.4667 254.779 24.46 254.706 24.46H251.886V27.97ZM261.109 34V23.2H269.699V34H268.229V24.61H262.579V34H261.109ZM277.075 34.3C276.022 34.3 275.109 34.0667 274.335 33.6C273.569 33.1333 272.972 32.4767 272.545 31.63C272.119 30.7833 271.905 29.79 271.905 28.65C271.905 27.47 272.115 26.45 272.535 25.59C272.955 24.73 273.545 24.0667 274.305 23.6C275.072 23.1333 275.975 22.9 277.015 22.9C278.082 22.9 278.992 23.1467 279.745 23.64C280.499 24.1267 281.069 24.8267 281.455 25.74C281.842 26.6533 282.019 27.7433 281.985 29.01H280.485V28.49C280.459 27.09 280.155 26.0333 279.575 25.32C279.002 24.6067 278.162 24.25 277.055 24.25C275.895 24.25 275.005 24.6267 274.385 25.38C273.772 26.1333 273.465 27.2067 273.465 28.6C273.465 29.96 273.772 31.0167 274.385 31.77C275.005 32.5167 275.882 32.89 277.015 32.89C277.789 32.89 278.462 32.7133 279.035 32.36C279.615 32 280.072 31.4833 280.405 30.81L281.775 31.34C281.349 32.28 280.719 33.01 279.885 33.53C279.059 34.0433 278.122 34.3 277.075 34.3ZM272.945 29.01V27.78H281.195V29.01H272.945ZM289.055 34.3C288.061 34.3 287.221 34.05 286.535 33.55C285.848 33.0433 285.328 32.36 284.975 31.5C284.621 30.6333 284.445 29.6633 284.445 28.59C284.445 27.4967 284.621 26.5233 284.975 25.67C285.335 24.81 285.861 24.1333 286.555 23.64C287.248 23.1467 288.101 22.9 289.115 22.9C290.101 22.9 290.948 23.15 291.655 23.65C292.361 24.15 292.901 24.83 293.275 25.69C293.655 26.55 293.845 27.5167 293.845 28.59C293.845 29.67 293.655 30.64 293.275 31.5C292.895 32.36 292.348 33.0433 291.635 33.55C290.921 34.05 290.061 34.3 289.055 34.3ZM284.195 38.8V23.2H285.515V31.33H285.675V38.8H284.195ZM288.905 32.93C289.658 32.93 290.285 32.74 290.785 32.36C291.285 31.98 291.658 31.4633 291.905 30.81C292.158 30.15 292.285 29.41 292.285 28.59C292.285 27.7767 292.161 27.0433 291.915 26.39C291.668 25.7367 291.291 25.22 290.785 24.84C290.285 24.46 289.648 24.27 288.875 24.27C288.121 24.27 287.495 24.4533 286.995 24.82C286.501 25.1867 286.131 25.6967 285.885 26.35C285.638 26.9967 285.515 27.7433 285.515 28.59C285.515 29.4233 285.638 30.17 285.885 30.83C286.131 31.4833 286.505 31.9967 287.005 32.37C287.505 32.7433 288.138 32.93 288.905 32.93ZM300.611 34.3C299.557 34.3 298.644 34.0667 297.871 33.6C297.104 33.1333 296.507 32.4767 296.081 31.63C295.654 30.7833 295.441 29.79 295.441 28.65C295.441 27.47 295.651 26.45 296.071 25.59C296.491 24.73 297.081 24.0667 297.841 23.6C298.607 23.1333 299.511 22.9 300.551 22.9C301.617 22.9 302.527 23.1467 303.281 23.64C304.034 24.1267 304.604 24.8267 304.991 25.74C305.377 26.6533 305.554 27.7433 305.521 29.01H304.021V28.49C303.994 27.09 303.691 26.0333 303.111 25.32C302.537 24.6067 301.697 24.25 300.591 24.25C299.431 24.25 298.541 24.6267 297.921 25.38C297.307 26.1333 297.001 27.2067 297.001 28.6C297.001 29.96 297.307 31.0167 297.921 31.77C298.541 32.5167 299.417 32.89 300.551 32.89C301.324 32.89 301.997 32.7133 302.571 32.36C303.151 32 303.607 31.4833 303.941 30.81L305.311 31.34C304.884 32.28 304.254 33.01 303.421 33.53C302.594 34.0433 301.657 34.3 300.611 34.3ZM296.481 29.01V27.78H304.731V29.01H296.481ZM306.94 36.4V32.74C307.553 32.74 307.993 32.5433 308.26 32.15C308.527 31.75 308.743 31.1133 308.91 30.24C309.023 29.6733 309.117 29.0633 309.19 28.41C309.263 27.7567 309.327 27.01 309.38 26.17C309.433 25.3233 309.483 24.3333 309.53 23.2H316.67V32.74H317.71V36.4H316.29V34H308.35V36.4H306.94ZM309.43 32.74H315.21V24.46H310.89C310.87 24.9667 310.84 25.5033 310.8 26.07C310.767 26.6367 310.723 27.2033 310.67 27.77C310.623 28.3367 310.567 28.87 310.5 29.37C310.44 29.8633 310.367 30.2967 310.28 30.67C310.18 31.15 310.07 31.56 309.95 31.9C309.837 32.24 309.663 32.52 309.43 32.74Z" fill="#1F1F1F"/>
<path d="M28 95V109" stroke="#002336" stroke-width="2" stroke-linecap="round" stroke-linejoin="round"/>
<path d="M21 102L28 109L35 102" stroke="#002336" stroke-width="2" stroke-linecap="round" stroke-linejoin="round"/>
<rect x="0.5" y="76.5" width="55" height="51" rx="7.5" stroke="#CED3D6"/>
<path d="M98.4055 99.5078C98.3459 98.9496 98.0945 98.5149 97.6513 98.2038C97.2124 97.8928 96.6413 97.7372 95.9382 97.7372C95.4439 97.7372 95.0199 97.8118 94.6662 97.9609C94.3125 98.1101 94.0419 98.3125 93.8544 98.5682C93.6669 98.8239 93.571 99.1158 93.5668 99.4439C93.5668 99.7166 93.6286 99.9531 93.7521 100.153C93.88 100.354 94.0526 100.524 94.2699 100.665C94.4872 100.801 94.728 100.916 94.9922 101.01C95.2564 101.104 95.5227 101.183 95.7912 101.246L97.0185 101.553C97.5128 101.668 97.9879 101.824 98.4439 102.02C98.9041 102.216 99.3153 102.463 99.6776 102.761C100.044 103.06 100.334 103.42 100.547 103.842C100.76 104.263 100.866 104.758 100.866 105.325C100.866 106.092 100.67 106.767 100.278 107.351C99.8864 107.93 99.3196 108.384 98.5781 108.712C97.8409 109.036 96.9482 109.198 95.8999 109.198C94.8814 109.198 93.9972 109.04 93.2472 108.725C92.5014 108.41 91.9176 107.95 91.4957 107.344C91.0781 106.739 90.8523 106.002 90.8182 105.133H93.1513C93.1854 105.589 93.326 105.968 93.5732 106.271C93.8203 106.573 94.142 106.799 94.5384 106.948C94.9389 107.097 95.3864 107.172 95.8807 107.172C96.3963 107.172 96.848 107.095 97.2358 106.942C97.6278 106.784 97.9347 106.567 98.1562 106.29C98.3778 106.009 98.4908 105.68 98.495 105.305C98.4908 104.964 98.3906 104.683 98.1946 104.462C97.9986 104.236 97.7237 104.048 97.37 103.899C97.0206 103.746 96.6115 103.609 96.1428 103.49L94.6534 103.107C93.5753 102.83 92.723 102.41 92.0966 101.847C91.4744 101.281 91.1634 100.528 91.1634 99.5909C91.1634 98.8196 91.3722 98.1442 91.7898 97.5646C92.2116 96.9851 92.7848 96.5355 93.5092 96.2159C94.2337 95.892 95.054 95.7301 95.9702 95.7301C96.8991 95.7301 97.7131 95.892 98.4119 96.2159C99.1151 96.5355 99.6669 96.9808 100.067 97.5518C100.468 98.1186 100.675 98.7706 100.688 99.5078H98.4055Z" fill="#002336"/>
<rect x="68.5" y="76.5" width="55" height="51" rx="7.5" stroke="#CED3D6"/>
<path d="M148.73 112.4V108.59C149.29 108.59 149.74 108.45 150.08 108.17C150.42 107.883 150.68 107.503 150.86 107.03C151.04 106.557 151.177 106.027 151.27 105.44C151.363 104.847 151.443 104.247 151.51 103.64C151.603 102.753 151.677 101.897 151.73 101.07C151.79 100.243 151.84 99.3867 151.88 98.5C151.927 97.6133 151.98 96.6433 152.04 95.59L160.92 95.6V108.59H161.95V112.4H160.49V110H150.2V112.4H148.73ZM151.54 108.59H159.45V97.01L153.41 97C153.37 97.8133 153.33 98.6 153.29 99.36C153.25 100.12 153.203 100.887 153.15 101.66C153.097 102.433 153.027 103.24 152.94 104.08C152.867 104.847 152.78 105.517 152.68 106.09C152.58 106.663 152.44 107.153 152.26 107.56C152.087 107.967 151.847 108.31 151.54 108.59ZM164.136 110V99.2H168.586C168.813 99.2 169.086 99.2133 169.406 99.24C169.733 99.2667 170.036 99.3167 170.316 99.39C170.923 99.55 171.409 99.8767 171.776 100.37C172.149 100.863 172.336 101.457 172.336 102.15C172.336 102.537 172.276 102.883 172.156 103.19C172.043 103.49 171.879 103.75 171.666 103.97C171.566 104.083 171.456 104.183 171.336 104.27C171.216 104.35 171.099 104.417 170.986 104.47C171.199 104.51 171.429 104.603 171.676 104.75C172.063 104.977 172.356 105.283 172.556 105.67C172.756 106.05 172.856 106.513 172.856 107.06C172.856 107.8 172.679 108.403 172.326 108.87C171.973 109.337 171.499 109.657 170.906 109.83C170.639 109.903 170.349 109.95 170.036 109.97C169.729 109.99 169.439 110 169.166 110H164.136ZM165.616 108.75H169.096C169.236 108.75 169.413 108.74 169.626 108.72C169.839 108.693 170.029 108.66 170.196 108.62C170.589 108.52 170.876 108.32 171.056 108.02C171.243 107.713 171.336 107.38 171.336 107.02C171.336 106.547 171.196 106.16 170.916 105.86C170.643 105.553 170.276 105.367 169.816 105.3C169.663 105.267 169.503 105.247 169.336 105.24C169.169 105.233 169.019 105.23 168.886 105.23H165.616V108.75ZM165.616 103.97H168.636C168.809 103.97 169.003 103.96 169.216 103.94C169.436 103.913 169.626 103.87 169.786 103.81C170.133 103.69 170.386 103.483 170.546 103.19C170.713 102.897 170.796 102.577 170.796 102.23C170.796 101.85 170.706 101.517 170.526 101.23C170.353 100.943 170.089 100.743 169.736 100.63C169.496 100.543 169.236 100.493 168.956 100.48C168.683 100.467 168.509 100.46 168.436 100.46H165.616V103.97ZM183.429 99.2V110H181.999V101.59L176.079 110H174.839V99.2H176.269V107.54L182.199 99.2H183.429ZM185.036 110L189.596 104.6L185.226 99.2H186.886L191.146 104.53V99.2H192.506V104.53L196.766 99.2H198.416L194.046 104.6L198.606 110H196.896L192.506 104.67V110H191.146V104.67L186.746 110H185.036ZM204.38 110.3C203.327 110.3 202.413 110.067 201.64 109.6C200.873 109.133 200.277 108.477 199.85 107.63C199.423 106.783 199.21 105.79 199.21 104.65C199.21 103.47 199.42 102.45 199.84 101.59C200.26 100.73 200.85 100.067 201.61 99.6C202.377 99.1333 203.28 98.9 204.32 98.9C205.387 98.9 206.297 99.1467 207.05 99.64C207.803 100.127 208.373 100.827 208.76 101.74C209.147 102.653 209.323 103.743 209.29 105.01H207.79V104.49C207.763 103.09 207.46 102.033 206.88 101.32C206.307 100.607 205.467 100.25 204.36 100.25C203.2 100.25 202.31 100.627 201.69 101.38C201.077 102.133 200.77 103.207 200.77 104.6C200.77 105.96 201.077 107.017 201.69 107.77C202.31 108.517 203.187 108.89 204.32 108.89C205.093 108.89 205.767 108.713 206.34 108.36C206.92 108 207.377 107.483 207.71 106.81L209.08 107.34C208.653 108.28 208.023 109.01 207.19 109.53C206.363 110.043 205.427 110.3 204.38 110.3ZM200.25 105.01V103.78H208.5V105.01H200.25ZM211.499 110V99.2H212.969V103.89H219.059V99.2H220.529V110H219.059V105.3H212.969V110H211.499ZM231.906 99.2V110H230.476V101.59L224.556 110H223.316V99.2H224.746V107.54L230.676 99.2H231.906ZM239.283 110.3C238.229 110.3 237.316 110.067 236.543 109.6C235.776 109.133 235.179 108.477 234.753 107.63C234.326 106.783 234.113 105.79 234.113 104.65C234.113 103.47 234.323 102.45 234.743 101.59C235.163 100.73 235.753 100.067 236.513 99.6C237.279 99.1333 238.183 98.9 239.223 98.9C240.289 98.9 241.199 99.1467 241.953 99.64C242.706 100.127 243.276 100.827 243.663 101.74C244.049 102.653 244.226 103.743 244.193 105.01H242.693V104.49C242.666 103.09 242.363 102.033 241.783 101.32C241.209 100.607 240.369 100.25 239.263 100.25C238.103 100.25 237.213 100.627 236.593 101.38C235.979 102.133 235.673 103.207 235.673 104.6C235.673 105.96 235.979 107.017 236.593 107.77C237.213 108.517 238.089 108.89 239.223 108.89C239.996 108.89 240.669 108.713 241.243 108.36C241.823 108 242.279 107.483 242.613 106.81L243.983 107.34C243.556 108.28 242.926 109.01 242.093 109.53C241.266 110.043 240.329 110.3 239.283 110.3ZM235.153 105.01V103.78H243.403V105.01H235.153ZM250.406 110V99.2H251.876V103.89H257.966V99.2H259.436V110H257.966V105.3H251.876V110H250.406ZM265.322 110.3C264.509 110.3 263.825 110.153 263.272 109.86C262.725 109.567 262.315 109.177 262.042 108.69C261.769 108.203 261.632 107.673 261.632 107.1C261.632 106.513 261.749 106.013 261.982 105.6C262.222 105.18 262.545 104.837 262.952 104.57C263.365 104.303 263.842 104.1 264.382 103.96C264.929 103.827 265.532 103.71 266.192 103.61C266.859 103.503 267.509 103.413 268.142 103.34C268.782 103.26 269.342 103.183 269.822 103.11L269.302 103.43C269.322 102.363 269.115 101.573 268.682 101.06C268.249 100.547 267.495 100.29 266.422 100.29C265.682 100.29 265.055 100.457 264.542 100.79C264.035 101.123 263.679 101.65 263.472 102.37L262.042 101.95C262.289 100.983 262.785 100.233 263.532 99.7C264.279 99.1667 265.249 98.9 266.442 98.9C267.429 98.9 268.265 99.0867 268.952 99.46C269.645 99.8267 270.135 100.36 270.422 101.06C270.555 101.373 270.642 101.723 270.682 102.11C270.722 102.497 270.742 102.89 270.742 103.29V110H269.432V107.29L269.812 107.45C269.445 108.377 268.875 109.083 268.102 109.57C267.329 110.057 266.402 110.3 265.322 110.3ZM265.492 109.03C266.179 109.03 266.779 108.907 267.292 108.66C267.805 108.413 268.219 108.077 268.532 107.65C268.845 107.217 269.049 106.73 269.142 106.19C269.222 105.843 269.265 105.463 269.272 105.05C269.279 104.63 269.282 104.317 269.282 104.11L269.842 104.4C269.342 104.467 268.799 104.533 268.212 104.6C267.632 104.667 267.059 104.743 266.492 104.83C265.932 104.917 265.425 105.02 264.972 105.14C264.665 105.227 264.369 105.35 264.082 105.51C263.795 105.663 263.559 105.87 263.372 106.13C263.192 106.39 263.102 106.713 263.102 107.1C263.102 107.413 263.179 107.717 263.332 108.01C263.492 108.303 263.745 108.547 264.092 108.74C264.445 108.933 264.912 109.03 265.492 109.03ZM277.235 110.3C276.149 110.3 275.199 110.063 274.385 109.59C273.579 109.11 272.942 108.447 272.475 107.6L273.655 106.85C274.049 107.517 274.539 108.023 275.125 108.37C275.712 108.717 276.385 108.89 277.145 108.89C277.939 108.89 278.575 108.707 279.055 108.34C279.535 107.973 279.775 107.47 279.775 106.83C279.775 106.39 279.672 106.04 279.465 105.78C279.265 105.52 278.959 105.333 278.545 105.22C278.139 105.107 277.629 105.05 277.015 105.05H275.735V103.79H276.995C277.742 103.79 278.342 103.657 278.795 103.39C279.255 103.117 279.485 102.69 279.485 102.11C279.485 101.497 279.255 101.043 278.795 100.75C278.342 100.45 277.799 100.3 277.165 100.3C276.525 100.3 275.919 100.433 275.345 100.7C274.779 100.96 274.302 101.297 273.915 101.71L272.975 100.72C273.515 100.127 274.145 99.6767 274.865 99.37C275.592 99.0567 276.395 98.9 277.275 98.9C277.969 98.9 278.595 99.0233 279.155 99.27C279.722 99.51 280.169 99.8633 280.495 100.33C280.829 100.797 280.995 101.357 280.995 102.01C280.995 102.623 280.845 103.153 280.545 103.6C280.252 104.047 279.835 104.417 279.295 104.71L279.215 104.16C279.682 104.247 280.069 104.433 280.375 104.72C280.682 105.007 280.909 105.35 281.055 105.75C281.202 106.15 281.275 106.557 281.275 106.97C281.275 107.657 281.095 108.25 280.735 108.75C280.382 109.243 279.899 109.627 279.285 109.9C278.679 110.167 277.995 110.3 277.235 110.3ZM286.572 110.3C285.759 110.3 285.075 110.153 284.522 109.86C283.975 109.567 283.565 109.177 283.292 108.69C283.019 108.203 282.882 107.673 282.882 107.1C282.882 106.513 282.999 106.013 283.232 105.6C283.472 105.18 283.795 104.837 284.202 104.57C284.615 104.303 285.092 104.1 285.632 103.96C286.179 103.827 286.782 103.71 287.442 103.61C288.109 103.503 288.759 103.413 289.392 103.34C290.032 103.26 290.592 103.183 291.072 103.11L290.552 103.43C290.572 102.363 290.365 101.573 289.932 101.06C289.499 100.547 288.745 100.29 287.672 100.29C286.932 100.29 286.305 100.457 285.792 100.79C285.285 101.123 284.929 101.65 284.722 102.37L283.292 101.95C283.539 100.983 284.035 100.233 284.782 99.7C285.529 99.1667 286.499 98.9 287.692 98.9C288.679 98.9 289.515 99.0867 290.202 99.46C290.895 99.8267 291.385 100.36 291.672 101.06C291.805 101.373 291.892 101.723 291.932 102.11C291.972 102.497 291.992 102.89 291.992 103.29V110H290.682V107.29L291.062 107.45C290.695 108.377 290.125 109.083 289.352 109.57C288.579 110.057 287.652 110.3 286.572 110.3ZM286.742 109.03C287.429 109.03 288.029 108.907 288.542 108.66C289.055 108.413 289.469 108.077 289.782 107.65C290.095 107.217 290.299 106.73 290.392 106.19C290.472 105.843 290.515 105.463 290.522 105.05C290.529 104.63 290.532 104.317 290.532 104.11L291.092 104.4C290.592 104.467 290.049 104.533 289.462 104.6C288.882 104.667 288.309 104.743 287.742 104.83C287.182 104.917 286.675 105.02 286.222 105.14C285.915 105.227 285.619 105.35 285.332 105.51C285.045 105.663 284.809 105.87 284.622 106.13C284.442 106.39 284.352 106.713 284.352 107.1C284.352 107.413 284.429 107.717 284.582 108.01C284.742 108.303 284.995 108.547 285.342 108.74C285.695 108.933 286.162 109.03 286.742 109.03ZM293.795 112.4V108.74C294.409 108.74 294.849 108.543 295.115 108.15C295.382 107.75 295.599 107.113 295.765 106.24C295.879 105.673 295.972 105.063 296.045 104.41C296.119 103.757 296.182 103.01 296.235 102.17C296.289 101.323 296.339 100.333 296.385 99.2H303.525V108.74H304.565V112.4H303.145V110H295.205V112.4H293.795ZM296.285 108.74H302.065V100.46H297.745C297.725 100.967 297.695 101.503 297.655 102.07C297.622 102.637 297.579 103.203 297.525 103.77C297.479 104.337 297.422 104.87 297.355 105.37C297.295 105.863 297.222 106.297 297.135 106.67C297.035 107.15 296.925 107.56 296.805 107.9C296.692 108.24 296.519 108.52 296.285 108.74Z" fill="#1F1F1F"/>
<path d="M40 166.75C40 166.331 39.6685 166 39.25 166H32.5113C32.0853 166 31.768 166.336 31.7673 166.762C31.7673 167.187 32.0853 167.5 32.5113 167.5H38.5L38.488 173.517C38.488 173.943 38.812 174.267 39.238 174.267C39.664 174.266 39.988 173.943 39.988 173.517L40 166.761C40 166.759 39.9993 166.757 39.9993 166.756C39.9993 166.754 40 166.752 40 166.75Z" fill="#121313"/>
<path d="M23.512 166H16.7732C16.771 166 16.7695 166.001 16.7673 166.001C16.7657 166.001 16.7635 166 16.762 166C16.3435 166 16.012 166.331 16.012 166.75L16 173.506C16 173.932 16.336 174.25 16.762 174.25C17.1873 174.25 17.5 173.932 17.5 173.506L17.512 167.5H23.512C23.938 167.5 24.262 167.176 24.262 166.75C24.2612 166.324 23.9372 166 23.512 166Z" fill="#121313"/>
<path d="M23.4887 188.5H17.5V182.5C17.5 182.074 17.176 181.75 16.75 181.75C16.324 181.75 16 182.074 16 182.5V189.239C16 189.241 16.0008 189.243 16.0008 189.244C16.0008 189.246 16 189.248 16 189.25C16 189.668 16.3315 190 16.75 190H23.4887C23.9147 190 24.232 189.664 24.2327 189.238C24.2327 188.813 23.9147 188.5 23.4887 188.5Z" fill="#121313"/>
<path d="M39.238 181.767C38.812 181.767 38.4992 182.085 38.5 182.511V188.5H32.5C32.074 188.5 31.75 188.824 31.75 189.25C31.75 189.676 32.074 190 32.5 190H39.2388C39.241 190 39.2425 189.999 39.244 189.999C39.2463 189.999 39.2477 190 39.25 190C39.6685 190 40 189.669 40 189.25V182.511C40 182.085 39.664 181.767 39.238 181.767Z" fill="#121313"/>
<rect x="0.5" y="152.5" width="55" height="51" rx="7.5" stroke="#CED3D6"/>
<path d="M91.7912 185V171.909H100.178V173.897H94.1626V177.451H99.6023V179.439H94.1626V185H91.7912Z" fill="#002336"/>
<rect x="68.5" y="152.5" width="55" height="51" rx="7.5" stroke="#CED3D6"/>
<path d="M160.642 170.455V185H158.881V172.017H151.551V185H149.79V170.455H160.642ZM168.4 185.227C167.415 185.227 166.551 184.993 165.807 184.524C165.069 184.055 164.491 183.4 164.074 182.557C163.662 181.714 163.456 180.729 163.456 179.602C163.456 178.466 163.662 177.474 164.074 176.626C164.491 175.779 165.069 175.121 165.807 174.652C166.551 174.183 167.415 173.949 168.4 173.949C169.384 173.949 170.246 174.183 170.985 174.652C171.728 175.121 172.306 175.779 172.718 176.626C173.134 177.474 173.343 178.466 173.343 179.602C173.343 180.729 173.134 181.714 172.718 182.557C172.306 183.4 171.728 184.055 170.985 184.524C170.246 184.993 169.384 185.227 168.4 185.227ZM168.4 183.722C169.148 183.722 169.763 183.53 170.246 183.146C170.729 182.763 171.087 182.259 171.319 181.634C171.551 181.009 171.667 180.331 171.667 179.602C171.667 178.873 171.551 178.194 171.319 177.564C171.087 176.934 170.729 176.425 170.246 176.037C169.763 175.649 169.148 175.455 168.4 175.455C167.651 175.455 167.036 175.649 166.553 176.037C166.07 176.425 165.712 176.934 165.48 177.564C165.248 178.194 165.132 178.873 165.132 179.602C165.132 180.331 165.248 181.009 165.48 181.634C165.712 182.259 166.07 182.763 166.553 183.146C167.036 183.53 167.651 183.722 168.4 183.722ZM174.935 185V183.438H175.333C175.66 183.438 175.932 183.374 176.15 183.246C176.368 183.113 176.543 182.884 176.675 182.557C176.813 182.225 176.917 181.766 176.988 181.179C177.064 180.587 177.118 179.834 177.151 178.92L177.35 174.091H184.623V185H182.947V175.653H178.941L178.771 179.545C178.733 180.44 178.652 181.229 178.529 181.911C178.411 182.588 178.228 183.156 177.982 183.615C177.741 184.074 177.419 184.42 177.016 184.652C176.614 184.884 176.11 185 175.504 185H174.935ZM194.999 178.778V180.341H188.977V178.778H194.999ZM189.374 174.091V185H187.698V174.091H189.374ZM196.278 174.091V185H194.602V174.091H196.278ZM203.771 185.227C202.786 185.227 201.922 184.993 201.178 184.524C200.44 184.055 199.862 183.4 199.445 182.557C199.033 181.714 198.827 180.729 198.827 179.602C198.827 178.466 199.033 177.474 199.445 176.626C199.862 175.779 200.44 175.121 201.178 174.652C201.922 174.183 202.786 173.949 203.771 173.949C204.755 173.949 205.617 174.183 206.356 174.652C207.099 175.121 207.677 175.779 208.089 176.626C208.505 177.474 208.714 178.466 208.714 179.602C208.714 180.729 208.505 181.714 208.089 182.557C207.677 183.4 207.099 184.055 206.356 184.524C205.617 184.993 204.755 185.227 203.771 185.227ZM203.771 183.722C204.519 183.722 205.134 183.53 205.617 183.146C206.1 182.763 206.458 182.259 206.69 181.634C206.922 181.009 207.038 180.331 207.038 179.602C207.038 178.873 206.922 178.194 206.69 177.564C206.458 176.934 206.1 176.425 205.617 176.037C205.134 175.649 204.519 175.455 203.771 175.455C203.022 175.455 202.407 175.649 201.924 176.037C201.441 176.425 201.084 176.934 200.852 177.564C200.62 178.194 200.504 178.873 200.504 179.602C200.504 180.331 200.62 181.009 200.852 181.634C201.084 182.259 201.441 182.763 201.924 183.146C202.407 183.53 203.022 183.722 203.771 183.722ZM214.88 175.511C214.502 175.516 214.12 175.613 213.737 175.803C213.358 175.992 213.041 176.243 212.785 176.555C212.534 176.863 212.409 177.206 212.409 177.585H210.761C210.761 177.112 210.875 176.657 211.102 176.222C211.329 175.786 211.635 175.398 212.018 175.057C212.406 174.716 212.847 174.446 213.339 174.247C213.836 174.048 214.35 173.949 214.88 173.949C215.875 173.949 216.717 174.2 217.409 174.702C218.105 175.204 218.633 175.866 218.993 176.69C219.357 177.514 219.539 178.409 219.539 179.375V179.773C219.539 180.734 219.357 181.629 218.993 182.457C218.633 183.281 218.105 183.944 217.409 184.446C216.717 184.948 215.875 185.199 214.88 185.199C214.085 185.199 213.377 185.024 212.757 184.673C212.136 184.318 211.649 183.845 211.294 183.253C210.939 182.661 210.761 182.003 210.761 181.278H212.409C212.409 181.69 212.525 182.076 212.757 182.436C212.993 182.791 213.299 183.08 213.673 183.303C214.052 183.52 214.454 183.632 214.88 183.636C215.515 183.632 216.055 183.433 216.5 183.04C216.945 182.647 217.283 182.154 217.515 181.562C217.747 180.971 217.863 180.374 217.863 179.773V179.375C217.863 178.759 217.747 178.158 217.515 177.571C217.288 176.979 216.952 176.489 216.507 176.101C216.066 175.713 215.524 175.516 214.88 175.511ZM218.545 178.722V180.284H213.772V178.722H218.545ZM222.093 185V174.091H223.769V178.835H224.877L228.797 174.091H230.956L226.553 179.347L231.013 185H228.854L225.275 180.398H223.769V185H222.093ZM232.835 189.091V174.091H234.454V175.824H234.653C234.776 175.634 234.947 175.393 235.164 175.099C235.387 174.801 235.704 174.536 236.116 174.304C236.533 174.067 237.096 173.949 237.806 173.949C238.725 173.949 239.535 174.179 240.235 174.638C240.936 175.097 241.483 175.748 241.876 176.591C242.269 177.434 242.466 178.428 242.466 179.574C242.466 180.729 242.269 181.731 241.876 182.578C241.483 183.421 240.939 184.074 240.243 184.538C239.547 184.998 238.744 185.227 237.835 185.227C237.134 185.227 236.573 185.111 236.152 184.879C235.73 184.643 235.406 184.375 235.179 184.077C234.951 183.774 234.776 183.523 234.653 183.324H234.511V189.091H232.835ZM234.483 179.545C234.483 180.369 234.603 181.096 234.845 181.726C235.086 182.351 235.439 182.841 235.903 183.196C236.367 183.546 236.935 183.722 237.608 183.722C238.308 183.722 238.893 183.537 239.362 183.168C239.835 182.794 240.19 182.292 240.427 181.662C240.669 181.027 240.789 180.322 240.789 179.545C240.789 178.778 240.671 178.087 240.434 177.472C240.202 176.851 239.85 176.361 239.376 176.001C238.907 175.637 238.318 175.455 237.608 175.455C236.926 175.455 236.353 175.627 235.889 175.973C235.425 176.314 235.074 176.792 234.838 177.408C234.601 178.018 234.483 178.731 234.483 179.545ZM248.233 185.256C247.541 185.256 246.914 185.125 246.35 184.865C245.787 184.6 245.34 184.219 245.008 183.722C244.677 183.22 244.511 182.614 244.511 181.903C244.511 181.278 244.634 180.772 244.88 180.384C245.127 179.991 245.456 179.683 245.868 179.46C246.279 179.238 246.734 179.072 247.231 178.963C247.733 178.849 248.237 178.759 248.744 178.693C249.407 178.608 249.944 178.544 250.356 178.501C250.773 178.454 251.076 178.376 251.265 178.267C251.459 178.158 251.556 177.969 251.556 177.699V177.642C251.556 176.941 251.365 176.397 250.981 176.009C250.602 175.62 250.027 175.426 249.255 175.426C248.455 175.426 247.828 175.601 247.373 175.952C246.919 176.302 246.599 176.676 246.414 177.074L244.824 176.506C245.108 175.843 245.486 175.327 245.96 174.957C246.438 174.583 246.959 174.323 247.522 174.176C248.091 174.025 248.649 173.949 249.199 173.949C249.549 173.949 249.951 173.991 250.406 174.077C250.865 174.157 251.308 174.325 251.734 174.581C252.165 174.837 252.522 175.223 252.806 175.739C253.091 176.255 253.233 176.946 253.233 177.812V185H251.556V183.523H251.471C251.358 183.759 251.168 184.013 250.903 184.283C250.638 184.553 250.285 184.782 249.845 184.972C249.404 185.161 248.867 185.256 248.233 185.256ZM248.488 183.75C249.151 183.75 249.71 183.62 250.164 183.359C250.624 183.099 250.969 182.763 251.201 182.351C251.438 181.939 251.556 181.506 251.556 181.051V179.517C251.485 179.602 251.329 179.68 251.088 179.751C250.851 179.818 250.576 179.877 250.264 179.929C249.956 179.976 249.655 180.019 249.362 180.057C249.073 180.09 248.839 180.118 248.659 180.142C248.223 180.199 247.816 180.291 247.437 180.419C247.063 180.542 246.76 180.729 246.528 180.98C246.301 181.226 246.187 181.562 246.187 181.989C246.187 182.571 246.403 183.011 246.833 183.31C247.269 183.603 247.821 183.75 248.488 183.75ZM263.593 178.778V180.341H257.57V178.778H263.593ZM257.968 174.091V185H256.292V174.091H257.968ZM264.871 174.091V185H263.195V174.091H264.871ZM275.234 178.778V180.341H269.211V178.778H275.234ZM269.609 174.091V185H267.933V174.091H269.609ZM276.512 174.091V185H274.836V174.091H276.512ZM281.022 178.04H284.147C285.425 178.04 286.403 178.364 287.08 179.013C287.757 179.661 288.096 180.483 288.096 181.477C288.096 182.131 287.944 182.725 287.641 183.26C287.338 183.79 286.893 184.214 286.306 184.531C285.719 184.844 284.999 185 284.147 185H279.573V174.091H281.249V183.438H284.147C284.81 183.438 285.354 183.262 285.781 182.912C286.207 182.562 286.42 182.112 286.42 181.562C286.42 180.985 286.207 180.514 285.781 180.149C285.354 179.785 284.81 179.602 284.147 179.602H281.022V178.04ZM289.829 185V174.091H291.505V185H289.829ZM296.249 182.528L301.505 174.091H303.437V185H301.761V176.562L296.533 185H294.573V174.091H296.249V182.528ZM300.397 170.455H301.96C301.96 171.222 301.694 171.849 301.164 172.337C300.634 172.824 299.914 173.068 299.005 173.068C298.11 173.068 297.397 172.824 296.867 172.337C296.342 171.849 296.079 171.222 296.079 170.455H297.641C297.641 170.824 297.743 171.148 297.947 171.428C298.155 171.707 298.508 171.847 299.005 171.847C299.502 171.847 299.857 171.707 300.07 171.428C300.288 171.148 300.397 170.824 300.397 170.455ZM312.132 189.091V174.091H313.751V175.824H313.95C314.073 175.634 314.243 175.393 314.461 175.099C314.684 174.801 315.001 174.536 315.413 174.304C315.83 174.067 316.393 173.949 317.103 173.949C318.022 173.949 318.832 174.179 319.532 174.638C320.233 175.097 320.78 175.748 321.173 176.591C321.566 177.434 321.762 178.428 321.762 179.574C321.762 180.729 321.566 181.731 321.173 182.578C320.78 183.421 320.235 184.074 319.539 184.538C318.843 184.998 318.041 185.227 317.132 185.227C316.431 185.227 315.87 185.111 315.449 184.879C315.027 184.643 314.703 184.375 314.475 184.077C314.248 183.774 314.073 183.523 313.95 183.324H313.808V189.091H312.132ZM313.779 179.545C313.779 180.369 313.9 181.096 314.142 181.726C314.383 182.351 314.736 182.841 315.2 183.196C315.664 183.546 316.232 183.722 316.904 183.722C317.605 183.722 318.19 183.537 318.659 183.168C319.132 182.794 319.487 182.292 319.724 181.662C319.966 181.027 320.086 180.322 320.086 179.545C320.086 178.778 319.968 178.087 319.731 177.472C319.499 176.851 319.146 176.361 318.673 176.001C318.204 175.637 317.615 175.455 316.904 175.455C316.223 175.455 315.65 175.627 315.186 175.973C314.722 176.314 314.371 176.792 314.135 177.408C313.898 178.018 313.779 178.731 313.779 179.545ZM328.893 185.227C327.842 185.227 326.935 184.995 326.173 184.531C325.415 184.062 324.831 183.409 324.419 182.571C324.011 181.728 323.808 180.748 323.808 179.631C323.808 178.513 324.011 177.528 324.419 176.676C324.831 175.819 325.404 175.152 326.137 174.673C326.876 174.19 327.738 173.949 328.723 173.949C329.291 173.949 329.852 174.044 330.406 174.233C330.96 174.422 331.464 174.73 331.919 175.156C332.373 175.578 332.735 176.136 333.005 176.832C333.275 177.528 333.41 178.385 333.41 179.403V180.114H325.001V178.665H331.706C331.706 178.049 331.583 177.5 331.336 177.017C331.095 176.534 330.749 176.153 330.299 175.874C329.854 175.594 329.329 175.455 328.723 175.455C328.055 175.455 327.477 175.62 326.99 175.952C326.507 176.278 326.135 176.705 325.875 177.23C325.614 177.756 325.484 178.319 325.484 178.92V179.886C325.484 180.71 325.626 181.409 325.91 181.982C326.199 182.55 326.599 182.983 327.11 183.281C327.622 183.575 328.216 183.722 328.893 183.722C329.333 183.722 329.731 183.66 330.086 183.537C330.446 183.409 330.756 183.22 331.017 182.969C331.277 182.713 331.478 182.396 331.62 182.017L333.24 182.472C333.069 183.021 332.783 183.504 332.38 183.92C331.978 184.332 331.481 184.654 330.889 184.886C330.297 185.114 329.632 185.227 328.893 185.227ZM334.985 185L339.417 179.46L335.042 174.091H337.031L340.667 178.75H341.576V174.091H343.252V178.75H344.133L347.769 174.091H349.758L345.411 179.46L349.815 185H347.798L344.104 180.312H343.252V185H341.576V180.312H340.724L337.002 185H334.985ZM353.886 182.528L359.142 174.091H361.074V185H359.397V176.562L354.17 185H352.21V174.091H353.886V182.528ZM370.109 182.727L373.916 174.091H375.507L370.791 185H369.428L364.797 174.091H366.359L370.109 182.727ZM365.82 174.091V185H364.143V174.091H365.82ZM374.399 185V174.091H376.075V185H374.399Z" fill="#1F1F1F"/>
<path d="M28.6485 244.387H27.4125C24.4745 244.387 22.0705 246.791 22.0705 249.729V258.195C22.0705 261.133 24.4745 263.537 27.4125 263.537H28.6485C31.5865 263.537 33.9905 261.133 33.9905 258.195V249.729C33.9905 246.791 31.5865 244.387 28.6485 244.387Z" fill="#D0CFCE"/>
<path d="M28.0305 247.056C27.7557 247.057 27.4924 247.166 27.2981 247.361C27.1038 247.555 26.9943 247.818 26.9935 248.093V251.01C26.9944 251.285 27.104 251.548 27.2983 251.742C27.4926 251.936 27.7558 252.046 28.0305 252.046C28.3052 252.046 28.5684 251.936 28.7627 251.742C28.957 251.548 29.0666 251.285 29.0675 251.01V248.093C29.0667 247.818 28.9572 247.555 28.7629 247.361C28.5686 247.166 28.3053 247.057 28.0305 247.056Z" fill="#3F3F3F"/>
<path d="M27.568 245.089C29.0815 245.738 30.52 246.67 30.6875 249.025C30.8815 251.753 29.8725 256.86 29.5475 259.454C29.321 261.267 28.424 262.107 27.2325 263.059C26.6325 263.539 29.866 263.48 31.1975 262.702C32.3405 262.034 33.4475 260.888 33.461 261.25L33.6225 248.348C33.6225 248.348 33.154 244.879 29.3395 244.878C29.3395 244.878 25.5135 244.681 27.568 245.089Z" fill="#9B9B9A"/>
<path fill-rule="evenodd" clip-rule="evenodd" d="M26.6465 245.173C24.4381 245.173 22.629 246.982 22.629 249.19V258.734C22.629 260.942 24.4376 262.751 26.6465 262.751H29.4145C29.4147 262.751 29.4148 262.751 29.415 262.751C31.6232 262.75 33.432 260.942 33.432 258.734V249.19C33.432 246.982 31.6234 245.173 29.4145 245.173H26.6465ZM29.4152 263.751C32.1755 263.75 34.432 261.494 34.432 258.734V249.19C34.432 246.429 32.1756 244.173 29.4145 244.173H26.6465C23.8859 244.173 21.629 246.429 21.629 249.19V258.734C21.629 261.494 23.8854 263.751 26.6465 263.751H29.4145C29.4147 263.751 29.4148 263.751 29.415 263.751" fill="black"/>
<path fill-rule="evenodd" clip-rule="evenodd" d="M28.047 238.838C28.1784 238.835 28.3108 238.884 28.4111 238.984L31.0191 241.592C31.2143 241.788 31.2143 242.104 31.0191 242.3C30.8238 242.495 30.5072 242.495 30.3119 242.3L28.047 240.035L25.7821 242.3C25.5868 242.495 25.2702 242.495 25.0749 242.3C24.8797 242.104 24.8797 241.788 25.0749 241.592L27.6829 238.984C27.7832 238.884 27.9156 238.835 28.047 238.838ZM27.9885 247.525C27.7063 247.525 27.4735 247.758 27.4735 248.04V251.062C27.474 251.198 27.5284 251.329 27.6251 251.426C27.7217 251.523 27.8525 251.577 27.9891 251.577H28.0725C28.0801 251.577 28.0876 251.578 28.0951 251.578C28.3667 251.566 28.5875 251.338 28.5875 251.063V248.04C28.5875 247.758 28.3545 247.525 28.0725 247.525H27.9885ZM28.0406 252.577C28.0511 252.578 28.0618 252.578 28.0725 252.578C28.9066 252.578 29.5875 251.898 29.5875 251.063V248.04C29.5875 247.206 28.9065 246.525 28.0725 246.525H27.9885C27.1547 246.525 26.4735 247.206 26.4735 248.04V251.062L26.4735 251.064C26.4745 251.465 26.6343 251.849 26.918 252.133C27.2016 252.417 27.5861 252.577 27.9873 252.577L27.9885 252.577H28.0406ZM25.0749 265.654C25.2702 265.459 25.5868 265.459 25.7821 265.654L28.047 267.919L30.3119 265.654C30.5072 265.459 30.8238 265.459 31.0191 265.654C31.2143 265.85 31.2143 266.166 31.0191 266.362L28.4111 268.97C28.3108 269.07 28.1784 269.119 28.047 269.116C27.9156 269.119 27.7832 269.07 27.6829 268.97L25.0749 266.362C24.8797 266.166 24.8797 265.85 25.0749 265.654Z" fill="black"/>
<rect x="0.5" y="228.5" width="55" height="51" rx="7.5" stroke="#CED3D6"/>
<path d="M81.4 262V247.6H82.87V254.4L89.44 247.6H91.32L84.61 254.55L91.87 262H89.95L82.87 254.8V262H81.4ZM96.9842 262.3C95.9109 262.3 94.9942 262.057 94.2342 261.57C93.4742 261.083 92.8909 260.41 92.4842 259.55C92.0776 258.69 91.8742 257.703 91.8742 256.59C91.8742 255.457 92.0809 254.463 92.4942 253.61C92.9076 252.757 93.4942 252.093 94.2542 251.62C95.0209 251.14 95.9309 250.9 96.9842 250.9C98.0642 250.9 98.9842 251.143 99.7442 251.63C100.511 252.11 101.094 252.78 101.494 253.64C101.901 254.493 102.104 255.477 102.104 256.59C102.104 257.723 101.901 258.72 101.494 259.58C101.088 260.433 100.501 261.1 99.7342 261.58C98.9676 262.06 98.0509 262.3 96.9842 262.3ZM96.9842 260.89C98.1842 260.89 99.0776 260.493 99.6642 259.7C100.251 258.9 100.544 257.863 100.544 256.59C100.544 255.283 100.248 254.243 99.6542 253.47C99.0676 252.697 98.1776 252.31 96.9842 252.31C96.1776 252.31 95.5109 252.493 94.9842 252.86C94.4642 253.22 94.0742 253.723 93.8142 254.37C93.5609 255.01 93.4342 255.75 93.4342 256.59C93.4342 257.89 93.7342 258.933 94.3342 259.72C94.9342 260.5 95.8176 260.89 96.9842 260.89ZM103.31 262V260.71C103.71 260.783 104.013 260.767 104.22 260.66C104.433 260.547 104.59 260.36 104.69 260.1C104.79 259.833 104.873 259.503 104.94 259.11C105.047 258.457 105.143 257.737 105.23 256.95C105.317 256.163 105.393 255.297 105.46 254.35C105.533 253.397 105.607 252.347 105.68 251.2H113.02V262H111.56V252.61H107.04C106.993 253.317 106.94 254.02 106.88 254.72C106.82 255.42 106.757 256.093 106.69 256.74C106.63 257.38 106.563 257.97 106.49 258.51C106.417 259.05 106.34 259.517 106.26 259.91C106.14 260.503 105.98 260.977 105.78 261.33C105.587 261.683 105.297 261.917 104.91 262.03C104.523 262.143 103.99 262.133 103.31 262ZM120.384 262.3C119.331 262.3 118.417 262.067 117.644 261.6C116.877 261.133 116.281 260.477 115.854 259.63C115.427 258.783 115.214 257.79 115.214 256.65C115.214 255.47 115.424 254.45 115.844 253.59C116.264 252.73 116.854 252.067 117.614 251.6C118.381 251.133 119.284 250.9 120.324 250.9C121.391 250.9 122.301 251.147 123.054 251.64C123.807 252.127 124.377 252.827 124.764 253.74C125.151 254.653 125.327 255.743 125.294 257.01H123.794V256.49C123.767 255.09 123.464 254.033 122.884 253.32C122.311 252.607 121.471 252.25 120.364 252.25C119.204 252.25 118.314 252.627 117.694 253.38C117.081 254.133 116.774 255.207 116.774 256.6C116.774 257.96 117.081 259.017 117.694 259.77C118.314 260.517 119.191 260.89 120.324 260.89C121.097 260.89 121.771 260.713 122.344 260.36C122.924 260 123.381 259.483 123.714 258.81L125.084 259.34C124.657 260.28 124.027 261.01 123.194 261.53C122.367 262.043 121.431 262.3 120.384 262.3ZM116.254 257.01V255.78H124.504V257.01H116.254ZM131.993 262.3C130.907 262.3 129.987 262.057 129.233 261.57C128.48 261.083 127.907 260.413 127.513 259.56C127.127 258.7 126.927 257.713 126.913 256.6C126.927 255.467 127.133 254.473 127.533 253.62C127.933 252.76 128.51 252.093 129.263 251.62C130.017 251.14 130.93 250.9 132.003 250.9C133.097 250.9 134.047 251.167 134.853 251.7C135.667 252.233 136.223 252.963 136.523 253.89L135.083 254.35C134.83 253.703 134.427 253.203 133.873 252.85C133.327 252.49 132.7 252.31 131.993 252.31C131.2 252.31 130.543 252.493 130.023 252.86C129.503 253.22 129.117 253.723 128.863 254.37C128.61 255.017 128.48 255.76 128.473 256.6C128.487 257.893 128.787 258.933 129.373 259.72C129.96 260.5 130.833 260.89 131.993 260.89C132.727 260.89 133.35 260.723 133.863 260.39C134.383 260.05 134.777 259.557 135.043 258.91L136.523 259.35C136.123 260.31 135.537 261.043 134.763 261.55C133.99 262.05 133.067 262.3 131.993 262.3ZM142.805 262.3C141.731 262.3 140.815 262.057 140.055 261.57C139.295 261.083 138.711 260.41 138.305 259.55C137.898 258.69 137.695 257.703 137.695 256.59C137.695 255.457 137.901 254.463 138.315 253.61C138.728 252.757 139.315 252.093 140.075 251.62C140.841 251.14 141.751 250.9 142.805 250.9C143.885 250.9 144.805 251.143 145.565 251.63C146.331 252.11 146.915 252.78 147.315 253.64C147.721 254.493 147.925 255.477 147.925 256.59C147.925 257.723 147.721 258.72 147.315 259.58C146.908 260.433 146.321 261.1 145.555 261.58C144.788 262.06 143.871 262.3 142.805 262.3ZM142.805 260.89C144.005 260.89 144.898 260.493 145.485 259.7C146.071 258.9 146.365 257.863 146.365 256.59C146.365 255.283 146.068 254.243 145.475 253.47C144.888 252.697 143.998 252.31 142.805 252.31C141.998 252.31 141.331 252.493 140.805 252.86C140.285 253.22 139.895 253.723 139.635 254.37C139.381 255.01 139.255 255.75 139.255 256.59C139.255 257.89 139.555 258.933 140.155 259.72C140.755 260.5 141.638 260.89 142.805 260.89ZM154.124 262V251.2H155.434L159.644 260.04L163.864 251.2H165.164V262H163.744V254.34L160.114 262H159.184L155.554 254.34V262H154.124ZM167.973 262L167.953 251.2H169.433V255.27H171.313C171.626 255.27 171.933 255.277 172.233 255.29C172.533 255.303 172.803 255.33 173.043 255.37C173.576 255.477 174.049 255.657 174.463 255.91C174.876 256.163 175.203 256.513 175.443 256.96C175.683 257.4 175.803 257.957 175.803 258.63C175.803 259.557 175.563 260.287 175.083 260.82C174.603 261.353 173.999 261.7 173.273 261.86C172.999 261.92 172.703 261.96 172.383 261.98C172.063 261.993 171.749 262 171.443 262H167.973ZM169.433 260.74H171.383C171.603 260.74 171.853 260.733 172.133 260.72C172.413 260.707 172.659 260.67 172.873 260.61C173.233 260.51 173.556 260.31 173.843 260.01C174.136 259.703 174.283 259.243 174.283 258.63C174.283 258.023 174.143 257.567 173.863 257.26C173.583 256.947 173.209 256.74 172.743 256.64C172.529 256.593 172.303 256.563 172.063 256.55C171.829 256.537 171.603 256.53 171.383 256.53H169.433V260.74ZM177.093 262V251.2H178.563V262H177.093ZM181.351 262V251.2H182.781V260.64H186.831V251.2H188.261V260.64H192.301V251.2H193.731V262H181.351ZM205.117 251.2V262H203.687V253.59L197.767 262H196.527V251.2H197.957V259.54L203.887 251.2H205.117ZM211.127 264.4V260.74C211.741 260.74 212.181 260.543 212.447 260.15C212.714 259.75 212.931 259.113 213.097 258.24C213.211 257.673 213.304 257.063 213.377 256.41C213.451 255.757 213.514 255.01 213.567 254.17C213.621 253.323 213.671 252.333 213.717 251.2H220.857V260.74H221.897V264.4H220.477V262H212.537V264.4H211.127ZM213.617 260.74H219.397V252.46H215.077C215.057 252.967 215.027 253.503 214.987 254.07C214.954 254.637 214.911 255.203 214.857 255.77C214.811 256.337 214.754 256.87 214.687 257.37C214.627 257.863 214.554 258.297 214.467 258.67C214.367 259.15 214.257 259.56 214.137 259.9C214.024 260.24 213.851 260.52 213.617 260.74ZM222.9 262V260.71C223.3 260.783 223.603 260.767 223.81 260.66C224.023 260.547 224.18 260.36 224.28 260.1C224.38 259.833 224.463 259.503 224.53 259.11C224.637 258.457 224.733 257.737 224.82 256.95C224.907 256.163 224.983 255.297 225.05 254.35C225.123 253.397 225.197 252.347 225.27 251.2H232.61V262H231.15V252.61H226.63C226.583 253.317 226.53 254.02 226.47 254.72C226.41 255.42 226.347 256.093 226.28 256.74C226.22 257.38 226.153 257.97 226.08 258.51C226.007 259.05 225.93 259.517 225.85 259.91C225.73 260.503 225.57 260.977 225.37 261.33C225.177 261.683 224.887 261.917 224.5 262.03C224.113 262.143 223.58 262.133 222.9 262ZM242.174 262V257.93H239.654C239.361 257.93 239.057 257.92 238.744 257.9C238.437 257.873 238.151 257.837 237.884 257.79C237.124 257.643 236.477 257.31 235.944 256.79C235.417 256.263 235.154 255.537 235.154 254.61C235.154 253.703 235.401 252.977 235.894 252.43C236.387 251.877 236.984 251.517 237.684 251.35C238.004 251.277 238.327 251.233 238.654 251.22C238.987 251.207 239.274 251.2 239.514 251.2H243.644L243.654 262H242.174ZM234.804 262L237.814 257.47H239.444L236.414 262H234.804ZM239.574 256.67H242.174V252.46H239.574C239.414 252.46 239.191 252.467 238.904 252.48C238.617 252.493 238.347 252.537 238.094 252.61C237.874 252.677 237.654 252.793 237.434 252.96C237.221 253.12 237.041 253.337 236.894 253.61C236.747 253.877 236.674 254.203 236.674 254.59C236.674 255.13 236.821 255.563 237.114 255.89C237.414 256.21 237.787 256.43 238.234 256.55C238.474 256.603 238.714 256.637 238.954 256.65C239.194 256.663 239.401 256.67 239.574 256.67ZM254.353 262.3C253.266 262.3 252.316 262.063 251.503 261.59C250.696 261.11 250.059 260.447 249.593 259.6L250.773 258.85C251.166 259.517 251.656 260.023 252.243 260.37C252.829 260.717 253.503 260.89 254.263 260.89C255.056 260.89 255.693 260.707 256.173 260.34C256.653 259.973 256.893 259.47 256.893 258.83C256.893 258.39 256.789 258.04 256.583 257.78C256.383 257.52 256.076 257.333 255.663 257.22C255.256 257.107 254.746 257.05 254.133 257.05H252.853V255.79H254.112C254.859 255.79 255.459 255.657 255.913 255.39C256.373 255.117 256.603 254.69 256.603 254.11C256.603 253.497 256.373 253.043 255.913 252.75C255.459 252.45 254.916 252.3 254.283 252.3C253.643 252.3 253.036 252.433 252.463 252.7C251.896 252.96 251.419 253.297 251.033 253.71L250.093 252.72C250.633 252.127 251.263 251.677 251.983 251.37C252.709 251.057 253.513 250.9 254.393 250.9C255.086 250.9 255.713 251.023 256.273 251.27C256.839 251.51 257.286 251.863 257.613 252.33C257.946 252.797 258.113 253.357 258.113 254.01C258.113 254.623 257.963 255.153 257.663 255.6C257.369 256.047 256.953 256.417 256.413 256.71L256.333 256.16C256.799 256.247 257.186 256.433 257.493 256.72C257.799 257.007 258.026 257.35 258.173 257.75C258.319 258.15 258.393 258.557 258.393 258.97C258.393 259.657 258.213 260.25 257.853 260.75C257.499 261.243 257.016 261.627 256.403 261.9C255.796 262.167 255.113 262.3 254.353 262.3ZM262.139 266.8L264.229 261.13L264.259 262.81L259.529 251.2H261.089L264.969 260.91H264.329L267.909 251.2H269.409L263.609 266.8H262.139ZM271.136 262V251.2H272.446L276.656 260.04L280.876 251.2H282.176V262H280.756V254.34L277.126 262H276.196L272.566 254.34V262H271.136ZM288.064 262.3C287.251 262.3 286.568 262.153 286.014 261.86C285.468 261.567 285.058 261.177 284.784 260.69C284.511 260.203 284.374 259.673 284.374 259.1C284.374 258.513 284.491 258.013 284.724 257.6C284.964 257.18 285.288 256.837 285.694 256.57C286.108 256.303 286.584 256.1 287.124 255.96C287.671 255.827 288.274 255.71 288.934 255.61C289.601 255.503 290.251 255.413 290.884 255.34C291.524 255.26 292.084 255.183 292.564 255.11L292.044 255.43C292.064 254.363 291.858 253.573 291.424 253.06C290.991 252.547 290.238 252.29 289.164 252.29C288.424 252.29 287.798 252.457 287.284 252.79C286.778 253.123 286.421 253.65 286.214 254.37L284.784 253.95C285.031 252.983 285.528 252.233 286.274 251.7C287.021 251.167 287.991 250.9 289.184 250.9C290.171 250.9 291.008 251.087 291.694 251.46C292.388 251.827 292.878 252.36 293.164 253.06C293.298 253.373 293.384 253.723 293.424 254.11C293.464 254.497 293.484 254.89 293.484 255.29V262H292.174V259.29L292.554 259.45C292.188 260.377 291.618 261.083 290.844 261.57C290.071 262.057 289.144 262.3 288.064 262.3ZM288.234 261.03C288.921 261.03 289.521 260.907 290.034 260.66C290.548 260.413 290.961 260.077 291.274 259.65C291.588 259.217 291.791 258.73 291.884 258.19C291.964 257.843 292.008 257.463 292.014 257.05C292.021 256.63 292.024 256.317 292.024 256.11L292.584 256.4C292.084 256.467 291.541 256.533 290.954 256.6C290.374 256.667 289.801 256.743 289.234 256.83C288.674 256.917 288.168 257.02 287.714 257.14C287.408 257.227 287.111 257.35 286.824 257.51C286.538 257.663 286.301 257.87 286.114 258.13C285.934 258.39 285.844 258.713 285.844 259.1C285.844 259.413 285.921 259.717 286.074 260.01C286.234 260.303 286.488 260.547 286.834 260.74C287.188 260.933 287.654 261.03 288.234 261.03Z" fill="#1F1F1F"/>
<path d="M28.6485 320.386H27.4125C24.4745 320.386 22.0705 322.79 22.0705 325.728V334.195C22.0705 337.133 24.4745 339.537 27.4125 339.537H28.6485C31.5865 339.537 33.9905 337.133 33.9905 334.195V325.728C33.9905 322.79 31.5865 320.386 28.6485 320.386Z" fill="#D0CFCE"/>
<path d="M27.8355 326.867V321.294H26.2809C24.0185 321.294 22.6906 323.729 22.6906 325L22.6906 326.867C22.6906 328.134 22.6658 329 25 329C27.3342 329 27.8355 328.273 27.8355 326.867Z" fill="#4A4A4A" stroke="#4A4A4A" stroke-width="0.25"/>
<path d="M28.0305 323.056C27.7557 323.057 27.4924 323.166 27.2981 323.361C27.1038 323.555 26.9943 323.818 26.9935 324.093V327.01C26.9944 327.285 27.104 327.548 27.2983 327.742C27.4926 327.936 27.7558 328.046 28.0305 328.046C28.3052 328.046 28.5684 327.936 28.7627 327.742C28.957 327.548 29.0666 327.285 29.0675 327.01V324.093C29.0667 323.818 28.9572 323.555 28.7629 323.361C28.5686 323.166 28.3053 323.057 28.0305 323.056Z" fill="#3F3F3F"/>
<path d="M27.568 321.089C29.0815 321.738 30.52 322.67 30.6875 325.025C30.8815 327.753 29.8725 332.86 29.5475 335.454C29.321 337.267 28.424 338.107 27.2325 339.059C26.6325 339.539 29.866 339.48 31.1975 338.702C32.3405 338.034 33.4475 336.888 33.461 337.25L33.6225 324.348C33.6225 324.348 33.154 320.879 29.3395 320.878C29.3395 320.878 25.5135 320.681 27.568 321.089Z" fill="#9B9B9A"/>
<path fill-rule="evenodd" clip-rule="evenodd" d="M26.6465 321.173C24.4381 321.173 22.629 322.982 22.629 325.19V334.734C22.629 336.942 24.4376 338.751 26.6465 338.751H29.4145C29.4147 338.751 29.4148 338.751 29.415 338.751C31.6232 338.75 33.432 336.942 33.432 334.734V325.19C33.432 322.982 31.6234 321.173 29.4145 321.173H26.6465ZM29.4152 339.751C32.1755 339.75 34.432 337.494 34.432 334.734V325.19C34.432 322.429 32.1756 320.173 29.4145 320.173H26.6465C23.8859 320.173 21.629 322.429 21.629 325.19V334.734C21.629 337.494 23.8854 339.751 26.6465 339.751H29.4145C29.4147 339.751 29.4148 339.751 29.415 339.751" fill="black"/>
<path fill-rule="evenodd" clip-rule="evenodd" d="M27.9885 323.526C27.7063 323.526 27.4735 323.758 27.4735 324.04V327.062C27.474 327.198 27.5285 327.329 27.6251 327.426C27.7217 327.523 27.8526 327.577 27.9892 327.578H28.0725C28.0801 327.578 28.0876 327.578 28.0951 327.578C28.3667 327.566 28.5875 327.338 28.5875 327.064V324.041C28.5875 323.758 28.3545 323.526 28.0725 323.526H27.9885ZM28.0406 328.578C28.0512 328.578 28.0618 328.579 28.0725 328.579C28.9067 328.579 29.5875 327.898 29.5875 327.064V324.041C29.5875 323.206 28.9065 322.526 28.0725 322.526H27.9885C27.1547 322.526 26.4735 323.206 26.4735 324.04V327.063L26.4735 327.064C26.4745 327.465 26.6343 327.849 26.918 328.133C27.2016 328.417 27.5861 328.577 27.9873 328.578L27.9885 328.578H28.0406ZM17.8695 323.505C18.0648 323.7 18.0648 324.017 17.8696 324.212L15.605 326.477L17.8696 328.742C18.0648 328.937 18.0648 329.254 17.8695 329.449C17.6742 329.644 17.3577 329.644 17.1624 329.449L14.5549 326.841C14.4546 326.741 14.4059 326.608 14.4086 326.477C14.4059 326.346 14.4546 326.213 14.5549 326.113L17.1624 323.505C17.3577 323.31 17.6742 323.31 17.8695 323.505ZM38.2245 323.505C38.4197 323.31 38.7363 323.31 38.9316 323.505L41.5396 326.113C41.6399 326.213 41.6886 326.346 41.6859 326.477C41.6886 326.608 41.6399 326.741 41.5396 326.841L38.9316 329.449C38.7363 329.644 38.4197 329.644 38.2245 329.449C38.0292 329.254 38.0292 328.937 38.2245 328.742L40.4894 326.477L38.2245 324.212C38.0292 324.017 38.0292 323.7 38.2245 323.505Z" fill="black"/>
<rect x="0.5" y="304.5" width="55" height="51" rx="7.5" stroke="#CED3D6"/>
<path d="M81.4 338V323.6H82.87V330.09H90.83V323.6H92.29V338H90.83V331.5H82.87V338H81.4ZM98.1814 338.3C97.3681 338.3 96.6847 338.153 96.1314 337.86C95.5847 337.567 95.1747 337.177 94.9014 336.69C94.6281 336.203 94.4914 335.673 94.4914 335.1C94.4914 334.513 94.6081 334.013 94.8414 333.6C95.0814 333.18 95.4047 332.837 95.8114 332.57C96.2247 332.303 96.7014 332.1 97.2414 331.96C97.7881 331.827 98.3914 331.71 99.0514 331.61C99.7181 331.503 100.368 331.413 101.001 331.34C101.641 331.26 102.201 331.183 102.681 331.11L102.161 331.43C102.181 330.363 101.975 329.573 101.541 329.06C101.108 328.547 100.355 328.29 99.2814 328.29C98.5414 328.29 97.9147 328.457 97.4014 328.79C96.8947 329.123 96.5381 329.65 96.3314 330.37L94.9014 329.95C95.1481 328.983 95.6447 328.233 96.3914 327.7C97.1381 327.167 98.1081 326.9 99.3014 326.9C100.288 326.9 101.125 327.087 101.811 327.46C102.505 327.827 102.995 328.36 103.281 329.06C103.415 329.373 103.501 329.723 103.541 330.11C103.581 330.497 103.601 330.89 103.601 331.29V338H102.291V335.29L102.671 335.45C102.305 336.377 101.735 337.083 100.961 337.57C100.188 338.057 99.2614 338.3 98.1814 338.3ZM98.3514 337.03C99.0381 337.03 99.6381 336.907 100.151 336.66C100.665 336.413 101.078 336.077 101.391 335.65C101.705 335.217 101.908 334.73 102.001 334.19C102.081 333.843 102.125 333.463 102.131 333.05C102.138 332.63 102.141 332.317 102.141 332.11L102.701 332.4C102.201 332.467 101.658 332.533 101.071 332.6C100.491 332.667 99.9181 332.743 99.3514 332.83C98.7914 332.917 98.2847 333.02 97.8314 333.14C97.5247 333.227 97.2281 333.35 96.9414 333.51C96.6547 333.663 96.4181 333.87 96.2314 334.13C96.0514 334.39 95.9614 334.713 95.9614 335.1C95.9614 335.413 96.0381 335.717 96.1914 336.01C96.3514 336.303 96.6047 336.547 96.9514 336.74C97.3047 336.933 97.7714 337.03 98.3514 337.03ZM105.005 338L109.565 332.6L105.195 327.2H106.855L111.115 332.53V327.2H112.475V332.53L116.735 327.2H118.385L114.015 332.6L118.575 338H116.865L112.475 332.67V338H111.115V332.67L106.715 338H105.005ZM120.16 338V327.2H121.47L125.68 336.04L129.9 327.2H131.2V338H129.78V330.34L126.15 338H125.22L121.59 330.34V338H120.16ZM142.578 327.2V338H141.148V329.59L135.228 338H133.988V327.2H135.418V335.54L141.348 327.2H142.578ZM148.314 338V328.56H144.484V327.2H153.614V328.56H149.784V338H148.314ZM160.091 338.3C159.038 338.3 158.124 338.067 157.351 337.6C156.584 337.133 155.988 336.477 155.561 335.63C155.134 334.783 154.921 333.79 154.921 332.65C154.921 331.47 155.131 330.45 155.551 329.59C155.971 328.73 156.561 328.067 157.321 327.6C158.088 327.133 158.991 326.9 160.031 326.9C161.098 326.9 162.008 327.147 162.761 327.64C163.514 328.127 164.084 328.827 164.471 329.74C164.858 330.653 165.034 331.743 165.001 333.01H163.501V332.49C163.474 331.09 163.171 330.033 162.591 329.32C162.018 328.607 161.178 328.25 160.071 328.25C158.911 328.25 158.021 328.627 157.401 329.38C156.788 330.133 156.481 331.207 156.481 332.6C156.481 333.96 156.788 335.017 157.401 335.77C158.021 336.517 158.898 336.89 160.031 336.89C160.804 336.89 161.478 336.713 162.051 336.36C162.631 336 163.088 335.483 163.421 334.81L164.791 335.34C164.364 336.28 163.734 337.01 162.901 337.53C162.074 338.043 161.138 338.3 160.091 338.3ZM155.961 333.01V331.78H164.211V333.01H155.961ZM179.804 327.2V338H178.374V329.59L172.454 338H171.214V327.2H172.644V335.54L178.574 327.2H179.804ZM186.605 338V327.2H195.195V338H193.725V328.61H188.075V338H186.605ZM202.572 338.3C201.518 338.3 200.605 338.067 199.832 337.6C199.065 337.133 198.468 336.477 198.042 335.63C197.615 334.783 197.402 333.79 197.402 332.65C197.402 331.47 197.612 330.45 198.032 329.59C198.452 328.73 199.042 328.067 199.802 327.6C200.568 327.133 201.472 326.9 202.512 326.9C203.578 326.9 204.488 327.147 205.242 327.64C205.995 328.127 206.565 328.827 206.952 329.74C207.338 330.653 207.515 331.743 207.482 333.01H205.982V332.49C205.955 331.09 205.652 330.033 205.072 329.32C204.498 328.607 203.658 328.25 202.552 328.25C201.392 328.25 200.502 328.627 199.882 329.38C199.268 330.133 198.962 331.207 198.962 332.6C198.962 333.96 199.268 335.017 199.882 335.77C200.502 336.517 201.378 336.89 202.512 336.89C203.285 336.89 203.958 336.713 204.532 336.36C205.112 336 205.568 335.483 205.902 334.81L207.272 335.34C206.845 336.28 206.215 337.01 205.382 337.53C204.555 338.043 203.618 338.3 202.572 338.3ZM198.442 333.01V331.78H206.692V333.01H198.442ZM214.551 338.3C213.557 338.3 212.717 338.05 212.031 337.55C211.344 337.043 210.824 336.36 210.471 335.5C210.117 334.633 209.941 333.663 209.941 332.59C209.941 331.497 210.117 330.523 210.471 329.67C210.831 328.81 211.357 328.133 212.051 327.64C212.744 327.147 213.597 326.9 214.611 326.9C215.597 326.9 216.444 327.15 217.151 327.65C217.857 328.15 218.397 328.83 218.771 329.69C219.151 330.55 219.341 331.517 219.341 332.59C219.341 333.67 219.151 334.64 218.771 335.5C218.391 336.36 217.844 337.043 217.131 337.55C216.417 338.05 215.557 338.3 214.551 338.3ZM209.691 342.8V327.2H211.011V335.33H211.171V342.8H209.691ZM214.401 336.93C215.154 336.93 215.781 336.74 216.281 336.36C216.781 335.98 217.154 335.463 217.401 334.81C217.654 334.15 217.781 333.41 217.781 332.59C217.781 331.777 217.657 331.043 217.411 330.39C217.164 329.737 216.787 329.22 216.281 328.84C215.781 328.46 215.144 328.27 214.371 328.27C213.617 328.27 212.991 328.453 212.491 328.82C211.997 329.187 211.627 329.697 211.381 330.35C211.134 330.997 211.011 331.743 211.011 332.59C211.011 333.423 211.134 334.17 211.381 334.83C211.627 335.483 212.001 335.997 212.501 336.37C213.001 336.743 213.634 336.93 214.401 336.93ZM226.107 338.3C225.053 338.3 224.14 338.067 223.367 337.6C222.6 337.133 222.003 336.477 221.577 335.63C221.15 334.783 220.937 333.79 220.937 332.65C220.937 331.47 221.147 330.45 221.567 329.59C221.987 328.73 222.577 328.067 223.337 327.6C224.103 327.133 225.007 326.9 226.047 326.9C227.113 326.9 228.023 327.147 228.777 327.64C229.53 328.127 230.1 328.827 230.487 329.74C230.873 330.653 231.05 331.743 231.017 333.01H229.517V332.49C229.49 331.09 229.187 330.033 228.607 329.32C228.033 328.607 227.193 328.25 226.087 328.25C224.927 328.25 224.037 328.627 223.417 329.38C222.803 330.133 222.497 331.207 222.497 332.6C222.497 333.96 222.803 335.017 223.417 335.77C224.037 336.517 224.913 336.89 226.047 336.89C226.82 336.89 227.493 336.713 228.067 336.36C228.647 336 229.103 335.483 229.437 334.81L230.807 335.34C230.38 336.28 229.75 337.01 228.917 337.53C228.09 338.043 227.153 338.3 226.107 338.3ZM221.977 333.01V331.78H230.227V333.01H221.977ZM236.029 338V328.56H232.199V327.2H241.329V328.56H237.499V338H236.029ZM245.916 338.3C245.102 338.3 244.419 338.153 243.866 337.86C243.319 337.567 242.909 337.177 242.636 336.69C242.362 336.203 242.226 335.673 242.226 335.1C242.226 334.513 242.342 334.013 242.576 333.6C242.816 333.18 243.139 332.837 243.546 332.57C243.959 332.303 244.436 332.1 244.976 331.96C245.522 331.827 246.126 331.71 246.786 331.61C247.452 331.503 248.102 331.413 248.736 331.34C249.376 331.26 249.936 331.183 250.416 331.11L249.896 331.43C249.916 330.363 249.709 329.573 249.276 329.06C248.842 328.547 248.089 328.29 247.016 328.29C246.276 328.29 245.649 328.457 245.136 328.79C244.629 329.123 244.272 329.65 244.066 330.37L242.636 329.95C242.882 328.983 243.379 328.233 244.126 327.7C244.872 327.167 245.842 326.9 247.036 326.9C248.022 326.9 248.859 327.087 249.546 327.46C250.239 327.827 250.729 328.36 251.016 329.06C251.149 329.373 251.236 329.723 251.276 330.11C251.316 330.497 251.336 330.89 251.336 331.29V338H250.026V335.29L250.406 335.45C250.039 336.377 249.469 337.083 248.696 337.57C247.922 338.057 246.996 338.3 245.916 338.3ZM246.086 337.03C246.772 337.03 247.372 336.907 247.886 336.66C248.399 336.413 248.812 336.077 249.126 335.65C249.439 335.217 249.642 334.73 249.736 334.19C249.816 333.843 249.859 333.463 249.866 333.05C249.872 332.63 249.876 332.317 249.876 332.11L250.436 332.4C249.936 332.467 249.392 332.533 248.806 332.6C248.226 332.667 247.652 332.743 247.086 332.83C246.526 332.917 246.019 333.02 245.566 333.14C245.259 333.227 244.962 333.35 244.676 333.51C244.389 333.663 244.152 333.87 243.966 334.13C243.786 334.39 243.696 334.713 243.696 335.1C243.696 335.413 243.772 335.717 243.926 336.01C244.086 336.303 244.339 336.547 244.686 336.74C245.039 336.933 245.506 337.03 246.086 337.03ZM266.249 339.87V338H253.929V327.2H255.359V336.64H259.409V327.2H260.839V336.64H264.879V327.2H266.309V336.64H267.719V339.87H266.249ZM277.89 327.2V338H276.46V329.59L270.54 338H269.3V327.2H270.73V335.54L276.66 327.2H277.89ZM283.627 338V328.56H279.797V327.2H288.927V328.56H285.097V338H283.627ZM295.404 338.3C294.35 338.3 293.437 338.067 292.664 337.6C291.897 337.133 291.3 336.477 290.874 335.63C290.447 334.783 290.234 333.79 290.234 332.65C290.234 331.47 290.444 330.45 290.864 329.59C291.284 328.73 291.874 328.067 292.634 327.6C293.4 327.133 294.304 326.9 295.344 326.9C296.41 326.9 297.32 327.147 298.074 327.64C298.827 328.127 299.397 328.827 299.784 329.74C300.17 330.653 300.347 331.743 300.314 333.01H298.814V332.49C298.787 331.09 298.484 330.033 297.904 329.32C297.33 328.607 296.49 328.25 295.384 328.25C294.224 328.25 293.334 328.627 292.714 329.38C292.1 330.133 291.794 331.207 291.794 332.6C291.794 333.96 292.1 335.017 292.714 335.77C293.334 336.517 294.21 336.89 295.344 336.89C296.117 336.89 296.79 336.713 297.364 336.36C297.944 336 298.4 335.483 298.734 334.81L300.104 335.34C299.677 336.28 299.047 337.01 298.214 337.53C297.387 338.043 296.45 338.3 295.404 338.3ZM291.274 333.01V331.78H299.524V333.01H291.274ZM305.737 340.4V336.74C306.35 336.74 306.79 336.543 307.057 336.15C307.323 335.75 307.54 335.113 307.707 334.24C307.82 333.673 307.913 333.063 307.987 332.41C308.06 331.757 308.123 331.01 308.177 330.17C308.23 329.323 308.28 328.333 308.327 327.2H315.467V336.74H316.507V340.4H315.087V338H307.147V340.4H305.737ZM308.227 336.74H314.007V328.46H309.687C309.667 328.967 309.637 329.503 309.597 330.07C309.563 330.637 309.52 331.203 309.467 331.77C309.42 332.337 309.363 332.87 309.297 333.37C309.237 333.863 309.163 334.297 309.077 334.67C308.977 335.15 308.867 335.56 308.747 335.9C308.633 336.24 308.46 336.52 308.227 336.74ZM317.509 338V336.71C317.909 336.783 318.213 336.767 318.419 336.66C318.633 336.547 318.789 336.36 318.889 336.1C318.989 335.833 319.073 335.503 319.139 335.11C319.246 334.457 319.343 333.737 319.429 332.95C319.516 332.163 319.593 331.297 319.659 330.35C319.733 329.397 319.806 328.347 319.879 327.2H327.219V338H325.759V328.61H321.239C321.193 329.317 321.139 330.02 321.079 330.72C321.019 331.42 320.956 332.093 320.889 332.74C320.829 333.38 320.763 333.97 320.689 334.51C320.616 335.05 320.539 335.517 320.459 335.91C320.339 336.503 320.179 336.977 319.979 337.33C319.786 337.683 319.496 337.917 319.109 338.03C318.723 338.143 318.189 338.133 317.509 338ZM336.783 338V333.93H334.263C333.97 333.93 333.667 333.92 333.353 333.9C333.047 333.873 332.76 333.837 332.493 333.79C331.733 333.643 331.087 333.31 330.553 332.79C330.027 332.263 329.763 331.537 329.763 330.61C329.763 329.703 330.01 328.977 330.503 328.43C330.997 327.877 331.593 327.517 332.293 327.35C332.613 327.277 332.937 327.233 333.263 327.22C333.597 327.207 333.883 327.2 334.123 327.2H338.253L338.263 338H336.783ZM329.413 338L332.423 333.47H334.053L331.023 338H329.413ZM334.183 332.67H336.783V328.46H334.183C334.023 328.46 333.8 328.467 333.513 328.48C333.227 328.493 332.957 328.537 332.703 328.61C332.483 328.677 332.263 328.793 332.043 328.96C331.83 329.12 331.65 329.337 331.503 329.61C331.357 329.877 331.283 330.203 331.283 330.59C331.283 331.13 331.43 331.563 331.723 331.89C332.023 332.21 332.397 332.43 332.843 332.55C333.083 332.603 333.323 332.637 333.563 332.65C333.803 332.663 334.01 332.67 334.183 332.67ZM349.582 338.3C348.509 338.3 347.592 338.057 346.832 337.57C346.072 337.083 345.489 336.41 345.082 335.55C344.675 334.69 344.472 333.703 344.472 332.59C344.472 331.457 344.679 330.463 345.092 329.61C345.505 328.757 346.092 328.093 346.852 327.62C347.619 327.14 348.529 326.9 349.582 326.9C350.662 326.9 351.582 327.143 352.342 327.63C353.109 328.11 353.692 328.78 354.092 329.64C354.499 330.493 354.702 331.477 354.702 332.59C354.702 333.723 354.499 334.72 354.092 335.58C353.685 336.433 353.099 337.1 352.332 337.58C351.565 338.06 350.649 338.3 349.582 338.3ZM349.582 336.89C350.782 336.89 351.675 336.493 352.262 335.7C352.849 334.9 353.142 333.863 353.142 332.59C353.142 331.283 352.845 330.243 352.252 329.47C351.665 328.697 350.775 328.31 349.582 328.31C348.775 328.31 348.109 328.493 347.582 328.86C347.062 329.22 346.672 329.723 346.412 330.37C346.159 331.01 346.032 331.75 346.032 332.59C346.032 333.89 346.332 334.933 346.932 335.72C347.532 336.5 348.415 336.89 349.582 336.89ZM361.238 338.31C360.231 338.303 359.368 338.083 358.648 337.65C357.928 337.217 357.368 336.57 356.968 335.71C356.574 334.85 356.361 333.777 356.328 332.49C356.308 331.923 356.321 331.307 356.368 330.64C356.414 329.967 356.488 329.327 356.588 328.72C356.688 328.113 356.808 327.62 356.948 327.24C357.121 326.747 357.368 326.287 357.688 325.86C358.014 325.427 358.391 325.073 358.818 324.8C359.231 324.52 359.698 324.303 360.218 324.15C360.744 323.99 361.291 323.867 361.858 323.78C362.431 323.693 362.998 323.617 363.558 323.55C364.124 323.483 364.648 323.4 365.128 323.3L365.288 324.63C364.921 324.703 364.488 324.77 363.988 324.83C363.488 324.89 362.964 324.963 362.418 325.05C361.871 325.13 361.348 325.24 360.848 325.38C360.348 325.52 359.921 325.703 359.568 325.93C359.028 326.257 358.611 326.75 358.318 327.41C358.031 328.07 357.854 328.827 357.788 329.68C358.201 329.033 358.748 328.547 359.428 328.22C360.114 327.893 360.858 327.73 361.658 327.73C362.631 327.73 363.468 327.953 364.168 328.4C364.874 328.847 365.418 329.467 365.798 330.26C366.178 331.053 366.368 331.963 366.368 332.99C366.368 334.063 366.158 335 365.738 335.8C365.324 336.6 364.734 337.22 363.968 337.66C363.201 338.093 362.291 338.31 361.238 338.31ZM361.348 336.9C362.481 336.9 363.341 336.547 363.928 335.84C364.521 335.133 364.818 334.193 364.818 333.02C364.818 331.82 364.511 330.873 363.898 330.18C363.291 329.487 362.434 329.14 361.328 329.14C360.221 329.14 359.371 329.487 358.778 330.18C358.184 330.873 357.888 331.82 357.888 333.02C357.888 334.22 358.184 335.167 358.778 335.86C359.371 336.553 360.228 336.9 361.348 336.9ZM372.263 338.3C371.176 338.3 370.226 338.063 369.413 337.59C368.606 337.11 367.969 336.447 367.503 335.6L368.683 334.85C369.076 335.517 369.566 336.023 370.153 336.37C370.739 336.717 371.413 336.89 372.173 336.89C372.966 336.89 373.603 336.707 374.083 336.34C374.563 335.973 374.803 335.47 374.803 334.83C374.803 334.39 374.699 334.04 374.493 333.78C374.293 333.52 373.986 333.333 373.573 333.22C373.166 333.107 372.656 333.05 372.043 333.05H370.763V331.79H372.023C372.769 331.79 373.369 331.657 373.823 331.39C374.283 331.117 374.513 330.69 374.513 330.11C374.513 329.497 374.283 329.043 373.823 328.75C373.369 328.45 372.826 328.3 372.193 328.3C371.553 328.3 370.946 328.433 370.373 328.7C369.806 328.96 369.329 329.297 368.943 329.71L368.003 328.72C368.543 328.127 369.173 327.677 369.893 327.37C370.619 327.057 371.423 326.9 372.303 326.9C372.996 326.9 373.623 327.023 374.183 327.27C374.749 327.51 375.196 327.863 375.523 328.33C375.856 328.797 376.023 329.357 376.023 330.01C376.023 330.623 375.873 331.153 375.573 331.6C375.279 332.047 374.863 332.417 374.323 332.71L374.243 332.16C374.709 332.247 375.096 332.433 375.403 332.72C375.709 333.007 375.936 333.35 376.083 333.75C376.229 334.15 376.303 334.557 376.303 334.97C376.303 335.657 376.123 336.25 375.763 336.75C375.409 337.243 374.926 337.627 374.313 337.9C373.706 338.167 373.023 338.3 372.263 338.3ZM383.019 338.3C381.946 338.3 381.029 338.057 380.269 337.57C379.509 337.083 378.926 336.41 378.519 335.55C378.113 334.69 377.909 333.703 377.909 332.59C377.909 331.457 378.116 330.463 378.529 329.61C378.943 328.757 379.529 328.093 380.289 327.62C381.056 327.14 381.966 326.9 383.019 326.9C384.099 326.9 385.019 327.143 385.779 327.63C386.546 328.11 387.129 328.78 387.529 329.64C387.936 330.493 388.139 331.477 388.139 332.59C388.139 333.723 387.936 334.72 387.529 335.58C387.123 336.433 386.536 337.1 385.769 337.58C385.003 338.06 384.086 338.3 383.019 338.3ZM383.019 336.89C384.219 336.89 385.113 336.493 385.699 335.7C386.286 334.9 386.579 333.863 386.579 332.59C386.579 331.283 386.283 330.243 385.689 329.47C385.103 328.697 384.213 328.31 383.019 328.31C382.213 328.31 381.546 328.493 381.019 328.86C380.499 329.22 380.109 329.723 379.849 330.37C379.596 331.01 379.469 331.75 379.469 332.59C379.469 333.89 379.769 334.933 380.369 335.72C380.969 336.5 381.853 336.89 383.019 336.89ZM395.195 338.3C394.202 338.3 393.362 338.05 392.675 337.55C391.989 337.043 391.469 336.36 391.115 335.5C390.762 334.633 390.585 333.663 390.585 332.59C390.585 331.497 390.762 330.523 391.115 329.67C391.475 328.81 392.002 328.133 392.695 327.64C393.389 327.147 394.242 326.9 395.255 326.9C396.242 326.9 397.089 327.15 397.795 327.65C398.502 328.15 399.042 328.83 399.415 329.69C399.795 330.55 399.985 331.517 399.985 332.59C399.985 333.67 399.795 334.64 399.415 335.5C399.035 336.36 398.489 337.043 397.775 337.55C397.062 338.05 396.202 338.3 395.195 338.3ZM390.335 342.8V327.2H391.655V335.33H391.815V342.8H390.335ZM395.045 336.93C395.799 336.93 396.425 336.74 396.925 336.36C397.425 335.98 397.799 335.463 398.045 334.81C398.299 334.15 398.425 333.41 398.425 332.59C398.425 331.777 398.302 331.043 398.055 330.39C397.809 329.737 397.432 329.22 396.925 328.84C396.425 328.46 395.789 328.27 395.015 328.27C394.262 328.27 393.635 328.453 393.135 328.82C392.642 329.187 392.272 329.697 392.025 330.35C391.779 330.997 391.655 331.743 391.655 332.59C391.655 333.423 391.779 334.17 392.025 334.83C392.272 335.483 392.645 335.997 393.145 336.37C393.645 336.743 394.279 336.93 395.045 336.93ZM405.271 338.3C404.458 338.3 403.775 338.153 403.221 337.86C402.675 337.567 402.265 337.177 401.991 336.69C401.718 336.203 401.581 335.673 401.581 335.1C401.581 334.513 401.698 334.013 401.931 333.6C402.171 333.18 402.495 332.837 402.901 332.57C403.315 332.303 403.791 332.1 404.331 331.96C404.878 331.827 405.481 331.71 406.141 331.61C406.808 331.503 407.458 331.413 408.091 331.34C408.731 331.26 409.291 331.183 409.771 331.11L409.251 331.43C409.271 330.363 409.065 329.573 408.631 329.06C408.198 328.547 407.445 328.29 406.371 328.29C405.631 328.29 405.005 328.457 404.491 328.79C403.985 329.123 403.628 329.65 403.421 330.37L401.991 329.95C402.238 328.983 402.735 328.233 403.481 327.7C404.228 327.167 405.198 326.9 406.391 326.9C407.378 326.9 408.215 327.087 408.901 327.46C409.595 327.827 410.085 328.36 410.371 329.06C410.505 329.373 410.591 329.723 410.631 330.11C410.671 330.497 410.691 330.89 410.691 331.29V338H409.381V335.29L409.761 335.45C409.395 336.377 408.825 337.083 408.051 337.57C407.278 338.057 406.351 338.3 405.271 338.3ZM405.441 337.03C406.128 337.03 406.728 336.907 407.241 336.66C407.755 336.413 408.168 336.077 408.481 335.65C408.795 335.217 408.998 334.73 409.091 334.19C409.171 333.843 409.215 333.463 409.221 333.05C409.228 332.63 409.231 332.317 409.231 332.11L409.791 332.4C409.291 332.467 408.748 332.533 408.161 332.6C407.581 332.667 407.008 332.743 406.441 332.83C405.881 332.917 405.375 333.02 404.921 333.14C404.615 333.227 404.318 333.35 404.031 333.51C403.745 333.663 403.508 333.87 403.321 334.13C403.141 334.39 403.051 334.713 403.051 335.1C403.051 335.413 403.128 335.717 403.281 336.01C403.441 336.303 403.695 336.547 404.041 336.74C404.395 336.933 404.861 337.03 405.441 337.03Z" fill="#1F1F1F"/>
</svg>
